<svg xmlns="http://www.w3.org/2000/svg" width="155" height="156" viewBox="0 0 155 156">
  <g fill="#FFFFFF" fill-rule="evenodd" transform="translate(0 -1)">
    <path d="M105.121404,90.3813087 C105.395013,89.6467435 105.637622,88.8973522 105.851926,88.1344826 L124.652752,94.6337 C127.365926,85.8512652 127.67323,76.2210478 124.997796,66.7202217 C124.144622,63.6997435 123.027274,60.8275261 121.679448,58.1157 L130.317665,54.2973087 C127.241926,47.9935261 122.996274,42.1331783 117.553752,37.0693957 C112.105839,31.9961783 105.944926,28.1697 99.4295348,25.5481783 L89.4866217,53.1799609 C88.2007957,52.6044391 86.8637522,52.1178739 85.4808826,51.7283522 L90.9395783,32.6040478 C84.114187,30.6631783 76.8035783,30.176613 69.4606217,31.3923522 L70.7612739,39.6585696 C69.4390565,39.8782652 68.1222304,40.1667 66.8134913,40.5198304 L63.0328391,23.1032217 C52.4241,25.7773087 42.4326652,31.4260478 34.4198391,40.0305696 C26.4110565,48.6337435 21.4847522,59.0012217 19.572187,69.7743957 L28.934187,71.1181783 C28.6956217,72.4040043 28.4907522,73.6979174 28.3546217,75.0066565 L36.730013,75.5956565 C36.389013,78.6444391 36.3755348,81.7417435 36.7327087,84.8336565 L61.6068391,81.1055696 C61.5246217,79.7752652 61.6149261,78.4355261 61.8642739,77.1213957 C61.8912304,76.986613 61.9208826,76.8518304 61.9505348,76.7183957 C61.980187,76.5809174 62.0192739,76.444787 62.0516217,76.3073087 C62.1419261,75.9393522 62.2443609,75.5740913 62.3602739,75.2128739 C62.4128391,75.0484391 62.4694478,74.8853522 62.5287522,74.723613 C62.662187,74.351613 62.8117957,73.9850043 62.9735348,73.623787 C63.0328391,73.4917 63.0881,73.3582652 63.1501,73.2275261 C63.375187,72.7625261 63.6204913,72.3042652 63.8941,71.8581348 C63.9277957,71.8028739 63.9628391,71.7489609 63.9965348,71.6937 C64.2863174,71.2340913 64.599013,70.7812217 64.940013,70.3445261 C64.9993174,70.2677 65.0572739,70.1895261 65.1192739,70.1113522 C65.3484043,69.8296565 65.5856217,69.5520043 65.8376652,69.2810913 C67.5480565,67.4426565 69.5967522,66.1244826 71.7937087,65.2861348 C72.1967087,65.1324826 72.5997087,64.9801783 73.0121435,64.8602217 C73.0741435,64.8427 73.1374913,64.8292217 73.1994913,64.8103522 C73.6847087,64.6755696 74.1726217,64.5650478 74.6659261,64.4774391 C74.7117522,64.4680043 74.7575783,64.4585696 74.8034043,64.4504826 C74.9961435,64.416787 75.1929261,64.4046565 75.3883609,64.3790478 C75.7185783,64.3359174 76.0487957,64.2900913 76.3803609,64.2671783 C76.472013,64.2604391 76.565013,64.2550478 76.6553174,64.2510043 C76.9167957,64.2375261 77.1782739,64.2442652 77.4397522,64.2442652 C77.7052739,64.2442652 77.9721435,64.230787 78.239013,64.2429174 C78.2686652,64.2442652 78.2996652,64.2483087 78.3293174,64.2496565 C78.8320565,64.2779609 79.3347957,64.3318739 79.8348391,64.4073522 C79.9157087,64.4194826 79.9965783,64.4289174 80.0774478,64.4423957 C80.6017522,64.5300043 81.1193174,64.6445696 81.6355348,64.7833957 C82.8297087,65.1082217 83.9942304,65.5732217 85.1034913,66.183787 C85.2531,66.2646565 85.400013,66.3482217 85.5469261,66.4344826 C85.710013,66.5315261 85.8704043,66.632613 86.0307957,66.7350478 C86.3421435,66.9345261 86.6481,67.1474826 86.9486652,67.3698739 C86.9594478,67.3793087 86.9729261,67.3873957 86.9850565,67.3981783 C87.0713174,67.4628739 87.1589261,67.5275696 87.245187,67.593613 C87.6050565,67.8753087 87.9595348,68.1664391 88.3005348,68.4831783 C88.6833174,68.8403522 89.0364478,69.2177435 89.3761,69.6018739 C89.4529261,69.6881348 89.5311,69.7743957 89.6052304,69.8633522 C89.9057957,70.2164826 90.1847957,70.5817435 90.4476217,70.9550913 C90.4732304,70.988787 90.4961435,71.0224826 90.5204043,71.0575261 C90.5810565,71.143787 90.6376652,71.2313957 90.6956217,71.3190043 C90.9409261,71.6883087 91.1754478,72.0643522 91.3884043,72.4484826 C91.4355783,72.5347435 91.4800565,72.6237 91.5258826,72.7099609 C91.7577087,73.1507 91.9747087,73.5981783 92.1634043,74.0537435 C92.1701435,74.0712652 92.1768826,74.088787 92.1822739,74.1063087 C92.3669261,74.5578304 92.5232739,75.018787 92.6661435,75.4824391 C92.6890565,75.5633087 92.716013,75.6428304 92.7389261,75.7237 C92.8602304,76.1469174 92.9586217,76.5755261 93.0435348,77.0054826 C93.0758826,77.1699174 93.1055348,77.3357 93.1324913,77.5014826 C93.1931435,77.8627 93.2416652,78.226613 93.2753609,78.5905261 C93.2888391,78.7307 93.305013,78.8695261 93.3157957,79.0097 C93.3467957,79.4423522 93.3562304,79.8750043 93.3508391,80.3076565 C93.3494913,80.4491783 93.352187,80.5893522 93.3467957,80.7308739 C93.3346652,81.0691783 93.3104043,81.4074826 93.2753609,81.7444391 C93.2537957,81.9547 93.2214478,82.163613 93.1917957,82.3738739 C93.1688826,82.5423522 93.1432739,82.7108304 93.1149696,82.8779609 C93.0758826,83.0949609 93.0341,83.310613 92.9869261,83.5262652 C92.8494478,84.1583957 92.670187,84.7810913 92.4545348,85.3957 C92.3116652,85.7973522 92.1526217,86.1949609 91.9774043,86.5871783 C91.941013,86.6680478 91.9086652,86.751613 91.8722739,86.8324826 C91.1848826,88.3043087 90.267013,89.696613 89.0971,90.9473957 C89.0297087,91.0228739 88.9569261,91.0943087 88.8841435,91.1670913 C87.4109696,92.6901348 85.7032739,93.8560043 83.8715783,94.6633522 C83.7758826,94.7051348 83.6774913,94.7388304 83.5804478,94.780613 C83.3459261,94.8776565 83.1100565,94.9733522 82.8714913,95.0582652 C82.564187,95.1701348 82.2501435,95.2671783 81.9374478,95.3601783 C81.8619696,95.3817435 81.7878391,95.4087 81.7123609,95.4289174 C81.2702739,95.5515696 80.8214478,95.6499609 80.3712739,95.7335261 C80.177187,95.7699174 79.9831,95.7941783 79.7863174,95.8238304 C79.4763174,95.8696565 79.1636217,95.9073957 78.8509261,95.9343522 C78.658187,95.9505261 78.4667957,95.9667 78.2740565,95.9774826 C77.8629696,95.9977 77.4532304,96.0030913 77.0434913,95.9909609 C76.9585783,95.989613 76.875013,95.9936565 76.7901,95.9909609 C76.2941,95.9693957 75.7981,95.9195261 75.3061435,95.850787 C74.550013,95.7483522 73.8019696,95.5987435 73.0633609,95.3871348 L56.1171435,134.92157 C71.1656217,140.776526 88.0700565,140.176743 102.664317,133.262396 L98.3297087,124.8587 C101.439143,123.409787 104.350448,121.669743 107.02723,119.668222 L101.766665,113.150135 C103.49997,111.875091 105.099839,110.476048 106.579752,108.981309 L119.214274,121.525526 C119.648274,121.087483 120.089013,120.653483 120.513578,120.197917 C125.753926,114.572091 129.662622,108.187439 132.286839,101.432135 L105.121404,90.3813087 Z"/>
    <path d="M63.4981087,106.095883 L69.540413,93.8926652 C68.5160652,93.3009696 67.5388913,92.5879696 66.6331522,91.7496217 C66.3150652,91.4517522 66.0158478,91.1404043 65.7260652,90.8236652 C65.665413,90.7576217 65.6074565,90.6875348 65.5481522,90.6201435 C65.1896304,90.2144478 64.8567174,89.7925783 64.5453696,89.3599261 C64.4658478,89.2467087 64.3903696,89.1307957 64.3121957,89.0162304 C64.0817174,88.6738826 63.8633696,88.3234478 63.6611957,87.9676217 C63.573587,87.8139696 63.4859783,87.6616652 63.4051087,87.5053174 C63.1881087,87.0942304 62.9872826,86.6764043 62.8080217,86.2491435 C62.7689348,86.1534478 62.7298478,86.0591 62.6907609,85.9620565 C62.5088043,85.5011 62.3470652,85.0320565 62.209587,84.5562739 C62.1516304,84.3567957 62.0936739,84.1573174 62.0438043,83.9564913 L29.5571522,91.9989696 C29.6636304,92.4343174 29.7701087,92.8683174 29.8873696,93.3023174 L20.7787609,95.8065783 C23.0269348,103.955535 27.055587,111.693404 32.8391087,118.416361 L46.4386739,106.908622 C47.8848913,108.581274 49.4416304,110.12723 51.1061957,111.52223 L58.6459348,102.815274 C60.1420217,104.05797 61.7621087,105.163187 63.4981087,106.095883"/>
    <polygon points=".944 73.682 1.131 72.23 4.431 72.653 4.915 68.878 1.615 68.453 1.803 67.002 10.097 68.067 9.91 69.52 6.17 69.038 5.686 72.814 9.426 73.295 9.239 74.748"/>
    <path d="M8.48335217 60.5853217L9.22600435 58.141713 5.41974348 58.2953652 5.40896087 58.3290609 8.48335217 60.5853217zM3.81313478 58.6282783L4.26465652 57.1375826 13.2074826 56.4852348 12.7505696 57.986713 10.4040043 58.0945391 9.43356957 61.2902348 11.3232217 62.6852348 10.8851783 64.1314522 3.81313478 58.6282783zM1.8560913 57.0432348L2.31704783 55.5296261 3.4370913 57.6079739 3.15404783 58.5393217 1.8560913 57.0432348zM12.6703739 50.7062957C13.8268087 51.2723826 14.6961565 50.6416 15.2110261 49.5902957 15.777113 48.432513 15.4185913 47.7235565 14.8511565 47.4459043 14.2729391 47.1642087 13.8874609 47.3663826 13.6219391 47.6143826 13.1650261 48.0429913 12.6946348 48.6589478 11.9075043 49.5512087 10.9330261 50.664513 9.96798261 50.6631652 9.19028696 50.2817304 7.68746087 49.5458174 7.66050435 47.8138609 8.32498261 46.4566 9.09054783 44.8904261 10.5650696 43.9819913 12.1325913 44.7475565L11.4883304 46.0630348C10.4895913 45.6519478 9.81433043 46.1304261 9.37224348 47.0348174 9.07302609 47.6440348 8.91802609 48.5201217 9.67550435 48.8907739 10.2011565 49.1468609 10.6715478 48.9339043 11.0799391 48.4689043 11.1688957 48.3691652 12.4129391 46.9189043 12.7175478 46.5859913 13.4952435 45.7409043 14.568113 45.6789043 15.3458087 46.0603391 17.0292435 46.882513 16.9726348 48.7047739 16.242113 50.1981652 15.4037652 51.9126 13.9049826 52.8992087 12.0274609 52.0204261L12.6703739 50.7062957z"/>
    <polygon points="13.027 38.413 13.875 37.217 16.983 39.421 16.031 34.178 17.075 32.705 17.867 37.361 24.036 37.353 22.979 38.845 18.133 38.771 18.406 40.43 20.7 42.059 19.852 43.253"/>
    <path d="M24.4098043,30.6626391 C25.5433261,31.7975087 27.1903696,32.3878565 28.4586739,31.1222478 C29.7256304,29.8566391 29.1393261,28.2082478 28.0071522,27.0733783 C26.8736304,25.9385087 25.2252391,25.3481609 23.9582826,26.6137696 C22.6913261,27.8793783 23.2776304,29.5277696 24.4098043,30.6626391 L24.4098043,30.6626391 Z M29.0422826,26.0395957 C30.728413,27.7297696 31.0748043,30.1962913 29.3010652,31.9673348 C27.5286739,33.7370304 25.0621522,33.3865957 23.3746739,31.6964217 C21.6871957,30.0062478 21.3421522,27.5383783 23.1145435,25.7686826 C24.8869348,23.998987 27.3548043,24.3494217 29.0422826,26.0395957 L29.0422826,26.0395957 Z M21.7343696,24.1364652 L22.8517174,23.0204652 L22.8584565,25.3805087 L22.1710652,26.0665522 L21.7343696,24.1364652 Z"/>
    <polygon points="30.657 19.35 31.844 18.494 35.995 24.252 39.446 21.766 40.184 22.791 35.548 26.135"/>
    <polygon points="39.856 13.311 41.136 12.604 45.17 19.927 43.887 20.633"/>
    <polygon points="46.616 9.849 48.058 9.291 53.843 13.657 53.865 13.648 51.641 7.903 52.94 7.4 55.961 15.198 54.517 15.756 48.748 11.398 48.716 11.41 50.936 17.143 49.635 17.647"/>
    <polygon points="58.989 5.638 60.505 5.333 65.461 10.625 65.484 10.621 64.272 4.579 65.64 4.304 67.285 12.507 65.767 12.81 60.826 7.528 60.792 7.534 62 13.566 60.633 13.84"/>
    <path d="M80.108987 1.07866522L81.6886391 1.12718696 79.9742043 2.74996957 79.0037696 2.72031739 80.108987 1.07866522zM79.1210304 3.49666522L80.5834217 3.5424913 80.3246391 11.899013 78.8609 11.853187 79.1210304 3.49666522zM94.4481043 9.25538696L96.7704087 9.86999565C97.6653652 10.107213 98.2691913 9.79451739 98.4929304 8.94403913 98.7651913 7.91295217 98.1519304 7.53286522 97.4160174 7.33743043L95.1152783 6.72956087 94.4481043 9.25538696zM94.0060174 5.19843043L97.868887 6.22143043C99.635887 6.68912609 100.325974 7.74447391 99.9634087 9.11521304 99.5523217 10.6679087 98.3716261 10.7784304 98.0872348 10.7999957L98.0804957 10.8229087C98.5495391 11.0196913 99.1681913 11.5709522 98.8285391 12.851387 98.5791913 13.7908217 98.4875391 14.6884739 98.705887 15.098213L97.1882348 14.6965609C97.0655826 14.2881696 97.1828435 13.8460826 97.2879739 13.4498217 97.6801913 11.9658652 97.5494522 11.2286043 96.2474522 10.8835609L94.1623652 10.3309522 93.2822348 13.6614304 91.8643217 13.2867348 94.0060174 5.19843043z"/>
    <polygon points="106.256 9.016 111.75 11.481 111.231 12.635 107.074 10.771 106.176 12.77 110.026 14.495 109.537 15.585 105.689 13.86 104.686 16.094 108.919 17.993 108.402 19.148 102.833 16.649"/>
    <polygon points="115.945 19.774 116.096 13.802 117.519 14.73 117.322 19.078 121.196 17.132 122.568 18.027 117.171 20.574 115.379 23.32 114.154 22.519"/>
    <polygon points="126.789 21.361 127.872 22.348 125.305 25.164 130.627 24.859 131.961 26.075 127.242 26.293 126.496 32.418 125.145 31.186 125.809 26.385 124.129 26.455 122.234 28.533 121.151 27.547"/>
    <path d="M134.087939 37.2435348C132.959809 38.1573609 131.62007 38.792187 130.107809 36.9267957 128.994504 35.5533609 129.439287 34.2594478 130.62133 33.3011435L130.967722 33.0207957 131.888287 34.1583609 131.55133 34.4306217C130.815417 35.0277087 130.549896 35.5749261 131.110591 36.2663609 131.70633 37.0022739 132.292635 36.8135783 133.102678 36.1585348L137.569374 32.5382739 138.491287 33.6744913 134.087939 37.2435348zM138.639413 42.8316217L139.93063 45.0326217 142.395804 42.1334478 142.376935 42.1037957 138.639413 42.8316217zM143.240891 40.7276652L144.02937 42.0714478 138.448022 49.0774478 137.6555 47.7255783 139.166413 45.9289261 137.478935 43.0513174 135.172804 43.4947522 134.408587 42.1927522 143.240891 40.7276652z"/>
    <polygon points="147.234 48.087 147.806 49.5 142.452 53.925 142.462 53.945 149.403 53.454 149.96 54.833 141.133 55.317 140.524 53.806"/>
    <path d="M154.022287,60.0476739 L154.426635,61.5774565 L152.380635,60.3981087 L152.132635,59.4573261 L154.022287,60.0476739 Z M151.419635,59.7902391 L151.797026,61.2068043 L143.707374,63.3471522 L143.332678,61.9319348 L151.419635,59.7902391 Z"/>
    <polygon points="153.126 67.212 153.315 68.663 149.538 69.148 153.786 72.358 154.017 74.148 150.282 71.262 145.752 75.444 145.519 73.633 149.132 70.405 147.807 69.371 145.017 69.729 144.833 68.278"/>
    <path d="M6.86703913,96.0276217 L7.46008261,98.3553174 C7.68921304,99.2529696 8.25664783,99.6276652 9.10847391,99.4106652 C10.1436043,99.1464913 10.1759522,98.4254043 9.98725652,97.6867957 L9.39960435,95.382013 L6.86703913,96.0276217 Z M10.1961696,93.6662304 L11.1841261,97.5385348 C11.6356478,99.3109261 11.0506913,100.426926 9.6759087,100.778709 C8.12051739,101.17497 7.44795217,100.197796 7.2889087,99.9592304 L7.26734348,99.9646217 C7.32395217,100.471404 7.14334348,101.278752 5.85886522,101.606274 C4.91673478,101.847535 4.08782174,102.203361 3.83712609,102.59423 L3.44895217,101.072535 C3.74682174,100.766578 4.19025652,100.653361 4.58651739,100.552274 C6.07316957,100.172187 6.65408261,99.6977522 6.32251739,98.3917087 L5.78877826,96.3025783 L2.45021304,97.1544043 L2.08764783,95.7351435 L10.1961696,93.6662304 Z"/>
    <polygon points="13.357 104.407 15.746 109.932 14.587 110.433 12.777 106.252 10.767 107.122 12.442 110.991 11.345 111.466 9.673 107.596 7.426 108.568 9.267 112.824 8.106 113.327 5.683 107.727"/>
    <polygon points="14.666 118.326 17.293 112.961 18.197 114.397 16.208 118.268 20.538 118.113 21.413 119.5 15.446 119.564 12.671 121.312 11.891 120.074"/>
    <polygon points="23.714 122.497 24.677 123.6 21.81 126.104 27.129 126.406 28.315 127.763 23.604 127.447 22.17 133.443 20.968 132.067 22.173 127.374 20.496 127.253 18.379 129.102 17.415 127.999"/>
    <path d="M31.0358522 137.7609C30.0950696 138.867465 28.8928087 139.736813 27.0638087 138.181422 25.7173304 137.034422 25.9154609 135.681204 26.9020696 134.520726L27.1891565 134.181074 28.3051565 135.131291 28.0248087 135.460161C27.4102 136.183943 27.2484609 136.770248 27.9277652 137.347117 28.6488522 137.961726 29.1920261 137.6679 29.867287 136.87403L33.5940261 132.493596 34.7100261 133.442465 31.0358522 137.7609zM37.3049957 141.497343L39.4669087 142.854604 40.317387 139.142691 40.2890826 139.123822 37.3049957 141.497343zM40.4211696 137.505083L41.7393435 138.332648 40.0208652 147.129909 38.6905609 146.295604 39.2027348 144.002952 36.3763435 142.227865 34.5338652 143.686213 33.2534304 142.882909 40.4211696 137.505083z"/>
    <polygon points="46.38 141.03 47.773 141.648 47.004 148.547 47.026 148.555 51.669 143.377 53.029 143.981 47.025 150.465 45.537 149.805"/>
    <path d="M58.3293304,143.087374 L59.8429391,143.546983 L57.7645913,144.667026 L56.8345913,144.383983 L58.3293304,143.087374 Z M56.7429391,145.164374 L58.1446783,145.590287 L55.7158957,153.595026 L54.3141565,153.170461 L56.7429391,145.164374 Z"/>
    <polygon points="62.857 146.865 64.301 147.109 63.666 150.861 67.972 147.732 69.75 148.032 65.902 150.766 68.585 156.315 66.783 156.01 64.748 151.615 63.375 152.581 62.904 155.352 61.462 155.108"/>
    <path d="M80.0366087,148.375704 L81.4963043,148.249009 L81.9181739,153.105226 C82.0152174,154.226617 82.1985217,155.516487 84.0895217,155.352052 C85.9805217,155.187617 85.9387391,153.885617 85.8416957,152.765574 L85.4184783,147.908009 L86.8781739,147.781313 L87.3418261,153.117357 C87.5278261,155.253661 86.2541304,156.434357 84.1986957,156.613617 C82.1432609,156.79153 80.684913,155.848052 80.5016087,153.7104 L80.0366087,148.375704 Z"/>
    <polygon points="91.392 147.013 92.889 146.628 98.126 151.639 98.148 151.634 96.609 145.667 97.96 145.319 100.048 153.417 98.551 153.804 93.329 148.799 93.294 148.809 94.83 154.763 93.481 155.111"/>
    <polygon points="102.423 143.659 103.782 143.11 106.914 150.867 105.557 151.415"/>
    <polygon points="107.416 141.576 108.749 140.84 113.785 145.621 113.806 145.609 112.484 138.778 113.785 138.058 115.326 146.762 113.901 147.551"/>
    <polygon points="116.947 135.906 121.727 132.243 122.496 133.247 118.879 136.02 120.211 137.758 123.559 135.193 124.285 136.142 120.939 138.707 122.427 140.651 126.11 137.828 126.88 138.832 122.035 142.546"/>
    <path d="M128.714965 130.905317L130.370096 129.165274C131.007617 128.494057 131.023791 127.814752 130.38627 127.209578 129.613965 126.475013 128.98453 126.830839 128.461574 127.3821L126.822617 129.10597 128.714965 130.905317zM124.949139 129.344535L127.700052 126.449404C128.958922 125.125839 130.215096 125.027448 131.242139 126.003274 132.405313 127.108491 131.93627 128.197535 131.819009 128.457665L131.835183 128.473839C132.232791 128.1571 133.011835 127.880796 133.971487 128.791926 134.6764 129.461796 135.419052 129.972622 135.882704 129.978013L134.801748 131.115578C134.383922 131.026622 134.053704 130.71123 133.757183 130.429535 132.643878 129.372839 131.934922 129.134274 131.007617 130.1101L129.522313 131.67223 132.017139 134.044404 131.008965 135.105143 124.949139 129.344535zM137.507509 123.326761C138.568248 124.057283 139.521161 123.559935 140.184291 122.596239 140.913465 121.534152 140.665465 120.780717 140.143857 120.422196 139.614161 120.056935 139.203074 120.201152 138.903857 120.40737 138.387639 120.764543 137.832335 121.305022 136.921204 122.071935 135.794422 123.030239 134.841509 122.886022 134.127161 122.395413 132.748335 121.446543 132.977465 119.728065 133.831987 118.484022 134.821291 117.045891 136.413074 116.363891 137.849857 117.353196L137.022291 118.5595C136.093639 118.006891 135.353683 118.378891 134.783552 119.209152 134.399422 119.7685 134.117726 120.612239 134.811857 121.08937 135.29303 121.420935 135.790378 121.279413 136.263465 120.880457 136.364552 120.794196 137.809422 119.540717 138.159857 119.257674 139.053465 118.536587 140.124987 118.63363 140.839335 119.124239 142.382596 120.184978 142.05777 121.980283 141.115639 123.349674 140.034683 124.922587 138.406509 125.678717 136.678596 124.533065L137.507509 123.326761z"/>
    <polygon points="138.037 111.944 138.712 110.644 146.138 114.5 145.463 115.801"/>
    <polygon points="140.53 106.962 142.909 100.623 144.093 101.068 143.158 103.557 149.804 106.05 149.289 107.42 142.643 104.928 141.714 107.405"/>
    <polygon points="149.396 95.733 143.775 97.755 144.126 96.093 148.249 94.701 145.033 91.796 145.371 90.192 149.699 94.302 152.905 94.979 152.605 96.411"/>
  </g>
</svg>
