<?xml version="1.0" encoding="utf-8"?>
<!-- Generator: Adobe Illustrator 19.2.1, SVG Export Plug-In . SVG Version: 6.00 Build 0)  -->
<svg version="1.1" id="layer" xmlns="http://www.w3.org/2000/svg" xmlns:xlink="http://www.w3.org/1999/xlink" x="0px" y="0px"
	 viewBox="0 0 652 652" style="enable-background:new 0 0 652 652;" xml:space="preserve">
<style type="text/css">
	.st0{fill-rule:evenodd;clip-rule:evenodd;fill:#0C6A93;}
	.st1{fill:#0074AD;}
	.st2{fill-rule:evenodd;clip-rule:evenodd;fill:#E92944;}
	.st3{fill:#0C6A93;}
</style>
<g>
	<path class="st0" d="M347.1,458.1c8.6,0,15.5,6.9,15.5,15.5s-6.9,15.5-15.5,15.5s-15.6-6.9-15.6-15.5S338.5,458.1,347.1,458.1
		 M556.6,515.2c0.8-26.1,42.7-28.5,67-13.8l-9,17.7c-8.4-5.8-15.6-8.5-24.8-7.8c-8.8,0.7-9.7,10.2,4.5,9.9
		c22.1-0.6,34.1,11.1,32.9,26c-1.9,24.1-39.9,34-73.2,12.9l12.3-18c9.3,5.4,18.5,10.1,27.8,9c9.7-1.1,14.5-8.9-2.7-10.7
		C567.9,537.9,556.2,530.4,556.6,515.2 M373.9,571.6v-74.3h27.1v10.4c10.5-17.4,51.3-17.7,51.3,9.5l0.1,54.3h-27l-0.3-37.3
		c-0.1-15-5.6-16.4-12.9-15.5c-6.1,0.7-11.5,2.9-11.5,15.5v37.3H373.9z M361.1,496v75.6H333V496H361.1z M196,571.6v-74.3h27.1v10.4
		c8.1-13.5,39.3-20.1,48.3,0.8c12.8-19,50-18.2,50,7.7v55.3h-28.7V531c0-10.9-1.9-11.9-11.1-11.5c-7.5,0.3-9.2,6.6-9.2,13.6
		l-0.2,38.6h-26.9l-0.3-37.3c-0.2-15-3.4-16.2-10.8-15.5c-7.2,0.7-10.4,1.7-10.4,15.5v37.3H196z M147.2,491.8
		c22.1,0,39.9,17.8,39.9,39.9c0,22.1-17.8,39.9-39.9,39.9c-22,0-39.9-17.8-39.9-39.9C107.4,509.7,125.2,491.8,147.2,491.8
		 M147.2,517.5c7.9,0,14.2,6.4,14.2,14.2c0,7.9-6.4,14.2-14.2,14.2c-7.9,0-14.2-6.4-14.2-14.2C133.1,523.9,139.4,517.5,147.2,517.5
		 M-2.3,571.6V466.4H29c9.9,0,18.4,0.6,25.4,1.6c7,1.1,12.8,2.8,17.2,5c9.3,4.7,16.4,11.1,21.4,19c5,7.9,7.5,16.9,7.5,27
		c0,10.1-2.5,19-7.4,26.9c-5,7.9-12.1,14.2-21.5,19c-4.6,2.3-10.3,4-17.3,5c-7,1.1-16.4,1.6-28.1,1.6H-2.3z M28.9,543.9v-49.6h12.8
		c4.1,0,7.5,0.3,10.4,0.8c2.9,0.5,5.2,1.3,7,2.4c3.8,2.3,6.7,5.3,8.8,9c2,3.7,3,8,3,12.7c0,4.7-1,9-3,12.7c-2,3.7-4.9,6.7-8.8,9
		c-1.9,1.1-4.2,1.9-7.1,2.4c-2.9,0.5-6.7,0.7-11.5,0.7H28.9z M499.6,491.8c22,0,39.9,17.8,39.9,39.9c0,22.1-17.9,39.9-39.9,39.9
		c-22,0-39.9-17.8-39.9-39.9C459.7,509.7,477.6,491.8,499.6,491.8 M499.6,517.5c7.9,0,14.2,6.4,14.2,14.2c0,7.9-6.3,14.2-14.2,14.2
		c-7.9,0-14.2-6.4-14.2-14.2C485.4,523.9,491.7,517.5,499.6,517.5 M547.8,458.3c6.2,0,11.5,3.7,13.8,9c1.8,4.1,2,9.2,0.8,13.6
		c-1.6,6.7-7.3,13.2-19.1,19.3l-3.3-4.4c2.3-1.9,4.7-4,5.6-5.4c1.8-2.6-0.5-2-2.4-2.6c-6.1-1.9-10.6-7.6-10.6-14.4
		C532.7,465.1,539.5,458.3,547.8,458.3"/>
	<path class="st1" d="M636.7,495.3c1.1,0,2.1,0.3,3.2,0.8c1,0.6,1.9,1.4,2.4,2.4c0.6,1,0.9,2.1,0.9,3.3c0,1.1-0.3,2.2-0.8,3.3
		c-0.6,1-1.4,1.9-2.4,2.4c-1.1,0.6-2.1,0.8-3.3,0.8c-1.1,0-2.3-0.3-3.3-0.8c-1-0.6-1.9-1.4-2.4-2.4c-0.6-1.1-0.8-2.1-0.8-3.3
		c0-1.1,0.3-2.3,0.8-3.3c0.6-1.1,1.4-1.9,2.5-2.4C634.5,495.6,635.6,495.3,636.7,495.3 M636.7,496.4c-1,0-1.8,0.2-2.7,0.7
		c-0.8,0.5-1.5,1.1-2,2c-0.5,0.8-0.7,1.8-0.7,2.7c0,1,0.2,1.9,0.7,2.7c0.5,0.9,1.1,1.6,2,2c0.8,0.5,1.8,0.7,2.7,0.7
		c1,0,1.9-0.2,2.7-0.7c0.8-0.5,1.5-1.1,2-2c0.5-0.8,0.7-1.8,0.7-2.7c0-1-0.3-1.9-0.7-2.7c-0.5-0.9-1.2-1.6-2.1-2
		C638.5,496.6,637.6,496.4,636.7,496.4 M633.8,505.5v-7.1h2.4c0.8,0,1.4,0.1,1.8,0.2c0.3,0.1,0.6,0.3,0.8,0.7c0.2,0.3,0.3,0.7,0.3,1
		c0,0.5-0.2,1-0.6,1.4c-0.3,0.4-0.8,0.6-1.5,0.6c0.3,0.1,0.5,0.2,0.6,0.4c0.3,0.3,0.6,0.7,1.1,1.4l0.8,1.4h-1.4l-0.6-1.1
		c-0.5-0.9-0.9-1.5-1.2-1.6c-0.2-0.2-0.5-0.3-0.9-0.3h-0.7v3H633.8z M634.9,501.5h1.4c0.6,0,1.1-0.1,1.3-0.3
		c0.3-0.2,0.4-0.5,0.4-0.8c0-0.2-0.1-0.4-0.2-0.6c-0.1-0.2-0.3-0.3-0.5-0.4c-0.2-0.1-0.6-0.1-1.1-0.1h-1.3V501.5z"/>
	<path class="st2" d="M265.8,172.4l98-97.7c4.1-4.1,10.8-4.1,14.9,0l92.5,92.8c4.1,4.1,4.1,10.8,0,14.9l-98.1,97.7L265.8,172.4z
		 M353.7,155.1c10.3-10.3,26.9-10.2,37.2,0.1c10.3,10.3,10.2,27-0.1,37.2c-10.3,10.3-27,10.2-37.2-0.1
		C343.3,182,343.4,165.4,353.7,155.1"/>
	<path class="st0" d="M279.6,267.1c10.3-10.2,26.9-10.2,37.2,0.1c10.3,10.3,10.2,26.9-0.1,37.2c-10.3,10.2-27,10.2-37.2-0.1
		C269.3,294.1,269.3,277.4,279.6,267.1 M202.6,267.4c10.3-10.3,26.9-10.2,37.2,0.1c10.2,10.3,10.2,26.9-0.1,37.2
		c-10.3,10.2-27,10.2-37.2-0.1C192.3,294.3,192.3,277.6,202.6,267.4 M160.7,277.2l98-97.7l107.4,107.8l-98,97.7
		c-4.1,4.1-10.8,4.1-14.9-0.1l-92.5-92.8C156.6,288,156.6,281.3,160.7,277.2"/>
	<path class="st3" d="M302.2,388.5v-13.2h-5V373h12.6v2.3h-5v13.2H302.2z M311.5,388.5V373h3.8l3.9,12.4l3.8-12.4h3.7v15.5h-2.4v-13
		l-4,13H318l-4.1-13.2v13.2H311.5z"/>
</g>
</svg>
