<svg id="Layer_1" data-name="Layer 1" xmlns="http://www.w3.org/2000/svg" viewBox="0 0 543.75 272.5"><defs><style>.cls-1{fill:#9e7f2d;}.cls-2{fill:#fff;}.cls-3{fill:#283880;}</style></defs><title>HBERG_LOGO_Filled_svg</title><path class="cls-1" d="M-72,421s-5.09,1.82-13.09,5.5c-6.16,2.83-11.75,3.66-15.41,11.5-1.58,3.37-3,11-3.5,32s-4.5,27.41-17.84,34.33c-10.42,5.41-24.29,8.71-46.16,10.67-17,1.52-67.67,1.5-80.17,1.33s-39.17-1-60.17,2.5-26.95,20.63-28.79,24.46-7.12,14.12-7.12,14.12-3.78-6.4-7.59-14.25S-359.62,526-372.74,521c-11.52-4.44-34.5-4.5-43-4.5s-73.5.25-83.25,0-36.5-2-57.75-8-27.5-21.75-27.5-26.75-.5-24.75-2-37.75S-597.3,429-602.8,426.78s-12.94-5.58-12.94-5.58,7.37-3.3,12.6-6.12c5.74-3.1,15-6,16.9-16.63,2.3-12.88,1.78-32.75,2-37.75.42-9.5,5.29-20.75,26.54-26.75s49-7.75,58.71-8,74.75,0,83.25,0,31.48-.05,43-4.5c13.12-5.06,16.79-14.61,20.91-22.25,3.19-5.9,4.74-9.44,7.28-14.24,0,0,5.14,10.66,7.71,14.87,2.36,3.9,7.25,19.34,27.13,23.5,20.84,4.36,49,2.87,61.55,2.71s63.14-.19,80.17,1.33c21.87,2,36,5,46.44,10.38,13.33,6.92,17.06,13.62,17.56,34.62s1.75,28.71,3.5,32c3.62,6.83,9.31,8.5,15.48,11.33A139.65,139.65,0,0,0-72,421Z" transform="translate(615.74 -284.96)"/><path class="cls-2" d="M-599,420.88s13.36,3.07,17.29,10.62c4.44,8.54,4.51,27.59,4.61,39.76.11,13.31,4.46,21.64,21.42,27.37,18.53,6.26,50.64,8.54,74.64,8.54s67.83-.5,79-.34,30.83,3,39.33,8.34,16.33,18.33,18.33,24.16c0,0,8.17-17.83,16.67-23s24.67-9,39.5-9.33,53.33,0,72.5.17,55.17-1.67,67-4.34,35.17-6.16,36.83-25.83.51-32.5,2.84-39.5,4.12-11.08,19.46-16.75c-15.34-5.67-17.13-12.58-19.46-19.58s-1.17-19.84-2.84-39.5-25-23.17-36.83-25.84-47.83-4.5-67-4.33-57.67.5-72.5.17-31.56-3.74-39.5-9.34c-8.13-5.73-16.67-23-16.67-23-2,5.84-9.83,18.84-18.33,24.17s-28.17,8.17-39.33,8.33-55-.33-79-.33-56.11,2.28-74.64,8.54c-17,5.73-21.31,14.06-21.42,27.37-.1,12.17-.17,31.22-4.61,39.76C-585.65,414.72-599,420.88-599,420.88Z" transform="translate(615.74 -284.96)"/><path class="cls-1" d="M-586.32,420.75c2,0,10,6.86,12.29,13.73s3,29,3.09,42.63c.11,12.32,16.78,17.93,25.05,19.87,8,1.88,38,4.92,50.72,5.23,16.77.42,91.21-.16,105.2,1.31,21.19,2.22,28.36,6,33.62,9.65,6.21,4.33,12,15.55,12,15.55a62.65,62.65,0,0,1,11.45-14.07c8.25-7.47,28.29-12.13,45-12.13s70.6.12,85.32-.22c24.19-.56,39.39.66,68-7.55,20.45-5.86,18.64-17.08,18.75-27.4.07-6.22-.78-23.94,3.46-34.59S-102,420.83-102,420.83c-2,0-9.5-8.82-11.79-15.7s-3-29-3.08-42.63c-.12-12.31-16.86-17.63-25.06-19.86-13.23-3.61-37.82-4.59-50.56-5.28-17.07-.92-91.37.2-105.36-1.26C-319,333.88-327,329-332.23,325.31c-6.21-4.33-12.23-14.7-12.23-14.7a59.17,59.17,0,0,1-11.45,14.62c-8.25,7.46-29.25,11.48-43.52,11.63-17.21.18-70.46-.16-84.7.17-24.19.55-41.58-.52-68.88,7.28-17.57,5-19.41,12.89-19,28,.18,6.21.45,23.52-3.79,34.17S-586.32,420.75-586.32,420.75Z" transform="translate(615.74 -284.96)"/><path class="cls-2" d="M-112.91,420.15c-3.66,3.5-7.66,13.66-8.5,17.66s-2.66,27.5-2.5,36.34-6.08,11.5-13.33,14.08c-9.84,3.5-38.5,6.75-70,7.08-22.67.24-52.58.17-59.42,0-11.77-.28-37.49,1-49.85,3.07-17.4,2.89-27.89,17.34-27.89,17.34-4.66-6.67-11.86-12.22-24-15.91-11.85-3.6-40.66-4.5-48.16-4.66s-69.34.34-84.17-.17c-21.75-.75-36.08-3-50.08-6.83s-13.09-11.5-13.09-16.84c0-12.66-1-25.69-2.73-34.68-2.16-11.42-7.77-16.48-7.77-16.48s5.5-5.75,7.67-17.17a192.41,192.41,0,0,0,2.83-34c0-5.34-.91-13,13.09-16.83s27.56-6.15,49.31-6.9c14.83-.51,77.44.06,84.94-.1s36.5-.5,48.16-4.67,19.84-9.17,24.5-15.83a48.07,48.07,0,0,0,26.17,16.16c17,3.84,44.15,3.86,51,3.69s36.71-.49,59.37-.25c31.5.33,60.31,4.31,70.15,7.81,7.25,2.59,13.15,5.11,13,13.94s1.67,33.13,2.5,37.13S-116.57,416.65-112.91,420.15Z" transform="translate(615.74 -284.96)"/><path class="cls-3" d="M-540.43,447V395.47h9.22v21.16H-495V395.47h9.22V447H-495V422.72h-36.21V447Z" transform="translate(615.74 -284.96)"/><path class="cls-3" d="M-468.31,422.38V416H-442v6.36Z" transform="translate(615.74 -284.96)"/><path class="cls-3" d="M-424.22,447V395.47h26.13A42.44,42.44,0,0,1-385.28,397a16.08,16.08,0,0,1,7.56,4.81,10.48,10.48,0,0,1,2.73,6.8,9.58,9.58,0,0,1-2.43,6.23,16.8,16.8,0,0,1-7.31,4.71q6.32,1.37,9.71,4.67a10.54,10.54,0,0,1,3.4,7.81,11.91,11.91,0,0,1-2.07,6.73,14.58,14.58,0,0,1-5.1,4.8,25.74,25.74,0,0,1-7.63,2.55,62.52,62.52,0,0,1-11.24.86Zm9.22-29.88h15.06a44.8,44.8,0,0,0,8.79-.6,10.46,10.46,0,0,0,5.3-2.57,6.1,6.1,0,0,0,1.78-4.5,6.73,6.73,0,0,0-1.66-4.51,8.53,8.53,0,0,0-4.75-2.68,53.23,53.23,0,0,0-10.6-.72H-415Zm0,23.8h17.34a52.12,52.12,0,0,0,6.27-.25,18.88,18.88,0,0,0,5.33-1.4,9,9,0,0,0,3.51-2.87,7.13,7.13,0,0,0,1.38-4.34,7.05,7.05,0,0,0-2-5,10.91,10.91,0,0,0-5.53-3,46.09,46.09,0,0,0-10.19-.86H-415Z" transform="translate(615.74 -284.96)"/><path class="cls-3" d="M-357.76,447V395.47h50.37v6.08h-41.15v15.79H-310v6h-38.54v17.55h42.77V447Z" transform="translate(615.74 -284.96)"/><path class="cls-3" d="M-290.93,447V395.47H-260q9.31,0,14.16,1.39a15.24,15.24,0,0,1,7.75,4.9,12,12,0,0,1,2.9,7.77,11.36,11.36,0,0,1-4.8,9.25q-4.8,3.77-14.83,4.78a26.09,26.09,0,0,1,5.56,2.57,40.78,40.78,0,0,1,7.65,6.85l12.12,14h-11.6l-9.22-10.72q-4-4.65-6.65-7.1a19.45,19.45,0,0,0-4.68-3.45,16.64,16.64,0,0,0-4.2-1.37,37.92,37.92,0,0,0-5.14-.25h-10.69V447Zm9.21-28.79h19.82a39.19,39.19,0,0,0,9.88-1,10.7,10.7,0,0,0,5.42-3.09,6.93,6.93,0,0,0,1.85-4.63,7,7,0,0,0-3.59-6q-3.58-2.36-11.33-2.35h-22.05Z" transform="translate(615.74 -284.96)"/><path class="cls-3" d="M-186.89,426.79v-6l29.5,0v19.13a58.85,58.85,0,0,1-14,6,55.1,55.1,0,0,1-14.83,2,51.38,51.38,0,0,1-18.65-3.25q-8.38-3.25-12.66-9.41a23.53,23.53,0,0,1-4.28-13.74,25.28,25.28,0,0,1,4.25-14.05,25.23,25.23,0,0,1,12.24-9.68,49.62,49.62,0,0,1,18.39-3.17,48.21,48.21,0,0,1,13.66,1.81,23.66,23.66,0,0,1,9.57,5.05,20.33,20.33,0,0,1,5.28,8.43l-8.32,1.69a17.45,17.45,0,0,0-3.89-6.19,16.71,16.71,0,0,0-6.65-3.6,32.18,32.18,0,0,0-9.6-1.35,37.17,37.17,0,0,0-10.93,1.42,21.69,21.69,0,0,0-7.44,3.75,18.09,18.09,0,0,0-4.39,5.09,20.94,20.94,0,0,0-2.67,10.37,19.82,19.82,0,0,0,3.21,11.54,18.85,18.85,0,0,0,9.34,6.89,37.51,37.51,0,0,0,13,2.25A40.48,40.48,0,0,0-175.06,440a34.2,34.2,0,0,0,8.65-3.64v-9.6Z" transform="translate(615.74 -284.96)"/></svg>