<svg id="Layer_1" data-name="Layer 1" xmlns="http://www.w3.org/2000/svg" viewBox="0 0 707.34 705.37"><defs><style>.cls-1{fill:#fac483;}.cls-2{fill:#fde4c6;}.cls-3{fill:#fddfbc;}.cls-4{fill:#fce6cc;}.cls-5{fill:#fddab1;}.cls-6{fill:#f8aa4e;}.cls-7{fill:#fceedb;}.cls-8{fill:#feedda;}.cls-9{fill:#f8a746;}.cls-10{fill:#faca90;}.cls-11{fill:#fbdab2;}.cls-12{fill:#f9c17e;}.cls-13{fill:#d1e1f1;}.cls-14{fill:#f7941e;}.cls-15{fill:#fefefe;}.cls-16{fill:#4b90cd;}.cls-17{fill:#060809;}.cls-18{fill:#050708;}.cls-19{fill:#fdfdfd;}.cls-20{fill:#fff;}.cls-21{fill:#f7f7f7;}.cls-22{fill:#566061;}</style></defs><title>HostellingLogoSVG</title><path class="cls-1" d="M-1332.16,47.82c-4.41,0-8.82.08-13.22.09s-8.63,0-12.94-.08c-.16-.12-.21-.24-.14-.34s.12-.14.18-.14h26.08c.18.09.24.19.19.3S-1332.11,47.82-1332.16,47.82Z" transform="translate(1698.49 -47.35)"/><path class="cls-2" d="M-1698.49,383c.67-.52.52-1.28.56-2s-.09-1.45.52-2c0,1.69,0,3.39-.09,5.07a4.24,4.24,0,0,1-1,2.87Z" transform="translate(1698.49 -47.35)"/><path class="cls-3" d="M-1358.28,47.35c0,.16,0,.32,0,.48l-4.52,0c0-.17,0-.34,0-.51Z" transform="translate(1698.49 -47.35)"/><path class="cls-4" d="M-1367.92,752.71c0-.17,0-.34,0-.52l3.94,0c.22.09.3.18.24.29s-.13.18-.19.18Z" transform="translate(1698.49 -47.35)"/><path class="cls-5" d="M-1332.16,47.82c0-.16,0-.31,0-.47h3.4c.19.1.25.21.2.33s-.12.17-.18.17Z" transform="translate(1698.49 -47.35)"/><path class="cls-6" d="M-1361.72,752.18l2.22,0a1.48,1.48,0,0,1,1.22.55h-3.4c-.19-.1-.25-.22-.2-.34S-1361.78,752.18-1361.72,752.18Z" transform="translate(1698.49 -47.35)"/><path class="cls-7" d="M-1322,752.18a4.73,4.73,0,0,0,0,.53h-3.41c-.19-.11-.25-.22-.18-.32s.14-.15.21-.15Z" transform="translate(1698.49 -47.35)"/><path class="cls-8" d="M-1328.78,47.85c0-.17,0-.34,0-.5h2.84c0,.17,0,.35,0,.52Z" transform="translate(1698.49 -47.35)"/><path class="cls-9" d="M-1332.2,752.71c.82-.9,1.89-.47,2.86-.54.18.13.23.25.16.37s-.12.17-.18.17Z" transform="translate(1698.49 -47.35)"/><path class="cls-10" d="M-1361.72,752.18a3.15,3.15,0,0,1,0,.53h-2.27a3.75,3.75,0,0,0,0-.47Z" transform="translate(1698.49 -47.35)"/><path class="cls-11" d="M-1325.37,752.24l0,.47h-2.26c-.2-.12-.26-.24-.18-.34a.29.29,0,0,1,.22-.14Z" transform="translate(1698.49 -47.35)"/><path class="cls-12" d="M-1327.62,752.23a3.88,3.88,0,0,0,0,.48h-1.7a3.25,3.25,0,0,1,0-.54Z" transform="translate(1698.49 -47.35)"/><path class="cls-13" d="M-1409.83,297.33a1.25,1.25,0,0,1,.49,1.21c-.06.33-.27.45-.54.15C-1409.86,298.24-1409.85,297.78-1409.83,297.33Z" transform="translate(1698.49 -47.35)"/><path class="cls-14" d="M-992.27,374.64a336.21,336.21,0,0,0-5.86-44.05,352.43,352.43,0,0,0-37.94-102.71,359.78,359.78,0,0,0-57.58-76.53c-7.66-7.81-15.82-15.13-24.23-22.16a354.32,354.32,0,0,0-114.26-64.13,336.91,336.91,0,0,0-52.44-13.22c-13.78-2.3-27.63-4.1-41.63-4.2h-36.17a232.11,232.11,0,0,0-32.69,2.59,369.54,369.54,0,0,0-55.23,12.42,348.73,348.73,0,0,0-62.82,26.47A350.81,350.81,0,0,0-1580,136a352.43,352.43,0,0,0-35.74,36.66,353,353,0,0,0-50.83,80.14,347.53,347.53,0,0,0-26.78,85.76,280.12,280.12,0,0,0-4.54,40.75c-.11,2.57.34,5.18-.57,7.69V414.2a8.5,8.5,0,0,1,.56,3.3,205.39,205.39,0,0,0,1.41,22.3,332.2,332.2,0,0,0,8.76,48.19,352.91,352.91,0,0,0,33.29,83.49,348.6,348.6,0,0,0,50.13,69.11A357.31,357.31,0,0,0-1573,670.48a356.39,356.39,0,0,0,86.36,53.69,344.64,344.64,0,0,0,75.69,23.28c14.3,2.69,28.67,4.79,43.26,5h5.89c1.16.15,2.37-.32,3.49.29h26.08c.93-.59,2-.16,2.94-.29h7.15c5.74-.34,11.48-.48,17.21-1.1A348.14,348.14,0,0,0-1237.38,737a350.05,350.05,0,0,0,68.09-30,349.9,349.9,0,0,0,67.22-49.85,353.26,353.26,0,0,0,45.48-52.29A352.78,352.78,0,0,0-1021,542.12,352.59,352.59,0,0,0-1000,478.71a373.33,373.33,0,0,0,8.81-72.11C-990.91,395.93-991.55,385.29-992.27,374.64Zm-95.92,12.81c-.39,5.08-.81,10.16-1.41,15.23q-1.29,11-3.5,21.8a283.77,283.77,0,0,1-16.82,54.57,283.93,283.93,0,0,1-39.29,66,283.31,283.31,0,0,1-31.12,33.3,284.13,284.13,0,0,1-90.41,55.7,279.73,279.73,0,0,1-45.1,13c-6.29,1.26-12.63,2.24-19,3.11a293.4,293.4,0,0,1-53.16,2c-7.16-.32-14.3-1.09-21.42-2a279.56,279.56,0,0,1-54-12.47A282.33,282.33,0,0,1-1553,587.89a283.21,283.21,0,0,1-74.78-94.34,279.73,279.73,0,0,1-23.51-69.25c-1.58-7.86-2.78-15.79-3.67-23.78q-1.48-13.25-1.74-26.56c-.13-6.43,0-12.85.23-19.26.23-6.23.81-12.43,1.49-18.63.94-8.55,2.31-17,4-25.44a279.85,279.85,0,0,1,15.79-51.34,281.76,281.76,0,0,1,45.43-74.44,284.24,284.24,0,0,1,93-72.42,277.64,277.64,0,0,1,66.57-22.66c8.23-1.68,16.51-3,24.86-4s16.55-1.57,24.86-1.78c2.83-.07,5.66-.19,8.13-.28,8.68.27,17,.42,25.27,1.18a284.77,284.77,0,0,1,90.34,23.29,282.45,282.45,0,0,1,63.81,39.16,284.11,284.11,0,0,1,67.09,78.36,283.07,283.07,0,0,1,30,74.34,278,278,0,0,1,5.56,28.9c.89,6.45,1.48,12.93,2,19.44s.65,12.83.68,19.25C-1087.51,374.23-1087.68,380.84-1088.19,387.45Z" transform="translate(1698.49 -47.35)"/><path class="cls-15" d="M-1090.21,328.94a278,278,0,0,0-5.56-28.9,283.07,283.07,0,0,0-30-74.34,284.11,284.11,0,0,0-67.09-78.36,282.45,282.45,0,0,0-63.81-39.16A284.77,284.77,0,0,0-1347,84.89c-8.28-.76-16.59-.91-25.27-1.18-2.47.09-5.3.21-8.13.28-8.31.21-16.59.82-24.86,1.78s-16.63,2.32-24.86,4a277.64,277.64,0,0,0-66.57,22.66,284.24,284.24,0,0,0-93,72.42,281.76,281.76,0,0,0-45.43,74.44A279.85,279.85,0,0,0-1651,310.63c-1.72,8.42-3.09,16.89-4,25.44-.68,6.2-1.26,12.4-1.49,18.63-.24,6.41-.36,12.83-.23,19.26q.27,13.34,1.74,26.56c.89,8,2.09,15.92,3.67,23.78a279.73,279.73,0,0,0,23.51,69.25A283.21,283.21,0,0,0-1553,587.89a282.33,282.33,0,0,0,89.62,49.85,279.56,279.56,0,0,0,54,12.47c7.12.92,14.26,1.69,21.42,2a293.4,293.4,0,0,0,53.16-2c6.37-.87,12.71-1.85,19-3.11a279.73,279.73,0,0,0,45.1-13,284.13,284.13,0,0,0,90.41-55.7,283.31,283.31,0,0,0,31.12-33.3,283.93,283.93,0,0,0,39.29-66,283.77,283.77,0,0,0,16.82-54.57q2.2-10.83,3.5-21.8c.6-5.07,1-10.15,1.41-15.23.51-6.61.68-13.22.64-19.82,0-6.42-.19-12.84-.68-19.25S-1089.32,335.39-1090.21,328.94ZM-1231,425.06c.06,1.61.17,3.21.22,4.81,0,.24,0,.57-.37.65a1.07,1.07,0,0,1-1.05-.23,4.64,4.64,0,0,1-.71-1.22c-1.78-4.25-6.75-6.05-11.48-5a11.53,11.53,0,0,0-7.83,6,15.74,15.74,0,0,0,1.65,17,10.49,10.49,0,0,0,9.77,4c3.54-.42,5.06-2.33,5-5.35,0-.38,0-.76,0-1.13,0-2.15-.21-2.44-2.17-3a16.12,16.12,0,0,0-2-.3c-1.11-.16-1.37-.35-1.37-1s.39-1,1.66-.94c1.79,0,3.58,0,5.37,0v.19l5.94-.21c.52,0,.91.21.92.8s0,1.07-.6,1.13c-2.3.23-2.59,1.87-2.6,3.66,0,1.5.11,3,.19,4.52.09,1.67.07,1.75-1.41,2.28-5.72,2.08-11.55,2.87-17.46,1s-9.89-5.9-10.8-12.22a16.06,16.06,0,0,1,10.7-17.89c5.9-2.08,11.69-1.43,17.38.92A1.52,1.52,0,0,1-1231,425.06Zm-300.65-28.28a27.06,27.06,0,0,1,1.33-2.49q7.79-13.34,15.6-26.66,17-29,34-57.94l44-75q24.43-41.68,48.88-83.36a20,20,0,0,1,2.08-3.29,5.49,5.49,0,0,1,1.73,2.34q22.65,38.63,45.27,77.26l39.7,67.71,41.4,70.66q8.23,14.05,16.49,28.11c.52.89,1,1.81,1.48,2.74a.51.51,0,0,1-.46.79c-.66.05-1.32,0-2,0h-71.16c-.56,0-1.13,0-1.7,0-1-.06-1.25-.3-1.3-1.42,0-.66,0-1.33,0-2V349.15c0-2.47,0-2.49,2.51-2.5s4.7,0,7,0c.39-.85-.24-1.14-.6-1.5-4.82-4.67-9.66-9.31-14.49-14l-21.78-21.1c-1.78-1.73-1.73-1.82-3.57,0l-27.71,26.81-7.74,7.49c-.47.46-.93.93-1.37,1.43a.52.52,0,0,0,.34.83c2.08,0,4.16.06,6.23.06,2.94,0,2.83-.07,2.83,2.76V395c0,2.59,0,2.61-2.69,2.61q-18.29,0-36.57,0c-.38,0-.75,0-1.13,0-1.39-.06-1.53-.22-1.59-1.72,0-.38,0-.76,0-1.13V367.57c0-3-.06-3,3-2.72,3.67.29,7.33.66,11,1,3.1.27,6.21.53,9.31.77.56,0,1.12,0,1.69,0,.2-1.15-.47-1.9-.87-2.71q-7.8-15.92-15.62-31.79a6,6,0,0,1-1-2.79c3.25,1.33,6,3.34,9.31,4.84a16.23,16.23,0,0,0-1.34-3.63c-.47-1.24-1-2.46-1.49-3.67s-1-2.25-1.46-3.39-.92-2.27-1.39-3.41-1-2.43-1.56-3.64-1-2.26-1.44-3.39-1-2.45-1.5-3.67-1-2.25-1.46-3.39-.91-2.27-1.38-3.41-1.05-2.43-1.55-3.65-.91-2.24-1.5-3.72c2.46.88,4,2.7,6,3.51.47-.43.28-.9.05-1.36-1-3.34-2-6.69-3-10-2.74-8.72-5.52-17.43-8.28-26.15a4.33,4.33,0,0,0-1-2.08,2.76,2.76,0,0,0-.44.65c-4.09,12.93-8.16,25.86-12.31,39a3.07,3.07,0,0,0,2.11-.87c.72-.45,1.4-.95,2.11-1.42s1.26-.8,1.88-1.19c.54.68.06,1.15-.14,1.61q-5.65,13.58-11.36,27.14c-1.09,2.6-2.19,5.21-3.28,7.82a2.74,2.74,0,0,0-.39,1.85,2.1,2.1,0,0,0,1.54-.47c1.82-1,3.63-2,5.46-3a2.87,2.87,0,0,1,1.94-.66,18.46,18.46,0,0,1-1.56,3.57c-.59,1.29-1.23,2.56-1.85,3.83s-1.13,2.39-1.71,3.58l-1.87,3.81c-.59,1.19-1.17,2.38-1.76,3.56s-1.17,2.37-1.76,3.56-1.25,2.54-1.88,3.81-1.17,2.37-1.75,3.56l-1.9,3.8c-.58,1.17-1.14,2.35-1.66,3.41.35.78.88.61,1.3.58,3.58-.28,7.15-.59,10.73-.88,3.85-.32,7.71-.66,11.57-.94,1.3-.1,1.52.14,1.55,1.39s0,2.65,0,4q0,12.33,0,24.67c0,2.89.07,2.84-2.75,2.84q-16.15,0-32.31,0h-65.77c-1,0-1.89,0-2.83-.07A.54.54,0,0,1-1531.62,396.78ZM-1268,452.12c0,.19,0,.38,0,.57,0,.54.18,1.25-.51,1.44a2.23,2.23,0,0,1-2.17-.28,11.48,11.48,0,0,1-1.3-1.48c-6.06-7.48-12.44-14.7-18.8-21.94-.37-.42-.73-.85-1-1.2-.49.14-.63.35-.63.65l0,17.28c0,.19,0,.38,0,.57.17,2.95-.12,2.6,2.72,3.33a2.6,2.6,0,0,1,.82.2,1.43,1.43,0,0,1,.42,1.53c-.09.47-.42.57-.82.56l-9.63-.09a.78.78,0,0,1-.9-.82,1,1,0,0,1,.66-1.1l.26-.1c3.24-1.11,3.44-1.25,3.49-4.53.1-6,.08-12.09.09-18.13a8,8,0,0,0-.26-1.95,2.83,2.83,0,0,0-2.08-2.12c-.73-.2-1.46-.38-2.18-.59a1.62,1.62,0,0,1-1-.95.61.61,0,0,1,.39-.87,18.77,18.77,0,0,1,2-.11c2.45,0,4.91.09,7.36,0a2.46,2.46,0,0,1,2.14,1.07q3.77,4.59,7.61,9.14c3.29,3.89,6.61,7.75,10,11.71a1.21,1.21,0,0,0,.6-1.23q0-6.8,0-13.59c0-.47,0-.95-.06-1.42-.22-3.43-.53-3.33-3-3.82a1.07,1.07,0,0,1-1-1.13c0-.5.08-1,.7-1a15.92,15.92,0,0,1,1.69.07,40.1,40.1,0,0,0,7.35,0,.77.77,0,0,1,.94.78c0,.46.12,1-.43,1.23s-1.26.39-1.86.67a2.54,2.54,0,0,0-1.61,2.44c0,.47,0,.95,0,1.42Zm-45.43-24.35c0-1.85-.43-3.1-2.37-3.57a2.34,2.34,0,0,1-1.8-1.24,1.52,1.52,0,0,1-.1-.79c0-.34.37-.41.64-.43.47,0,.95,0,1.42,0l9.62.23c.57,0,1.13,0,1.7,0s.92.11,1,.73-.12,1-.86,1.17c-.45.13-.91.22-1.36.35a2.14,2.14,0,0,0-1.67,2.31c0,2.92,0,5.85,0,8.78,0,4.34,0,8.68,0,13,0,1.73.34,2.12,2,2.6.45.13.94.13,1.38.29s.55.7.54,1.18a.77.77,0,0,1-.88.84h-6.23v0h-6.23c-.58,0-.8-.37-.83-.9s.1-.94.64-1.11c.26-.09.55-.11.82-.2,2.17-.74,2.55-1.21,2.55-3.45C-1313.48,441-1313.54,434.37-1313.46,427.77Zm-55.7.22c0-.57,0-1.13,0-1.7a2.06,2.06,0,0,0-1.42-1.93c-.61-.23-1.26-.39-1.87-.63-.42-.16-.43-.58-.43-1a.66.66,0,0,1,.68-.72c.56-.05,1.13-.06,1.7-.06h10.2c.55,0,1.16-.05,1.33.71s-.11,1-1.11,1.26c-2.8.73-3,1.26-3,3.94,0,6-.1,12.1,0,18.14,0,3.63.86,4.41,4.49,4.77a15.62,15.62,0,0,0,5-.55,3.51,3.51,0,0,0,2.25-1.59,20,20,0,0,1,1.32-1.85,2.11,2.11,0,0,1,1.43-.81.84.84,0,0,1,1,1c-.55,1.9-1.13,3.8-1.69,5.7a.82.82,0,0,1-.83.63c-.65,0-1.32,0-2,0h-9.35v-.18c-3.5.14-7,.27-10.48.42-.52,0-1-.06-1-.66-.11-.86-.08-1.37.74-1.56l.27-.08c2.41-.72,2.64-1,2.84-3.48,0-.47,0-.94,0-1.41Zm15-30.34c-.28,0-.56,0-.84,0a1,1,0,0,1-1.12-1c0-.47,0-.94,0-1.41q0-15.85,0-31.71c0-2.48,0-2.5,2.51-2.51h16.14c.47,0,.94,0,1.41,0a1,1,0,0,1,1.11,1c0,.75,0,1.51,0,2.26,0,5,0,10,0,15s0,10.19,0,15.29c0,.75,0,1.5-.09,2.25a.8.8,0,0,1-.73.74,7,7,0,0,1-1.12.08Q-1345.5,397.67-1354.14,397.65Zm-43.59,28.62a2,2,0,0,0-1.64-2c-.46-.11-.92-.23-1.37-.37a1.16,1.16,0,0,1-.73-1.54,1.17,1.17,0,0,1,.54-.56c.14-.09.37,0,.56,0a174.12,174.12,0,0,0,17.55,0c1.29,0,2.87-.64,3.79.33s.25,2.34.35,3.55c0,.75,0,1.51,0,2.26a.67.67,0,0,1-.65.75.91.91,0,0,1-1-.42,5.46,5.46,0,0,1-.29-1.09,3.28,3.28,0,0,0-3.14-2.77,24.9,24.9,0,0,0-6.22,0,1.67,1.67,0,0,0-1.65,1.64c-.12,1.12-.13,2.26-.14,3.39,0,1.8,0,3.59,0,5.38,0,.53.19.94.77,1a19.79,19.79,0,0,0,4.8-.19,2.45,2.45,0,0,0,2.06-1.7,4.47,4.47,0,0,1,.31-.79c.43-.84,1-1.22,1.47-1,.62.37.46,1,.46,1.52q0,4,.08,7.92c0,.41-.11.79-.55.81a1.07,1.07,0,0,1-.74-.36,3.67,3.67,0,0,1-.81-1.78,2.64,2.64,0,0,0-2.41-2.05,6.66,6.66,0,0,0-1.41-.12c-1.22,0-2.68-.44-3.58.26s-.35,2.3-.43,3.49a29.84,29.84,0,0,0,0,5.09c.41,3.75.6,3.71,4.1,4,1.59.13,3.2,0,4.81,0a4,4,0,0,0,3.39-1.71c.62-.84,1.16-1.72,1.73-2.6a1.15,1.15,0,0,1,1.48-.4c.49.15.91.41.74,1-.52,1.81-1.08,3.61-1.63,5.41a.89.89,0,0,1-.85.62c-.66.05-1.32.09-2,.09h-9.22c-4,.06-7.59-.06-11.17.3-.5.05-1,0-1.08-.6-.18-.91.09-1.32.73-1.55,2.82-1,2.88-1,2.91-3.92.06-6.6.07-13.21.08-19.82A13.36,13.36,0,0,0-1397.73,426.27Zm-18.32,1.86c0,6,0,12.08,0,18.12,0,.66,0,1.32,0,2a2.67,2.67,0,0,0,1.82,2.6c.52.22,1.12.27,1.61.52s.49.76.44,1.24a.68.68,0,0,1-.74.67c-1.51,0-3-.06-4.53,0-2.64,0-5.28.11-7.92.16-.5,0-1-.07-1-.7s0-1.15.7-1.35c.27-.08.55-.12.82-.21,2-.69,2.41-1.23,2.46-3.27.07-2.73.08-5.47.09-8.21,0-4.43,0-8.87,0-13.3a8.28,8.28,0,0,0-.07-1.41.59.59,0,0,0-.58-.51c-1.41,0-2.83,0-4.23.16a4.25,4.25,0,0,0-3.23,2.05,13.11,13.11,0,0,1-1.3,1.85.85.85,0,0,1-1,0c-.23-.14-.51-.27-.47-.63s0-.56.07-.84c.34-2.42.68-4.83,1.05-7.43a3.34,3.34,0,0,1,2.06.93,4.94,4.94,0,0,0,3.65,1.18c4.72,0,9.44,0,14.16,0a7.36,7.36,0,0,0,4.28-1.16,5.24,5.24,0,0,1,2.27-1.07c.56.3.37.81.31,1.22-.3,2.24-.63,4.48-1,6.72-.07.45-.14,1-.81.89a.82.82,0,0,1-.81-.67c-.2-2.61-2-3.23-4.14-3.23C-1416.79,424.39-1416,423.74-1416,428.13Zm-117-1.54a2.09,2.09,0,0,0-1.33-2c-.67-.33-1.4-.57-2.06-.92a1.47,1.47,0,0,1-.74-1.15.58.58,0,0,1,.38-.67,2.45,2.45,0,0,1,.81-.12l11.61.26c.46,0,.95-.05,1.14.55a1,1,0,0,1-.62,1.33c-2.92.47-3,.73-3.2,4-.13,2.07,0,4.16,0,6.23,0,.69.41,1,1.08,1h14.45a.8.8,0,0,0,.91-.84,80.31,80.31,0,0,0,0-8.21,1.74,1.74,0,0,0-1.46-1.8,9.09,9.09,0,0,1-1.89-.52,1.07,1.07,0,0,1-.42-1.24c.05-.34.36-.37.63-.41a1.33,1.33,0,0,1,.28,0c3.88,0,7.75,0,11.62,0,.83,0,1.12.3,1.12.93a.86.86,0,0,1-.79,1,5.44,5.44,0,0,0-.82.19c-2,.67-2.25.9-2.26,3,0,6.89,0,13.79,0,20.68,0,.29,0,.57,0,.85a2.2,2.2,0,0,0,1.73,2.29c.53.18,1.11.23,1.64.42s.63.63.61,1.14-.39.79-.92.79l-11.9,0a.91.91,0,0,1-1-.76,1,1,0,0,1,.77-1.29c.91-.23,1.91-.28,2.54-1.09s.53-2,.55-3c.06-2.73,0-5.47,0-8.21,0-.71-.35-1-1-1-4.72,0-9.45,0-14.17,0-1,0-1.26.21-1.26,1.08,0,3-.06,6,0,9.06.08,2.26.29,2.41,2.6,3,.45.11.93.1,1.16.63a1.06,1.06,0,0,1-.89,1.59h-11.33c-.29,0-.57,0-.85,0-.61,0-.7-.55-.83-1a.73.73,0,0,1,.47-.91c.6-.25,1.26-.37,1.88-.6a2.48,2.48,0,0,0,1.73-2.35q0-.71,0-1.41,0-9.64,0-19.27C-1533,427.35-1533,427-1533,426.59Zm-35.53,74.81c-.07.58-.45.75-1,.75h-11.89c-.46,0-.94,0-1.22-.47a1.19,1.19,0,0,1,.59-1.63c1.07-.31,2.32-.3,3-1.39s.35-2.21.37-3.32c0-3,0-6,0-9.06h0c0-3.39,0-6.79,0-10.19,0-1.52-.45-2.53-2-3a3.16,3.16,0,0,1-2.09-1.32c-.16-.28,0-.87.3-.93a2.53,2.53,0,0,1,.55-.09l12.45,0a.77.77,0,0,1,.9.82c0,.49-.07.94-.63,1.1l-.27.07c-2.94,1-3,1-3,4.15,0,6.51,0,13,0,19.53,0,.38,0,.76,0,1.13a2.07,2.07,0,0,0,1.82,2.18c.45.13.94.14,1.38.28C-1568.53,500.24-1568.49,500.8-1568.56,501.4Zm38.94-28.7c-.63.2-1.3.3-1.9.55a2.46,2.46,0,0,0-1.61,2.15c0,.57,0,1.13,0,1.7,0,7.93-.25,15.86.09,23.78,0,.38,0,.76,0,1.14a.88.88,0,0,1-.85.92,2.86,2.86,0,0,1-2.92-1.24c-5.89-7.5-12.26-14.6-18.53-21.78-.62-.7-1.26-1.38-2-2.15-.32.29-.44.35-.44.41q0,8.64,0,17.27c0,.75.15,1.5.18,2.26a2.07,2.07,0,0,0,1.67,2c.54.15,1.11.22,1.64.41a1.1,1.1,0,0,1,.73,1.1c0,.39,0,.76-.46.86a3.92,3.92,0,0,1-.84.07l-8.78,0c-.56,0-1.18.09-1.28-.71s.18-1.14,1-1.42a3.15,3.15,0,0,1,.55-.12,3,3,0,0,0,2.62-2.89,19.06,19.06,0,0,0,.23-2.25q0-7.94,0-15.86c0-.56,0-1.13-.09-1.69-.19-3-.56-3.41-3.56-4.16-.37-.09-.74-.17-1.1-.29-.53-.17-.74-.71-.6-1.37a.71.71,0,0,1,.8-.61l9.34.15a1.56,1.56,0,0,1,1.2.64c.72.87,1.46,1.73,2.19,2.59q6.94,8.22,13.9,16.43c.58.69,1.07,1.53,2,1.86a2.3,2.3,0,0,0,.33-1.7q0-6.8,0-13.59c0-.66,0-1.32-.07-2a2,2,0,0,0-1.83-2.14,6.21,6.21,0,0,1-.81-.24c-1.26-.36-1.56-.62-1.44-1.3.16-1,1-.71,1.56-.72,2.64,0,5.28,0,7.93,0a5.91,5.91,0,0,1,.84,0,.73.73,0,0,1,.71.72C-1529.07,472-1529,472.51-1529.62,472.7Zm29,3.68a1,1,0,0,1-.48.63.78.78,0,0,1-1-.14,1.46,1.46,0,0,1-.2-.5c-.59-2.57-.75-2.73-3.23-3a8.71,8.71,0,0,0-1.14-.06c-4.23.09-3.63-.59-3.65,3.54,0,6,0,12.09,0,18.13,0,.66,0,1.32,0,2a2.86,2.86,0,0,0,2,2.81c.51.22,1.06.36,1.56.62s.31.64.3,1a.67.67,0,0,1-.7.7c-.85,0-1.7,0-2.55,0l-9.64.07c-.44,0-1,.08-1.13-.55a1,1,0,0,1,.63-1.34c2.7-.5,3.32-2.28,3.31-4.75,0-6.89,0-13.79.07-20.68,0-1.47-.07-1.53-1.64-1.56a14.59,14.59,0,0,0-3.67.22,4.16,4.16,0,0,0-2.76,1.8,10.26,10.26,0,0,1-.61.95c-.74,1-1.7,1.58-2,1.23-.59-.65-.19-1.44-.12-2.15.19-1.87.5-3.74.7-5.61.1-.93.79-1.46,1.81-.74a8.08,8.08,0,0,1,.65.54,5,5,0,0,0,3.39,1.19c4.53,0,9.07,0,13.6,0a8.37,8.37,0,0,0,5.58-1.66,7.46,7.46,0,0,1,1.72-.79c.13.18.22.24.22.31A46.89,46.89,0,0,1-1500.58,476.38Zm18.83-55.26a22.12,22.12,0,0,1,9.78.91c9.09,3.09,14.27,14.67,7.79,23.92a18.7,18.7,0,0,1-14.79,8.26,16.69,16.69,0,0,1-16.75-11.83,23.81,23.81,0,0,1-.6-4.64A16.76,16.76,0,0,1-1481.75,421.12Zm12.18,74.63c-.06.27-.18.54-.26.81-.34,1.18-.66,2.36-1,3.53-.58,1.94-.58,2-2.7,2-3.4,0-6.8,0-10.59,0a92.2,92.2,0,0,0-10.37.3c-.52.06-.93,0-1.09-.58a1.09,1.09,0,0,1,.76-1.51c.53-.18,1.09-.32,1.61-.54a2,2,0,0,0,1.28-1.72c0-.56.07-1.13.09-1.7.17-6.52.16-13,0-19.56,0-.18,0-.37,0-.56-.1-2.48-.24-2.67-2.55-3.39-.36-.11-.74-.17-1.09-.29s-.46-.54-.46-.92a.71.71,0,0,1,.61-.8,7.14,7.14,0,0,1,1.13-.06l19,0c.37,0,.75,0,1.13,0,1,0,1.21.21,1.22,1.12,0,1.7,0,3.4,0,5.1,0,.25,0,.56-.35.67a.82.82,0,0,1-1-.32,6.57,6.57,0,0,1-.83-1.78,2.74,2.74,0,0,0-2.35-2.14,15.8,15.8,0,0,0-6.46-.21c-1.44.31-1.86.66-1.9,2-.08,2.83,0,5.67,0,8.5,0,.6.41.82.93.82,1.32,0,2.64,0,4-.05a2.87,2.87,0,0,0,2.67-1.77c.37-.79.51-1.89,1.76-1.9.55.74.32,1.61.33,2.41,0,2.27,0,4.54,0,6.81,0,.36,0,.78-.51.86a1,1,0,0,1-1.09-.68,3.8,3.8,0,0,1-.21-.82c-.21-1.59-1.33-2.18-2.72-2.44a17.18,17.18,0,0,0-4.24-.07.85.85,0,0,0-.91.86c0,3.21,0,6.43,0,9.64a2,2,0,0,0,1.6,2.07,5.38,5.38,0,0,0,1.37.28c2,0,4,0,6,0a3.89,3.89,0,0,0,3.48-2.06,21.29,21.29,0,0,1,1.25-1.89,2.58,2.58,0,0,1,1.39-.91C-1470.13,494.7-1469.46,495.2-1469.57,495.75Zm32.51,5.61c0,.6-.41.79-.94.79-2.36,0-4.72,0-7.08,0a1.47,1.47,0,0,1-1.37-.81c-1.22-2-2.45-4-3.64-6.06-1.29-2.19-2.56-4.4-3.82-6.61a4,4,0,0,0-3.51-2,.77.77,0,0,0-.93.79,86.44,86.44,0,0,0,0,10.18,2.23,2.23,0,0,0,2.08,2.27,6,6,0,0,1,1.1.25,1.23,1.23,0,0,1,.52,1.46c-.1.46-.42.57-.82.58h-11.89c-.49,0-1-.09-1-.71s0-1.2.65-1.37c1.11-.28,2.25-.45,3-1.49s.39-2.21.4-3.31c0-6,0-12.08,0-18.12,0-.66,0-1.33,0-2a1.92,1.92,0,0,0-1.61-2c-.63-.18-1.3-.25-1.92-.45s-.57-.7-.57-1.17.39-.81.93-.8c.75,0,1.51,0,2.26,0,2.74,0,5.47,0,8.21,0,1.79,0,3.59,0,5.37.16a9,9,0,0,1,5,1.9,6.63,6.63,0,0,1,2.64,6.75,5.3,5.3,0,0,1-2.88,4c-.91.46-1.83.89-3,1.48a51.85,51.85,0,0,1,6,9c.48.82,1,1.62,1.46,2.43a6.47,6.47,0,0,0,4.52,3.53,1.47,1.47,0,0,1,.53.19A1.2,1.2,0,0,1-1437.06,501.36Zm-7.56-47.48a19.14,19.14,0,0,1-10.29-1.11,1.09,1.09,0,0,1-.84-1c-.12-1.79-.24-3.57-.34-5.36,0-.33.52-.6.85-.51a2.12,2.12,0,0,1,1.29,1c.39.65.7,1.34,1.09,2,2.3,3.75,8,3.64,10.52.55a4.38,4.38,0,0,0-.34-6.14,11.23,11.23,0,0,0-2.25-1.69c-1.22-.72-2.51-1.31-3.76-2a22.4,22.4,0,0,1-4.67-3.18,9,9,0,0,1,3.28-14.83c3.64-1.37,7.25-.78,10.71.85a1.22,1.22,0,0,1,.76,1.09c0,.94.09,1.89.14,2.83h.11c0,.66,0,1.32,0,2a.76.76,0,0,1-.63.81.87.87,0,0,1-1-.32,13.25,13.25,0,0,1-.6-1.26,9.61,9.61,0,0,0-1.63-2.64,5.36,5.36,0,0,0-8.36.59,4,4,0,0,0,.24,5,12.28,12.28,0,0,0,4.11,2.95c1.69.83,3.42,1.61,5,2.55a9.08,9.08,0,0,1,4.59,7.69A9.54,9.54,0,0,1-1444.62,453.88Zm44.58,18.8c-.61.24-1.28.36-1.87.63a2.61,2.61,0,0,0-1.6,2.18,18.73,18.73,0,0,0-.08,2q0,10.2,0,20.4c0,1.13,0,2.27,0,3.4,0,.56.13,1.19-.38,1.58a2.76,2.76,0,0,1-2.62-.49c-.51-.55-1-1.16-1.45-1.74-6-7.41-12.32-14.57-18.65-21.7a1.94,1.94,0,0,0-1.35-.9c0,6.49,0,12.81,0,19.13,0,1.72.41,2.17,2,2.63.36.1.75.1,1.11.2a1.18,1.18,0,0,1,.89,1.51c-.1.62-.55.67-1,.67h-9.35c-.49,0-.94-.09-1-.72a1.09,1.09,0,0,1,.77-1.31l.54-.17c2.59-.8,3.06-1.28,3.15-3.93s0-5.28,0-7.93c0-3.78,0-7.56,0-11.33,0-2.23-.74-3.06-2.83-3.59-.46-.12-.93-.15-1.39-.26a1.11,1.11,0,0,1-.9-1.46c.1-.6.52-.71,1-.7,2,0,4,0,6,.15,1.3.07,2.75-.44,3.86.33a15.29,15.29,0,0,1,2.44,2.73q7.41,8.76,14.83,17.51c.35.4.61.94,1.2,1,.39-.09.37-.41.37-.67q0-7.5,0-15c0-.57,0-1.14-.06-1.7-.12-1.4-.37-1.71-1.81-2.13-.54-.17-1.1-.25-1.65-.4s-.53-.68-.5-1.14a.67.67,0,0,1,.73-.68c1.32,0,2.64,0,4,0,1.8,0,3.59,0,5.39,0a.71.71,0,0,1,.72.7C-1399.54,472-1399.48,472.46-1400,472.68Zm32.87,28.79c-.1.8-.76.68-1.31.68l-8.5,0c-.94,0-1.89,0-2.83,0a.7.7,0,0,1-.69-.74c0-.37-.07-.83.3-1,.59-.27,1.25-.39,1.87-.61,1.13-.41,1.52-1.08,1.11-2.17-.77-2-1.65-4-2.45-6a1.23,1.23,0,0,0-1.31-.82h-7.64c-.61,0-1.13.13-1.34.79-.64,2.07-1.33,4.13-1.89,6.22a1.48,1.48,0,0,0,1.09,2c.53.18,1.1.27,1.65.4a1,1,0,0,1,.8,1.26c-.06.61-.47.74-1,.73-2.92,0-5.85,0-8.78,0-.35,0-.74,0-.89-.48a1.12,1.12,0,0,1,.63-1.36,7.59,7.59,0,0,1,.78-.33,4.77,4.77,0,0,0,3-3.18c2.77-7.42,5.59-14.82,7.82-22.43a7.19,7.19,0,0,1,4-5,4.65,4.65,0,0,1,1.24,2.32q5.11,12.43,10.16,24.88c.18.43.4.86.54,1.3a2.72,2.72,0,0,0,2.14,2,4.45,4.45,0,0,1,.81.24A1.14,1.14,0,0,1-1367.17,501.47Zm25-25.21c-.07.5-.29.88-.9.84a.93.93,0,0,1-1-.85c0-.28-.08-.56-.12-.84a2.06,2.06,0,0,0-1.83-1.85,21,21,0,0,0-5.36-.24.72.72,0,0,0-.73.71,7.87,7.87,0,0,0,0,.84q0,9.64,0,19.28c0,.66.1,1.32.06,2-.1,1.95.59,3.31,2.62,3.77a2.15,2.15,0,0,1,.51.24c.52.27,1,.65,1,1.27-.05.82-.8.62-1.31.63-4.06,0-8.13.07-12.19.09-.37,0-.73-.05-.85-.54a1.1,1.1,0,0,1,.63-1.37,4,4,0,0,1,.8-.27c1.86-.29,2.45-1.56,2.52-3.23,0-.94.1-1.89.1-2.83q0-9.08,0-18.14c0-.57,0-1.14-.06-1.7a.72.72,0,0,0-.7-.73c-.94,0-1.89-.06-2.83,0-2.23.06-4.06.82-5.07,3a7.34,7.34,0,0,1-.6,1c-.16.24-.41.48-.69.36a2.11,2.11,0,0,1-.85-.65,1.34,1.34,0,0,1-.1-.83c.29-2.24.59-4.49.91-6.73a.86.86,0,0,1,1.29-.63,1.38,1.38,0,0,1,.24.14c1.85,1.84,4.18,2,6.59,1.91s5.1,0,7.65,0q2.27,0,4.53-.12a7,7,0,0,0,4.47-1.52,5.93,5.93,0,0,1,1.5-.78c.13-.06.34.05.52.08a1.55,1.55,0,0,1,.14.53C-1341.5,471.39-1341.81,473.82-1342.13,476.26Zm18.09,25.87q-6.09,0-12.18,0c-.47,0-.93-.06-1-.69a1.14,1.14,0,0,1,.9-1.48c.36-.1.75-.1,1.1-.23,1.49-.5,2-1.07,2-2.68,0-7.09,0-14.17,0-21.25a2.42,2.42,0,0,0-2-2.67,9.14,9.14,0,0,1-1.59-.57c-.52-.25-.45-.77-.41-1.24s.45-.55.82-.55h12.47c.39,0,.72.11.82.58a1.1,1.1,0,0,1-.61,1.38c-.35.12-.73.18-1.09.29-1.86.53-2.12.79-2.13,2.76q-.06,10.47,0,21c0,2.45.18,2.6,2.66,3.14.46.1.92.12,1.15.64A1.1,1.1,0,0,1-1324,502.13Zm4.11-55.07c-.55,1.9-1.13,3.79-1.72,5.68a.89.89,0,0,1-.84.64c-.57,0-1.13,0-1.7,0h-9.63v-.18l-10.47.42c-.55,0-.93-.17-1-.73s-.14-1.17.57-1.42a3.46,3.46,0,0,1,.82-.23,2.33,2.33,0,0,0,2.3-2.4,21.36,21.36,0,0,0,.2-2.25c0-6.23,0-12.47,0-18.7,0-.38,0-.76,0-1.13a2.4,2.4,0,0,0-1.86-2.52,6,6,0,0,1-1.58-.59c-.21-.15-.2-.67-.24-1s.28-.47.53-.54a3.41,3.41,0,0,1,.85-.07H-1333a4.22,4.22,0,0,1,1.12.11.9.9,0,0,1,.58.88.75.75,0,0,1-.52.87c-.36.11-.73.2-1.1.28-1.7.42-2.24.44-2.53,3.16a16,16,0,0,0,0,1.7q0,8.07,0,16.15V446c.09,4.29,1.19,4.49,4.7,4.82a19.09,19.09,0,0,0,4.5-.4,4,4,0,0,0,2.52-1.72c.52-.67,1-1.39,1.47-2.08s1.09-.75,2-.23C-1320,446.55-1319.85,446.78-1319.93,447.06Zm34.14,47c-3.54,5.39-8.53,8.57-15,8.91a16.31,16.31,0,0,1-17-11.81A16.81,16.81,0,0,1-1303,469.82a19.73,19.73,0,0,1,10.23,1.61c6,2.87,9,7.75,9.34,14.34A14.5,14.5,0,0,1-1285.79,494.1Zm41.55-21.44c-1.16.36-2.47.48-3.16,1.67s-.36,2.4-.36,3.61c0,7.64,0,15.29,0,22.94a7.37,7.37,0,0,1,0,1.41c0,.22-.28.55-.48.58-1,.17-2,.28-2.81-.75s-1.75-2.23-2.67-3.3q-8.67-10.11-17.36-20.19a9.35,9.35,0,0,0-.69-.65,1.38,1.38,0,0,0-.42,1.23l0,17.28q0,.7,0,1.41a1.64,1.64,0,0,0,1.08,1.52c.7.28,1.44.44,2.16.65s.8.71.77,1.32-.44.76-1,.76c-3.31,0-6.61,0-9.91,0-.26,0-.59-.11-.61-.47a1.73,1.73,0,0,1,.13-.79,2.31,2.31,0,0,1,1.63-1,3,3,0,0,0,2.54-3c.09-.93.27-1.87.28-2.81q0-7.63,0-15.29c0-.85-.06-1.7-.12-2.55a3.18,3.18,0,0,0-2.56-3c-.72-.21-1.48-.3-2.2-.53-.52-.17-.58-.68-.58-1.17s.42-.8.92-.79c3,0,6,.1,9.06.13a1.8,1.8,0,0,1,1.46.7q1.62,2,3.27,3.91l13.58,16,1,1.18c.55-.08.65-.34.65-.62q0-7.93,0-15.86c0-.38,0-.76,0-1.14a2.06,2.06,0,0,0-1.48-1.87c-.72-.25-1.48-.36-2.17-.65-.34-.15-.32-.63-.29-1a.67.67,0,0,1,.44-.64,1.76,1.76,0,0,1,.55-.09h8.78a1,1,0,0,1,.94.46C-1243.58,471.68-1243.79,472.52-1244.24,472.66Zm32.18,29.46a1.81,1.81,0,0,1-.57,0h-11c-.46,0-1,0-1.08-.61a1.08,1.08,0,0,1,.67-1.37c1-.41,2.44-.42,2.78-1.65.27-1-.57-1.93-.92-2.89-.49-1.32-1.1-2.6-1.61-3.92a1.23,1.23,0,0,0-1.22-1h-8.76a48.73,48.73,0,0,0-2.4,7.07,1.28,1.28,0,0,0,.76,1.63c.68.32,1.4.55,2.09.85a1.27,1.27,0,0,1,.86,1c0,.28,0,.56-.3.69a1.24,1.24,0,0,1-.54.11l-9.06,0c-.39,0-.76-.07-.83-.54s-.14-.95.38-1.24a1.19,1.19,0,0,1,.25-.13c2.31-.49,3.3-2.11,4-4.22,2.74-7.72,5.84-15.32,8-23.26a3.05,3.05,0,0,1,1.23-1.83c.77-.53,1.53-1.09,2.26-1.62.87.57.95,1.48,1.26,2.24q5,12.17,9.85,24.36c.18.44.39.86.53,1.31a3.56,3.56,0,0,0,2.86,2.8,1.53,1.53,0,0,1,1,.53c.18.26.11.71.13,1.08S-1211.81,502.05-1212.06,502.12Zm28.7-6.24q-.83,2.85-1.69,5.69a.9.9,0,0,1-.89.58c-.75,0-1.51,0-2.27,0h-9.06c-3.49,0-7-.06-10.47.3a.93.93,0,0,1-1-.35c-.3-.49,0-.9.3-1.27a1.77,1.77,0,0,1,.67-.49,8.71,8.71,0,0,1,1.31-.52,1.93,1.93,0,0,0,1.4-1.91c.07-.84.17-1.69.17-2.54,0-6.33,0-12.65-.07-19,0-.38,0-.76,0-1.13a2,2,0,0,0-1.52-2.11,11.13,11.13,0,0,1-1.35-.43,1.15,1.15,0,0,1-.6-1.39c.13-.48.5-.53.86-.54l11.9,0c.59,0,.79.38.86.9a.93.93,0,0,1-.59,1.13c-.45.15-.93.2-1.38.34-1.46.45-1.81.84-1.88,2.42-.08,1.79-.07,3.59-.08,5.38,0,4.63,0,9.26,0,13.88,0,3.77.67,4.46,4.32,4.82a17.92,17.92,0,0,0,5.06-.45,3.64,3.64,0,0,0,2.28-1.57c.5-.69.92-1.43,1.41-2.13s1-.77,1.94-.26C-1183.46,495.38-1183.28,495.59-1183.36,495.88Z" transform="translate(1698.49 -47.35)"/><path class="cls-16" d="M-1531.13,397.58c.94.05,1.88.07,2.83.07h65.77q16.15,0,32.31,0c2.82,0,2.75,0,2.75-2.84q0-12.35,0-24.67c0-1.32,0-2.64,0-4s-.25-1.49-1.55-1.39c-3.86.28-7.72.62-11.57.94-3.58.29-7.15.6-10.73.88-.42,0-1,.2-1.3-.58.52-1.06,1.08-2.24,1.66-3.41l1.9-3.8c.58-1.19,1.17-2.37,1.75-3.56s1.26-2.54,1.88-3.81,1.18-2.37,1.76-3.56,1.17-2.37,1.76-3.56l1.87-3.81c.58-1.19,1.14-2.39,1.71-3.58s1.26-2.54,1.85-3.83a18.46,18.46,0,0,0,1.56-3.57,2.87,2.87,0,0,0-1.94.66c-1.83,1-3.64,2-5.46,3a2.1,2.1,0,0,1-1.54.47,2.74,2.74,0,0,1,.39-1.85c1.09-2.61,2.19-5.22,3.28-7.82q5.68-13.58,11.36-27.14c.2-.46.68-.93.14-1.61-.62.39-1.26.78-1.88,1.19s-1.39,1-2.11,1.42a3.07,3.07,0,0,1-2.11.87c4.15-13.13,8.22-26.06,12.31-39a2.76,2.76,0,0,1,.44-.65,4.33,4.33,0,0,1,1,2.08c2.76,8.72,5.54,17.43,8.28,26.15,1,3.32,2,6.67,3,10,.23.46.42.93-.05,1.36-2-.81-3.54-2.63-6-3.51.59,1.48,1,2.61,1.5,3.72s1,2.43,1.55,3.65.91,2.28,1.38,3.41,1,2.26,1.46,3.39,1,2.45,1.5,3.67,1,2.26,1.44,3.39,1,2.42,1.56,3.64.92,2.28,1.39,3.41,1,2.25,1.46,3.39,1,2.43,1.49,3.67a16.23,16.23,0,0,1,1.34,3.63c-3.34-1.5-6.06-3.51-9.31-4.84a6,6,0,0,0,1,2.79q7.8,15.9,15.62,31.79c.4.81,1.07,1.56.87,2.71-.57,0-1.13,0-1.69,0-3.1-.24-6.21-.5-9.31-.77-3.67-.31-7.33-.68-11-1-3.08-.24-3-.28-3,2.72v27.22c0,.37,0,.75,0,1.13.06,1.5.2,1.66,1.59,1.72.38,0,.75,0,1.13,0q18.29,0,36.57,0c2.66,0,2.69,0,2.69-2.61V349.4c0-2.83.11-2.77-2.83-2.76-2.07,0-4.15,0-6.23-.06a.52.52,0,0,1-.34-.83c.44-.5.9-1,1.37-1.43l7.74-7.49,27.71-26.81c1.84-1.78,1.79-1.69,3.57,0l21.78,21.1c4.83,4.67,9.67,9.31,14.49,14,.36.36,1,.65.6,1.5-2.3,0-4.65,0-7,0s-2.48,0-2.51,2.5v45.07c0,.66,0,1.33,0,2,0,1.12.27,1.36,1.3,1.42.57,0,1.14,0,1.7,0h71.16c.66,0,1.32,0,2,0a.51.51,0,0,0,.46-.79c-.46-.93-1-1.85-1.48-2.74q-8.24-14.06-16.49-28.11l-41.4-70.66-39.7-67.71Q-1361.39,189-1384,150.34a5.49,5.49,0,0,0-1.73-2.34,20,20,0,0,0-2.08,3.29q-24.45,41.67-48.88,83.36l-44,75q-17,29-34,57.94-7.82,13.32-15.6,26.66a27.06,27.06,0,0,0-1.33,2.49A.54.54,0,0,0-1531.13,397.58Zm87.05-63.83a.18.18,0,0,1,.1,0l.06-.07,0,0-.1,0-.14.17S-1444.12,333.77-1444.08,333.75Z" transform="translate(1698.49 -47.35)"/><path class="cls-16" d="M-1335.74,397.57a.8.8,0,0,0,.73-.74c.07-.75.09-1.5.09-2.25,0-5.1,0-10.2,0-15.29s0-10,0-15c0-.75,0-1.51,0-2.26a1,1,0,0,0-1.11-1c-.47,0-.94,0-1.41,0h-16.14c-2.49,0-2.51,0-2.51,2.51q0,15.86,0,31.71c0,.47,0,.94,0,1.41a1,1,0,0,0,1.12,1c.28,0,.56,0,.84,0q8.64,0,17.28,0A7,7,0,0,0-1335.74,397.57Z" transform="translate(1698.49 -47.35)"/><path class="cls-17" d="M-1533.07,448.41a2.48,2.48,0,0,1-1.73,2.35c-.62.23-1.28.35-1.88.6a.73.73,0,0,0-.47.91c.13.44.22,1,.83,1,.28,0,.56,0,.85,0h11.33a1.06,1.06,0,0,0,.89-1.59c-.23-.53-.71-.52-1.16-.63-2.31-.56-2.52-.71-2.6-3-.09-3,0-6,0-9.06,0-.87.24-1.08,1.26-1.08,4.72,0,9.45,0,14.17,0,.68,0,1,.29,1,1,0,2.74,0,5.48,0,8.21,0,1,.14,2.13-.55,3s-1.63.86-2.54,1.09a1,1,0,0,0-.77,1.29.91.91,0,0,0,1,.76l11.9,0c.53,0,.89-.18.92-.79s-.09-1-.61-1.14-1.11-.24-1.64-.42a2.2,2.2,0,0,1-1.73-2.29c0-.28,0-.56,0-.85,0-6.89,0-13.79,0-20.68,0-2.11.24-2.34,2.26-3a5.44,5.44,0,0,1,.82-.19.86.86,0,0,0,.79-1c0-.63-.29-.92-1.12-.93-3.87,0-7.74,0-11.62,0a1.33,1.33,0,0,0-.28,0c-.27,0-.58.07-.63.41a1.07,1.07,0,0,0,.42,1.24,9.09,9.09,0,0,0,1.89.52,1.74,1.74,0,0,1,1.46,1.8,80.31,80.31,0,0,1,0,8.21.8.8,0,0,1-.91.84H-1526c-.67,0-1.07-.31-1.08-1,0-2.07-.13-4.16,0-6.23.19-3.26.28-3.52,3.2-4a1,1,0,0,0,.62-1.33c-.19-.6-.68-.54-1.14-.55l-11.61-.26a2.45,2.45,0,0,0-.81.12.58.58,0,0,0-.38.67,1.47,1.47,0,0,0,.74,1.15c.66.35,1.39.59,2.06.92a2.09,2.09,0,0,1,1.33,2c0,.38,0,.76,0,1.14q0,9.63,0,19.27Q-1533,447.71-1533.07,448.41Z" transform="translate(1698.49 -47.35)"/><path class="cls-18" d="M-1437.51,500.12a1.47,1.47,0,0,0-.53-.19,6.47,6.47,0,0,1-4.52-3.53c-.48-.81-1-1.61-1.46-2.43a51.85,51.85,0,0,0-6-9c1.22-.59,2.14-1,3-1.48a5.3,5.3,0,0,0,2.88-4,6.63,6.63,0,0,0-2.64-6.75,9,9,0,0,0-5-1.9c-1.78-.13-3.58-.15-5.37-.16-2.74,0-5.47,0-8.21,0-.75,0-1.51,0-2.26,0-.54,0-.92.23-.93.8s0,1,.57,1.17,1.29.27,1.92.45a1.92,1.92,0,0,1,1.61,2c0,.66,0,1.33,0,2,0,6,0,12.08,0,18.12,0,1.1.28,2.28-.4,3.31s-1.84,1.21-3,1.49c-.7.17-.69.8-.65,1.37s.5.71,1,.71h11.89c.4,0,.72-.12.82-.58a1.23,1.23,0,0,0-.52-1.46,6,6,0,0,0-1.1-.25,2.23,2.23,0,0,1-2.08-2.27,86.44,86.44,0,0,1,0-10.18.77.77,0,0,1,.93-.79,4,4,0,0,1,3.51,2c1.26,2.21,2.53,4.42,3.82,6.61,1.19,2,2.42,4.05,3.64,6.06a1.47,1.47,0,0,0,1.37.81c2.36,0,4.72,0,7.08,0,.53,0,.89-.19.94-.79A1.2,1.2,0,0,0-1437.51,500.12Zm-15.8-16.69a7.83,7.83,0,0,1-1.6.51c-3.9.63-3.42.8-3.52-2.72a28.69,28.69,0,0,1,.22-6.48c.25-1.28.52-1.54,1.81-1.75,3.25-.52,6.39,2.25,6.33,5S-1451.14,482.55-1453.31,483.43Z" transform="translate(1698.49 -47.35)"/><path class="cls-17" d="M-1266.47,424.47c.6-.28,1.26-.41,1.86-.67s.46-.77.43-1.23a.77.77,0,0,0-.94-.78,40.1,40.1,0,0,1-7.35,0,15.92,15.92,0,0,0-1.69-.07c-.62,0-.7.5-.7,1a1.07,1.07,0,0,0,1,1.13c2.52.49,2.83.39,3,3.82,0,.47.06,1,.06,1.42q0,6.8,0,13.59a1.21,1.21,0,0,1-.6,1.23c-3.36-4-6.68-7.82-10-11.71q-3.84-4.55-7.61-9.14a2.46,2.46,0,0,0-2.14-1.07c-2.45.05-4.91,0-7.36,0a18.77,18.77,0,0,0-2,.11.61.61,0,0,0-.39.87,1.62,1.62,0,0,0,1,.95c.72.21,1.45.39,2.18.59a2.83,2.83,0,0,1,2.08,2.12,8,8,0,0,1,.26,1.95c0,6,0,12.08-.09,18.13,0,3.28-.25,3.42-3.49,4.53l-.26.1a1,1,0,0,0-.66,1.1.78.78,0,0,0,.9.82l9.63.09c.4,0,.73-.09.82-.56a1.43,1.43,0,0,0-.42-1.53,2.6,2.6,0,0,0-.82-.2c-2.84-.73-2.55-.38-2.72-3.33,0-.19,0-.38,0-.57l0-17.28c0-.3.14-.51.63-.65.3.35.66.78,1,1.2,6.36,7.24,12.74,14.46,18.8,21.94a11.48,11.48,0,0,0,1.3,1.48,2.23,2.23,0,0,0,2.17.28c.69-.19.48-.9.51-1.44,0-.19,0-.38,0-.57l-.06-23.79c0-.47,0-.95,0-1.42A2.54,2.54,0,0,1-1266.47,424.47Z" transform="translate(1698.49 -47.35)"/><path class="cls-17" d="M-1244.77,470.77h-8.78a1.76,1.76,0,0,0-.55.09.67.67,0,0,0-.44.64c0,.38,0,.86.29,1,.69.29,1.45.4,2.17.65a2.06,2.06,0,0,1,1.48,1.87c0,.38,0,.76,0,1.14q0,7.92,0,15.86c0,.28-.1.54-.65.62l-1-1.18-13.58-16q-1.65-2-3.27-3.91a1.8,1.8,0,0,0-1.46-.7c-3,0-6-.09-9.06-.13-.5,0-.93.17-.92.79s.06,1,.58,1.17c.72.23,1.48.32,2.2.53a3.18,3.18,0,0,1,2.56,3c.06.85.12,1.7.12,2.55q0,7.65,0,15.29c0,.94-.19,1.88-.28,2.81a3,3,0,0,1-2.54,3,2.31,2.31,0,0,0-1.63,1,1.73,1.73,0,0,0-.13.79c0,.36.35.47.61.47,3.3,0,6.6,0,9.91,0,.51,0,.92-.14,1-.76s-.1-1.12-.77-1.32-1.46-.37-2.16-.65a1.64,1.64,0,0,1-1.08-1.52q0-.7,0-1.41l0-17.28a1.38,1.38,0,0,1,.42-1.23,9.35,9.35,0,0,1,.69.65q8.68,10.1,17.36,20.19c.92,1.07,1.83,2.17,2.67,3.3s1.78.92,2.81.75c.2,0,.44-.36.48-.58a7.37,7.37,0,0,0,0-1.41c0-7.65,0-15.3,0-22.94,0-1.21-.3-2.48.36-3.61s2-1.31,3.16-1.67c.45-.14.66-1,.41-1.43A1,1,0,0,0-1244.77,470.77Z" transform="translate(1698.49 -47.35)"/><path class="cls-17" d="M-1400.31,470.78c-1.8,0-3.59,0-5.39,0-1.32,0-2.64,0-4,0a.67.67,0,0,0-.73.68c0,.46-.11,1,.5,1.14s1.11.23,1.65.4c1.44.42,1.69.73,1.81,2.13,0,.56.06,1.13.06,1.7q0,7.5,0,15c0,.26,0,.58-.37.67-.59-.11-.85-.65-1.2-1q-7.42-8.75-14.83-17.51a15.29,15.29,0,0,0-2.44-2.73c-1.11-.77-2.56-.26-3.86-.33-2-.11-4-.11-6-.15-.5,0-.92.1-1,.7a1.11,1.11,0,0,0,.9,1.46c.46.11.93.14,1.39.26,2.09.53,2.8,1.36,2.83,3.59.06,3.77,0,7.55,0,11.33,0,2.65.06,5.29,0,7.93s-.56,3.13-3.15,3.93l-.54.17a1.09,1.09,0,0,0-.77,1.31c0,.63.5.72,1,.72h9.35c.48,0,.93-.05,1-.67a1.18,1.18,0,0,0-.89-1.51c-.36-.1-.75-.1-1.11-.2-1.57-.46-2-.91-2-2.63,0-6.32,0-12.64,0-19.13a1.94,1.94,0,0,1,1.35.9c6.33,7.13,12.64,14.29,18.65,21.7.48.58.94,1.19,1.45,1.74a2.76,2.76,0,0,0,2.62.49c.51-.39.38-1,.38-1.58,0-1.13,0-2.27,0-3.4q0-10.2,0-20.4a18.73,18.73,0,0,1,.08-2,2.61,2.61,0,0,1,1.6-2.18c.59-.27,1.26-.39,1.87-.63s.5-.73.45-1.2A.71.71,0,0,0-1400.31,470.78Z" transform="translate(1698.49 -47.35)"/><path class="cls-18" d="M-1292.73,471.43a19.73,19.73,0,0,0-10.23-1.61,16.81,16.81,0,0,0-14.83,21.38,16.31,16.31,0,0,0,17,11.81c6.46-.34,11.45-3.52,15-8.91a14.5,14.5,0,0,0,2.4-8.33C-1283.7,479.18-1286.69,474.3-1292.73,471.43Zm1.64,22.85a10.08,10.08,0,0,1-1.92,2.78c-3.25,3.31-8.12,4.75-13,1.18a10,10,0,0,1-2.24-2.15c-3.73-5.23-4.9-11-2.83-17.14,1.4-4.18,4.63-6.39,8.94-6.69a9.71,9.71,0,0,1,8.38,3.94,19.68,19.68,0,0,1,4.11,11.8A13.94,13.94,0,0,1-1291.09,494.28Z" transform="translate(1698.49 -47.35)"/><path class="cls-18" d="M-1479,454.21a18.7,18.7,0,0,0,14.79-8.26c6.48-9.25,1.3-20.83-7.79-23.92a22.12,22.12,0,0,0-9.78-.91,16.76,16.76,0,0,0-14.57,16.62,23.81,23.81,0,0,0,.6,4.64A16.69,16.69,0,0,0-1479,454.21Zm-9.78-24.93a9.83,9.83,0,0,1,16-2.93c4.29,4.46,5.7,9.87,4.78,15.89a11.52,11.52,0,0,1-2.44,5.35,9.52,9.52,0,0,1-5.34,3.49,9.58,9.58,0,0,1-9.93-3.25,17.34,17.34,0,0,1-4.34-11.94A15.86,15.86,0,0,1-1488.75,429.28Z" transform="translate(1698.49 -47.35)"/><path class="cls-18" d="M-1529.83,470.83a5.91,5.91,0,0,0-.84,0c-2.65,0-5.29,0-7.93,0-.61,0-1.4-.26-1.56.72-.12.68.18.94,1.44,1.3a6.21,6.21,0,0,0,.81.24,2,2,0,0,1,1.83,2.14c0,.66.07,1.32.07,2q0,6.8,0,13.59a2.3,2.3,0,0,1-.33,1.7c-.91-.33-1.4-1.17-2-1.86q-7-8.19-13.9-16.43c-.73-.86-1.47-1.72-2.19-2.59a1.56,1.56,0,0,0-1.2-.64l-9.34-.15a.71.71,0,0,0-.8.61c-.14.66.07,1.2.6,1.37.36.12.73.2,1.1.29,3,.75,3.37,1.18,3.56,4.16,0,.56.09,1.13.09,1.69q0,7.94,0,15.86a19.06,19.06,0,0,1-.23,2.25,3,3,0,0,1-2.62,2.89,3.15,3.15,0,0,0-.55.12c-.85.28-1.14.67-1,1.42s.72.71,1.28.71l8.78,0a3.92,3.92,0,0,0,.84-.07c.47-.1.49-.47.46-.86a1.1,1.1,0,0,0-.73-1.1c-.53-.19-1.1-.26-1.64-.41a2.07,2.07,0,0,1-1.67-2c0-.76-.18-1.51-.18-2.26q0-8.64,0-17.27c0-.06.12-.12.44-.41.7.77,1.34,1.45,2,2.15,6.27,7.18,12.64,14.28,18.53,21.78a2.86,2.86,0,0,0,2.92,1.24.88.88,0,0,0,.85-.92c0-.38,0-.76,0-1.14-.34-7.92-.13-15.85-.09-23.78,0-.57,0-1.13,0-1.7a2.46,2.46,0,0,1,1.61-2.15c.6-.25,1.27-.35,1.9-.55s.55-.67.5-1.15A.73.73,0,0,0-1529.83,470.83Z" transform="translate(1698.49 -47.35)"/><path class="cls-17" d="M-1249.38,422.63a16.06,16.06,0,0,0-10.7,17.89c.91,6.32,4.81,10.3,10.8,12.22s11.74,1.11,17.46-1c1.48-.53,1.5-.61,1.41-2.28-.08-1.51-.19-3-.19-4.52,0-1.79.3-3.43,2.6-3.66.56-.06.62-.64.6-1.13s-.4-.82-.92-.8l-5.94.21v-.19c-1.79,0-3.58,0-5.37,0-1.27,0-1.66.18-1.66.94s.26.88,1.37,1a16.12,16.12,0,0,1,2,.3c2,.52,2.15.81,2.17,3,0,.37,0,.75,0,1.13.1,3-1.42,4.93-5,5.35a10.49,10.49,0,0,1-9.77-4,15.74,15.74,0,0,1-1.65-17,11.53,11.53,0,0,1,7.83-6c4.73-1.06,9.7.74,11.48,5a4.64,4.64,0,0,0,.71,1.22,1.07,1.07,0,0,0,1.05.23c.38-.08.38-.41.37-.65,0-1.6-.16-3.2-.22-4.81a1.52,1.52,0,0,0-1-1.51C-1237.69,421.2-1243.48,420.55-1249.38,422.63Z" transform="translate(1698.49 -47.35)"/><path class="cls-17" d="M-1400.62,451.42c-.64.23-.91.64-.73,1.55.12.61.58.65,1.08.6,3.58-.36,7.17-.24,11.17-.3h9.22c.66,0,1.32,0,2-.09a.89.89,0,0,0,.85-.62c.55-1.8,1.11-3.6,1.63-5.41.17-.59-.25-.85-.74-1a1.15,1.15,0,0,0-1.48.4c-.57.88-1.11,1.76-1.73,2.6a4,4,0,0,1-3.39,1.71c-1.61,0-3.22.16-4.81,0-3.5-.29-3.69-.25-4.1-4a29.84,29.84,0,0,1,0-5.09c.08-1.19-.55-2.73.43-3.49s2.36-.24,3.58-.26a6.66,6.66,0,0,1,1.41.12,2.64,2.64,0,0,1,2.41,2.05A3.67,3.67,0,0,0-1383,442a1.07,1.07,0,0,0,.74.36c.44,0,.55-.4.55-.81q0-4-.08-7.92c0-.56.16-1.15-.46-1.52-.44-.25-1,.13-1.47,1a4.47,4.47,0,0,0-.31.79,2.45,2.45,0,0,1-2.06,1.7,19.79,19.79,0,0,1-4.8.19c-.58,0-.77-.44-.77-1,0-1.79,0-3.58,0-5.38,0-1.13,0-2.27.14-3.39a1.67,1.67,0,0,1,1.65-1.64,24.9,24.9,0,0,1,6.22,0,3.28,3.28,0,0,1,3.14,2.77,5.46,5.46,0,0,0,.29,1.09.91.91,0,0,0,1,.42.67.67,0,0,0,.65-.75c0-.75,0-1.51,0-2.26-.1-1.21.45-2.72-.35-3.55s-2.5-.36-3.79-.33a174.12,174.12,0,0,1-17.55,0c-.19,0-.42-.08-.56,0a1.17,1.17,0,0,0-.54.56,1.16,1.16,0,0,0,.73,1.54c.45.14.91.26,1.37.37a2,2,0,0,1,1.64,2,13.36,13.36,0,0,1,.1,1.41c0,6.61,0,13.22-.08,19.82C-1397.74,450.39-1397.8,450.42-1400.62,451.42Z" transform="translate(1698.49 -47.35)"/><path class="cls-17" d="M-1470.7,494.87a2.58,2.58,0,0,0-1.39.91,21.29,21.29,0,0,0-1.25,1.89,3.89,3.89,0,0,1-3.48,2.06c-2,0-4,0-6,0a5.38,5.38,0,0,1-1.37-.28,2,2,0,0,1-1.6-2.07c0-3.21,0-6.43,0-9.64a.85.85,0,0,1,.91-.86,17.18,17.18,0,0,1,4.24.07c1.39.26,2.51.85,2.72,2.44a3.8,3.8,0,0,0,.21.82,1,1,0,0,0,1.09.68c.5-.08.51-.5.51-.86,0-2.27,0-4.54,0-6.81,0-.8.22-1.67-.33-2.41-1.25,0-1.39,1.11-1.76,1.9a2.87,2.87,0,0,1-2.67,1.77c-1.32.05-2.64.05-4,.05-.52,0-.93-.22-.93-.82,0-2.83,0-5.67,0-8.5,0-1.37.46-1.72,1.9-2a15.8,15.8,0,0,1,6.46.21,2.74,2.74,0,0,1,2.35,2.14,6.57,6.57,0,0,0,.83,1.78.82.82,0,0,0,1,.32c.38-.11.35-.42.35-.67,0-1.7,0-3.4,0-5.1,0-.91-.21-1.08-1.22-1.12-.38,0-.76,0-1.13,0l-19,0a7.14,7.14,0,0,0-1.13.06.71.71,0,0,0-.61.8c0,.38,0,.77.46.92s.73.18,1.09.29c2.31.72,2.45.91,2.55,3.39,0,.19,0,.38,0,.56.13,6.52.14,13,0,19.56,0,.57,0,1.14-.09,1.7a2,2,0,0,1-1.28,1.72c-.52.22-1.08.36-1.61.54a1.09,1.09,0,0,0-.76,1.51c.16.58.57.64,1.09.58a92.2,92.2,0,0,1,10.37-.3c3.79,0,7.19,0,10.59,0,2.12,0,2.12-.06,2.7-2,.36-1.17.68-2.35,1-3.53.08-.27.2-.54.26-.81C-1469.46,495.2-1470.13,494.7-1470.7,494.87Z" transform="translate(1698.49 -47.35)"/><path class="cls-17" d="M-1367.92,500.12a4.45,4.45,0,0,0-.81-.24,2.72,2.72,0,0,1-2.14-2c-.14-.44-.36-.87-.54-1.3q-5.07-12.45-10.16-24.88a4.65,4.65,0,0,0-1.24-2.32,7.19,7.19,0,0,0-4,5c-2.23,7.61-5,15-7.82,22.43a4.77,4.77,0,0,1-3,3.18,7.59,7.59,0,0,0-.78.33,1.12,1.12,0,0,0-.63,1.36c.15.5.54.48.89.48,2.93,0,5.86,0,8.78,0,.51,0,.92-.12,1-.73a1,1,0,0,0-.8-1.26c-.55-.13-1.12-.22-1.65-.4a1.48,1.48,0,0,1-1.09-2c.56-2.09,1.25-4.15,1.89-6.22.21-.66.73-.79,1.34-.79h7.64a1.23,1.23,0,0,1,1.31.82c.8,2,1.68,4,2.45,6,.41,1.09,0,1.76-1.11,2.17-.62.22-1.28.34-1.87.61-.37.17-.32.63-.3,1a.7.7,0,0,0,.69.74c.94,0,1.89,0,2.83,0l8.5,0c.55,0,1.21.12,1.31-.68A1.14,1.14,0,0,0-1367.92,500.12Zm-15.66-11.75c-.85,0-1.7,0-2.54,0a4.51,4.51,0,0,1-2.37-.3c.73-3.24,2.06-6.32,3.19-10,1.64,3.59,2.82,6.72,4,9.95A4,4,0,0,1-1383.58,488.37Z" transform="translate(1698.49 -47.35)"/><path class="cls-17" d="M-1212.6,500a3.56,3.56,0,0,1-2.86-2.8c-.14-.45-.35-.87-.53-1.31q-4.92-12.18-9.85-24.36c-.31-.76-.39-1.67-1.26-2.24-.73.53-1.49,1.09-2.26,1.62a3.05,3.05,0,0,0-1.23,1.83c-2.12,7.94-5.22,15.54-8,23.26-.75,2.11-1.74,3.73-4,4.22a1.19,1.19,0,0,0-.25.13c-.52.29-.45.78-.38,1.24s.44.54.83.54l9.06,0a1.24,1.24,0,0,0,.54-.11c.31-.13.33-.41.3-.69a1.27,1.27,0,0,0-.86-1c-.69-.3-1.41-.53-2.09-.85a1.28,1.28,0,0,1-.76-1.63,48.73,48.73,0,0,1,2.4-7.07h8.76a1.23,1.23,0,0,1,1.22,1c.51,1.32,1.12,2.6,1.61,3.92.35,1,1.19,1.9.92,2.89-.34,1.23-1.76,1.24-2.78,1.65a1.08,1.08,0,0,0-.67,1.37c.11.63.62.61,1.08.61h11a1.81,1.81,0,0,0,.57,0c.25-.07.56-.15.55-.51s0-.82-.13-1.08A1.53,1.53,0,0,0-1212.6,500Zm-13.84-11.64c-2.06,0-4.12,0-6.35,0,.52-3.19,2-5.93,2.69-8.92,0-.26-.06-.57.06-.77a.83.83,0,0,1,.63-.39c.27,0,.38.31.38.6,1.09,2.79,2.2,5.57,3.28,8.37C-1225.47,488-1225.71,488.36-1226.44,488.36Z" transform="translate(1698.49 -47.35)"/><path class="cls-17" d="M-1412.07,424.41c2.16,0,3.94.62,4.14,3.23a.82.82,0,0,0,.81.67c.67.07.74-.44.81-.89.33-2.24.66-4.48,1-6.72.06-.41.25-.92-.31-1.22a5.24,5.24,0,0,0-2.27,1.07,7.36,7.36,0,0,1-4.28,1.16c-4.72,0-9.44,0-14.16,0a4.94,4.94,0,0,1-3.65-1.18,3.34,3.34,0,0,0-2.06-.93c-.37,2.6-.71,5-1.05,7.43,0,.28,0,.56-.07.84s.24.49.47.63a.85.85,0,0,0,1,0,13.11,13.11,0,0,0,1.3-1.85,4.25,4.25,0,0,1,3.23-2.05c1.4-.15,2.82-.12,4.23-.16a.59.59,0,0,1,.58.51,8.28,8.28,0,0,1,.07,1.41c0,4.43,0,8.87,0,13.3,0,2.74,0,5.48-.09,8.21-.05,2-.5,2.58-2.46,3.27-.27.09-.55.13-.82.21-.7.2-.74.77-.7,1.35s.49.71,1,.7c2.64-.05,5.28-.13,7.92-.16,1.51,0,3,0,4.53,0a.68.68,0,0,0,.74-.67c.05-.48,0-1-.44-1.24s-1.09-.3-1.61-.52a2.67,2.67,0,0,1-1.82-2.6c0-.66,0-1.32,0-2,0-6-.06-12.08,0-18.12C-1416,423.74-1416.79,424.39-1412.07,424.41Z" transform="translate(1698.49 -47.35)"/><path class="cls-17" d="M-1341.86,468.34a5.93,5.93,0,0,0-1.5.78,7,7,0,0,1-4.47,1.52q-2.26.11-4.53.12c-2.55,0-5.1,0-7.65,0s-4.74-.07-6.59-1.91a1.38,1.38,0,0,0-.24-.14.86.86,0,0,0-1.29.63c-.32,2.24-.62,4.49-.91,6.73a1.34,1.34,0,0,0,.1.83,2.11,2.11,0,0,0,.85.65c.28.12.53-.12.69-.36a7.34,7.34,0,0,0,.6-1c1-2.15,2.84-2.91,5.07-3,.94,0,1.89,0,2.83,0a.72.72,0,0,1,.7.73c0,.56.06,1.13.06,1.7q0,9.08,0,18.14c0,.94-.06,1.89-.1,2.83-.07,1.67-.66,2.94-2.52,3.23a4,4,0,0,0-.8.27,1.1,1.1,0,0,0-.63,1.37c.12.49.48.54.85.54,4.06,0,8.13,0,12.19-.09.51,0,1.26.19,1.31-.63,0-.62-.47-1-1-1.27a2.15,2.15,0,0,0-.51-.24c-2-.46-2.72-1.82-2.62-3.77,0-.66-.06-1.32-.06-2q0-9.64,0-19.28a7.87,7.87,0,0,1,0-.84.72.72,0,0,1,.73-.71,21,21,0,0,1,5.36.24,2.06,2.06,0,0,1,1.83,1.85c0,.28.07.56.12.84a.93.93,0,0,0,1,.85c.61,0,.83-.34.9-.84.32-2.44.63-4.87.93-7.31a1.55,1.55,0,0,0-.14-.53C-1341.52,468.39-1341.73,468.28-1341.86,468.34Z" transform="translate(1698.49 -47.35)"/><path class="cls-17" d="M-1501.5,469a8.37,8.37,0,0,1-5.58,1.66c-4.53,0-9.07,0-13.6,0a5,5,0,0,1-3.39-1.19,8.08,8.08,0,0,0-.65-.54c-1-.72-1.71-.19-1.81.74-.2,1.87-.51,3.74-.7,5.61-.07.71-.47,1.5.12,2.15.32.35,1.28-.24,2-1.23a10.26,10.26,0,0,0,.61-.95,4.16,4.16,0,0,1,2.76-1.8,14.59,14.59,0,0,1,3.67-.22c1.57,0,1.65.09,1.64,1.56,0,6.89-.12,13.79-.07,20.68,0,2.47-.61,4.25-3.31,4.75a1,1,0,0,0-.63,1.34c.18.63.69.55,1.13.55l9.64-.07c.85,0,1.7,0,2.55,0a.67.67,0,0,0,.7-.7c0-.37.1-.81-.3-1s-1-.4-1.56-.62a2.86,2.86,0,0,1-2-2.81c0-.67,0-1.33,0-2,0-6,0-12.09,0-18.13,0-4.13-.58-3.45,3.65-3.54a8.71,8.71,0,0,1,1.14.06c2.48.31,2.64.47,3.23,3a1.46,1.46,0,0,0,.2.5.78.78,0,0,0,1,.14,1,1,0,0,0,.48-.63,46.89,46.89,0,0,0,1-7.83c0-.07-.09-.13-.22-.31A7.46,7.46,0,0,0-1501.5,469Z" transform="translate(1698.49 -47.35)"/><path class="cls-17" d="M-1441.19,436.08c-1.63-.94-3.36-1.72-5-2.55a12.28,12.28,0,0,1-4.11-2.95,4,4,0,0,1-.24-5,5.36,5.36,0,0,1,8.36-.59,9.61,9.61,0,0,1,1.63,2.64,13.25,13.25,0,0,0,.6,1.26.87.87,0,0,0,1,.32.76.76,0,0,0,.63-.81c0-.66,0-1.32,0-2h-.11c0-.94-.09-1.89-.14-2.83a1.22,1.22,0,0,0-.76-1.09c-3.46-1.63-7.07-2.22-10.71-.85a9,9,0,0,0-3.28,14.83,22.4,22.4,0,0,0,4.67,3.18c1.25.66,2.54,1.25,3.76,2a11.23,11.23,0,0,1,2.25,1.69,4.38,4.38,0,0,1,.34,6.14c-2.47,3.09-8.22,3.2-10.52-.55-.39-.65-.7-1.34-1.09-2a2.12,2.12,0,0,0-1.29-1c-.33-.09-.87.18-.85.51.1,1.79.22,3.57.34,5.36a1.09,1.09,0,0,0,.84,1,19.14,19.14,0,0,0,10.29,1.11,9.54,9.54,0,0,0,8-10.11A9.08,9.08,0,0,0-1441.19,436.08Z" transform="translate(1698.49 -47.35)"/><path class="cls-17" d="M-1183.74,495.22c-.92-.51-1.44-.47-1.94.26s-.91,1.44-1.41,2.13a3.64,3.64,0,0,1-2.28,1.57,17.92,17.92,0,0,1-5.06.45c-3.65-.36-4.31-1.05-4.32-4.82,0-4.62,0-9.25,0-13.88,0-1.79,0-3.59.08-5.38.07-1.58.42-2,1.88-2.42.45-.14.93-.19,1.38-.34a.93.93,0,0,0,.59-1.13c-.07-.52-.27-.9-.86-.9l-11.9,0c-.36,0-.73.06-.86.54a1.15,1.15,0,0,0,.6,1.39,11.13,11.13,0,0,0,1.35.43,2,2,0,0,1,1.52,2.11c0,.37,0,.75,0,1.13,0,6.33.06,12.65.07,19,0,.85-.1,1.7-.17,2.54a1.93,1.93,0,0,1-1.4,1.91,8.71,8.71,0,0,0-1.31.52,1.77,1.77,0,0,0-.67.49c-.27.37-.6.78-.3,1.27a.93.93,0,0,0,1,.35c3.48-.36,7-.28,10.47-.3h9.06c.76,0,1.52,0,2.27,0a.9.9,0,0,0,.89-.58q.87-2.83,1.69-5.69C-1183.28,495.59-1183.46,495.38-1183.74,495.22Z" transform="translate(1698.49 -47.35)"/><path class="cls-17" d="M-1372,451.31l-.27.08c-.82.19-.85.7-.74,1.56.07.6.52.68,1,.66,3.49-.15,7-.28,10.48-.42v.18h9.35c.66,0,1.33,0,2,0a.82.82,0,0,0,.83-.63c.56-1.9,1.14-3.8,1.69-5.7a.84.84,0,0,0-1-1,2.11,2.11,0,0,0-1.43.81,20,20,0,0,0-1.32,1.85,3.51,3.51,0,0,1-2.25,1.59,15.62,15.62,0,0,1-5,.55c-3.63-.36-4.46-1.14-4.49-4.77,0-6,0-12.09,0-18.14,0-2.68.21-3.21,3-3.94,1-.26,1.25-.61,1.11-1.26s-.78-.71-1.33-.71h-10.2c-.57,0-1.14,0-1.7.06a.66.66,0,0,0-.68.72c0,.37,0,.79.43,1,.61.24,1.26.4,1.87.63a2.06,2.06,0,0,1,1.42,1.93c0,.57,0,1.13,0,1.7l0,18.43c0,.47,0,.94,0,1.41C-1369.37,450.32-1369.6,450.59-1372,451.31Z" transform="translate(1698.49 -47.35)"/><path class="cls-18" d="M-1320.3,446.38c-.86-.52-1.43-.47-2,.23s-1,1.41-1.47,2.08a4,4,0,0,1-2.52,1.72,19.09,19.09,0,0,1-4.5.4c-3.51-.33-4.61-.53-4.7-4.82v-.85q0-8.07,0-16.15a16,16,0,0,1,0-1.7c.29-2.72.83-2.74,2.53-3.16.37-.08.74-.17,1.1-.28a.75.75,0,0,0,.52-.87.9.9,0,0,0-.58-.88A4.22,4.22,0,0,0-1333,422h-10.77a3.41,3.41,0,0,0-.85.07c-.25.07-.57.18-.53.54s0,.88.24,1a6,6,0,0,0,1.58.59,2.4,2.4,0,0,1,1.86,2.52c0,.37,0,.75,0,1.13,0,6.23,0,12.47,0,18.7a21.36,21.36,0,0,1-.2,2.25,2.33,2.33,0,0,1-2.3,2.4,3.46,3.46,0,0,0-.82.23c-.71.25-.62.87-.57,1.42s.43.76,1,.73l10.47-.42v.18h9.63c.57,0,1.13,0,1.7,0a.89.89,0,0,0,.84-.64c.59-1.89,1.17-3.78,1.72-5.68C-1319.85,446.78-1320,446.55-1320.3,446.38Z" transform="translate(1698.49 -47.35)"/><path class="cls-17" d="M-1316,451c-.27.09-.56.11-.82.2-.54.17-.66.6-.64,1.11s.25.9.83.9h6.23v0h6.23a.77.77,0,0,0,.88-.84c0-.48,0-1-.54-1.18s-.93-.16-1.38-.29c-1.63-.48-2-.87-2-2.6,0-4.34,0-8.68,0-13,0-2.93,0-5.86,0-8.78a2.14,2.14,0,0,1,1.67-2.31c.45-.13.91-.22,1.36-.35.74-.2,1-.53.86-1.17s-.53-.7-1-.73-1.13,0-1.7,0l-9.62-.23c-.47,0-.95,0-1.42,0-.27,0-.6.09-.64.43a1.52,1.52,0,0,0,.1.79,2.34,2.34,0,0,0,1.8,1.24c1.94.47,2.39,1.72,2.37,3.57-.08,6.6,0,13.21,0,19.82C-1313.5,449.83-1313.88,450.3-1316,451Z" transform="translate(1698.49 -47.35)"/><path class="cls-17" d="M-1324.29,499.89c-2.48-.54-2.65-.69-2.66-3.14q0-10.49,0-21c0-2,.27-2.23,2.13-2.76.36-.11.74-.17,1.09-.29a1.1,1.1,0,0,0,.61-1.38c-.1-.47-.43-.58-.82-.58h-12.47c-.37,0-.78.05-.82.55s-.11,1,.41,1.24a9.14,9.14,0,0,0,1.59.57,2.42,2.42,0,0,1,2,2.67c0,7.08,0,14.16,0,21.25,0,1.61-.49,2.18-2,2.68-.35.13-.74.13-1.1.23a1.14,1.14,0,0,0-.9,1.48c.1.63.56.69,1,.69q6.09,0,12.18,0a1.1,1.1,0,0,0,.9-1.6C-1323.37,500-1323.83,500-1324.29,499.89Z" transform="translate(1698.49 -47.35)"/><path class="cls-17" d="M-1569.22,500c-.44-.14-.93-.15-1.38-.28a2.07,2.07,0,0,1-1.82-2.18c0-.37,0-.75,0-1.13,0-6.51,0-13,0-19.53,0-3.17,0-3.17,3-4.15l.27-.07c.56-.16.65-.61.63-1.1a.77.77,0,0,0-.9-.82l-12.45,0a2.53,2.53,0,0,0-.55.09c-.3.06-.46.65-.3.93a3.16,3.16,0,0,0,2.09,1.32c1.54.42,2,1.43,2,3-.07,3.4,0,6.8,0,10.19h0c0,3,0,6,0,9.06,0,1.11.25,2.31-.37,3.32s-1.91,1.08-3,1.39a1.19,1.19,0,0,0-.59,1.63c.28.5.76.47,1.22.47h11.89c.52,0,.9-.17,1-.75S-1568.53,500.24-1569.22,500Z" transform="translate(1698.49 -47.35)"/><path class="cls-15" d="M-1444.08,333.75s0,.1,0,.15l.14-.17A.18.18,0,0,0-1444.08,333.75Z" transform="translate(1698.49 -47.35)"/><path class="cls-15" d="M-1443.92,333.66l-.06.07.1,0Z" transform="translate(1698.49 -47.35)"/><path class="cls-19" d="M-1456.4,473c-1.29.21-1.56.47-1.81,1.75a28.69,28.69,0,0,0-.22,6.48c.1,3.52-.38,3.35,3.52,2.72a7.83,7.83,0,0,0,1.6-.51c2.17-.88,3.17-2.55,3.24-5.42S-1453.15,472.47-1456.4,473Z" transform="translate(1698.49 -47.35)"/><path class="cls-20" d="M-1302.17,472.26c-4.31.3-7.54,2.51-8.94,6.69-2.07,6.16-.9,11.91,2.83,17.14a10,10,0,0,0,2.24,2.15c4.91,3.57,9.78,2.13,13-1.18a10.08,10.08,0,0,0,1.92-2.78,13.94,13.94,0,0,0,1.41-6.28,19.68,19.68,0,0,0-4.11-11.8A9.71,9.71,0,0,0-1302.17,472.26Z" transform="translate(1698.49 -47.35)"/><path class="cls-20" d="M-1475.72,451.08a9.52,9.52,0,0,0,5.34-3.49,11.52,11.52,0,0,0,2.44-5.35c.92-6-.49-11.43-4.78-15.89a9.83,9.83,0,0,0-16,2.93,15.86,15.86,0,0,0-1.24,6.61,17.34,17.34,0,0,0,4.34,11.94A9.58,9.58,0,0,0-1475.72,451.08Z" transform="translate(1698.49 -47.35)"/><path class="cls-21" d="M-1388.49,488.06a4.51,4.51,0,0,0,2.37.3c.84,0,1.69.05,2.54,0a4,4,0,0,0,2.33-.36c-1.23-3.23-2.41-6.36-4-9.95C-1386.43,481.74-1387.76,484.82-1388.49,488.06Z" transform="translate(1698.49 -47.35)"/><path class="cls-21" d="M-1229,478.89c-.49-.07-.73.34-1.07.56-.66,3-2.17,5.73-2.69,8.92,2.23,0,4.29,0,6.35,0,.73,0,1-.39.69-1.1C-1226.83,484.46-1227.94,481.68-1229,478.89Z" transform="translate(1698.49 -47.35)"/><path class="cls-22" d="M-1229.41,478.29a.83.83,0,0,0-.63.39c-.12.2,0,.51-.06.77.34-.22.58-.63,1.07-.56C-1229,478.6-1229.14,478.3-1229.41,478.29Z" transform="translate(1698.49 -47.35)"/></svg>