<?xml version="1.0" encoding="utf-8"?>
<!-- Generator: Adobe Illustrator 21.0.0, SVG Export Plug-In . SVG Version: 6.00 Build 0)  -->
<svg version="1.1" id="Layer_1" xmlns="http://www.w3.org/2000/svg" xmlns:xlink="http://www.w3.org/1999/xlink" x="0px" y="0px"
	 viewBox="0 0 602.5 131.9" style="enable-background:new 0 0 602.5 131.9;" xml:space="preserve">
<style type="text/css">
	.st0{fill:#EE4023;}
	.st1{fill:#4D4D4F;}
</style>
<g>
	<path class="st0" d="M97.4,76.6c0.3-0.8,0.6-1.7,0.8-2.6l21.4,7.4c3.1-10,3.4-21,0.4-31.8c-1-3.4-2.3-6.7-3.8-9.8l9.9-4.4
		c-3.5-7.2-8.3-13.8-14.5-19.6c-6.2-5.8-13.2-10.1-20.6-13.1L79.6,34.2c-1.5-0.7-3-1.2-4.6-1.7l6.2-21.8c-7.8-2.2-16.1-2.8-24.5-1.4
		l1.5,9.4c-1.5,0.2-3,0.6-4.5,1L49.5,0C37.4,3,26,9.5,16.9,19.3C7.8,29.1,2.2,40.9,0,53.1l10.7,1.5c-0.3,1.5-0.5,2.9-0.7,4.4
		l9.5,0.7c-0.4,3.5-0.4,7,0,10.5L47.9,66c-0.1-1.5,0-3,0.3-4.4c0.1-0.7,0.3-1.3,0.5-1.9c0,0,0,0,0,0c0.1-0.3,0.2-0.6,0.3-0.8
		c0.2-0.5,0.4-1,0.6-1.4c0.1-0.2,0.2-0.5,0.3-0.7c0-0.1,0.1-0.2,0.1-0.3c0.2-0.4,0.5-0.9,0.8-1.3c0-0.1,0.1-0.1,0.1-0.2
		c0.1-0.2,0.3-0.4,0.5-0.7c0.4-0.6,0.9-1.2,1.4-1.7c1.8-2,4-3.4,6.3-4.4c0.4-0.2,0.8-0.3,1.1-0.4c0.2-0.1,0.4-0.2,0.7-0.2
		c0.7-0.2,1.4-0.4,2.1-0.5c0.2,0,0.4,0,0.6-0.1c0.6-0.1,1.1-0.1,1.7-0.2c0.2,0,0.5,0,0.7,0c0,0,0,0,0.1,0c0.5,0,1,0,1.5,0.1
		c0.3,0,0.6,0.1,0.8,0.1c0.5,0.1,1,0.2,1.4,0.3c0.3,0.1,0.5,0.1,0.8,0.2c1.4,0.4,2.8,0.9,4.1,1.6c0.3,0.2,0.6,0.4,0.9,0.5
		c0.4,0.3,0.8,0.5,1.2,0.8c0.5,0.4,1,0.8,1.5,1.2c0.4,0.4,0.7,0.8,1.1,1.2c0.3,0.3,0.5,0.6,0.7,0.9c0,0,0,0,0.1,0.1
		c0.2,0.3,0.5,0.6,0.7,0.9c0.2,0.3,0.4,0.6,0.6,0.9c0.1,0.2,0.2,0.4,0.3,0.5c0.3,0.6,0.6,1.2,0.9,1.8c0,0,0,0,0,0
		c0.3,0.7,0.5,1.3,0.7,2c0.1,0.2,0.1,0.4,0.1,0.6c0.1,0.5,0.2,1,0.3,1.5c0,0.2,0.1,0.5,0.1,0.7c0.1,0.5,0.1,0.9,0.1,1.4
		c0,0.2,0,0.5,0,0.7c0,1.4-0.1,2.7-0.4,4c-0.2,0.7-0.4,1.4-0.6,2.1c-0.2,0.4-0.3,0.9-0.5,1.3c0,0.1-0.1,0.2-0.1,0.3
		c-0.8,1.7-1.8,3.3-3.2,4.7c-0.1,0.1-0.2,0.2-0.2,0.2l0,0c-1.2,1.2-2.6,2.3-4,3.1c-0.3,0.2-0.7,0.4-1,0.6c-0.5,0.2-0.9,0.4-1.4,0.6
		c-0.3,0.1-0.6,0.2-0.9,0.3c-0.5,0.2-1.1,0.3-1.6,0.5c0,0,0,0,0,0c-0.3,0.1-0.7,0.2-1,0.2c-0.6,0.1-1.1,0.2-1.7,0.2
		c-0.3,0-0.7,0.1-1,0.1c-0.7,0-1.5,0-2.2-0.1c-0.1,0-0.3,0-0.4,0c-0.9-0.1-1.8-0.3-2.7-0.5l-19.3,45c17.1,6.7,36.4,6,53-1.9l-5-9.6
		c3.5-1.7,6.9-3.6,9.9-5.9l-6-7.5c2-1.4,3.8-3,5.5-4.7l14.4,14.3c0.5-0.5,1-1,1.5-1.5c6-6.4,10.4-13.7,13.4-21.4L97.4,76.6z"/>
	<path class="st0" d="M50,94.5l6.9-13.9c-1.2-0.7-2.3-1.5-3.3-2.4c-0.5-0.5-1-1-1.4-1.5c-0.3-0.4-0.7-0.8-0.9-1.2
		c-0.1-0.2-0.2-0.3-0.3-0.5c-0.2-0.4-0.5-0.7-0.7-1.1c-0.1-0.2-0.2-0.4-0.3-0.6c-0.2-0.4-0.5-0.9-0.7-1.4c-0.1-0.1-0.1-0.2-0.1-0.4
		c-0.2-0.5-0.4-1-0.5-1.5c-0.1-0.2-0.1-0.5-0.2-0.7l-37,9.2c0.1,0.5,0.2,1,0.4,1.5L1.4,82.8c2.6,9.3,7.1,18.1,13.7,25.7l15.5-13.1
		c1.6,1.9,3.4,3.7,5.3,5.3l8.6-9.9C46.2,92.2,48,93.4,50,94.5z"/>
</g>
<g>
	<path class="st1" d="M156,35.1h3.6v11.5h14.1V35.1h3.6v26.8h-3.6V49.6h-14.1v12.3H156V35.1z"/>
	<path class="st1" d="M190.7,35.1h3.9l10.5,26.8h-3.9l-2.9-8.1h-11.3l-3,8.1h-3.7L190.7,35.1z M188.1,50.8h9.1l-4.5-12.5h-0.1
		L188.1,50.8z M193.6,27.9h4.1l-4.9,5.4h-2.4L193.6,27.9z"/>
	<path class="st1" d="M223.6,43c-0.4-3.8-3-5.5-6.6-5.5c-3,0-6,1.1-6,4.6c0,3.3,4.3,3.8,8.6,4.8c4.3,1,8.5,2.5,8.5,7.7
		c0,5.7-5.6,8-10.5,8c-6,0-11.1-2.9-11.1-9.4h3.4c0,4.5,3.7,6.4,7.8,6.4c3.2,0,6.8-1,6.8-4.9c0-3.7-4.3-4.3-8.5-5.3
		c-4.3-0.9-8.6-2.2-8.6-7.1c0-5.4,4.8-7.8,9.7-7.8c5.5,0,9.6,2.6,9.9,8.5H223.6z"/>
	<path class="st1" d="M232.8,35.1h3.6v13.3l13.6-13.3h4.6l-11.3,10.8l11.7,16h-4.5l-9.7-13.5l-4.5,4.2v9.4h-3.6V35.1z"/>
	<path class="st1" d="M269.5,34.5c8.5,0,12.8,6.8,12.8,14c0,7.3-4.3,14-12.8,14c-8.5,0-12.8-6.7-12.8-14
		C256.6,41.2,261,34.5,269.5,34.5z M269.5,59.5c6.5,0,9.3-5.6,9.3-11s-2.7-11-9.3-11c-6.5,0-9.3,5.6-9.3,11S262.9,59.5,269.5,59.5z
		 M270.4,27.9h4.1l-4.9,5.4h-2.4L270.4,27.9z"/>
	<path class="st1" d="M287,35.1h3.6v23.8h14.2v3H287V35.1z"/>
	<path class="st1" d="M308.4,35.1h3.6v26.8h-3.6V35.1z"/>
	<path class="st1" d="M318.3,35.1h3.8l14.1,21.7h0.1V35.1h3.4v26.8h-3.9l-14-21.5h-0.1v21.5h-3.4V35.1z"/>
	<path class="st1" d="M345.7,35.1h3.8l14.1,21.7h0.1V35.1h3.4v26.8h-3.9l-14-21.5h-0.1v21.5h-3.4V35.1z"/>
	<path class="st1" d="M386.9,27.9h4.1l-4.9,5.4h-2.4L386.9,27.9z M384.1,35.1h3.6v26.8h-3.6V35.1z"/>
	<path class="st1" d="M404.8,35.1h12.6c5,0,8.1,2.7,8.1,7c0,3.2-1.4,5.9-4.6,6.8V49c3.1,0.6,3.7,2.9,4,5.5c0.2,2.6,0.1,5.5,1.6,7.4
		h-4c-1-1.1-0.5-4-1-6.6c-0.4-2.6-1-4.8-4.5-4.8h-8.7v11.4h-3.6V35.1z M415.8,47.5c3.3,0,6.2-0.9,6.2-4.8c0-2.6-1.4-4.6-4.8-4.6
		h-8.8v9.3H415.8z"/>
	<path class="st1" d="M430.9,35.1h18.5v3h-14.9v8.5h13.9v3h-13.9v9.3h15v3h-18.6V35.1z"/>
	<path class="st1" d="M465.2,50.9v10.9h-3.6V50.9l-10.3-15.8h4.2l8,12.7l7.8-12.7h4L465.2,50.9z"/>
	<path class="st1" d="M478.8,35.1h3.6v13.3L496,35.1h4.6l-11.3,10.8l11.7,16h-4.5l-9.7-13.5l-4.5,4.2v9.4h-3.6V35.1z"/>
	<path class="st1" d="M517.8,55.2c0,3.6-1.9,7.3-7.9,7.3c-5,0-7.8-2.8-7.8-7.8v-1.6h3.6v1.1c0,3.1,0.8,5.3,4.3,5.3
		c3.3,0,4.3-1.9,4.3-4.8V35.1h3.6V55.2z"/>
	<path class="st1" d="M531.3,35.1h3.9l10.5,26.8h-3.9l-2.9-8.1h-11.3l-3,8.1h-3.7L531.3,35.1z M528.6,50.8h9.1l-4.5-12.5h-0.1
		L528.6,50.8z"/>
	<path class="st1" d="M557.5,61.9h-4L544,35.1h3.9l7.7,23.2h0.1l7.7-23.2h3.7L557.5,61.9z"/>
	<path class="st1" d="M573.1,27.9h4.1l-4.9,5.4h-2.4L573.1,27.9z M570.4,35.1h3.6v26.8h-3.6V35.1z"/>
	<path class="st1" d="M580.3,35.1h3.6v13.3l13.6-13.3h4.6l-11.3,10.8l11.7,16H598l-9.7-13.5l-4.5,4.2v9.4h-3.6V35.1z"/>
	<path class="st1" d="M155,73.8h8.9c3.2,0,5.9,1.5,5.9,5c0,2.4-1.3,4.4-3.8,4.9v0.1c2.5,0.3,3.2,2.1,3.4,4.4c0.1,1.3,0.1,4,0.9,5h-2
		c-0.5-0.8-0.5-2.2-0.5-3c-0.2-2.7-0.4-5.7-3.9-5.6h-7v8.6H155V73.8z M156.9,83h6.9c2.2,0,4.2-1.4,4.2-3.8c0-2.4-1.4-3.8-4.2-3.8
		h-6.9V83z"/>
	<path class="st1" d="M173.4,73.8h13.3v1.6h-11.5v7H186v1.6h-10.8v7.6h11.6v1.6h-13.5V73.8z"/>
	<path class="st1" d="M195.1,85.2l-7.6-11.4h2.2l6.4,9.8l6.3-9.8h2.2l-7.6,11.4v8h-1.8V85.2z"/>
	<path class="st1" d="M206.5,73.8h1.8v10.4l11.2-10.4h2.5l-8.6,8l9,11.3h-2.4l-8-10.1l-3.7,3.4v6.6h-1.8V73.8z"/>
	<path class="st1" d="M232.1,73.8h1.8v13.9c0,3.9-1.5,5.8-5.6,5.8c-4.4,0-5.4-3.2-5.4-6.6h1.8c0.1,1.7-0.1,5,3.7,5
		c2.9,0,3.6-1.5,3.6-5V73.8z"/>
	<path class="st1" d="M243.8,73.8h2.1l7.6,19.3h-2l-2.4-6h-8.8l-2.3,6h-2L243.8,73.8z M240.8,85.5h7.6l-3.7-9.9L240.8,85.5z"/>
	<path class="st1" d="M251.9,73.8h2l6.3,17.3h0.1l6.2-17.3h1.9l-7.2,19.3h-2.1L251.9,73.8z"/>
	<path class="st1" d="M270.5,73.8h1.8v19.3h-1.8V73.8z"/>
	<path class="st1" d="M276.7,73.8h1.8v10.4l11.2-10.4h2.5l-8.6,8l9,11.3h-2.4l-8-10.1l-3.7,3.4v6.6h-1.8V73.8z"/>
	<path class="st1" d="M302.1,73.8h1.8v12c0,4.5,2.1,6.2,5.7,6.2c3.6,0,5.7-1.7,5.7-6.2v-12h1.8v12.4c0,4-2.1,7.4-7.5,7.4
		c-5.4,0-7.5-3.4-7.5-7.4V73.8z"/>
	<path class="st1" d="M321.1,73.8h2.1l11.3,16.4h0.1V73.8h1.8v19.3h-2.1L323,76.8h-0.1v16.4h-1.8V73.8z"/>
	<path class="st1" d="M340.6,73.8h1.8v19.3h-1.8V73.8z"/>
	<path class="st1" d="M344.6,73.8h2l6.3,17.3h0.1l6.2-17.3h1.9l-7.2,19.3h-2.1L344.6,73.8z"/>
	<path class="st1" d="M363,73.8h13.4v1.6h-11.5v7h10.8v1.6h-10.8v7.6h11.6v1.6H363V73.8z"/>
	<path class="st1" d="M379.4,73.8h8.9c3.2,0,5.9,1.5,5.9,5c0,2.4-1.3,4.4-3.8,4.9v0.1c2.5,0.3,3.2,2.1,3.4,4.4c0.1,1.3,0.1,4,0.9,5
		h-2c-0.5-0.8-0.5-2.2-0.5-3c-0.2-2.7-0.4-5.7-3.9-5.6h-7v8.6h-1.8V73.8z M381.2,83h6.9c2.2,0,4.2-1.4,4.2-3.8
		c0-2.4-1.4-3.8-4.2-3.8h-6.9V83z"/>
	<path class="st1" d="M398.6,86.8c-0.1,4,2.8,5.2,6.3,5.2c2,0,5.1-1.1,5.1-3.9c0-2.2-2.2-3.1-4-3.5l-4.3-1.1
		c-2.3-0.6-4.4-1.7-4.4-4.7c0-1.9,1.2-5.4,6.7-5.4c3.8,0,7.2,2.1,7.1,6h-1.8c-0.1-3-2.5-4.4-5.3-4.4c-2.5,0-4.8,1-4.8,3.8
		c0,1.8,1.4,2.6,2.9,3l4.7,1.2c2.7,0.7,5,1.9,5,5.1c0,1.3-0.5,5.5-7.4,5.5c-4.6,0-7.9-2.1-7.7-6.8H398.6z"/>
	<path class="st1" d="M415.1,73.8h1.8v19.3h-1.8V73.8z"/>
	<path class="st1" d="M419.2,73.8h15.3v1.6h-6.7v17.8h-1.8V75.4h-6.7V73.8z"/>
	<path class="st1" d="M442,85.2l-7.6-11.4h2.2l6.4,9.8l6.3-9.8h2.2l-7.6,11.4v8H442V85.2z"/>
</g>
</svg>
