<svg id="Layer_1" data-name="Layer 1" xmlns="http://www.w3.org/2000/svg" viewBox="0 0 1096.2 1179.93"><defs><style>.cls-1{fill:#feb30d;}</style></defs><title>Logo</title><path class="cls-1" d="M-206,589.06c0-15.07-.67-27.78.13-40.39,2.61-41.38,7.73-82.41,18.09-122.68,25.06-97.39,74.48-180.75,144.87-252.08,2.22-2.25,3.59-2.45,6.11-.39q77.61,63.42,155.41,126.6c3.15,2.56,2.55,4,.28,6.61-31.75,36.91-59.45,76.53-80.44,120.62C18.87,468.47,5.9,511.48,3,557.1-2.91,650,21.75,733.63,80.24,806.68c36.7,45.84,81.48,80.74,137.11,100.81,46,16.6,93.53,21.6,142.13,18.72,49.22-2.91,96.37-14.13,139.52-38.15,96.52-53.74,158.94-133.42,180.66-243,3.63-18.29,4.57-36.91,5.66-55.58,2-35.53-2.26-70.09-11.86-104.11C659.31,435.3,634,391,602,350.31a540,540,0,0,0-48.53-53.77c-2.87-2.79-2.8-4.23.14-6.91Q622.25,226.92,690.67,164c2.51-2.31,3.92-2.41,6.4.08,66.76,67,120.34,142.71,154.32,231.51A573.56,573.56,0,0,1,886.13,539.8c1.71,15.87,2.33,31.79,3.08,47.72.49,10.3.85,20.59.69,30.88-2.49,156.46-61,288.39-174.45,395.83-70.75,67-155,107.72-250.46,125.83-28.52,5.41-57.3,8.34-86.27,10.14a591.49,591.49,0,0,1-80.33-.47c-82.69-6.06-161.21-26.87-233.22-69.34C6.53,1045.81-42.49,1000.52-84.22,947.06c-60-76.81-97.3-163.48-113-259.58-3-18.59-5-37.28-6.81-56C-205.43,616.54-205.19,601.58-206,589.06Z" transform="translate(206.26 28.59)"/><path class="cls-1" d="M232,258.63q0-140.49-.13-281c0-5.25,1.52-6.25,6.38-6.24q96.26.22,192.49.1c6.61,0,6.62,0,6.62,6.88V539.85c0,6.62,0,6.64-6.37,6.64q-96.48,0-193,.1c-4.69,0-6.14-1-6.13-6Q232.12,399.61,232,258.63Z" transform="translate(206.26 28.59)"/></svg>