<svg id="Layer_1" data-name="Layer 1" xmlns="http://www.w3.org/2000/svg" viewBox="0 0 16.05 27.92"><defs><style>.cls-1{fill:#694991;stroke:#21253d;}.cls-2{fill:#feb30d;}</style></defs><title>reboot_pin_svg_v2</title><path id="path4337-3" class="cls-1" d="M202.35,385a7.28,7.28,0,0,0-1.91,4.88c.06,3.64,1.7,5,4.33,10a47.27,47.27,0,0,1,2.88,8.42,6.4,6.4,0,0,0,.31,1.14c.06,0,.19-.48.32-1.05a48.07,48.07,0,0,1,2.88-8.42c2.62-5,4.27-6.4,4.33-10a7.23,7.23,0,0,0-1.91-4.88,8.12,8.12,0,0,0-5.62-2.57,7.67,7.67,0,0,0-5.61,2.48Z" transform="translate(-199.94 -382.05)"/><path class="cls-2" d="M203.75,390.29V390a5,5,0,0,1,.14-.94A4.14,4.14,0,0,1,205,387.1s0,0,0,0l1.2,1s0,0,0,.05a4.19,4.19,0,0,0-.62.93,2.71,2.71,0,0,0-.27,1A2.67,2.67,0,0,0,206,392a2.39,2.39,0,0,0,1.06.77,2.7,2.7,0,0,0,1.09.15,2.43,2.43,0,0,0,1.08-.3,2.65,2.65,0,0,0,1.39-1.87c0-.14,0-.28,0-.42a2.66,2.66,0,0,0-.09-.8,3.06,3.06,0,0,0-.55-1,3.79,3.79,0,0,0-.38-.42s0,0,0-.05l1.05-1s0,0,0,0a5.21,5.21,0,0,1,1.19,1.78,4.72,4.72,0,0,1,.26,1.11c0,.13,0,.25,0,.37v.24a4.13,4.13,0,0,1-1.34,3,3.7,3.7,0,0,1-1.93,1,5,5,0,0,1-.66.08h-.62a4.06,4.06,0,0,1-1.79-.54,4,4,0,0,1-1.15-1,4.34,4.34,0,0,1-.87-2,3.15,3.15,0,0,1,0-.43C203.75,390.5,203.76,390.39,203.75,390.29Z" transform="translate(-199.94 -382.05)"/><path class="cls-2" d="M207.18,387.75v-2.16s0,0,0,0h1.49s0,0,0,0v4.32c0,.06,0,.06,0,.06h-1.49s0,0,0-.05Z" transform="translate(-199.94 -382.05)"/></svg>