<svg id="Layer_1" data-name="Layer 1" xmlns="http://www.w3.org/2000/svg" viewBox="0 0 16.05 27.97"><defs><style>.cls-1{fill:#932a8c;stroke:#3a0f2f;}.cls-2{fill:#feb30d;}</style></defs><title>reboot_pin_svg</title><path id="path4337-3" class="cls-1" d="M-343.66,385a7.25,7.25,0,0,0-1.91,4.88c.06,3.64,1.7,5,4.33,10a47.55,47.55,0,0,1,2.88,8.42,6.67,6.67,0,0,0,.31,1.14c.06.05.19-.48.32-1.05a47.55,47.55,0,0,1,2.88-8.42c2.62-5,4.27-6.4,4.33-10a7.25,7.25,0,0,0-1.91-4.88,8.12,8.12,0,0,0-5.62-2.57,7.66,7.66,0,0,0-5.61,2.48Z" transform="translate(346.07 -381.97)"/><path class="cls-2" d="M-342.24,390.25c0-.12,0-.21,0-.31a5.91,5.91,0,0,1,.13-.94,4.23,4.23,0,0,1,1.12-1.93s0,0,0,0l1.19,1s0,0,0,.05a4.08,4.08,0,0,0-.62.93,2.61,2.61,0,0,0-.27,1,2.66,2.66,0,0,0,.59,1.92,2.31,2.31,0,0,0,1.05.77,2.53,2.53,0,0,0,1.09.14,2.48,2.48,0,0,0,1.07-.29,2.61,2.61,0,0,0,1.38-1.86,3,3,0,0,0,0-.43,2.69,2.69,0,0,0-.09-.8,3.11,3.11,0,0,0-.55-1,4.89,4.89,0,0,0-.37-.41s0,0,0-.06l1.05-1s0,0,.05,0a5.18,5.18,0,0,1,1.18,1.78,4.12,4.12,0,0,1,.27,1.1c0,.12,0,.25,0,.37s0,.16,0,.23a4.14,4.14,0,0,1-1.34,3,3.77,3.77,0,0,1-1.92,1,5,5,0,0,1-.66.08h-.62a4.1,4.1,0,0,1-1.79-.54,4,4,0,0,1-1.14-1,4.3,4.3,0,0,1-.87-2c0-.14,0-.28-.05-.43S-342.24,390.34-342.24,390.25Z" transform="translate(346.07 -381.97)"/><path class="cls-2" d="M-338.89,387.72v-2.16s0-.05.05-.05h1.48c.05,0,.05,0,.05.05v4.3c0,.05,0,.05-.05.05h-1.48s-.05,0-.05,0Z" transform="translate(346.07 -381.97)"/></svg>