<svg id="Layer_1" data-name="Layer 1" xmlns="http://www.w3.org/2000/svg" viewBox="0 0 595.28 251.27"><defs><style>.cls-1{fill:#353841;}</style></defs><title>AudurSVG</title><g id="AUDUR"><path class="cls-1" d="M-1109.72-304.9c-.38.22-.72.5-1.1.72v-6.57h-28.59v113.94h28.59v-59.6a31.9,31.9,0,0,1,8.56-20.88,29.23,29.23,0,0,1,22-9v-26.53A59.46,59.46,0,0,0-1109.72-304.9Z" transform="translate(1675.52 376.12)"/><path class="cls-1" d="M-1458.78-254.91q0,15.89-1.74,20.76a19.64,19.64,0,0,1-7.29,9.84,20.77,20.77,0,0,1-12,3.36,20.18,20.18,0,0,1-11.84-3.39,19.1,19.1,0,0,1-7.07-9.56q-2.21-6.15-2.19-22V-310h-28.3v46.79q0,27,3.19,37.18a43.67,43.67,0,0,0,16.21,23.12q11.4,8.32,29.89,8.32a51,51,0,0,0,28.08-7.1,43.9,43.9,0,0,0,16.64-20.29c3.07-7.21,4.63-20.66,4.63-40.26V-310h-28.23Z" transform="translate(1675.52 376.12)"/><path class="cls-1" d="M-1193.47-254.91q0,15.89-1.77,20.76a19.64,19.64,0,0,1-7.29,9.84,20.68,20.68,0,0,1-12,3.36,20.27,20.27,0,0,1-11.87-3.39,19,19,0,0,1-7-9.56q-2.16-6.15-2.16-22V-310H-1264v46.79q0,27,3.3,37.18a43.79,43.79,0,0,0,16,23.12q11.39,8.32,29.88,8.32a51.08,51.08,0,0,0,28.11-7.1A44.12,44.12,0,0,0-1170-221.95c3.1-7.21,4.65-20.66,4.65-40.26V-310h-28.11Z" transform="translate(1675.52 376.12)"/><path class="cls-1" d="M-1586.3-304.18c-.39-.22-.69-.5-1.08-.72a59.71,59.71,0,0,0-29.91-8,58.86,58.86,0,0,0-58.22,59.19,56.94,56.94,0,0,0,17.07,41.75,56,56,0,0,0,41.26,17.36,59.36,59.36,0,0,0,30-8l.83-.53v6.24h28.61V-310.75h-28.61Zm-8.59,74.05a29.23,29.23,0,0,1-22,9.18,29,29,0,0,1-21.88-9.07,33.27,33.27,0,0,1-8.62-23.76,32.52,32.52,0,0,1,8.73-23.4,29,29,0,0,1,21.88-9.12,29.24,29.24,0,0,1,22.18,9,31.87,31.87,0,0,1,8.31,20.88v5.21A32.06,32.06,0,0,1-1594.89-230.13Z" transform="translate(1675.52 376.12)"/><path class="cls-1" d="M-1318.5-304.18c-.39-.22-.72-.5-1.08-.72a59.69,59.69,0,0,0-29.91-8,58.92,58.92,0,0,0-58.22,59.19,57,57,0,0,0,17.13,41.75,56,56,0,0,0,41.23,17.36,59.3,59.3,0,0,0,30-7.82A56.83,56.83,0,0,0-1297.76-224a59.08,59.08,0,0,0,7.79-28.2h0v-95.31h-28.53Zm-8.59,74.05a31,31,0,0,1-43.83.08l-.08-.08a33,33,0,0,1-8.49-23.65,32.49,32.49,0,0,1,8.74-23.4A29,29,0,0,1-1349-286.3a29.32,29.32,0,0,1,22.18,9,31.87,31.87,0,0,1,8.31,20.88v4.07h0a32.48,32.48,0,0,1-8.56,22.21Z" transform="translate(1675.52 376.12)"/><rect class="cls-1" x="328.44" width="28.61" height="28.61"/><path class="cls-1" d="M-1347.08-125.26v-31.16H-1336a15.56,15.56,0,0,1,15.55,15.56A15.55,15.55,0,0,1-1336-125.31Zm10.87-5.54a9.94,9.94,0,0,0,9.41-10.46,10,10,0,0,0-9.41-9.42h-4.88v19.88Z" transform="translate(1675.52 376.12)"/><path class="cls-1" d="M-1294.6-136.09A11.34,11.34,0,0,1-1306-124.87a11.34,11.34,0,0,1-11.23-11.45,11.34,11.34,0,0,1,11.34-11.22,11.08,11.08,0,0,1,11.34,10.83C-1294.59-136.51-1294.59-136.3-1294.6-136.09Zm-5.85,0a5.55,5.55,0,0,0-6.12-4.91,5.55,5.55,0,0,0-4.9,6.13,5.55,5.55,0,0,0,5.48,4.93,5.53,5.53,0,0,0,5.57-5.51A4.5,4.5,0,0,0-1300.45-136.09Zm-3.77-13.39h-4.69l4-6.58h6.65Z" transform="translate(1675.52 376.12)"/><path class="cls-1" d="M-1282.9-146.88h4.35v5.19h-4.35v9c0,1.91.89,2.52,2.55,2.52a6.81,6.81,0,0,0,1.8-.2v4.83a8.4,8.4,0,0,1-3.3.52,6.23,6.23,0,0,1-6.83-5.58,6.36,6.36,0,0,1,0-1.07v-10h-3.88v-5.19h1.08a3.1,3.1,0,0,0,3.34-2.85,2.91,2.91,0,0,0,0-.59v-3h5.27Z" transform="translate(1675.52 376.12)"/><path class="cls-1" d="M-1266.52-146.88h4.33v5.19h-4.33v9c0,1.91.86,2.52,2.53,2.52a6.86,6.86,0,0,0,1.8-.2v4.83a8.69,8.69,0,0,1-3.27.52,6.24,6.24,0,0,1-6.84-5.58,6.36,6.36,0,0,1,0-1.07v-10h-3.91v-5.19h1.08a3.13,3.13,0,0,0,3.36-2.88,3.49,3.49,0,0,0,0-.56v-3h5.26Z" transform="translate(1675.52 376.12)"/><path class="cls-1" d="M-1254.32-157.58a3.61,3.61,0,0,1,3.61,3.6,3.61,3.61,0,0,1-3.61,3.61,3.6,3.6,0,0,1-3.6-3.58,3.57,3.57,0,0,1,3.52-3.63Zm-2.91,32.32v-21.62h5.82v21.62Z" transform="translate(1675.52 376.12)"/><path class="cls-1" d="M-1232-141.08a8,8,0,0,0-1.75-.2c-3,0-5.54,1.47-5.54,6.1v9.92h-5.85v-21.62h5.54v3.19a6.43,6.43,0,0,1,6.16-3.38,10.29,10.29,0,0,1,1.36,0Z" transform="translate(1675.52 376.12)"/><path class="cls-1" d="M-1206.83-138.2l-3.85,4.27v8.67h-6v-31.16h6v14.09l12.47-14.09h7.93l-12.34,13.56,12.42,17.55h-7.59Z" transform="translate(1675.52 376.12)"/><path class="cls-1" d="M-1177.33-125.26h-5.85l-8.82-21.56h6.41l5.37,14.47,5.13-14.47h6.13Z" transform="translate(1675.52 376.12)"/><path class="cls-1" d="M-1162.5-157.58a3.6,3.6,0,0,1,3.6,3.6,3.61,3.61,0,0,1-3.6,3.61,3.6,3.6,0,0,1-3.6-3.58,3.57,3.57,0,0,1,3.52-3.63Zm-2.91,32.32v-21.62h5.85v21.62Z" transform="translate(1675.52 376.12)"/><path class="cls-1" d="M-1141.07-137.81l8.82,12.5h-7.16l-5.71-8.32-2.41,2.55v5.55h-5.82V-157h5.82v18.18l7.46-8h7.62Z" transform="translate(1675.52 376.12)"/><path class="cls-1" d="M-1115.07-127.64a6.82,6.82,0,0,1-6,2.77,7.93,7.93,0,0,1-8.2-7.65,8.23,8.23,0,0,1,0-.86v-13.5h5.82v12.45a3.85,3.85,0,0,0,3.32,4.32,3.18,3.18,0,0,0,.62,0,3.91,3.91,0,0,0,4.11-3.69,3.75,3.75,0,0,0,0-.58v-12.53h5.82v17.66a36.45,36.45,0,0,0,.22,3.91h-5.54A15.16,15.16,0,0,1-1115.07-127.64Z" transform="translate(1675.52 376.12)"/></g></svg>