<svg id="Layer_1" data-name="Layer 1" xmlns="http://www.w3.org/2000/svg" viewBox="0 0 595.29 236.96"><defs><style>.cls-1{fill:#003087;stroke:#fff;stroke-miterlimit:10;stroke-opacity:0;stroke-width:0.01px;}</style></defs><title>KPMGSVG</title><g id="KPMG"><path id="path5037" class="cls-1" d="M-1212.41-1294.38v118.22l-1.51,1.24-1.51,1.25-1.45,1.31-1.38,1.31-1.32,1.3-1.32,1.37-1.26,1.37-1.25,1.37v-128.74h-132.17v107.63h-10.93v-107.63h-132.17v107.82h-10.93v-107.82h-132.16v122.89l-33.75,111.43h29.66l14.89-49.33h4.28l24.63,49.33h35.83l-23.89-49.33h54.18l-15,49.33h32.36l14.83-49.21h7.17v-.12h72.15l-14.33,49.21h32.68l13.88-49.21h14.71l.38,49.21h27.4l31.48-49.21h20.62l-10.69,49.21h32.18l10.5-49.21h18.6l-.13,2.8.07,2.87.12,2.74.26,2.74.18,1.31.19,1.3.25,1.31.25,1.31.32,1.31.31,1.24.38,1.25.38,1.25.44,1.24.44,1.18.5,1.19.5,1.12.57,1.18.56,1.12.63,1.06.63,1.12.69,1.06.76,1,.75,1.06.82.93.82,1,.81.93.94.94.95.87,1.19,1,1.2,1,1.25.94,1.32.87,1.32.87,1.32.81,1.38.69,1.45.74,1.38.63,1.45.62,1.44.56,1.51.56,1.51.5,1.51.43,1.51.44,1.5.37,3,.69,3.08.5,3,.43,3,.38,3,.25,2.89.12,2.83.13h2.7l3.64-.06,3.65-.06,3.71-.19,3.7-.19,3.71-.31,3.71-.31,3.71-.37,3.71-.44,3.77-.5,3.77-.56,3.77-.62,3.77-.62,3.77-.69,3.77-.75,3.77-.74,3.84-.88,11.18-44.66h36.7v-185ZM-1629.52-1114l.19-.68.44.68Zm115.13-66.27-1.88,6.29-17.6,57.92-.69,2.06h-57.82l-4.46-9.47,62.28-63.09h-40l-48.71,52,15.78-52h-29.54v-103.15h122.67v109.44Zm34.13,49h0l-.94.06-.88.06-1,.06h-3.45l-1.07.06h-1l-7.85-.06,3.64-13.33,1.7-6.6,4.15-15.51h2.7l1.32-.06h7.35l3.71.06,3.39.13,1.51,0,1.45.13,1.38.19,1.26.18,1.13.19,1.07.31,1,.31.88.38.76.37.69.5.63.5.5.62.31.5.25.5.25.56.19.62.13.69.07.68v1.56l-.07.87-.06.87-.19,1-.19,1-.56,2.11-.69,2.37-.7,2-.75,1.93-.82,1.81-.88,1.68-.44.75-.44.75-.5.75-.57.68-.56.68-.57.63-.63.62-.63.56-.69.5-.69.56-.75.44-.82.49-.82.44-.88.37-.88.38-.94.31-1,.37-1.07.25-1.13.25-1.14.25-1.25.19-1.26.18-1.32.13-1.38.12Zm89.36,17.32,12.89-45.47.5,45.47h-13.39Zm19.61-72.75H-1402l-21.11,72.75h-32.56l1.51-.62,1.51-.63,1.45-.62,1.44-.68,1.38-.69,1.32-.81,1.32-.75,1.26-.8,1.26-.88,1.19-.87,1.13-.87,1.13-1,1.07-.93,1-1.06,1-1,1-1.12.94-1.06.88-1.18.82-1.12.81-1.25.76-1.24.69-1.25.69-1.31.63-1.37.63-1.37.56-1.37.51-1.43.5-1.5.37-1.49.45-1.5.31-1.61.31-1.56.44-2.49.38-2.37.25-2.24.19-2.12.07-2.12-.07-1.93-.06-1.93-.25-1.81-.25-1.68-.44-1.68-.44-1.56-.63-1.49-.69-1.43-.76-1.44-.88-1.3-1-1.25-.82-.87-.82-.87-.88-.75-.94-.69-1-.68-1-.62-1.07-.57-1.07-.49-1.13-.5-1.13-.38-1.19-.37-1.2-.37-1.25-.32-1.26-.24-1.26-.25-1.32-.19-2.7-.37-2.7-.19-2.77-.19-2.83-.06H-1494v-103h122.68v103Zm74.54,72.75h-18.42l27.91-43.6Zm68.56-70.7-.06,25.23-1.58,2.18-1.44,2.24-1.45,2.25-1.32,2.24-1.25,2.24-1.26,2.3-1.07,2.25-1.07,2.24-1,2.18-.88,2.24-.88,2.18-.76,2.12-.69,2.12-.63,2-.56,2-.51,2-.31,1.31-.31,1.37-.32,1.31-.25,1.37-.25,1.3-.19,1.31-.19,1.31-.12,1.37h-18l15.4-72.56-51.91-.06-46.45,72.62h-3.39v-175.71h122.74v105Zm70.77,100.41-2.58.44-2.64.37-2.64.37-2.58.32-2.57.25-2.58.18-2.51.13h-4.15l-1.64-.06-1.57-.13-1.57-.18-1.51-.25-1.44-.25-1.45-.31-1.38-.38-1.32-.43-1.32-.44-1.26-.56-1.19-.56-1.19-.69-1.14-.68-1.06-.75-1-.75-1-.87-.88-.93-.88-.94-.82-1-.76-1.06-.69-1.19-.63-1.18-.62-1.25-.51-1.3-.44-1.44-.37-1.43-.38-1.49-.25-1.56-.19-1.62-.13-1.68-.06-1.75h57.19l-6.29,25.1Zm72.52-29.71h-30.92l5.09-20.31h-62l-5.09,20.31h-30v-4.17l.37-1.75.32-1.74.37-1.87.38-1.87.57-2,.56-2.06.63-2,.69-2,.76-2,.81-2,.88-1.94.88-1.93,1-1.93,1-1.8,1.07-1.87,1.2-1.75,1.19-1.74,1.2-1.68,1.31-1.62,1.39-1.56,1.44-1.49,1.45-1.37,1.57-1.37,1.57-1.31,1.63-1.19,1.76-1.12,1.76-1,1.83-.94,1.88-.87,2-.75,2-.62,2.08-.5,2.13-.43,2.2-.32,2.26-.18,2.33-.06,1.82.06,1.82.12,1.83.25,1.76.37.88.25.81.25.82.25.75.38.76.31.75.43.69.44.7.43.62.57.63.56.57.56.56.68.51.62.44.75.37.81.38.81.32.87.25.94.19.93.18,1.06.07,1.06v2.3l-.13,1.25h37l.56-2.55.51-2.93.25-1.56.12-1.68.13-1.68v-1.75l-.06-1.8-.19-1.87-.19-.87-.12-.94-.25-.93-.25-.94-.32-1-.31-.94-.38-.93-.44-.94-.44-.93-.57-.93-.56-.94-.63-.93-.75-1-.82-.93-.82-.94-.88-.87-.94-.87-1-.81-1-.75-1.07-.75-1.13-.74-1.13-.63-1.2-.62-1.25-.62-1.26-.56-1.32-.56-1.38-.5-1.39-.5-1.38-.44-1.51-.37-1.44-.37-1.57-.38-1.57-.31-1.58-.31-1.63-.25-1.7-.19-3.45-.37-3.52-.31-3.71-.13-3.77-.06-2.83.06-2.95.06-3.08.19-3.21.25-3.33.37-3.39.44-3.46.56-3.52.75-1.76.37-1.82.43-1.76.5-1.82.5-1.82.56-1.83.63-1.82.62-1.76.68-1.82.75-1.82.81-1.76.81-1.83.87-1.76.94-1.76,1-1.76,1-1.76,1.12v-110.25h122.87V-1114Z" transform="translate(1675.53 1294.4)"/></g></svg>