<svg id="Layer_1" data-name="Layer 1" xmlns="http://www.w3.org/2000/svg" viewBox="0 0 595.28 232.55"><defs><style>.cls-1{fill:#b3894e;}</style></defs><title>KvikaSVG</title><g id="KVIKA"><g id="sitelogo-03"><g id="Group"><path id="Shape" class="cls-1" d="M-1542.71-511.57h33.34v-56.35l-33.34-21.43Z" transform="translate(1675.52 744.12)"/><path id="Shape-2" data-name="Shape" class="cls-1" d="M-1609.12-544.64h33.34v-66.93l-33.34-21.7Z" transform="translate(1675.52 744.12)"/><path id="Shape-3" data-name="Shape" class="cls-1" d="M-1675.52-578h33.33v-77.52l-33.33-22Z" transform="translate(1675.52 744.12)"/><path id="Shape-4" data-name="Shape" class="cls-1" d="M-1642.19-710.79v55.3l33.07,22.22v-77.52Z" transform="translate(1675.52 744.12)"/><path id="Shape-5" data-name="Shape" class="cls-1" d="M-1509.37-710.79v142.87l33.33,22.49V-710.79Z" transform="translate(1675.52 744.12)"/><path id="Shape-6" data-name="Shape" class="cls-1" d="M-1575.78-744.12v132.55l33.07,22.22V-744.12Z" transform="translate(1675.52 744.12)"/><path id="Shape-7" data-name="Shape" class="cls-1" d="M-1296.93-665.55h-2.38l-11.9,50.8-12.17-50.8h-16.14l19.84,75.14H-1303l20.1-75.14Z" transform="translate(1675.52 744.12)"/><path id="Shape-8" data-name="Shape" class="cls-1" d="M-1369.15-590.41l-23.55-32v32H-1408v-75.14h15.35v28.31l19.84-28.31h17.73l-25.66,34.66,30.16,40.48Z" transform="translate(1675.52 744.12)"/><path id="Shape-9" data-name="Shape" class="cls-1" d="M-1110.14-646l6.88,28.05H-1117l6.88-28.05Zm7.41-19.58h-16.41l-21.43,75.14h16.14l4.5-16.67h19l4.49,16.67h16.14l-21.43-75.14Z" transform="translate(1675.52 744.12)"/><path id="Shape-10" data-name="Shape" class="cls-1" d="M-1262.8-665.55v35.72l15.35,10.05v-45.77Z" transform="translate(1675.52 744.12)"/><path id="Shape-11" data-name="Shape" class="cls-1" d="M-1232.11-610l-15.34-9.79v29.11h15.34Z" transform="translate(1675.52 744.12)"/><path id="Shape-12" data-name="Shape" class="cls-1" d="M-1170.46-590.41l-23.55-32v32h-15.61v-75.14H-1194v28.31l19.84-28.31h17.73l-25.93,34.66,30.43,40.48Z" transform="translate(1675.52 744.12)"/></g></g></g></svg>