<svg id="Layer_1" data-name="Layer 1" xmlns="http://www.w3.org/2000/svg" viewBox="0 0 595.28 181.53"><defs><style>.cls-1{fill:#e85708;}.cls-2{fill:#0a9e9c;}.cls-3{fill:#24a6cc;}</style></defs><title>OrigoSVG</title><g id="ORIGO"><path d="M-1574.07-1667.4a34.23,34.23,0,0,0-34.2,34.19,34.28,34.28,0,0,0,34.2,34.36,34.25,34.25,0,0,0,34.2-34.2,34.27,34.27,0,0,0-34.2-34.35m-.54,96c-17.4,0-32.29-6-44-18-11.76-11.75-17.79-26.79-17.79-44.65a58.33,58.33,0,0,1,18.17-43.14c12.06-11.83,26.87-17.78,44.12-17.78s32.29,6,44.35,17.86,18,26.72,18,44c0,17.41-6.11,32.29-18.17,44.05s-27,17.71-44.66,17.71" transform="translate(1675.52 1694.96)"/><path d="M-1181.7-1667.4a34.24,34.24,0,0,0-34.2,34.19,34.28,34.28,0,0,0,34.2,34.36,34.24,34.24,0,0,0,34.2-34.2,34.27,34.27,0,0,0-34.2-34.35m-.53,96c-17.41,0-32.29-6-44-18-11.76-11.75-17.79-26.79-17.79-44.65a58.33,58.33,0,0,1,18.17-43.14c12-11.83,26.87-17.78,44.13-17.78s32.29,6,44.35,17.86,18,26.72,18,44c0,17.41-6.1,32.29-18.17,44.05s-27.1,17.71-44.65,17.71" transform="translate(1675.52 1694.96)"/><path d="M-1421.24-1625.27V-1689a2.9,2.9,0,0,1,2.9-2.9h26.79a2.9,2.9,0,0,1,2.9,2.9v63.74a2.9,2.9,0,0,1-2.9,2.9h-26.79a2.8,2.8,0,0,1-2.9-2.9" transform="translate(1675.52 1694.96)"/><path d="M-1317-1667.33a34.38,34.38,0,0,0-33.51,33.51,33.91,33.91,0,0,0,9.77,24.58,34,34,0,0,0,24.43,10.23h.69a34.37,34.37,0,0,0,33.51-33.51,33.93,33.93,0,0,0-9.77-24.58,34.09,34.09,0,0,0-24.43-10.23Zm5.88,153.9c-15.5,0-28.47-4.28-38.63-12.67-10.45-8.71-16.56-20.84-18.16-36.11l-.08-.92a1.84,1.84,0,0,1,1.83-2h27.56a1.78,1.78,0,0,1,1.75,1.52l.16.69c.91,5,2.44,9,4.42,11.6,4.89,6.34,11.91,9.47,21.38,9.47,17.33,0,25.8-10.53,25.8-32.21v-2.22a1.76,1.76,0,0,0-2.59-1.6,64.53,64.53,0,0,1-29.17,6.56c-17.4,0-32.29-6-44-18-11.76-11.76-17.79-26.8-17.79-44.66a58.33,58.33,0,0,1,18.17-43.13c12-11.91,26.79-17.86,44-17.86a63,63,0,0,1,28.7,6.56,1.76,1.76,0,0,0,2.59-1.6,1.86,1.86,0,0,1,1.84-1.83h27.48A1.86,1.86,0,0,1-1254-1690v110.15c0,5.35-.15,10.08-.53,14.2s-.84,7.79-1.45,10.92a50.51,50.51,0,0,1-11.45,23c-10.54,12.13-25.27,18.32-43.67,18.32" transform="translate(1675.52 1694.96)"/><path class="cls-1" d="M-1405.14-1574a19.58,19.58,0,0,1-19.54-19.55,19.58,19.58,0,0,1,19.54-19.54,19.58,19.58,0,0,1,19.55,19.54,19.58,19.58,0,0,1-19.55,19.55" transform="translate(1675.52 1694.96)"/><path class="cls-2" d="M-1099.79-1574a19.58,19.58,0,0,1-19.54-19.55,19.58,19.58,0,0,1,19.54-19.54,19.58,19.58,0,0,1,19.54,19.54,19.58,19.58,0,0,1-19.54,19.55" transform="translate(1675.52 1694.96)"/><path class="cls-3" d="M-1656-1574a19.58,19.58,0,0,1-19.54-19.55,19.58,19.58,0,0,1,19.54-19.54,19.58,19.58,0,0,1,19.54,19.54A19.58,19.58,0,0,1-1656-1574" transform="translate(1675.52 1694.96)"/><path d="M-1470.56-1687a1.79,1.79,0,0,0,2.6,1.6,64,64,0,0,1,28.7-6.49c1.76,0,3.66.08,5.8.23h0a2.59,2.59,0,0,1,2.44,2.6v22.59a2.66,2.66,0,0,1-3,2.6,30.76,30.76,0,0,0-4.58-.38H-1440c-16.8.3-30.54,14.58-30.54,31.83v55.5a2.57,2.57,0,0,1-2.59,2.59H-1499a2.57,2.57,0,0,1-2.6-2.59V-1689a2.57,2.57,0,0,1,2.6-2.59h26.64a1.86,1.86,0,0,1,1.83,1.83Z" transform="translate(1675.52 1694.96)"/></g></svg>