<svg id="Layer_1" data-name="Layer 1" xmlns="http://www.w3.org/2000/svg" viewBox="0 0 1867.02 766.51"><defs><style>.cls-1{fill:#00214c;}.cls-2{fill:#feb800;}.cls-3{fill:#01224c;}.cls-4{fill:#01224d;}.cls-5{fill:#02234e;}.cls-6{fill:#01234d;}.cls-7{fill:#042650;}.cls-8{fill:#072a53;}.cls-9{fill:#082b54;}.cls-10{fill:#47718b;}.cls-11{fill:#5a7f96;}.cls-12{fill:#02234d;}.cls-13{fill:#02244e;}.cls-14{fill:#042750;}.cls-15{fill:#082a53;}.cls-16{fill:none;}</style></defs><title>olgerdinLogoSVGResizedV2</title><path class="cls-1" d="M-895.88,484.22c18.46-20.77,21.57-45.27,21.77-70.57.17-21,.6-42-.14-63-1.16-32.82-6.47-64.88-22-94.39-14.82-28.23-37.33-46.62-69.47-51.11-39.47-5.5-73.52,11.55-93.81,46.08-11.9,20.24-18,42.4-21.58,65.36-5.79,37.11-4,74.47-2.68,111.73.72,20.21,6,39.46,20.46,54.92-.65,1.63-2,.92-3,.92q-149.22,0-298.45.11c-3.51,0-4.39-.89-4.36-4.38.44-43.82-.46-87.69,1.33-131.45,2.07-50.72,18.57-96.14,57-131.42,24-22,52.76-34.19,84.45-40,16.26-3,32.7-4,49.22-4q200.22,0,400.44.05c32.8,0,64.64,5.23,94.21,20.27,44.61,22.68,71.09,59.78,84.35,107.2,7,25,8.22,50.46,8.11,76.19-.14,34.5.17,69,.54,103.48,0,4.21-1.94,4-4.82,4q-42.48-.08-85,0H-895.88Z" transform="translate(1913.3 -9.71)"/><path class="cls-1" d="M-555.93,663.9c-3.69-33.72-1.55-67.56-2.22-101.34-.07-3.39,1.25-3.76,4-3.68,5.83.18,11.68.32,17.48,0,3.82-.24,4.62,1,4.6,4.65-.15,34.81-.09,69.62-.09,104.44,0,9.49-.14,19,.08,28.48.07,3.15-.87,3.88-3.9,3.82-10.32-.19-20.65-.14-31,0-2.4,0-3.93-.46-5.08-2.82-15.4-31.63-32.81-62.28-46.53-94.73a80.63,80.63,0,0,0-4.56-9.65c3.44,34,1.38,68,2,102,.07,4-.67,5.6-5,5.26a116.07,116.07,0,0,0-16.47,0c-3.75.24-4.67-.85-4.65-4.61.17-28.82.09-57.63.09-86.45,0-15.49.09-31-.07-46.47,0-3.09.75-3.92,3.85-3.86,10.32.2,20.65.12,31,0,2.18,0,3.64.34,4.74,2.58,16.71,34.12,35.81,67.07,50.15,102.36.24.61.39,1.26.59,1.89.37.33.58.82,1.07,1A4.45,4.45,0,0,0-555.93,663.9Z" transform="translate(1913.3 -9.71)"/><path class="cls-2" d="M-1222.42,9.71l157.09,125.17c-.13.34-.27.68-.41,1h-4.78q-62.2,0-124.41,0c-18.44,0-28.3-9.89-28.31-28.44q0-46.21,0-92.43C-1223.22,13.45-1223.71,11.77-1222.42,9.71Z" transform="translate(1913.3 -9.71)"/><path class="cls-2" d="M-893.9,134.89-736.81,9.72c1.27,2.06.79,3.74.79,5.31q.06,46.72,0,93.43c0,17.1-10.25,27.42-27.3,27.43q-63.19,0-126.4,0h-3.81Z" transform="translate(1913.3 -9.71)"/><path class="cls-2" d="M-979.63,25.76l84.33,109.81h-168.61C-1035.79,98.92-1007.92,62.61-979.63,25.76Z" transform="translate(1913.3 -9.71)"/><path class="cls-1" d="M-1095.26,656.29c0,11.66-.07,23.32,0,35,0,2.63-.41,4.22-3.28,5.13-22.48,7.17-45.32,9-68.43,4.13-15.71-3.3-25.31-13.75-29-29-6.36-26.11-6.73-52.48,0-78.56,5.54-21.56,20.47-33.06,42.27-35.91,17.2-2.24,34.19-.83,51.09,2.78,3.27.7,4.06,2,3.51,5a117.82,117.82,0,0,0-2,13.82c-.25,4.16-1.88,4.82-5.67,4-12.72-2.82-25.55-4.35-38.64-2.79-10.43,1.25-17.54,6.34-21,16.44a62.94,62.94,0,0,0-3.19,16.59c-1,16.47-1.58,32.94,2.37,49.17,2.51,10.33,8.72,16.48,19.63,17.52a64.06,64.06,0,0,0,20.79-1.62c2.14-.5,3-1.53,3-3.78q-.14-15.75,0-31.49c0-2.17-.68-2.87-2.84-2.82-5.5.12-11-.06-16.49.08-2.34.07-3.23-.57-3.16-3,.16-5.66.17-11.33,0-17-.08-2.51.9-3,3.18-3,14.82.08,29.65.13,44.47,0,3.14,0,3.44,1.3,3.42,3.86C-1095.32,632.64-1095.26,644.46-1095.26,656.29Z" transform="translate(1913.3 -9.71)"/><path class="cls-1" d="M-1069.28,629.43c0-22,.1-44-.1-66,0-3.8,1-4.63,4.67-4.61q36.74.27,73.47,0c3.44,0,4.68.73,4.43,4.34a92.1,92.1,0,0,0,0,14.48c.35,4.07-1.36,4.51-4.8,4.47-14.5-.18-29,0-43.49-.15-3.4,0-4.59.75-4.49,4.35.27,9,.19,18,0,27,0,2.89.91,3.64,3.71,3.62,13.66-.13,27.32,0,41-.13,3.34,0,4.8.63,4.54,4.31a100.49,100.49,0,0,0,0,14c.25,3.72-1.31,4.37-4.61,4.33-13.32-.16-26.66.08-40-.16-3.86-.07-4.76,1.15-4.66,4.8.24,9.5.31,19,0,28.49-.15,4,1.27,4.55,4.77,4.5,14.5-.19,29,.09,43.49-.19,3.94-.07,4.74,1.16,4.52,4.74-.3,5.15-.18,10.33,0,15.49.08,2.42-.74,3.09-3.12,3.09-25.32-.08-50.65-.14-76,0-3.83,0-3.35-2-3.35-4.36Q-1069.26,662.68-1069.28,629.43Z" transform="translate(1913.3 -9.71)"/><path class="cls-1" d="M-1287.34,629.48c0-22,.09-44-.09-66,0-3.66.75-4.89,4.6-4.68a187.36,187.36,0,0,0,20,0c4.08-.22,5.27.81,5.24,5.08-.22,29.15-.11,58.3-.11,87.45,0,6.5.35,13-.12,19.48-.35,4.69,1.4,5.41,5.57,5.33,13.16-.26,26.32.06,39.47-.2,3.86-.07,4.86,1.09,4.63,4.77a124.78,124.78,0,0,0,0,15c.19,3.4-.68,4.54-4.31,4.52-23.49-.17-47-.21-70.46,0-4.07,0-4.47-1.41-4.45-4.83C-1287.27,673.45-1287.34,651.46-1287.34,629.48Z" transform="translate(1913.3 -9.71)"/><path class="cls-1" d="M-706.34,629.34c0-21.81.14-43.63-.11-65.44,0-4.3,1.19-5.26,5.23-5.06,7,.35,14,.23,21,0,2.9-.08,3.57.89,3.56,3.66q-.12,66.94,0,133.9c0,3.19-1,3.88-4,3.8-7.16-.21-14.33-.28-21.48,0-3.61.15-4.34-1.06-4.32-4.46C-706.26,673.64-706.34,651.49-706.34,629.34Z" transform="translate(1913.3 -9.71)"/><path class="cls-1" d="M-1344.14,545.22c-13.22,0-20-11.51-13.31-23.28,4.21-7.42,11.9-5.06,18.5-4.92,4.76.09,8.26,2.46,9.36,7.39a30,30,0,0,1,.07,12.87C-1330.84,543.33-1334.61,545.24-1344.14,545.22Z" transform="translate(1913.3 -9.71)"/><path class="cls-3" d="M-798.95,750.17c-.44,7.31-1,14.61-1.26,21.92-.11,2.83-1.52,3.2-3.84,3.1-3-.12-1.85-2.17-1.73-3.57.84-10.11,1.77-20.21,2.65-30.32.15-1.62-.23-3.79,2.38-3.26,2.37.49,5.73-2.14,7,2.32,2.66,9.5,5.56,18.94,8.65,29.39,2.85-9.87,5.77-18.75,7.88-27.81,1.14-4.91,4.29-3.91,7.43-4,4.17-.07,2.48,3.2,2.67,5.07,1,9.43,1.74,18.88,2.53,28.33.13,1.59,1.4,3.67-1.93,3.86-2.84.16-3.59-.77-3.74-3.55-.49-9.21-1.32-18.4-2.12-29-3,10.52-5.78,19.68-8.23,28.91-.73,2.75-1.86,3.59-4.72,3.69-3.08.11-4-1.27-4.64-3.77-2.35-8.81-4.83-17.58-7.25-26.37-1.13-.82-1.26.06-1.36.84C-798.77,747.38-798.4,748.82-798.95,750.17Z" transform="translate(1913.3 -9.71)"/><path class="cls-1" d="M-1395,516.7c13.67.1,20.33,12,13.64,23.59-3,5.19-8.3,4.89-13.28,4.9s-10.66.49-13.21-4.88a21.25,21.25,0,0,1,.09-18.82C-1405.09,516.18-1399.39,516.91-1395,516.7Z" transform="translate(1913.3 -9.71)"/><path class="cls-4" d="M-613.82,744.88c0,9.34.08,17.6-.07,25.85,0,1.6,1.45,4.33-2.12,4.43-3.94.1-2.41-2.9-2.44-4.64-.14-9.32-.12-18.65,0-28,0-1.53-1.3-4.1,1.47-4.45,2.61-.33,5.29-.89,7.06,2.69,4.42,8.88,9.38,17.49,14.63,27.14,0-9.1-.08-17.27.07-25.44,0-1.71-1.55-4.67,2.46-4.54,3.53.1,2.28,2.67,2.3,4.33q.16,14.25,0,28.49c0,1.52,1.25,4.14-1.74,4.3-2.42.13-5.14,1.11-6.84-2.27-4.17-8.31-8.69-16.44-13.08-24.64C-612.53,747.36-612.94,746.56-613.82,744.88Z" transform="translate(1913.3 -9.71)"/><path class="cls-4" d="M-1304.89,764.47c0,11.17-.56,11.7-12,11.51-8.64-.14-12.33-3.56-13.32-12.15a55.87,55.87,0,0,1,0-13.43c1.11-9,5.35-13.09,14.34-13.25,2.8,0,5.61.58,8.41.82,1.71.14,1.69,1.17,1.56,2.44s-.56,2-2.18,1.78a61.1,61.1,0,0,0-8.44-.51c-4.18,0-6.84,2.14-7.75,6.32a37.85,37.85,0,0,0,.09,17.77c1.35,5.15,8.17,7.73,13,5.29,1.21-.62,1.13-1.46,1.15-2.39,0-2-.16-4,0-6,.33-3.19-.31-5.13-4.14-4.57-1.51.22-3.53.59-3.43-2.17s2.25-1.86,3.66-1.91C-1304.9,753.74-1304.89,753.77-1304.89,764.47Z" transform="translate(1913.3 -9.71)"/><path class="cls-5" d="M-1368.84,756.39c0-5.15.06-10.31,0-15.46,0-2,.4-3.06,2.72-3,5.15.13,10.3,0,15.46,0,1.39,0,2.57,0,2.59,2s-.85,2.26-2.42,2.21a35.78,35.78,0,0,0-5.48,0c-2.34.31-5.81-1.47-6.79,1-1.07,2.74-.39,6.21-.29,9.36,0,1.77,1.62,1.29,2.68,1.31,3,.05,6,0,9,0,1.26,0,2.23.15,2.28,1.83s-.61,2.37-2.3,2.33c-2.82-.08-5.66.16-8.47-.07s-3.27.86-3.33,3.39c-.22,9.55-.32,9.55,9,9.55,1,0,2,0,3,0,1.36.08,3-.54,3.11,2,.06,2.35-1.35,2.23-2.9,2.23-4.82,0-9.64-.12-14.46,0-2.57.09-3.51-.71-3.42-3.37C-1368.71,766.7-1368.84,761.54-1368.84,756.39Z" transform="translate(1913.3 -9.71)"/><path class="cls-6" d="M-738.75,776c-.84-.14-3.12-.6-5.42-.86-1.86-.21-2.07-1.26-1.83-2.77.27-1.72,1.49-1.51,2.66-1.33,2.79.43,5.56,1.18,8.42.71s5.61-1.3,6.31-4.71-1.38-5.27-4-6.72-5.24-2.87-7.93-4.18c-4.88-2.38-6.65-6.25-5.7-11.48.91-5,4.78-6.41,9-7.24a21.83,21.83,0,0,1,9.41.4c1.3.31,2.71.26,2.43,2.31s-1.72,2.09-3.3,1.83c-2.3-.39-4.59-.9-6.94-.43s-5,.89-5.59,4c-.55,3,1.06,4.73,3.4,6s5,2.61,7.48,4c6,3.26,8.09,7.14,6.8,12.34-1.24,5-5.23,7.79-11.76,8.09C-735.92,776-736.59,776-738.75,776Z" transform="translate(1913.3 -9.71)"/><path class="cls-6" d="M-699.7,776c-.73-.12-2.84-.51-5-.81-1.41-.2-2.58-.41-2.36-2.35.26-2.35,1.83-2,3.29-1.74,2.62.49,5.23,1.06,7.9.65,2.9-.45,5.61-1.34,6.33-4.68s-1.34-5.26-4-6.72c-3-1.68-6.12-3.3-9.18-5-4.34-2.33-5.24-6.17-4.53-10.61.67-4.17,3.58-6,7.43-7a23.1,23.1,0,0,1,10.84,0c1.52.35,3,.39,2.58,2.65s-2.09,1.6-3.52,1.5a43.36,43.36,0,0,0-6.42-.37c-2.48.21-5.07.73-5.82,3.75s1,5,3.51,6.41c2.32,1.28,4.72,2.41,7.05,3.67,6.12,3.29,8.27,7,7.19,12.16s-5.25,8.16-11.95,8.45C-696.94,776-697.61,776-699.7,776Z" transform="translate(1913.3 -9.71)"/><path class="cls-7" d="M-1222.06,756.42c0-5.14,0-10.29,0-15.44,0-1.88.12-3.12,2.59-3.09s3.19.65,3.15,3.1c-.13,8.47.18,17-.15,25.4-.14,3.91,1.19,4.94,4.79,4.54,2.46-.28,5,0,7.46-.06,1.37,0,2.14.34,2.16,1.92s-.39,2.43-2.2,2.4c-5.14-.07-10.29-.09-15.44,0-2.16,0-2.35-1.13-2.34-2.83.06-5.31,0-10.62,0-15.94Z" transform="translate(1913.3 -9.71)"/><path class="cls-1" d="M-1258.34,756.5c0-4.83-.07-9.65,0-14.47,0-1.7-1.08-4,2.46-4.15,3.9-.1,2.7,2.53,2.72,4.37.08,7.81.38,15.65-.1,23.44-.28,4.7,1.41,5.78,5.57,5.25a60.62,60.62,0,0,1,6.47-.06c1.48,0,2.6.06,2.6,2,0,1.77-.73,2.29-2.4,2.27-5-.07-10-.13-15,0-2.66.08-2.41-1.54-2.41-3.24C-1258.33,766.81-1258.34,761.65-1258.34,756.5Z" transform="translate(1913.3 -9.71)"/><path class="cls-8" d="M-1279.46,756.72c0,5.15-.11,10.3,0,15.45.07,2.48-.95,3-3.22,3.08-2.6.06-2.47-1.43-2.47-3.18,0-10.46.07-20.93,0-31.39,0-2.22.74-2.8,2.85-2.79s2.91.72,2.87,2.88C-1279.53,746.09-1279.46,751.4-1279.46,756.72Z" transform="translate(1913.3 -9.71)"/><path class="cls-9" d="M-821.58,729.94c0,1.4-1.39,1.45-2.06,1.53-3.06.37-7,5.14-8.68,1.11-1.37-3.37,4.72-3.38,7.27-5.2S-822.33,728.41-821.58,729.94Z" transform="translate(1913.3 -9.71)"/><path class="cls-10" d="M-798.95,750.17c-.06-1.92-.18-3.85-.15-5.78,0-.61-.27-1.92,1.14-1.32.84.36.93,1.24.73,2.09C-799.11,746.39-797.69,748.74-798.95,750.17Z" transform="translate(1913.3 -9.71)"/><path class="cls-11" d="M-555.93,663.9c1.19,1.18.81,2.61.89,4.29a2.45,2.45,0,0,1-1.87-2.46C-556.58,665.12-556.25,664.51-555.93,663.9Z" transform="translate(1913.3 -9.71)"/><path class="cls-1" d="M-733.58,593.44c-4.56-21-17.27-31.17-38.61-33.55-11.81-1.32-23.62-.63-33.53-.95-11.06,0-20.22.13-29.38-.08-3.19-.07-4.2.7-4.17,4.06.19,16.15,0,32.31.14,48.46,0,2.94-.29,4.58-3.94,4.44s-8.64-1.81-11,.81-.64,7.34-.68,11.13c-.08,10,0,10.27,9.8,9.82,5-.23,5.93,1.39,5.86,6.06-.3,17.48-.14,35-.09,52.46,0,1.71-1.06,4.18,2.48,4.09,21.29-.58,42.65,1.33,63.88-1.27,20.41-2.49,33.65-13.82,38.55-33.71A157.6,157.6,0,0,0-733.58,593.44Zm-27.09,49.1c-.39,6.13-1,12.26-3,18.15-3.65,10.81-10.22,15.56-23.07,16.16-6.49.31-13,0-19.49.22-2.9.1-3.2-1.19-3.15-3.54.13-5.5,0-11,0-16.5,0-5.33.13-10.66-.06-16-.09-2.62.71-3.45,3.36-3.38,6.32.18,12.66-.1,19,.12,3.31.12,4.88-.58,4.63-4.31a114.56,114.56,0,0,1,0-14c.19-3.24-1.09-3.93-4-3.84-6.49.19-13,0-19.49.11-2.62.06-3.45-.8-3.42-3.41.13-9,.09-18,0-27,0-2.09.17-3.45,2.88-3.33,8.14.37,16.29-.25,24.45.78,10.2,1.29,16.37,6.86,18.83,16.54C-759.57,613.55-759.76,628-760.67,642.54Z" transform="translate(1913.3 -9.71)"/><path class="cls-1" d="M-893.66,638.67c-1.65-3.06-1.27-3.87,2.09-4.84,14.28-4.12,23-13.45,25.14-28.39a67.92,67.92,0,0,0,.08-18c-1.8-14.6-8.36-22-22.54-25.71a63.87,63.87,0,0,0-9.79-1.8c-20.61-2.08-41.29-.54-61.93-1.09-2.91-.07-3.17,1.25-3.17,3.6q.07,67,0,134c0,3.3,1.21,3.83,4.08,3.76,7-.18,14-.31,21,0,4,.19,4.94-1,4.89-4.91-.22-17.16-.13-34.33,0-51.49,0-1.56-1.14-4,1.88-4.28,3.62-.29,6.76-.53,8.91,4,8.4,17.7,17.31,35.16,26.09,52.68.9,1.8,1.3,4,4.35,4,10.31-.18,20.64-.07,31.7-.07C-872.14,679.1-882.8,658.83-893.66,638.67ZM-905.6,615c-8.56,2.91-17.47,1.72-26.26,1.93-2.32,0-2.09-1.61-2.09-3.1,0-5,0-10,0-15,0-4.66.08-9.33,0-14-.06-2.37.34-3.7,3.2-3.62,7.32.19,14.65-.19,21.95.82,8.55,1.18,12.43,5,13.35,13.43C-894.41,605.35-897.92,612.34-905.6,615Z" transform="translate(1913.3 -9.71)"/><path class="cls-1" d="M-1315.14,593c-4.25-19-14.55-32.17-34.7-35.75a108,108,0,0,0-29.38-1c-25.63,2.48-39.06,13.9-44.47,39A164.55,164.55,0,0,0-1423,669c4.62,19.27,16.68,30.78,36.83,33.31a132.47,132.47,0,0,0,26.92.52c23.51-1.85,37.08-13.34,43.29-36,3.41-12.48,4.12-25.24,4-39.93A145.37,145.37,0,0,0-1315.14,593Zm-29.94,70c-3.34,11.85-9.65,16.7-22,17-1.83,0-3.67,0-5.5,0-11.24-.38-17.52-5-20.68-16-4.47-15.59-4.09-31.61-3.31-47.61.37-7.48,1.07-14.92,3.4-22.13,2.79-8.59,8.33-13.75,17.45-14.9a42.72,42.72,0,0,1,16.37.81c6.81,1.81,11,6.57,13.25,13.1,4.17,11.86,4,24.2,4.12,33.32C-1342,641-1342,652.19-1345.08,663.06Z" transform="translate(1913.3 -9.71)"/><path class="cls-4" d="M-638.68,748.12c-1.47-8.11-5.16-11-13.42-11.08-9.32-.12-13.9,3.84-14.92,13.07a58.52,58.52,0,0,0,0,6.49c0,3.31-.3,6.63.62,9.92,2,7.11,5.27,9.5,13.64,9.48,8.1,0,12-2.68,13.71-9.54A43.15,43.15,0,0,0-638.68,748.12ZM-644,763.86c-.86,5.63-3.21,7.81-8.37,7.93-5.37.14-7.77-2-8.91-7.89a40.85,40.85,0,0,1,.26-16.3c.93-4.53,4.05-6.15,8.33-6.18s7.47,1.7,8.39,6.13c.61,2.91.78,5.91,1.14,8.83C-643.49,758.93-643.67,761.41-644,763.86Z" transform="translate(1913.3 -9.71)"/><path class="cls-12" d="M-857.51,757.07c6.36-1.83,8.25-4.88,7.43-12-.53-4.61-3.27-6.79-9.24-7.07-3.82-.17-7.66,0-11.49-.11-2-.07-3,.46-3,2.75q.13,16,0,32c0,2.52,1.45,2.43,3.23,2.53,2.13.12,2.46-1,2.42-2.72q-.12-5.75,0-11.49c0-1-.69-2.47,1-2.88,1.54-.37,2.41.5,3.14,1.8,2.11,3.77,4.61,7.34,6.43,11.24s4.27,4.93,8.38,3.43l-10-16.9C-858.37,757.39-857.95,757.2-857.51,757.07Zm-9.8-3.7c-2.38-2-1-6.53-.68-9.88.25-2.68,3-.82,4.33-1.47,3.37.25,7.09-.32,8.2,4,.64,2.49.38,5.17-2,6.65C-860.58,754.55-865.06,755.23-867.31,753.37Z" transform="translate(1913.3 -9.71)"/><path class="cls-12" d="M-902.41,754c-1.51,0-3.94-1.14-3.84,2.16.09,2.9,2.26,2,3.61,1.89,3.18-.32,4.14,1,3.84,4-.21,2.14,0,4.32-.06,6.48,0,1,0,1.83-1.11,2.48-4.51,2.58-11.8-.17-13-5.22A37.85,37.85,0,0,1-913,748c.89-3.77,3.22-6.2,7.3-6.26a86.09,86.09,0,0,1,8.93.42c1.57.14,2.05-.63,2.35-1.89.35-1.5-.32-2.16-1.75-2.3a72.77,72.77,0,0,0-8.41-.83c-8.37.14-12.75,3.64-14.09,11.81-1,6.39-1.21,12.95.7,19.27,2,6.5,8.37,9.08,17.92,7.5,6.71-1.1,6.71-1.1,6.7-10.13v-1.5C-893.4,753.84-893.4,753.8-902.41,754Z" transform="translate(1913.3 -9.71)"/><path class="cls-13" d="M-1106.89,753.17c3.86-4.71,7.45-9.65,11.28-14.66-5.76-.87-5.77-.87-8.54,2.89l-9.29,12.6-1-.27c0-4.06-.08-8.13,0-12.19.06-2.28-.12-3.72-3.1-3.67s-2.52,1.9-2.52,3.67c0,10,0,20,0,29.93,0,2.12-.18,3.87,3,3.78,2.86-.09,2.67-1.73,2.66-3.62,0-4.35,0-8.7,0-14.49,4.17,5.72,7.57,10,10.53,14.54,2.21,3.41,4.77,4.4,8.75,2.81-4-5.41-7.78-10.67-11.76-15.74C-1108.49,756.7-1108.61,755.26-1106.89,753.17Z" transform="translate(1913.3 -9.71)"/><path class="cls-4" d="M-1066.73,738c-2,.08-4.06-.62-5,2.49-3.36,11.42-7,22.74-10.62,34.14,3.86,1.49,5.73.36,6.56-3.49.43-2,.47-5.27,2.4-5.62a38.1,38.1,0,0,1,12.38-.11c2.51.39,2.32,3.77,2.78,5.87.86,3.92,3,4.64,6.92,3.43-3.64-11.46-7.33-22.61-10.64-33.88C-1062.79,737.8-1064.52,737.88-1066.73,738Zm-6.12,22.75c1.84-6,3.62-11.73,5.4-17.51l1,.13c1.76,5.68,3.53,11.36,5.39,17.38Z" transform="translate(1913.3 -9.71)"/><path class="cls-4" d="M-944.3,741c-.75-2.46-2-3.73-4.61-2.92-3.64-1-4.87.92-5.8,4.12-2.8,9.55-6,19-8.83,28.53-.39,1.32-2.69,3.32.25,4.32,2.72.93,4.55-.46,4.79-3.29.52-6.12,4.12-6.88,9.5-6.87,4.94,0,7.88,1,8.45,6.21a8.35,8.35,0,0,0,.9,2.84c1,2,3,1.36,4.46,1.09,2.25-.43.83-2.07.5-3.13C-937.87,761.6-941.16,751.33-944.3,741Zm-1.91,20.06c-9.4.78-9.54.7-6.77-8.27,1-3.32,2.11-6.63,3.47-10.9,1.94,6.06,3.59,11.26,5.25,16.46C-943.69,760.15-944,760.89-946.21,761.07Z" transform="translate(1913.3 -9.71)"/><path class="cls-5" d="M-1146.9,754.77c-2.5-1.32-5-2.66-7.38-4.15-1.91-1.19-2.39-3.1-2-5.24s1.88-3,3.78-3.49a18.34,18.34,0,0,1,8.4,0c1.4.24,3,.84,3.48-1.47s-1.06-2.29-2.52-2.63a22.74,22.74,0,0,0-10.38-.1c-4.26,1-7.33,3-8,7.67s1,8.14,5.13,10.4c3.06,1.68,6.16,3.26,9.21,4.94,2.57,1.41,4,3.44,3.3,6.56s-2.94,3.81-5.43,4.37c-3,.66-6,0-8.9-.54-1.23-.2-2.74-.73-2.94,1.44-.15,1.59.25,2.48,2,2.65,2.31.24,4.58.7,6.87,1.07,7.78-.2,12-2.67,13.44-8.05C-1137.18,762.14-1139.21,758.82-1146.9,754.77Z" transform="translate(1913.3 -9.71)"/><path class="cls-14" d="M-980.49,770.87a51.82,51.82,0,0,0-6,0c-4.32.56-6.08-.66-5.8-5.49.46-8.13.09-16.3.14-24.46,0-1.84,0-3.13-2.55-3.09-2.37,0-3.21.72-3.13,3.14.16,5,0,10,0,15,0,5.33,0,10.65,0,16,0,1.8,0,3.29,2.53,3.23,5-.12,10-.08,15,0,1.68,0,2.36-.52,2.36-2.28C-977.91,770.93-979,770.85-980.49,770.87Z" transform="translate(1913.3 -9.71)"/><path class="cls-5" d="M-1016.94,770.47c-2.66,0-5.34-.17-8,0-3,.24-4.22-.67-4-3.87.26-4.15.06-8.32.06-12.48,0-4.66-.07-9.32,0-14,0-1.93-.66-2.63-2.59-2.61-1.77,0-2.74.32-2.72,2.43.07,10.82,0,21.64,0,32.45,0,1.48.13,2.56,2.07,2.53,5.16-.08,10.32-.05,15.48,0,1.71,0,2.35-.68,2.31-2.37C-1014.34,770.71-1015.47,770.46-1016.94,770.47Z" transform="translate(1913.3 -9.71)"/><path class="cls-15" d="M-825.52,741c0-2.43-.82-3.06-3.15-3.11-2.6,0-2.47,1.39-2.46,3.14,0,5.14,0,10.29,0,15.43,0,5.31.08,10.62,0,15.93-.05,2.1.52,2.91,2.75,2.88s2.88-.78,2.87-2.91C-825.61,761.88-825.63,751.43-825.52,741Z" transform="translate(1913.3 -9.71)"/><rect class="cls-16" width="1867.02" height="766.51"/></svg>