<svg id="Layer_1" data-name="Layer 1" xmlns="http://www.w3.org/2000/svg" viewBox="0 0 1563.03 766.51"><defs><style>.cls-1{fill:#00214c;}.cls-2{fill:#feb800;}.cls-3{fill:#01224c;}.cls-4{fill:#01224d;}.cls-5{fill:#02234e;}.cls-6{fill:#01234d;}.cls-7{fill:#042650;}.cls-8{fill:#072a53;}.cls-9{fill:#082b54;}.cls-10{fill:#47718b;}.cls-11{fill:#5a7f96;}.cls-12{fill:#02234d;}.cls-13{fill:#02244e;}.cls-14{fill:#042750;}.cls-15{fill:#082a53;}.cls-16{fill:none;}</style></defs><title>olgerdinLogoSVGResizedV1</title><path class="cls-1" d="M-819.88,484.22c18.45-20.77,21.57-45.27,21.77-70.57.16-21,.59-42-.15-63-1.15-32.82-6.47-64.88-22-94.39-14.83-28.23-37.33-46.62-69.47-51.11-39.48-5.5-73.52,11.55-93.82,46.08-11.89,20.24-18,42.4-21.58,65.36-5.78,37.11-4,74.47-2.67,111.73.71,20.21,6,39.46,20.45,54.92-.64,1.63-2,.92-3,.92q-149.24,0-298.45.11c-3.51,0-4.39-.89-4.36-4.38.43-43.82-.46-87.69,1.32-131.45,2.07-50.72,18.57-96.14,57-131.42,24-22,52.75-34.19,84.45-40,16.26-3,32.7-4,49.22-4q200.22,0,400.43.05c32.81,0,64.65,5.23,94.22,20.27,44.6,22.68,71.09,59.78,84.35,107.2,7,25,8.21,50.46,8.11,76.19-.14,34.5.17,69,.53,103.48.05,4.21-1.94,4-4.81,4q-42.5-.08-85,0H-819.88Z" transform="translate(1685.31 -9.71)"/><path class="cls-1" d="M-479.93,663.9c-3.7-33.72-1.55-67.56-2.23-101.34-.06-3.39,1.26-3.76,4.05-3.68,5.82.18,11.67.32,17.48,0,3.81-.24,4.61,1,4.6,4.65-.16,34.81-.09,69.62-.09,104.44,0,9.49-.15,19,.08,28.48.07,3.15-.87,3.88-3.9,3.82-10.32-.19-20.65-.14-31,0-2.4,0-3.94-.46-5.09-2.82-15.39-31.63-32.8-62.28-46.52-94.73A82.28,82.28,0,0,0-547.1,593c3.45,34,1.39,68,2,102,.08,4-.66,5.6-5,5.26a116.21,116.21,0,0,0-16.48,0c-3.74.24-4.67-.85-4.65-4.61.18-28.82.1-57.63.1-86.45,0-15.49.09-31-.08-46.47,0-3.09.76-3.92,3.86-3.86,10.32.2,20.65.12,31,0,2.17,0,3.64.34,4.73,2.58,16.72,34.12,35.81,67.07,50.15,102.36.25.61.4,1.26.6,1.89.36.33.57.82,1.07,1A4.52,4.52,0,0,0-479.93,663.9Z" transform="translate(1685.31 -9.71)"/><path class="cls-2" d="M-1146.42,9.71l157.09,125.17-.42,1h-4.77q-62.2,0-124.41,0c-18.44,0-28.3-9.89-28.31-28.44q0-46.21,0-92.43C-1147.22,13.45-1147.71,11.77-1146.42,9.71Z" transform="translate(1685.31 -9.71)"/><path class="cls-2" d="M-817.91,134.89-660.81,9.72c1.27,2.06.79,3.74.79,5.31q0,46.72,0,93.43c0,17.1-10.26,27.42-27.3,27.43q-63.21,0-126.4,0h-3.81Z" transform="translate(1685.31 -9.71)"/><path class="cls-2" d="M-903.63,25.76l84.33,109.81H-987.91C-959.79,98.92-931.92,62.61-903.63,25.76Z" transform="translate(1685.31 -9.71)"/><path class="cls-1" d="M-1019.26,656.29c0,11.66-.07,23.32,0,35,0,2.63-.41,4.22-3.29,5.13-22.48,7.17-45.32,9-68.43,4.13-15.7-3.3-25.31-13.75-29-29-6.36-26.11-6.73-52.48,0-78.56,5.55-21.56,20.48-33.06,42.28-35.91,17.19-2.24,34.19-.83,51.09,2.78,3.26.7,4.06,2,3.51,5a120,120,0,0,0-2,13.82c-.25,4.16-1.87,4.82-5.66,4-12.72-2.82-25.55-4.35-38.64-2.79-10.44,1.25-17.54,6.34-21,16.44a62.54,62.54,0,0,0-3.19,16.59c-1,16.47-1.58,32.94,2.36,49.17,2.51,10.33,8.72,16.48,19.63,17.52a64.1,64.1,0,0,0,20.8-1.62c2.14-.5,3-1.53,3-3.78q-.14-15.75,0-31.49c0-2.17-.67-2.87-2.84-2.82-5.49.12-11-.06-16.49.08-2.33.07-3.22-.57-3.15-3q.24-8.49,0-17c-.07-2.51.91-3,3.18-3,14.83.08,29.66.13,44.48,0,3.14,0,3.43,1.3,3.41,3.86C-1019.32,632.64-1019.26,644.46-1019.26,656.29Z" transform="translate(1685.31 -9.71)"/><path class="cls-1" d="M-993.28,629.43c0-22,.1-44-.1-66,0-3.8,1-4.63,4.67-4.61q36.74.27,73.47,0c3.43,0,4.67.73,4.42,4.34a93.33,93.33,0,0,0,0,14.48c.35,4.07-1.36,4.51-4.81,4.47-14.49-.18-29,0-43.48-.15-3.4,0-4.59.75-4.49,4.35.26,9,.19,18,0,27-.06,2.89.91,3.64,3.7,3.62,13.67-.13,27.33,0,41-.13,3.34,0,4.79.63,4.53,4.31a102.06,102.06,0,0,0,0,14c.26,3.72-1.3,4.37-4.6,4.33-13.33-.16-26.66.08-40-.16-3.86-.07-4.76,1.15-4.67,4.8.25,9.5.32,19,0,28.49-.14,4,1.28,4.55,4.78,4.5,14.49-.19,29,.09,43.48-.19,4-.07,4.74,1.16,4.53,4.74-.31,5.15-.19,10.33,0,15.49.07,2.42-.75,3.09-3.12,3.09-25.32-.08-50.65-.14-76,0-3.84,0-3.35-2-3.35-4.36Q-993.27,662.68-993.28,629.43Z" transform="translate(1685.31 -9.71)"/><path class="cls-1" d="M-1211.34,629.48c0-22,.09-44-.09-66,0-3.66.75-4.89,4.59-4.68a187.55,187.55,0,0,0,20,0c4.07-.22,5.26.81,5.23,5.08-.21,29.15-.11,58.3-.11,87.45,0,6.5.36,13-.12,19.48-.35,4.69,1.41,5.41,5.58,5.33,13.15-.26,26.32.06,39.47-.2,3.86-.07,4.86,1.09,4.62,4.77a122.74,122.74,0,0,0,0,15c.19,3.4-.69,4.54-4.32,4.52-23.48-.17-47-.21-70.45,0-4.07,0-4.47-1.41-4.45-4.83C-1211.27,673.45-1211.34,651.46-1211.34,629.48Z" transform="translate(1685.31 -9.71)"/><path class="cls-1" d="M-630.34,629.34c0-21.81.13-43.63-.12-65.44,0-4.3,1.2-5.26,5.24-5.06,7,.35,14,.23,21,0,2.91-.08,3.57.89,3.57,3.66q-.12,66.94,0,133.9c0,3.19-1,3.88-4,3.8-7.15-.21-14.33-.28-21.48,0-3.61.15-4.34-1.06-4.31-4.46C-630.27,673.64-630.34,651.49-630.34,629.34Z" transform="translate(1685.31 -9.71)"/><path class="cls-1" d="M-1268.15,545.22c-13.21,0-20-11.51-13.31-23.28,4.22-7.42,11.91-5.06,18.51-4.92,4.76.09,8.26,2.46,9.35,7.39a29.88,29.88,0,0,1,.07,12.87C-1254.84,543.33-1258.61,545.24-1268.15,545.22Z" transform="translate(1685.31 -9.71)"/><path class="cls-3" d="M-722.95,750.17c-.44,7.31-1,14.61-1.27,21.92-.11,2.83-1.52,3.2-3.84,3.1-3-.12-1.85-2.17-1.73-3.57.85-10.11,1.78-20.21,2.66-30.32.14-1.62-.23-3.79,2.38-3.26,2.37.49,5.73-2.14,7,2.32,2.67,9.5,5.56,18.94,8.65,29.39,2.85-9.87,5.77-18.75,7.88-27.81,1.14-4.91,4.3-3.91,7.43-4,4.18-.07,2.49,3.2,2.68,5.07,1,9.43,1.73,18.88,2.52,28.33.14,1.59,1.4,3.67-1.92,3.86-2.84.16-3.59-.77-3.74-3.55-.49-9.21-1.32-18.4-2.13-29-3,10.52-5.78,19.68-8.23,28.91-.73,2.75-1.85,3.59-4.71,3.69-3.08.11-4-1.27-4.64-3.77-2.36-8.81-4.83-17.58-7.26-26.37-1.12-.82-1.26.06-1.36.84C-722.77,747.38-722.4,748.82-722.95,750.17Z" transform="translate(1685.31 -9.71)"/><path class="cls-1" d="M-1319,516.7c13.68.1,20.33,12,13.64,23.59-3,5.19-8.29,4.89-13.28,4.9s-10.65.49-13.21-4.88a21.21,21.21,0,0,1,.1-18.82C-1329.1,516.18-1323.4,516.91-1319,516.7Z" transform="translate(1685.31 -9.71)"/><path class="cls-4" d="M-537.82,744.88c0,9.34.08,17.6-.07,25.85,0,1.6,1.44,4.33-2.12,4.43-3.94.1-2.41-2.9-2.44-4.64q-.21-14,0-28c0-1.53-1.3-4.1,1.47-4.45,2.6-.33,5.28-.89,7.06,2.69,4.41,8.88,9.38,17.49,14.63,27.14,0-9.1-.09-17.27.06-25.44,0-1.71-1.55-4.67,2.47-4.54,3.53.1,2.28,2.67,2.3,4.33q.15,14.25,0,28.49c0,1.52,1.26,4.14-1.73,4.3-2.43.13-5.14,1.11-6.84-2.27-4.17-8.31-8.7-16.44-13.08-24.64C-536.53,747.36-536.94,746.56-537.82,744.88Z" transform="translate(1685.31 -9.71)"/><path class="cls-4" d="M-1228.9,764.47c0,11.17-.55,11.7-12,11.51-8.64-.14-12.33-3.56-13.33-12.15a56.92,56.92,0,0,1,0-13.43c1.11-9,5.36-13.09,14.35-13.25,2.8,0,5.6.58,8.41.82,1.7.14,1.68,1.17,1.55,2.44s-.56,2-2.18,1.78a61,61,0,0,0-8.44-.51c-4.17,0-6.83,2.14-7.74,6.32a37.85,37.85,0,0,0,.09,17.77c1.35,5.15,8.17,7.73,12.94,5.29,1.22-.62,1.13-1.46,1.15-2.39,0-2-.15-4,.06-6,.33-3.19-.31-5.13-4.15-4.57-1.51.22-3.53.59-3.43-2.17s2.26-1.86,3.67-1.91C-1228.9,753.74-1228.9,753.77-1228.9,764.47Z" transform="translate(1685.31 -9.71)"/><path class="cls-5" d="M-1292.85,756.39c0-5.15.06-10.31,0-15.46,0-2,.39-3.06,2.72-3,5.15.13,10.3,0,15.45,0,1.4,0,2.58,0,2.59,2s-.85,2.26-2.42,2.21a35.65,35.65,0,0,0-5.47,0c-2.35.31-5.81-1.47-6.79,1-1.07,2.74-.39,6.21-.29,9.36,0,1.77,1.62,1.29,2.67,1.31,3,.05,6,0,9,0,1.26,0,2.22.15,2.27,1.83s-.6,2.37-2.29,2.33c-2.83-.08-5.67.16-8.48-.07s-3.26.86-3.32,3.39c-.23,9.55-.33,9.55,9,9.55,1,0,2,0,3,0,1.37.08,3-.54,3.11,2,.06,2.35-1.34,2.23-2.89,2.23-4.82,0-9.65-.12-14.46,0-2.57.09-3.52-.71-3.43-3.37C-1292.72,766.7-1292.84,761.54-1292.85,756.39Z" transform="translate(1685.31 -9.71)"/><path class="cls-6" d="M-662.76,776c-.83-.14-3.11-.6-5.41-.86-1.86-.21-2.08-1.26-1.84-2.77.28-1.72,1.5-1.51,2.66-1.33,2.8.43,5.57,1.18,8.43.71s5.6-1.3,6.31-4.71-1.38-5.27-4-6.72-5.24-2.87-7.93-4.18c-4.89-2.38-6.65-6.25-5.7-11.48.91-5,4.77-6.41,9-7.24a21.84,21.84,0,0,1,9.41.4c1.29.31,2.71.26,2.42,2.31s-1.72,2.09-3.29,1.83c-2.3-.39-4.59-.9-6.94-.43s-5,.89-5.59,4c-.55,3,1.06,4.73,3.39,6s5,2.61,7.48,4c6,3.26,8.1,7.14,6.81,12.34-1.25,5-5.23,7.79-11.76,8.09C-659.93,776-660.59,776-662.76,776Z" transform="translate(1685.31 -9.71)"/><path class="cls-6" d="M-623.7,776c-.73-.12-2.85-.51-5-.81-1.42-.2-2.58-.41-2.36-2.35.26-2.35,1.82-2,3.28-1.74,2.62.49,5.23,1.06,7.91.65,2.9-.45,5.6-1.34,6.33-4.68s-1.34-5.26-4-6.72c-3-1.68-6.12-3.3-9.19-5-4.33-2.33-5.23-6.17-4.52-10.61.67-4.17,3.58-6,7.42-7a23.14,23.14,0,0,1,10.85,0c1.51.35,3,.39,2.57,2.65s-2.09,1.6-3.51,1.5a43.36,43.36,0,0,0-6.42-.37c-2.48.21-5.08.73-5.82,3.75s1,5,3.51,6.41c2.31,1.28,4.72,2.41,7.05,3.67,6.11,3.29,8.27,7,7.19,12.16s-5.25,8.16-11.95,8.45C-620.95,776-621.61,776-623.7,776Z" transform="translate(1685.31 -9.71)"/><path class="cls-7" d="M-1146.06,756.42c0-5.14,0-10.29,0-15.44,0-1.88.12-3.12,2.58-3.09s3.2.65,3.16,3.1c-.13,8.47.17,17-.15,25.4-.15,3.91,1.19,4.94,4.79,4.54,2.45-.28,5,0,7.46-.06,1.37,0,2.14.34,2.15,1.92s-.38,2.43-2.19,2.4c-5.15-.07-10.3-.09-15.44,0-2.16,0-2.36-1.13-2.34-2.83.06-5.31,0-10.62,0-15.94Z" transform="translate(1685.31 -9.71)"/><path class="cls-1" d="M-1182.34,756.5c0-4.83-.07-9.65,0-14.47,0-1.7-1.07-4,2.47-4.15,3.9-.1,2.69,2.53,2.71,4.37.09,7.81.39,15.65-.09,23.44-.29,4.7,1.41,5.78,5.56,5.25a60.83,60.83,0,0,1,6.48-.06c1.47,0,2.6.06,2.59,2,0,1.77-.72,2.29-2.39,2.27-5-.07-10-.13-15,0-2.65.08-2.4-1.54-2.4-3.24C-1182.33,766.81-1182.34,761.65-1182.34,756.5Z" transform="translate(1685.31 -9.71)"/><path class="cls-8" d="M-1203.46,756.72c0,5.15-.11,10.3,0,15.45.07,2.48-.95,3-3.23,3.08-2.59.06-2.47-1.43-2.46-3.18,0-10.46.07-20.93,0-31.39,0-2.22.73-2.8,2.85-2.79s2.91.72,2.87,2.88C-1203.54,746.09-1203.46,751.4-1203.46,756.72Z" transform="translate(1685.31 -9.71)"/><path class="cls-9" d="M-745.58,729.94c0,1.4-1.39,1.45-2.07,1.53-3.05.37-7,5.14-8.67,1.11-1.37-3.37,4.71-3.38,7.27-5.2S-746.33,728.41-745.58,729.94Z" transform="translate(1685.31 -9.71)"/><path class="cls-10" d="M-722.95,750.17c-.06-1.92-.18-3.85-.15-5.78,0-.61-.27-1.92,1.14-1.32.83.36.93,1.24.72,2.09C-723.11,746.39-721.7,748.74-722.95,750.17Z" transform="translate(1685.31 -9.71)"/><path class="cls-11" d="M-479.93,663.9c1.18,1.18.81,2.61.88,4.29a2.43,2.43,0,0,1-1.86-2.46Z" transform="translate(1685.31 -9.71)"/><path class="cls-1" d="M-657.59,593.44c-4.55-21-17.26-31.17-38.61-33.55-11.81-1.32-23.62-.63-33.52-.95-11.07,0-20.23.13-29.38-.08-3.19-.07-4.21.7-4.17,4.06.19,16.15,0,32.31.13,48.46,0,2.94-.28,4.58-3.93,4.44s-8.64-1.81-11,.81-.65,7.34-.68,11.13c-.08,10,0,10.27,9.8,9.82,5-.23,5.93,1.39,5.85,6.06-.29,17.48-.14,35-.08,52.46,0,1.71-1.06,4.18,2.48,4.09,21.29-.58,42.65,1.33,63.88-1.27,20.4-2.49,33.64-13.82,38.55-33.71A157.46,157.46,0,0,0-657.59,593.44Zm-27.08,49.1c-.39,6.13-1,12.26-3,18.15-3.64,10.81-10.21,15.56-23.07,16.16-6.48.31-13,0-19.48.22-2.91.1-3.2-1.19-3.15-3.54.13-5.5,0-11,0-16.5,0-5.33.14-10.66,0-16-.09-2.62.7-3.45,3.35-3.38,6.33.18,12.67-.1,19,.12,3.31.12,4.88-.58,4.63-4.31a112.59,112.59,0,0,1,0-14c.19-3.24-1.09-3.93-4-3.84-6.5.19-13,0-19.49.11-2.63.06-3.46-.8-3.42-3.41.13-9,.09-18,0-27,0-2.09.17-3.45,2.88-3.33,8.14.37,16.28-.25,24.44.78,10.2,1.29,16.38,6.86,18.84,16.54C-683.58,613.55-683.76,628-684.67,642.54Z" transform="translate(1685.31 -9.71)"/><path class="cls-1" d="M-817.66,638.67c-1.66-3.06-1.27-3.87,2.08-4.84,14.29-4.12,23-13.45,25.15-28.39a68.35,68.35,0,0,0,.08-18c-1.81-14.6-8.36-22-22.54-25.71a63.87,63.87,0,0,0-9.79-1.8c-20.61-2.08-41.29-.54-61.94-1.09-2.91-.07-3.17,1.25-3.16,3.6q.07,67,0,134c0,3.3,1.2,3.83,4.08,3.76,7-.18,14-.31,21,0,4,.19,4.94-1,4.89-4.91-.23-17.16-.13-34.33,0-51.49,0-1.56-1.14-4,1.87-4.28,3.63-.29,6.76-.53,8.91,4,8.41,17.7,17.32,35.16,26.09,52.68.91,1.8,1.31,4,4.35,4,10.32-.18,20.64-.07,31.7-.07C-796.15,679.1-806.8,658.83-817.66,638.67Zm-12-23.72c-8.55,2.91-17.47,1.72-26.25,1.93-2.33,0-2.09-1.61-2.09-3.1,0-5,0-10,0-15,0-4.66.09-9.33,0-14-.07-2.37.34-3.7,3.2-3.62,7.32.19,14.65-.19,21.94.82,8.56,1.18,12.44,5,13.36,13.43C-818.41,605.35-821.93,612.34-829.61,615Z" transform="translate(1685.31 -9.71)"/><path class="cls-1" d="M-1239.14,593c-4.25-19-14.56-32.17-34.71-35.75a107.94,107.94,0,0,0-29.37-1c-25.63,2.48-39.06,13.9-44.48,39A164.84,164.84,0,0,0-1347,669c4.62,19.27,16.69,30.78,36.84,33.31a132.47,132.47,0,0,0,26.92.52c23.51-1.85,37.08-13.34,43.28-36,3.42-12.48,4.13-25.24,4-39.93A145.92,145.92,0,0,0-1239.14,593Zm-29.95,70c-3.33,11.85-9.64,16.7-22,17-1.84,0-3.67,0-5.5,0-11.25-.38-17.53-5-20.68-16-4.48-15.59-4.1-31.61-3.31-47.61.36-7.48,1.07-14.92,3.4-22.13,2.78-8.59,8.32-13.75,17.44-14.9a42.71,42.71,0,0,1,16.37.81c6.82,1.81,11,6.57,13.26,13.1,4.17,11.86,4,24.2,4.12,33.32C-1266,641-1266,652.19-1269.09,663.06Z" transform="translate(1685.31 -9.71)"/><path class="cls-4" d="M-562.68,748.12c-1.47-8.11-5.16-11-13.42-11.08-9.32-.12-13.91,3.84-14.92,13.07a58.52,58.52,0,0,0,0,6.49c0,3.31-.29,6.63.62,9.92,2,7.11,5.28,9.5,13.64,9.48,8.11,0,12-2.68,13.71-9.54A43.15,43.15,0,0,0-562.68,748.12ZM-568,763.86c-.86,5.63-3.22,7.81-8.37,7.93-5.37.14-7.77-2-8.92-7.89a41.22,41.22,0,0,1,.26-16.3c.93-4.53,4.06-6.15,8.34-6.18s7.46,1.7,8.39,6.13c.61,2.91.78,5.91,1.14,8.83C-567.49,758.93-567.67,761.41-568,763.86Z" transform="translate(1685.31 -9.71)"/><path class="cls-12" d="M-781.52,757.07c6.36-1.83,8.26-4.88,7.44-12-.54-4.61-3.27-6.79-9.24-7.07-3.83-.17-7.67,0-11.49-.11-2.05-.07-3,.46-3,2.75q.13,16,0,32c0,2.52,1.45,2.43,3.23,2.53,2.13.12,2.45-1,2.42-2.72-.09-3.83-.08-7.66,0-11.49,0-1-.69-2.47,1-2.88s2.41.5,3.14,1.8c2.12,3.77,4.62,7.34,6.43,11.24s4.28,4.93,8.39,3.43l-10-16.9C-782.38,757.39-782,757.2-781.52,757.07Zm-9.79-3.7c-2.38-2-1-6.53-.68-9.88.25-2.68,3-.82,4.32-1.47,3.37.25,7.1-.32,8.2,4,.65,2.49.38,5.17-2,6.65C-784.59,754.55-789.06,755.23-791.31,753.37Z" transform="translate(1685.31 -9.71)"/><path class="cls-12" d="M-826.42,754c-1.5,0-3.93-1.14-3.83,2.16.09,2.9,2.26,2,3.6,1.89,3.18-.32,4.14,1,3.85,4-.21,2.14,0,4.32-.06,6.48,0,1,0,1.83-1.12,2.48-4.51,2.58-11.79-.17-13-5.22a38,38,0,0,1,0-17.8c.89-3.77,3.22-6.2,7.29-6.26a86.15,86.15,0,0,1,8.94.42c1.57.14,2.05-.63,2.34-1.89.36-1.5-.31-2.16-1.75-2.3a72.6,72.6,0,0,0-8.4-.83c-8.37.14-12.76,3.64-14.1,11.81-1,6.39-1.21,12.95.7,19.27,2,6.5,8.38,9.08,17.92,7.5,6.71-1.1,6.71-1.1,6.71-10.13v-1.5C-817.4,753.84-817.4,753.8-826.42,754Z" transform="translate(1685.31 -9.71)"/><path class="cls-13" d="M-1030.9,753.17c3.87-4.71,7.46-9.65,11.28-14.66-5.76-.87-5.76-.87-8.54,2.89l-9.29,12.6-1-.27c0-4.06-.08-8.13,0-12.19.07-2.28-.12-3.72-3.09-3.67s-2.52,1.9-2.52,3.67c0,10,0,20,0,29.93,0,2.12-.17,3.87,3,3.78,2.86-.09,2.67-1.73,2.65-3.62,0-4.35,0-8.7,0-14.49,4.18,5.72,7.57,10,10.53,14.54,2.22,3.41,4.78,4.4,8.76,2.81-4-5.41-7.78-10.67-11.77-15.74C-1032.49,756.7-1032.61,755.26-1030.9,753.17Z" transform="translate(1685.31 -9.71)"/><path class="cls-4" d="M-990.73,738c-2,.08-4.06-.62-5,2.49-3.35,11.42-7,22.74-10.61,34.14,3.86,1.49,5.73.36,6.56-3.49.43-2,.47-5.27,2.4-5.62a38.09,38.09,0,0,1,12.38-.11c2.51.39,2.32,3.77,2.78,5.87.86,3.92,3.05,4.64,6.91,3.43-3.63-11.46-7.33-22.61-10.63-33.88C-986.8,737.8-988.52,737.88-990.73,738Zm-6.12,22.75,5.39-17.51,1,.13,5.39,17.38Z" transform="translate(1685.31 -9.71)"/><path class="cls-4" d="M-868.3,741c-.75-2.46-2-3.73-4.61-2.92-3.64-1-4.87.92-5.81,4.12-2.79,9.55-6,19-8.82,28.53-.39,1.32-2.7,3.32.25,4.32,2.72.93,4.55-.46,4.79-3.29.52-6.12,4.12-6.88,9.5-6.87,4.94,0,7.88,1,8.45,6.21a8.35,8.35,0,0,0,.9,2.84c1,2,3,1.36,4.46,1.09,2.25-.43.82-2.07.5-3.13C-861.87,761.6-865.16,751.33-868.3,741Zm-1.91,20.06c-9.4.78-9.54.7-6.77-8.27,1-3.32,2.11-6.63,3.47-10.9l5.25,16.46C-867.7,760.15-868,760.89-870.21,761.07Z" transform="translate(1685.31 -9.71)"/><path class="cls-5" d="M-1070.91,754.77c-2.49-1.32-5-2.66-7.37-4.15-1.91-1.19-2.39-3.1-2-5.24s1.88-3,3.77-3.49a18.38,18.38,0,0,1,8.41,0c1.39.24,3,.84,3.48-1.47s-1.06-2.29-2.52-2.63a22.74,22.74,0,0,0-10.38-.1c-4.27,1-7.34,3-8,7.67s1,8.14,5.13,10.4c3,1.68,6.16,3.26,9.21,4.94,2.57,1.41,4,3.44,3.3,6.56s-3,3.81-5.43,4.37c-3,.66-6,0-8.91-.54-1.22-.2-2.73-.73-2.94,1.44-.15,1.59.26,2.48,2,2.65,2.3.24,4.58.7,6.87,1.07,7.77-.2,12-2.67,13.43-8.05C-1061.18,762.14-1063.22,758.82-1070.91,754.77Z" transform="translate(1685.31 -9.71)"/><path class="cls-14" d="M-904.49,770.87a51.8,51.8,0,0,0-6,0c-4.32.56-6.08-.66-5.81-5.49.46-8.13.1-16.3.15-24.46,0-1.84,0-3.13-2.55-3.09-2.37,0-3.21.72-3.13,3.14.16,5,0,10,0,15,0,5.33,0,10.65,0,16,0,1.8,0,3.29,2.53,3.23,5-.12,10-.08,15,0,1.68,0,2.35-.52,2.35-2.28C-901.91,770.93-903,770.85-904.49,770.87Z" transform="translate(1685.31 -9.71)"/><path class="cls-5" d="M-940.94,770.47c-2.67,0-5.34-.17-8,0-3,.24-4.23-.67-4-3.87.26-4.15.06-8.32.05-12.48,0-4.66-.06-9.32,0-14,0-1.93-.66-2.63-2.59-2.61-1.77,0-2.74.32-2.73,2.43.08,10.82.05,21.64,0,32.45,0,1.48.13,2.56,2.07,2.53,5.16-.08,10.32-.05,15.48,0,1.71,0,2.34-.68,2.3-2.37C-938.35,770.71-939.47,770.46-940.94,770.47Z" transform="translate(1685.31 -9.71)"/><path class="cls-15" d="M-749.52,741c0-2.43-.82-3.06-3.15-3.11-2.6,0-2.48,1.39-2.46,3.14,0,5.14,0,10.29,0,15.43,0,5.31.08,10.62,0,15.93-.05,2.1.53,2.91,2.76,2.88s2.88-.78,2.86-2.91C-749.61,761.88-749.63,751.43-749.52,741Z" transform="translate(1685.31 -9.71)"/><rect class="cls-16" width="1563.03" height="766.51"/></svg>