<svg id="Layer_1" data-name="Layer 1" xmlns="http://www.w3.org/2000/svg" xmlns:xlink="http://www.w3.org/1999/xlink" viewBox="0 0 151.43 37.06"><defs><style>.cls-1{fill:none;}.cls-2{clip-path:url(#clip-path);}.cls-3{fill:#5c5b60;}.cls-4{fill:#febd11;}</style><clipPath id="clip-path" transform="translate(371.33 -326.99)"><rect class="cls-1" x="-371.33" y="326.99" width="151.43" height="37.06"/></clipPath></defs><title>VordurLogoGraySVG</title><g class="cls-2"><path class="cls-3" d="M-258.09,360q0,2-3.39,2H-267c-2.46,0-3.68-.67-3.68-2v-5.1c0-1.42,1.22-2.13,3.68-2.13h5.49c2.26,0,3.39.64,3.39,1.91Zm1.25-13.42-.74.75a8,8,0,0,0-4.67-1.24h-2c-.71,0-1.06.33-1.06,1s.35,1,1.06,1h2.3c2.57,0,3.86,1.46,3.86,2.7v.57a10.68,10.68,0,0,0-3.76-.56h-4.77q-6.44,0-6.44,4.11V360q0,4,6.36,4h4.85q6.24,0,6.24-4v-8.84a4.67,4.67,0,0,0-.62-2.38l.9-.92c.36-.36.31-.77-.16-1.24a.85.85,0,0,0-1.35,0m36,4.21h-1.09q-6.1,0-6.11,4V363c0,.71.41,1.06,1.21,1.06s1.21-.35,1.21-1.06v-8.15c0-1.35,1.15-2,3.44-2h1.49c.51,0,.77-.33.77-1s-.31-1-.92-1m-13.3,0c-.82,0-1.24.34-1.24,1v8.41c0,1.19-1.3,1.79-3.92,1.79h-5c-2.67,0-4-.62-4-1.84v-8.35c0-.69-.4-1-1.19-1s-1.19.35-1.19,1v8.36c0,2.55,2.27,3.83,6.79,3.83h4.16q6.74,0,6.74-3.84v-8.36c0-.68-.39-1-1.18-1m-43.59,0h-1.09q-6.1,0-6.11,4V363c0,.71.4,1.06,1.21,1.06s1.21-.35,1.21-1.06v-8.15c0-1.35,1.15-2,3.45-2h1.48c.51,0,.77-.33.77-1s-.31-1-.92-1m-23.2-1.68c1,0,1.43-.39,1.43-1.17s-.47-1.14-1.43-1.14-1.46.38-1.46,1.14.48,1.17,1.46,1.17m8.66,10.89q0,2-3.39,2h-5.49c-2.45,0-3.68-.67-3.68-2v-5.1c0-1.42,1.23-2.13,3.68-2.13h5.49c2.26,0,3.39.64,3.39,1.91Zm-3.75-9.21h-4.78c-4.29,0-6.43,1.38-6.43,4.11V360c0,2.68,2.12,4,6.36,4H-296c4.16,0,6.24-1.33,6.24-4v-5.12c0-2.72-2.08-4.09-6.24-4.09m0-1.68c.95,0,1.43-.39,1.43-1.17s-.48-1.14-1.43-1.14-1.49.38-1.49,1.14.5,1.17,1.49,1.17m-14.46,1.93a1.24,1.24,0,0,0-.44-.23,2,2,0,0,0-.47-.06.91.91,0,0,0-.75.32l-7.66,10.22-7.63-10.12a1,1,0,0,0-.38-.32,1.38,1.38,0,0,0-.49-.1,1.21,1.21,0,0,0-.79.32,1,1,0,0,0-.37.75,1,1,0,0,0,.22.64l8.55,11.06a1,1,0,0,0,.84.49,1.25,1.25,0,0,0,.94-.54l8.63-11.06a1.06,1.06,0,0,0,.27-.64.65.65,0,0,0-.13-.39,1.56,1.56,0,0,0-.34-.34" transform="translate(371.33 -326.99)"/></g><g class="cls-2"><path class="cls-4" d="M-339.41,327a7.42,7.42,0,0,0-7.42,7.42,7.42,7.42,0,0,0,7.42,7.42,7.42,7.42,0,0,0,7.43-7.42,7.42,7.42,0,0,0-7.43-7.42m-20.92,2.85a5.93,5.93,0,0,0-8.15-2,5.93,5.93,0,0,0-2,8.14l15.29,25.2a5.93,5.93,0,0,0,8.15,2,5.92,5.92,0,0,0,2-8.14Z" transform="translate(371.33 -326.99)"/></g></svg>