<svg version="1.1" id="Layer_1" xmlns="http://www.w3.org/2000/svg" xmlns:xlink="http://www.w3.org/1999/xlink" x="0px" y="0px" width="151.426px" height="37.056px" viewBox="0 0 151.426 37.056" enable-background="new 0 0 151.426 37.056" xml:space="preserve">
  <g>
    <defs>
      <rect id="SVGID_1_" y="0" width="151.426" height="37.055"></rect>
    </defs>
      <clipPath id="SVGID_2_">
      <use xlink:href="#SVGID_1_" overflow="visible"></use>
    </clipPath>
    <path clip-path="url(#SVGID_2_)" fill="#FFFFFF" d="M113.238,33.045c0,1.337-1.131,2.005-3.39,2.005h-5.488
    c-2.457,0-3.686-0.668-3.686-2.005v-5.1c0-1.422,1.229-2.131,3.686-2.131h5.488c2.259,0,3.39,0.637,3.39,1.907V33.045z
        M114.492,19.629l-0.742,0.749c-1.098-0.778-2.651-1.248-4.672-1.248h-2.004c-0.703,0-1.052,0.334-1.052,1s0.349,0.999,1.052,0.999
    h2.305c2.574,0,3.86,1.453,3.86,2.693v0.576c-0.968-0.37-2.222-0.56-3.756-0.56h-4.777c-4.29,0-6.434,1.371-6.434,4.109v5.101
    c0,2.671,2.118,4.006,6.359,4.006h4.852c4.157,0,6.236-1.335,6.236-4.006v-8.846c0-0.863-0.209-1.673-0.622-2.381l0.906-0.913
    c0.357-0.363,0.303-0.778-0.165-1.241C115.368,19.206,114.92,19.195,114.492,19.629 M150.507,23.839h-1.088
    c-4.072,0-6.109,1.338-6.109,4.012v8.144c0,0.708,0.405,1.061,1.212,1.061c0.805,0,1.209-0.353,1.209-1.061v-8.148
    c0-1.353,1.148-2.031,3.441-2.031h1.485c0.512,0,0.769-0.327,0.769-0.986C151.426,24.171,151.121,23.839,150.507,23.839
        M137.206,23.839c-0.821,0-1.235,0.34-1.235,1.014v8.412c0,1.192-1.305,1.785-3.919,1.785h-4.961c-2.677,0-4.017-0.611-4.017-1.831
    v-8.354c0-0.694-0.395-1.04-1.185-1.04c-0.792,0-1.187,0.346-1.187,1.04v8.355c0,2.558,2.262,3.834,6.788,3.834h4.162
    c4.49,0,6.736-1.277,6.736-3.837v-8.365C138.39,24.179,137.996,23.839,137.206,23.839 M93.617,23.839h-1.088
    c-4.072,0-6.108,1.338-6.108,4.012v8.144c0,0.708,0.402,1.061,1.21,1.061c0.809,0,1.209-0.353,1.209-1.061v-8.148
    c0-1.353,1.148-2.031,3.444-2.031h1.482c0.513,0,0.769-0.327,0.769-0.986C94.535,24.171,94.23,23.839,93.617,23.839 M70.416,22.152
    c0.96,0,1.436-0.388,1.436-1.166c0-0.762-0.476-1.141-1.436-1.141c-0.974,0-1.462,0.379-1.462,1.141
    C68.954,21.765,69.442,22.152,70.416,22.152 M79.082,33.045c0,1.337-1.13,2.005-3.389,2.005h-5.49
    c-2.455,0-3.686-0.668-3.686-2.005v-5.1c0-1.422,1.231-2.131,3.686-2.131h5.49c2.259,0,3.389,0.637,3.389,1.907V33.045z
        M75.326,23.839h-4.774c-4.291,0-6.437,1.371-6.437,4.109v5.101c0,2.671,2.12,4.006,6.363,4.006h4.848
    c4.159,0,6.241-1.335,6.241-4.006v-5.124C81.567,25.202,79.485,23.839,75.326,23.839 M75.295,22.152
    c0.954,0,1.431-0.388,1.431-1.166c0-0.762-0.477-1.141-1.431-1.141c-0.99,0-1.483,0.379-1.483,1.141
    C73.812,21.765,74.305,22.152,75.295,22.152 M60.843,24.082c-0.132-0.107-0.283-0.182-0.446-0.224
    c-0.169-0.043-0.322-0.063-0.473-0.063c-0.328,0-0.577,0.108-0.741,0.322L51.514,34.33l-7.626-10.112
    c-0.101-0.146-0.226-0.256-0.383-0.321c-0.159-0.064-0.319-0.099-0.485-0.099c-0.277,0-0.543,0.106-0.789,0.32
    c-0.249,0.216-0.373,0.466-0.373,0.746c0,0.248,0.075,0.462,0.221,0.643l8.546,11.053c0.246,0.33,0.527,0.495,0.841,0.495
    c0.332,0,0.644-0.181,0.94-0.544l8.635-11.055c0.181-0.232,0.271-0.446,0.271-0.645c0-0.134-0.047-0.26-0.135-0.384
    C61.084,24.305,60.975,24.188,60.843,24.082"></path>
    <path clip-path="url(#SVGID_2_)" fill="#FEBD11" d="M31.923,0C27.824,0,24.5,3.323,24.5,7.425c0,4.1,3.324,7.424,7.423,7.424
    c4.101,0,7.427-3.324,7.427-7.424C39.35,3.323,36.024,0,31.923,0 M10.995,2.853C9.297,0.054,5.653-0.836,2.851,0.861
    C0.055,2.559-0.837,6.205,0.86,9.003l15.293,25.199c1.699,2.8,5.345,3.69,8.144,1.993c2.801-1.7,3.689-5.344,1.991-8.144
    L10.995,2.853z"></path>
  </g>
</svg>