<svg id="Layer_1" data-name="Layer 1" xmlns="http://www.w3.org/2000/svg" viewBox="0 0 181.4 33.9"><defs><style>.cls-1{fill:#86bc25;}</style></defs><title>DeloitteLogoSVGBlack</title><path class="cls-1" d="M-956.2,328a4.8,4.8,0,0,1,4.8-4.8,4.8,4.8,0,0,1,4.8,4.8,4.87,4.87,0,0,1-4.8,4.8,4.8,4.8,0,0,1-4.8-4.8" transform="translate(1128 -299)"/><path d="M-1100.4,315.1c0,5.6-1.4,9.8-4.4,12.8s-7.2,4.5-12.6,4.5H-1128V299.1h11.2c5.3,0,9.3,1.3,12.1,4.1s4.3,6.7,4.3,11.9m-9.2.3c0-3.1-.6-5.3-1.8-6.8a6.63,6.63,0,0,0-5.4-2.2h-2.4V325h2c2.7,0,4.6-.8,5.9-2.4,1.1-1.6,1.7-4,1.7-7.2" transform="translate(1128 -299)"/><rect x="56.7" width="8.3" height="33.4"/><path d="M-1035.6,319.9c0,4-1,7.2-3.2,9.5s-5.2,3.4-9,3.4-6.6-1.1-8.8-3.5a13.31,13.31,0,0,1-3.3-9.4c0-4,1-7.2,3.2-9.4s5.2-3.4,9-3.4a12.76,12.76,0,0,1,6.3,1.5,9.93,9.93,0,0,1,4.2,4.4,13.28,13.28,0,0,1,1.6,6.9m-15.7,0a11.56,11.56,0,0,0,.8,4.8,2.73,2.73,0,0,0,2.8,1.6,2.82,2.82,0,0,0,2.8-1.6,12.25,12.25,0,0,0,.8-4.8,11.56,11.56,0,0,0-.8-4.8,2.87,2.87,0,0,0-2.8-1.6,3,3,0,0,0-2.8,1.6,11.56,11.56,0,0,0-.8,4.8" transform="translate(1128 -299)"/><rect x="95.8" y="8.5" width="8.3" height="24.8"/><rect x="95.8" width="8.3" height="5.6"/><path d="M-1007,326a13.44,13.44,0,0,0,4-.8v6.3a14.63,14.63,0,0,1-3.2,1,18.63,18.63,0,0,1-3.6.3c-2.8,0-4.8-.7-6.1-2.2s-1.9-3.6-1.9-6.5V313.9h-2.9v-6.4h2.9v-6.2l8.4-1.4v7.8h5.4V314h-5.4v9.6c.2,1.7.9,2.4,2.4,2.4" transform="translate(1128 -299)"/><path d="M-987.6,326a13.44,13.44,0,0,0,4-.8v6.3a14.63,14.63,0,0,1-3.2,1,18.63,18.63,0,0,1-3.6.3c-2.8,0-4.8-.7-6.1-2.2s-1.9-3.6-1.9-6.5V313.9h-2.9v-6.4h2.9v-6.3l8.4-1.3v7.8h5.4V314H-990v9.6c.1,1.7.9,2.4,2.4,2.4" transform="translate(1128 -299)"/><path d="M-961.2,310c-2-2-4.8-2.9-8.4-2.9-3.8,0-6.8,1.1-8.9,3.4s-3.1,5.5-3.1,9.7c0,4,1.1,7.2,3.3,9.4s5.4,3.3,9.4,3.3a24.06,24.06,0,0,0,5-.4,14.66,14.66,0,0,0,4-1.4l-1.2-5.6a17.08,17.08,0,0,1-2.7.9,17,17,0,0,1-4,.4,6.13,6.13,0,0,1-3.8-1.1,4.22,4.22,0,0,1-1.4-3.3h14.9v-3.9a12.35,12.35,0,0,0-3.1-8.5m-11.8,6.9a4.87,4.87,0,0,1,1.1-3,3.33,3.33,0,0,1,2.5-.9,3.39,3.39,0,0,1,2.6,1,4.78,4.78,0,0,1,1,2.9Z" transform="translate(1128 -299)"/><path d="M-1077.5,310c-2.1-2-4.8-2.9-8.4-2.9-3.8,0-6.8,1.1-8.9,3.4s-3.1,5.5-3.1,9.7c0,4,1.1,7.2,3.3,9.4s5.4,3.3,9.4,3.3a24.06,24.06,0,0,0,5-.4,14.66,14.66,0,0,0,4-1.4l-1.2-5.7a17.08,17.08,0,0,1-2.7.9,17,17,0,0,1-4,.4,6.13,6.13,0,0,1-3.8-1.1,4.22,4.22,0,0,1-1.4-3.3h14.9v-3.8a12.35,12.35,0,0,0-3.1-8.5m-11.9,6.9a4.87,4.87,0,0,1,1.1-3,3.33,3.33,0,0,1,2.5-.9,3.25,3.25,0,0,1,2.6,1,4.78,4.78,0,0,1,1,2.9Z" transform="translate(1128 -299)"/></svg>