<?xml version="1.0" encoding="utf-8"?>
<!-- Generator: Adobe Illustrator 19.2.1, SVG Export Plug-In . SVG Version: 6.00 Build 0)  -->
<svg version="1.1" id="layer" xmlns="http://www.w3.org/2000/svg" xmlns:xlink="http://www.w3.org/1999/xlink" x="0px" y="0px"
	 viewBox="0 0 652 652" style="enable-background:new 0 0 652 652;" xml:space="preserve">
<style type="text/css">
	.st0{fill:#003A70;}
	.st1{fill:#E01F26;}
</style>
<g id="Canvas">
	<g id="logo">
		<g id="Vector">
			<path class="st0" d="M591.3,284h29.2l-23.5,110h-29.2L591.3,284z"/>
		</g>
		<g id="Vector_2">
			<path class="st0" d="M464.7,326.1l2.6-12.8h-40.6c-13.5,0-21.4,6.7-24.4,21.7l-13,59h29.7l9.9-45.7l3.5-16.4
				c0.9-4.3,2.5-5.8,6.4-5.8H464.7z"/>
		</g>
		<g id="Vector_3">
			<path class="st0" d="M559.8,361.1l5.5-26.1c3-15-1.9-21.7-15.4-21.7h-55c-13.5,0-21.4,6.7-24.4,21.7l-8,37.4
				c-3,15,1.9,21.7,15.4,21.7h76.3l2.9-12.9l-11.1,0.1H495c-3.9,0-4.6-1.5-3.7-5.8l3-14.4H559.8z M496.9,348.4l3.5-16.4
				c0.9-4.3,2.5-5.8,6.4-5.8h26c3.9,0,4.6,1.5,3.7,5.8l-3.5,16.4H496.9z"/>
		</g>
		<g id="Vector_4">
			<path class="st0" d="M355.1,325.4c2.7,0,3.9,1,3.4,3.8l-1,5.1c-0.6,2.7-2.4,3.8-5.1,3.8H311c-13.8,0-21,5.9-25.6,28
				c-4.8,22.2,0.1,28,14,28h36.4h13h24.8c1.1-4.5,13.1-59.1,13.1-59.1c3-14.9-1.9-21.6-15.4-21.6h-71.6l-2.6,12.1h14L355.1,325.4
				L355.1,325.4z M353.9,350.7l-5.3,24.7c-0.9,4.3-2.5,5.8-6.4,5.8h-26c-3.9,0-4.6-1.5-3.8-5.8l3.9-18.8c1.1-4.3,2.5-5.8,6.4-5.8
				L353.9,350.7L353.9,350.7z"/>
		</g>
		<g id="Vector_5">
			<path class="st0" d="M217.7,332l-13.3,62.1h-29.2l2.6-12.2c0.4-1.8,0.9-3.8,1.4-6.1l9.2-43.4c1-4.8,0.2-6.4-3.6-6.4h-22.4
				c-3.9,0-5.5,1.5-6.4,5.8l-13.4,62.2h-29.1l17.3-80.7h27.4h10.1h40.4H230h33.6c13.5,0,18.4,6.7,15.4,21.7l-12.3,59.1h-29.7
				l2.5-11.5c0.5-1.9,1-4.2,1.6-6.7l9.3-43.9c0.9-4.3,0.2-5.8-3.8-5.8H224C220.2,326.1,218.5,327.6,217.7,332z"/>
		</g>
		<g id="Vector_6">
			<path class="st1" d="M262.7,298.3c11.8-8.7,24.9-23,21.4-32.3c-4.3-11.3-50.9-10.1-94.1,2.1l-2.5-10.6
				c48.5-12.3,104-13.8,110.2,0.4c5.2,12.1-8.3,28.9-25.2,40.4H262.7z"/>
		</g>
		<g id="Vector_7">
			<path class="st1" d="M138.3,280.9c-49.2,17.7-77.8,44.1-82.8,63.6c-4.8,18.6,9.9,38.6,43.3,37.7l-2.1,9.8
				C48.3,397,17,374.4,20.8,353.8c5.4-30,48.2-60.1,115-81.3c-0.4-9,6.4-17.2,16.2-19c10.5-1.8,20.4,4.5,22,14.3
				c1.7,9.8-5.4,19.3-15.9,21.2C149.9,290.5,142.1,287.1,138.3,280.9z"/>
		</g>
	</g>
</g>
</svg>
