<svg id="Layer_1" data-name="Layer 1" xmlns="http://www.w3.org/2000/svg" viewBox="0 0 600.01 146.34"><defs><style>.cls-1{fill:#003a70;}.cls-2{fill:#e01f26;}</style></defs><title>MarelLogoSVG</title><g id="Canvas"><g id="logo"><g id="Vector"><path class="cls-1" d="M-826.7,187h29.2L-821,297h-29.2Z" transform="translate(1397.51 -150.76)"/></g><g id="Vector_2" data-name="Vector 2"><path class="cls-1" d="M-953.3,229.1l2.6-12.8h-40.6c-13.5,0-21.4,6.7-24.4,21.7l-13,59H-999l9.9-45.7,3.5-16.4c.9-4.3,2.5-5.8,6.4-5.8Z" transform="translate(1397.51 -150.76)"/></g><g id="Vector_3" data-name="Vector 3"><path class="cls-1" d="M-858.2,264.1l5.5-26.1c3-15-1.9-21.7-15.4-21.7h-55c-13.5,0-21.4,6.7-24.4,21.7l-8,37.4c-3,15,1.9,21.7,15.4,21.7h76.3l2.9-12.9-11.1.1h-51c-3.9,0-4.6-1.5-3.7-5.8l3-14.4Zm-62.9-12.7,3.5-16.4c.9-4.3,2.5-5.8,6.4-5.8h26c3.9,0,4.6,1.5,3.7,5.8l-3.5,16.4Z" transform="translate(1397.51 -150.76)"/></g><g id="Vector_4" data-name="Vector 4"><path class="cls-1" d="M-1062.9,228.4c2.7,0,3.9,1,3.4,3.8l-1,5.1c-.6,2.7-2.4,3.8-5.1,3.8H-1107c-13.8,0-21,5.9-25.6,28-4.8,22.2.1,28,14,28h74.2c1.1-4.5,13.1-59.1,13.1-59.1,3-14.9-1.9-21.6-15.4-21.6h-71.6l-2.6,12.1h14l44-.1Zm-1.2,25.3-5.3,24.7c-.9,4.3-2.5,5.8-6.4,5.8h-26c-3.9,0-4.6-1.5-3.8-5.8l3.9-18.8c1.1-4.3,2.5-5.8,6.4-5.8l31.2-.1Z" transform="translate(1397.51 -150.76)"/></g><g id="Vector_5" data-name="Vector 5"><path class="cls-1" d="M-1200.3,235l-13.3,62.1h-29.2l2.6-12.2c.4-1.8.9-3.8,1.4-6.1l9.2-43.4c1-4.8.2-6.4-3.6-6.4h-22.4c-3.9,0-5.5,1.5-6.4,5.8l-13.4,62.2h-29.1l17.3-80.7h132.8c13.5,0,18.4,6.7,15.4,21.7l-12.3,59.1H-1181l2.5-11.5c.5-1.9,1-4.2,1.6-6.7l9.3-43.9c.9-4.3.2-5.8-3.8-5.8H-1194C-1197.8,229.1-1199.5,230.6-1200.3,235Z" transform="translate(1397.51 -150.76)"/></g><g id="Vector_6" data-name="Vector 6"><path class="cls-2" d="M-1155.3,201.3c11.8-8.7,24.9-23,21.4-32.3-4.3-11.3-50.9-10.1-94.1,2.1l-2.5-10.6c48.5-12.3,104-13.8,110.2.4,5.2,12.1-8.3,28.9-25.2,40.4Z" transform="translate(1397.51 -150.76)"/></g><g id="Vector_7" data-name="Vector 7"><path class="cls-2" d="M-1279.7,183.9c-49.2,17.7-77.8,44.1-82.8,63.6-4.8,18.6,9.9,38.6,43.3,37.7l-2.1,9.8c-48.4,5-79.7-17.6-75.9-38.2,5.4-30,48.2-60.1,115-81.3-.4-9,6.4-17.2,16.2-19,10.5-1.8,20.4,4.5,22,14.3s-5.4,19.3-15.9,21.2C-1268.1,193.5-1275.9,190.1-1279.7,183.9Z" transform="translate(1397.51 -150.76)"/></g></g></g></svg>