<svg id="Layer_3" data-name="Layer 3" xmlns="http://www.w3.org/2000/svg" viewBox="0 0 1251.42 940.18"><defs><style>.cls-1{fill:#fff;}</style></defs><title>LHI_white_SVG_V3</title><path class="cls-1" d="M-1302.22-1353.16c0-6.42-1.55-8.14-8-8.13q-230.7.29-461.39,0c-6.2,0-7.49,1.72-7.48,7.63q.31,115.74.14,231.47,0,115-.14,229.92c0,6.14,1,8.26,7.8,8.25q230.31-.35,460.61,0c6.87,0,8.51-1.66,8.5-8.51Q-1302.53-1122.86-1302.22-1353.16Zm-136.39,326.32c0,5-1.18,6.43-6.33,6.42q-95.47-.29-191,0c-5.36,0-6.91-1.25-6.86-6.76.28-31.82.14-63.65.14-95.47s.12-63.65-.12-95.48c0-5.34,1.3-6.95,6.81-6.93q95.48.29,191,0c5.18,0,6.37,1.48,6.36,6.5Q-1438.86-1122.7-1438.61-1026.84Z" transform="translate(2166.37 1361.3)"/><path class="cls-1" d="M-1161-426.89q-.15-62.25,0-124.5c0-2.73-.93-3.33-3.44-3.29-8.16.13-16.34.23-24.49,0-3.78-.12-5.06.75-5,4.84.23,21,.11,42,.11,64.49-1.87-2.61-2.91-4-3.91-5.49q-20.88-30.18-41.73-60.37c-1.35-2-2.49-3.55-5.42-3.47-8.82.24-17.66.16-26.49,0-2.53,0-3.46.62-3.46,3.33q.12,62.25,0,124.5c0,3.07,1.17,3.51,3.8,3.47,8.33-.14,16.67-.21,25,0,3.29.09,4.14-.87,4.12-4.13-.15-20.67-.08-41.33-.08-62v-6.11c1.57,2.25,2.38,3.41,3.18,4.57,14.67,21.22,29.41,42.39,43.94,63.71,2,3,4.14,4.1,7.7,4,7.49-.28,15-.19,22.49,0C-1162-423.32-1161-423.93-1161-426.89Z" transform="translate(2166.37 1361.3)"/><path class="cls-1" d="M-1089.35-554.33c-15.81-.62-31.66-.12-47.48-.39-3.54-.06-4.39.9-4.36,4.38.17,20.33.09,40.66.09,61q0,31,0,62c0,1.83-.78,4.06,2.66,4,17.31-.46,34.69,1.11,51.93-1.11S-1054-433-1042.83-447c11-13.81,13.5-30,12.93-47.06C-1031.11-529.61-1053.8-552.94-1089.35-554.33Zm23.2,70.73c-1.54,19.34-12.58,29.59-32.2,30.12-7,.19-7,.19-7-6.65v-29c0-10.65.08-21.3-.06-31.95,0-2.72.61-3.94,3.54-3.65,3.3.33,6.68.06,10,.54,14,2.08,22.41,10.57,25,24.65A60.61,60.61,0,0,1-1066.15-483.6Z" transform="translate(2166.37 1361.3)"/><path class="cls-1" d="M-1603.7-485.1a110.09,110.09,0,0,0,17.24,7.76c8.66,2.89,17.46,5.4,26,8.56,6.18,2.28,8.1,5.63,7.49,10.87-.53,4.61-3.66,7.66-9.52,8.71-14.24,2.57-25.82-2.57-35.4-12.81-1.87-2-2.94-2.23-5.08-.39-5.92,5.12-11.92,10.17-18.18,14.86-3.28,2.46-3,4.05-.43,6.83,13.78,14.6,31.09,19.79,48.71,19.58,14.68.05,26.92-2.08,38.14-8.93,21.83-13.33,25.12-50.8-1.14-65a106.79,106.79,0,0,0-16.31-7.4c-8.81-3-17.74-5.61-26.43-8.87-6.07-2.28-8.12-5.77-7.35-10.41.73-4.38,4.44-7.1,10.34-7.74,11.14-1.19,20.24,3,27.78,10.83,2.13,2.22,3.43,2.73,6,.46,5.83-5.22,11.85-10.25,18-15,2.88-2.22,2.71-3.52.33-6-11.47-12.11-25.94-17-42.08-17.88-13-.71-25.47,1.08-37.21,7.31C-1627.16-536.84-1628.81-498.6-1603.7-485.1Z" transform="translate(2166.37 1361.3)"/><path class="cls-1" d="M-935.91-496.37c-9.34-4.83-19.23-8.15-29.29-11.06-4.93-1.43-10-2.61-14.34-5.55s-5.5-8.08-2.6-12.11c2.11-2.94,5.25-3.91,8.65-4.31,11.31-1.32,20.58,2.89,28.15,11,2.29,2.44,3.59,2.32,5.87.19,3.65-3.4,7.65-6.42,11.48-9.63,11.08-9.31,11.3-9.65-.78-17.92-19.74-13.52-41.41-14.51-63.49-7.48-15.49,4.94-25.29,15.56-26.84,32.49-1.64,17.95,6.23,30.38,22.18,38.12a163.39,163.39,0,0,0,25.66,9.46c5.25,1.54,10.59,2.83,15.48,5.43,3.58,1.91,5.48,4.8,5.29,8.87a9.33,9.33,0,0,1-6.3,8.76,24.29,24.29,0,0,1-9.27,1.65c-11.88,0-21.6-4.84-29.42-13.56-1.87-2.08-3-2.16-5.13-.32-6,5.23-12.19,10.35-18.55,15.17-2.89,2.18-2.8,3.46-.43,6,13.75,14.9,31.17,20.22,51.22,20,10,.2,20.21-1.13,29.75-5.53,14.33-6.61,22.59-17.67,23.58-33.66C-914-476.93-921.26-488.79-935.91-496.37Z" transform="translate(2166.37 1361.3)"/><path class="cls-1" d="M-1327.45-551.68c-.89-2.75-2.39-3-4.75-3-10.32.08-20.66.18-31-.05-3.52-.07-5.08.86-6.22,4.45-10.73,33.7-21.72,67.3-32.63,100.94-2.75,8.49-5.49,17-8.36,25.9,10.92,0,21.23-.12,31.54.07,2.66.05,2.91-1.52,3.41-3.26,1.83-6.39,3.79-12.74,5.43-19.18.75-3,1.85-4.36,5.29-4.27,9.82.28,19.65.25,29.47,0,3.16-.07,4.32,1.14,5,4,1.65,6.6,3.56,13.14,5.4,19.7.44,1.57.73,3,3.12,3,11.79-.12,23.57-.05,35.45-.05a8.28,8.28,0,0,0-.12-1.78Q-1306.93-488.45-1327.45-551.68Zm-14.18,76.33c-6.48,0-13,0-20.12,0,3.75-13.51,7.41-26.66,11.07-39.82h1q5.32,18.84,10.63,37.68C-1338.35-474.92-1340.21-475.36-1341.63-475.35Z" transform="translate(2166.37 1361.3)"/><path class="cls-1" d="M-1421.51-453.74c-13.15.28-26.32-.14-39.47.23-4.62.13-5.38-1.34-5.35-5.56.18-30.31,0-60.63.18-90.94,0-3.72-.86-4.85-4.67-4.72-9,.3-18,.28-27,0-3.53-.11-4.39.89-4.36,4.37.18,20.32.09,40.64.09,61q0,31,0,61.95c0,2.18-.45,4.1,3.08,4.08,26.32-.14,52.64-.1,79,0,2.47,0,3.08-.82,3-3.15-.13-7.49-.25-15,0-22.48C-1416.83-452.6-1417.6-453.83-1421.51-453.74Z" transform="translate(2166.37 1361.3)"/><path class="cls-1" d="M-1638.24-488.85c0-20.47-.08-40.95.08-61.42,0-3.48-.9-4.54-4.41-4.45-9.15.24-18.32.22-27.47,0-3.2-.07-4.15.74-4.14,4.07q.18,61.67,0,123.35c0,3,.58,4,3.8,3.94,9-.24,18-.3,27,0,4,.14,5.34-.79,5.28-5.08C-1638.37-448.56-1638.24-468.7-1638.24-488.85Z" transform="translate(2166.37 1361.3)"/><path class="cls-1" d="M-1665.64-560.95c6-.07,12,0,18,0a4.92,4.92,0,0,0,3.61-1.32c10.34-9.58,20.71-19.13,32.23-29.76-14.24,0-27,0-39.71-.05a3.33,3.33,0,0,0-3.35,2.3c-4.17,8.66-8.31,17.34-12.56,26C-1668.58-561.57-1668-560.92-1665.64-560.95Z" transform="translate(2166.37 1361.3)"/><path class="cls-1" d="M-1566.42-777.77q-13.74.36-27.49,0c-3.29-.08-4.17.86-4.12,4.13.19,13.33,0,26.66.14,40,0,3.1-.54,4.33-4,4.23q-14.49-.39-29,0c-3.55.1-4.43-1-4.37-4.42.2-13.33,0-26.66.12-40,0-2.5-.18-4-3.37-3.92-9.83.19-19.67.14-29.5,0-2.36,0-3.11.61-3.1,3q.1,62.49,0,125c0,2.73.88,3.32,3.42,3.28,9.5-.14,19-.21,28.49,0,3.38.09,4.13-1,4.1-4.2-.16-15,0-30-.14-45,0-3,.65-3.95,3.81-3.88q14.73.35,29.49,0c3.29-.07,4.12.86,4.08,4.11-.18,14.66,0,29.33-.16,44,0,3.69.6,5.19,4.77,5,8.81-.36,17.67-.37,26.48,0,4.19.17,4.8-1.36,4.77-5-.16-20.33-.08-40.66-.08-61s-.09-40.67.09-61C-1562-776.92-1562.94-777.87-1566.42-777.77Z" transform="translate(2166.37 1361.3)"/><path class="cls-1" d="M-1068.52-712.72a120.59,120.59,0,0,0-1.55-18.8c-4.31-23.05-15.82-40-39.61-46.38a77.44,77.44,0,0,0-24.26-2.31c-27.19,1.42-45.45,15.19-52.49,40.36a100.69,100.69,0,0,0,.53,57.15c5.47,18.14,17.19,30.43,35.61,35.87,9.74,2.87,19.71,3.08,29.71,2.33,23.51-1.77,40.45-15.2,47.81-37.6C-1069.56-691.87-1068.67-701.94-1068.52-712.72Zm-36.26.88c0,8.52-.61,16.93-4,24.91-3.88,9-10.88,13.16-20.41,13.2-9.79,0-17.27-4.27-20.59-13.61a72,72,0,0,1,.07-49.82c3.27-9,10.46-13.33,20.19-13.39s16.86,4.16,20.8,13.28C-1105.26-729.13-1104.74-720.53-1104.78-711.84Z" transform="translate(2166.37 1361.3)"/><path class="cls-1" d="M-1269.29-646.43c2.83,0,3.69-.75,3.64-3.61-.17-9.16,0-18.32-.07-27.49,0-1.84.06-3.53,1.36-5.12,3.68-4.51,7.18-9.16,11-14.1.9,1.78,1.67,3.22,2.37,4.69,6.67,13.93,13.31,27.87,20,41.78.8,1.65,1,3.86,3.86,3.84,12.27-.11,24.54,0,36.86,0,.23-2.35-1.1-3.78-1.87-5.35q-17.7-36-35.57-71.9c-1.3-2.6-1.28-4.3.62-6.59,4.36-5.25,8.35-10.8,12.49-16.22l23.77-31.14c-12.23,0-23.49.1-34.76-.07a6.82,6.82,0,0,0-6.48,3.41c-9.85,14.43-19.89,28.74-29.86,43.08-1,1.4-2,2.78-3.83,5.37,0-17.08-.09-32.52.07-48,0-3-.68-4-3.84-3.91-9.32.22-18.66.19-28,0-2.92,0-4,.5-4,3.76q.18,62,0,124c0,2.88.86,3.65,3.66,3.6Q-1283.53-646.67-1269.29-646.43Z" transform="translate(2166.37 1361.3)"/><path class="cls-1" d="M-1335.3-652.21c23.14-13.36,26.73-52.31-.64-66.34a172.18,172.18,0,0,0-30.59-11.84c-4.61-1.35-9.28-2.56-13.55-4.9-3.93-2.16-6-5.32-5-9.86,1.08-5.12,5.11-6.67,9.6-7.25,11.5-1.51,20.85,2.89,28.65,11,1.77,1.84,2.86,2.56,5.13.58,7-6.12,14.28-12,21.63-18.11-1.51-1.69-2.89-3.32-4.37-4.87-18.31-19.21-53.9-20-73.39-11.15-14.23,6.46-22.44,17.29-23.16,33.24-.73,16.45,6.69,28,21.18,35.34,8.48,4.31,17.42,7.32,26.51,10,5.56,1.66,11.28,2.89,16.37,5.86a8.87,8.87,0,0,1,4.81,8.66,9.41,9.41,0,0,1-5.54,8.28,21.88,21.88,0,0,1-9.7,2c-11.86.08-21.71-4.53-29.53-13.28-2.25-2.52-3.6-2.18-5.86-.23-5.79,5-11.63,10-17.77,14.54-3.34,2.48-3,4-.38,6.74C-1401-642.77-1360.5-637.67-1335.3-652.21Z" transform="translate(2166.37 1361.3)"/><path class="cls-1" d="M-1928.54-717.8a108.39,108.39,0,0,0-16.73-7.67c-8.8-3-17.74-5.62-26.43-8.88-6.08-2.28-8-5.69-7.31-10.43.68-4.34,4.43-7.09,10.34-7.71,10.93-1.16,20,2.79,27.39,10.51,2.48,2.57,3.93,3,6.75.45,5.65-5.16,11.57-10.06,17.65-14.71,2.93-2.24,2.64-3.54.3-6-11.73-12.42-26.58-17.24-43.08-17.94-14.59-.61-28.48,1.63-40.79,10.39-18.7,13.3-20.3,46.85,1.55,60.31a92.32,92.32,0,0,0,19.35,9.09c8.5,2.83,17.16,5.25,25.58,8.3,6.34,2.29,8.6,6,8,11.13-.59,4.71-3.84,7.78-10.06,8.81-13.82,2.3-25.2-2.59-34.54-12.56-2.14-2.29-3.44-2.54-5.84-.44-5.77,5-11.66,10-17.78,14.56-3.23,2.43-3.11,4-.45,6.83,13.78,14.59,31.1,19.79,49.1,19.59,14.66.06,27.23-2.14,38.59-9.48C-1905.8-667.37-1903.33-704.14-1928.54-717.8Z" transform="translate(2166.37 1361.3)"/><path class="cls-1" d="M-1726.24-774.3c-.87-2.71-2.17-3.5-4.94-3.46-10.49.17-21,.19-31.48,0-3.15-.06-4.54.81-5.55,4-10.14,31.8-20.5,63.52-30.79,95.26-3.42,10.54-6.82,21.09-10.35,32,10.93,0,21.25-.12,31.56.08,2.7.06,2.92-1.57,3.41-3.27,1.85-6.38,3.76-12.75,5.41-19.18.76-2.94,1.86-4.36,5.3-4.26,9.82.28,19.66.25,29.48,0,3.19-.08,4.31,1.17,5,4,1.68,6.6,3.56,13.14,5.41,19.7.44,1.53.7,3.05,3.11,3,11.78-.13,23.57-.06,35.61-.06a21.33,21.33,0,0,0-.46-2.26Q-1705.89-711.53-1726.24-774.3Zm-34.42,75.76,11-39.6,1-.23c3.7,13.18,7.41,26.36,11.2,39.83Z" transform="translate(2166.37 1361.3)"/><path class="cls-1" d="M-1426.63-649.95q-20.41-62.24-40.48-124.57c-.8-2.49-2-3.27-4.61-3.23-10.49.15-21,.22-31.48,0-3.41-.08-4.85.91-5.89,4.23-5.34,17.11-11,34.12-16.52,51.18-8.12,25.09-16.22,50.19-24.53,75.88,10.84,0,21-.11,31.15.08,2.71,0,3.32-1.31,3.89-3.36,1.83-6.56,3.86-13.07,5.55-19.66.7-2.71,1.82-3.73,4.74-3.67q15,.3,30,0c2.94-.06,4.1,1,4.78,3.62,1.68,6.6,3.66,13.12,5.36,19.71.63,2.42,1.63,3.42,4.36,3.37,10.33-.19,20.66-.14,31,0C-1426.58-646.42-1425.55-646.64-1426.63-649.95Zm-72.15-48.42c-2,0-2.67-.56-2.11-2.56,3.53-12.38,7-24.78,11.49-37.23,3.65,13,7.31,26,11.16,39.76C-1485.51-698.4-1492.15-698.46-1498.78-698.37Z" transform="translate(2166.37 1361.3)"/><path class="cls-1" d="M-1840.16-646.38c4.17.17,5.21-1,5.18-5.15-.2-30.49,0-61-.21-91.48,0-4.22,1.12-5.29,5.25-5.12,8.31.35,16.66-.09,25,.2,3.63.12,4.45-1.06,4.32-4.48-.27-7-.29-14,0-21,.15-3.54-.89-4.42-4.39-4.38-16,.2-32,.09-48,.09s-32,.09-48-.07c-3.29,0-4.74.5-4.58,4.25.32,7.15.28,14.33,0,21.49-.13,3.46,1.18,4.12,4.29,4.06,8.49-.18,17,.16,25.49-.16,4-.16,4.9,1,4.88,4.93-.16,30.66,0,61.33-.2,92,0,4.05,1.18,4.92,5,4.8C-1857.49-646.68-1848.81-646.73-1840.16-646.38Z" transform="translate(2166.37 1361.3)"/><path class="cls-1" d="M-969.57-676.76c-13.32.16-26.65-.11-40,.17-4.27.1-5.57-.8-5.54-5.37.25-30.48.07-60.95.21-91.43,0-3.45-.77-4.5-4.33-4.39q-13.49.4-27,0c-3.76-.12-4.73.93-4.69,4.69.2,20.32.09,40.64.09,61,0,20.48.06,41-.06,61.45,0,3.09.56,4.3,4,4.28,25.81-.16,51.62-.12,77.44,0,2.71,0,3.78-.59,3.7-3.54-.2-7.66-.23-15.33,0-23C-965.53-676.15-966.58-676.79-969.57-676.76Z" transform="translate(2166.37 1361.3)"/><path class="cls-1" d="M-2161.87-646.38c25.47-.21,50.95-.16,76.42,0,3.08,0,4.43-.5,4.3-4-.28-7.48-.25-15,0-22.47.1-3.2-1-3.87-4-3.84-13.32.14-26.64-.19-40,.19-4.84.14-5.63-1.52-5.61-5.87.18-30.3,0-60.6.17-90.9,0-3.41-.73-4.55-4.33-4.45-9.14.27-18.31.26-27.46,0-3.45-.1-4,1.14-4,4.23.12,20.48.06,41,.06,61.44,0,20.31.08,40.62-.08,60.93C-2166.39-647.69-2165.87-646.34-2161.87-646.38Z" transform="translate(2166.37 1361.3)"/><path class="cls-1" d="M-951-650.31c0,3.06.73,4,3.86,3.9,9.15-.22,18.32-.26,27.47,0,3.64.11,4.75-.7,4.71-4.56-.22-20.49-.1-41-.1-61.45s-.07-41,.07-61.45c0-3-.69-4-3.83-3.91-9.32.22-18.65.2-28,0-3.15-.06-4.23.64-4.22,4.06Q-950.8-712-951-650.31Z" transform="translate(2166.37 1361.3)"/><path class="cls-1" d="M-2036.48-646.37c4.18.16,4.81-1.36,4.78-5-.17-20.16-.08-40.33-.08-60.49,0-20.66-.07-41.33.07-62,0-3.08-.75-4-3.86-3.88-9.32.22-18.66.17-28,0-2.82,0-4.13.37-4.12,3.73q.18,62,0,124c0,2.87.89,3.65,3.69,3.6C-2054.81-646.59-2045.63-646.74-2036.48-646.37Z" transform="translate(2166.37 1361.3)"/><path class="cls-1" d="M-1479.28-784a4.88,4.88,0,0,0,3.66-1.16c10.45-9.68,20.95-19.31,32.47-29.91-10,0-18.53.9-26.81-.22-11.67-1.59-18.37,2.49-21.87,13.67-1.86,5.95-5.27,11.43-8.21,17.61Z" transform="translate(2166.37 1361.3)"/><path class="cls-1" d="M-1121.53-785.38c1.31,0,2.56.07,3.71-1,10.52-9.79,21.09-19.53,32.46-30-13.93,0-26.7,0-39.46,0a3.24,3.24,0,0,0-3.41,2.17c-4.48,9.42-9.09,18.78-14,28.88Z" transform="translate(2166.37 1361.3)"/></svg>