<svg id="Layer_1" data-name="Layer 1" xmlns="http://www.w3.org/2000/svg" viewBox="0 0 2530.86 346.22"><title>LHI_Black_Long_SVG</title><path d="M-1562,437.45h306.08V131H-1562Zm87.85-218.84h130.47v130.9h-130.47Z" transform="translate(1562 -92.01)"/><path d="M722.23,131h-32.6v68.5c-1.78-2.42-2.78-3.71-3.71-5q-20.73-30-41.49-59.94c-1.06-1.52-2.76-3.6-4.21-3.65-10.27-.31-20.55-.17-31.08-.17V261.66h32.49v-71.6c1.82,2.47,2.9,3.87,3.91,5.32q21.71,31.44,43.46,62.84c1,1.49,2.8,3.46,4.28,3.51,9.59.32,19.2.16,29,.16Z" transform="translate(1562 -92.01)"/><path d="M802.51,132.2c-19.42-2.18-39.23-1-58.86-1.29-.26,0-.51.35-.93.65V261.91c6.39,0,12.2.18,18,0,14-.53,28.11,0,41.82-2.18,22.52-3.56,39.32-15.6,47.33-38,4-11.06,4.41-22.5,3.67-34C851.63,157.26,832.75,135.6,802.51,132.2Zm14.4,73c-2.56,16.14-10.65,24-26.75,26.16-3.59.49-7.25.44-11.36.67V161.25c22.1-3.65,37.66,8.61,38.72,30.55a65.4,65.4,0,0,1-.61,13.41Z" transform="translate(1562 -92.01)"/><path d="M-551.37,178.56h-37.35V131.05h-35.37V261.59h35.72V209.38h37.29v52.33h35.31V131h-35.6Z" transform="translate(1562 -92.01)"/><path d="M-21.37,198.42c-.84-8.63-1.05-15.16-2.19-21.53-4.12-23.13-15.72-40.34-39.66-46.26a87.18,87.18,0,0,0-24.15-2.28c-27.12,1.07-45.19,15-52.29,39.92a100.23,100.23,0,0,0,.5,57.67c6.06,19.8,19.35,32.54,39.78,36.51a99.82,99.82,0,0,0,25.83,1.27c24.34-1.71,41.81-16.2,48.05-39.8C-23.18,215-22.47,205.6-21.37,198.42Zm-40.16,20.89c-3.16,10.49-10.85,15.47-21.33,15.38s-17.68-4.95-21-15.23a74.17,74.17,0,0,1,0-46.57c3.41-10.47,10.69-15.11,21.56-15,10.39.09,17.21,5,20.89,15.31a35.92,35.92,0,0,1,1.92,7.2c.71,5.26,1.1,10.56,1.84,18-.94,5.68-1.61,13.53-3.84,20.91Z" transform="translate(1562 -92.01)"/><path d="M-219,231.85c0-1.77,0-3.93.88-5.25,3.5-5,7.39-9.71,11.45-14.93,1,2,1.78,3.44,2.49,4.92,6.61,13.8,13.17,27.62,19.9,41.36.76,1.56,2.47,3.74,3.78,3.77,12.26.29,24.53.17,37.59.17-1.2-2.56-2.06-4.47-3-6.35-11.62-23.57-23.2-47.15-35-70.65-1.39-2.79-1.25-4.62.67-7.06,7.53-9.54,14.83-19.26,22.2-28.92,4.4-5.76,8.77-11.54,13.83-18.21-12.23,0-23.33.12-34.42-.08a7.3,7.3,0,0,0-6.92,3.64c-9.75,14.3-19.7,28.46-29.59,42.67-1,1.39-2,2.77-2.95,4.16l-1.2-.48V131h-35.11v130.6h35.36C-219.08,251.45-219.12,241.65-219,231.85Z" transform="translate(1562 -92.01)"/><path d="M280,200.16A175.39,175.39,0,0,0,300.07,209c7.78,2.91,15.89,4.93,23.65,7.88,5.78,2.19,7.65,5.65,6.91,10.72-.75,5.25-4.4,7.63-9.15,8.54a35.41,35.41,0,0,1-29.19-6.9c-3.17-2.4-6-5.25-9.22-8.11L257.8,241.86c3.3,2.67,6.18,4.88,8.92,7.25,17,14.71,37.2,16.6,58.32,14.4A56.17,56.17,0,0,0,349.33,255c21.55-13.52,24.37-50.78-1.24-64.32A204.15,204.15,0,0,0,325.71,181c-6.81-2.62-14-4.33-20.79-7-5.93-2.29-8-5.93-7.2-10.51.81-4.34,4.54-7,10.48-7.61,10.33-1,18.94,2.59,26.36,9.53,1.4,1.32,2.78,2.66,4.27,4.08l24-20c-1.14-1.35-2-2.54-3.05-3.61-9.86-10.36-22.14-15.54-36.22-17.09-14.88-1.63-29.18-.38-42.69,6.77C256.49,148.46,254.69,186.81,280,200.16Z" transform="translate(1562 -92.01)"/><path d="M-881.91,190.74A204.3,204.3,0,0,0-904.27,181c-7-2.67-14.26-4.53-21.27-7.12-4.54-1.68-7.64-4.84-6.81-10.29.64-4.2,4.26-7,9.87-7.64,10.7-1.27,19.67,2.41,27.2,9.8,1.25,1.23,1.78,3.21,2.66,4.89l25.42-21.2c-9.14-11.09-20.3-17.53-33.78-19.79-18.56-3.1-36.74-2.64-52.67,9-20.31,14.78-19.62,46.51,1.42,60.08,6.76,4.36,14.55,7.28,22.11,10.22,7.73,3,15.87,5,23.64,7.88,5.76,2.17,7.78,5.73,7.08,10.65-.76,5.21-4.31,7.71-9.09,8.64A35.44,35.44,0,0,1-938.1,229c-3.1-2.4-5.9-5.19-8.93-7.88l-24,19.67c.8,1.13,1.15,1.7,1.57,2.19.76.89,1.54,1.75,2.36,2.59,17.23,17.69,38.89,20.33,61.89,18a55.5,55.5,0,0,0,25.14-9C-859.26,240.85-856.64,204.11-881.91,190.74Z" transform="translate(1562 -92.01)"/><path d="M-285.37,253.89c19.63-13.56,22.28-49.75-2.42-62.93a208,208,0,0,0-22.8-10c-7-2.69-14.3-4.44-21.26-7.15-5.59-2.17-7.48-5.64-6.62-10.35,1-5.18,4.93-6.84,9.43-7.45a30.48,30.48,0,0,1,23.88,6.57c2.58,2.06,5,4.36,7.75,6.81l24-19.93c-1.62-1.8-3-3.47-4.5-5C-289,133.35-303,129.06-318.2,128.24c-14.23-.78-28,1-40.17,9.2-22,14.89-21.66,47.92.87,61.87,6.58,4.07,14,6.84,21.31,9.62s14.63,4.5,21.82,7.06c6.88,2.45,9.43,6,8.86,11.06s-4.27,8.47-11.3,9.39a34.92,34.92,0,0,1-26-6.42c-3.61-2.63-6.82-5.79-10.45-8.93-7.85,6.45-15.8,13-24,19.71,1.29,1.54,2.27,2.84,3.39,4,17.26,18.29,39.21,21.08,62.6,18.64A55.05,55.05,0,0,0-285.37,253.89Z" transform="translate(1562 -92.01)"/><path d="M950.47,190.68A207.14,207.14,0,0,0,928.09,181c-6.82-2.61-13.94-4.42-20.81-6.92-4.48-1.64-7.89-4.57-7.24-10,.56-4.67,4.39-7.49,10.54-8.11,9.72-1,18,2.12,25.23,8.55,1.81,1.61,3.56,3.29,5.44,5l24-20c-1.3-1.48-2.34-2.75-3.46-3.93-10.54-11.14-23.91-15.91-38.82-17.09s-29.39.28-42.24,8.76c-22.45,14.81-22.28,47.94.5,62.14,6.43,4,13.71,6.76,20.83,9.46,7.61,2.89,15.59,4.78,23.23,7.59,6.24,2.29,8.33,5.65,7.8,10.71-.52,4.91-3.62,8-9.78,9.08-11.54,2-21.76-1.06-30.65-8.59-2.39-2-4.57-4.28-7.06-6.63-8.09,6.64-16,13.15-24.19,19.84,1.32,1.56,2.32,2.86,3.44,4,17.24,18.33,39.26,21.44,62.56,18.41A67,67,0,0,0,951.18,255C973.51,242.35,976.21,204.25,950.47,190.68Z" transform="translate(1562 -92.01)"/><path d="M-679.66,134c-.92-2.84-2.53-3.32-5.14-3.3-10.16.12-20.33.24-30.48-.05-3.85-.11-5.4,1.15-6.58,4.82q-19.51,60.76-39.31,121.47c-.48,1.5-.8,3.05-1.25,4.79h33.76c2.18-7.57,4.46-15,6.43-22.56.77-3,2.19-3.91,5.2-3.85,9.66.17,19.33.26,29,0,3.69-.12,4.88,1.42,5.66,4.58,1.56,6.3,3.29,12.56,5.27,18.73.42,1.33,2.17,3.15,3.34,3.18,11.65.23,23.31.14,35.08.14a9.88,9.88,0,0,0,0-1.72Q-659.2,197.08-679.66,134ZM-714,209.73c3.72-13.32,7.33-26.25,11-39.18l1.08-.16,11.07,39.34Z" transform="translate(1562 -92.01)"/><path d="M556.43,134.35c-1-3-2.44-3.75-5.35-3.71-10,.15-20,.31-30-.06-4.33-.15-6,1.41-7.23,5.37-12.87,40.22-26,80.38-39,120.57-.53,1.63-.9,3.31-1.39,5.17h33.77c2.2-7.63,4.43-15.1,6.46-22.63.71-2.61,1.78-3.82,4.76-3.76q15,.3,30,0c2.92-.05,4.12,1,4.81,3.7,1.7,6.6,3.48,13.19,5.56,19.68.41,1.3,2.22,3.06,3.42,3.08,11.63.23,23.26.14,35.21.14-.36-1.5-.55-2.63-.9-3.7Q576.49,196.28,556.43,134.35Zm-34.49,75.33c3.7-13.25,7.34-26.25,11-39.26l1-.09c3.65,13,7.29,25.94,11,39.35Z" transform="translate(1562 -92.01)"/><path d="M-380.31,257.74q-20.06-61.68-40.06-123.37c-.94-2.93-2.39-3.77-5.32-3.73-10.16.15-20.33.24-30.48,0-3.85-.1-5.34,1.2-6.51,4.87q-19.36,60.59-39.12,121c-.54,1.65-1,3.32-1.63,5.24h33.94c2.24-7.68,4.34-15.37,6.82-22.93.47-1.41,2.47-3.27,3.81-3.3,11.31-.27,22.62-.15,34.31-.15,2.18,7.7,4.18,15.24,6.48,22.67.47,1.5,2.23,3.66,3.44,3.69,11.64.28,23.29.17,35.39.17C-379.67,260.23-379.91,259-380.31,257.74Zm-74.49-48c3.72-13.31,7.35-26.27,11-39.23l1.2.17c3.6,12.89,7.2,25.78,10.9,39.06Z" transform="translate(1562 -92.01)"/><path d="M-788.37,261.49V160.27h33.94V131.11h-104.1V160.5h34.32v101Z" transform="translate(1562 -92.01)"/><path d="M31.49,131H-3.73V261.61H80.63v-30H31.49Z" transform="translate(1562 -92.01)"/><path d="M417.28,131.07H381.75V261.52h84.42v-30H417.28Z" transform="translate(1562 -92.01)"/><path d="M-1035,231.44h-49.13V131h-35.21v130.6H-1035Z" transform="translate(1562 -92.01)"/><path d="M131.33,131H96.15V261.51h35.18Z" transform="translate(1562 -92.01)"/><path d="M209.93,261.61h35.13V131H209.93Z" transform="translate(1562 -92.01)"/><path d="M-985.37,131h-35.16V261.5h35.16Z" transform="translate(1562 -92.01)"/><path d="M-526.89,299.29h-10.4v5.79c0,22.49.1,45-.11,67.46-.09,9.69-2.71,18.58-11.45,24.22-19.27,12.42-43.62,1.1-46.32-21.5a70.61,70.61,0,0,1-.27-8.48V299.19h-10.69v9.21c.2,23.31-.3,46.65.84,69.92.84,17,12.51,28.52,29.25,31.3a66.3,66.3,0,0,0,15.42.42c17.54-1.26,29.45-11.81,32.85-29a63.43,63.43,0,0,0,1-11.91c.1-21.66,0-43.31,0-65C-526.68,302.59-526.82,301-526.89,299.29Z" transform="translate(1562 -92.01)"/><path d="M559.63,301.83c-.47-1.37-2.53-2.64-4.1-3.09-1.84-.53-4,.05-5.95-.17-3.51-.39-5.23.82-6.41,4.39-11.13,33.62-22.5,67.16-33.78,100.73-.45,1.34-.72,2.74-1.08,4.15,9.69,1.37,9.69,1.37,12.57-7.31,2.52-7.57,5.2-15.1,7.5-22.73.84-2.78,2.19-3.6,5-3.57q18.24.18,36.48,0c2.83,0,4.11.91,4.95,3.57q4.31,13.54,9.05,26.95c.5,1.41,2,3.16,3.31,3.45,2.5.56,5.2.16,8.08.16a28,28,0,0,0-.61-3Q577.15,353.54,559.63,301.83Zm-26.51,62.23L551,309.54h1.09l18.08,54.56Z" transform="translate(1562 -92.01)"/><path d="M-671.65,299.12h-9.83V340c-2.82-2.07-4.64-3.51-6.55-4.81-18.39-12.54-40.89-5.44-48.46,15.53a54.13,54.13,0,0,0,0,37.67c7.93,21.81,31.77,28.46,50,14.15,1.48-1.16,3-2.35,4.72-3.76,1.51,10.53,2.36,11.1,11.89,9C-673.13,371.6-670.24,335.36-671.65,299.12Zm-9.78,77a18.69,18.69,0,0,1-.08,2.12c-.28,4,.59,9.16-1.53,11.84A28.57,28.57,0,0,1-702,401c-11.57,1.45-20.1-3.5-24.34-14.52a46.77,46.77,0,0,1-.36-33.18c4.66-13.19,16.09-18.73,29.09-13.66,5.13,2,9.64,5.71,14.16,9,1.19.86,1.86,3.07,1.93,4.69q.09,2.06.12,4.11c.05,4.12,0,8.24,0,12.35,0,2.09.07,4.23,0,6.33Z" transform="translate(1562 -92.01)"/><path d="M-841.37,348.18c-.35-7.49-4.28-13.2-11.23-16.49-14.25-6.73-38.67-.26-48.06,12.87l6.58,5.51c7.55-7,15.74-12.06,26.24-12.19,12.8-.15,18.35,6.46,16.08,19.67-5.35,1.2-10.44,2.12-15.4,3.5a152.54,152.54,0,0,0-15.15,5c-6.72,2.66-12.94,6.21-17.14,12.41-9,13.37-1.86,29.57,14,31.32,3.75.42,7.9.59,11.38-.57,7.74-2.59,15.18-6.09,22.65-9.18,2.46,9.24,4,10.23,11.94,7.67-.46-8.13-1.1-16.07-1.32-24C-841,371.82-840.78,360-841.37,348.18Zm-9.92,39.08a6.36,6.36,0,0,1-2.21,4.06c-7.62,6.41-16.38,9.94-26.46,9.85-4.94,0-9.42-1.18-11.62-6.07a13.29,13.29,0,0,1,1.84-14.51,23.18,23.18,0,0,1,5.5-5c9.85-6.27,21-8.68,33-11,0,8.11.16,15.4-.06,22.67Z" transform="translate(1562 -92.01)"/><path d="M-256.27,370.72c-1.16-6.88-1.59-12.87-3.23-18.51-4.12-14.18-14.39-22.57-27.4-23.15-13.88-.61-25.85,7-31.54,20.24-4.44,10.3-4.81,21-2.76,31.87,2.93,15.51,13.39,26.2,27.65,28.55s28.38-4.31,36.25-17.51l-7-4.93c-8.12,12-18.75,17.11-32.44,12.11-9.63-3.52-15.66-15.82-14.83-28.67Zm-33.83-33.06c12.69-.63,21.52,9,22,24.21h-42.7C-311.51,350-301.45,338.22-290.1,337.66Z" transform="translate(1562 -92.01)"/><path d="M455,370.58c-.57-5.1-.76-9.42-1.57-13.62-3.07-16-13.38-26.41-27.28-27.81-14.44-1.46-27.88,6.76-33.36,21.09-5.21,13.62-5.1,27.51.95,40.83,5.59,12.31,15.62,18.76,29.26,18.9s24.1-5.85,31.47-17.8c-2.49-1.68-4.66-3.16-6.76-4.59-13.55,13.48-23.64,16.78-34.12,11.34-8.85-4.6-15.13-17.67-13.3-28.34Zm-32.36-33c12,0,20.48,9.67,20.88,24.15H400.63c.6-13.62,10.32-24.1,22-24.11Z" transform="translate(1562 -92.01)"/><path d="M-950,370.6c-1.59-7.7-2.31-14.68-4.53-21.15-4-11.63-12.31-19-24.86-20.21s-22.82,3.75-30,14.34c-9.47,14.06-9.46,38.26.11,52.27,7.34,10.75,17.84,15.16,30.64,14,12-1.11,21.07-7,27.43-17.66l-7.13-4.88c-8.1,11.93-18.74,17.08-32.42,12.09-9.62-3.51-15.71-15.88-14.87-28.79Zm-33.33-33c12.27-.2,20.72,9.36,21.2,24.23H-1005c-.23-12.74,9.88-24,21.6-24.2Z" transform="translate(1562 -92.01)"/><path d="M343.55,329.87c-8.11,2.08-15.5,7-23.47,10.75V299.33h-9.92V408.14h10v-6.49q0-23,.06-46c0-1.85.3-4.57,1.5-5.4,6.06-4.24,12-9.38,18.83-11.62,13.87-4.56,21.11,1.5,21.12,16V408h10c.09-1.3.21-2.27.21-3.24,0-17.49.13-35,0-52.47S360.46,325.55,343.55,329.87Z" transform="translate(1562 -92.01)"/><path d="M121.33,329.08c-17.63-.72-30.87,9.31-35.2,26.91a55.64,55.64,0,0,0,.14,27.67C90.63,400.33,102.85,410,119.4,410c16.81,0,29.2-9.8,33.37-26.66,1.07-4.33,1.46-8.83,2.09-12.77-.5-4.37-.73-8.2-1.39-12C150.42,341.25,137.85,329.76,121.33,329.08Zm19.2,58.68c-3.72,8.48-10.49,13.05-20,13.39-9.86.35-17.39-3.75-21.38-12.61-2.67-5.94-3.75-12.6-5.4-18.42,1.49-6.46,2.18-12.16,4.15-17.37,3.49-9.17,10.3-14.5,20.47-14.83s17.73,4.33,21.92,13.53A42.93,42.93,0,0,1,140.53,387.76Z" transform="translate(1562 -92.01)"/><path d="M25.52,336.55c-1.21,4.82-3.29,9.41-5,14.1C15.18,365.31,9.83,380,4.18,395.43c-1-2.68-1.81-4.51-2.5-6.36C-5,371-11.74,352.89-18.25,334.72c-1.07-3-2.45-4.38-5.67-4a62.76,62.76,0,0,1-6.72,0c.85,2.36,1.38,3.91,2,5.44,8,21.15,15.62,42.48,24.34,63.35,3.49,8.35,1.83,15-2.16,22A14,14,0,0,1-19.13,429c-3.46.07-6.93,0-10.75,0l-2,7.37c17.33,5,29.22-.33,36.28-16,.89-2,1.68-4,2.45-6q9.78-25.65,19.52-51.3c4-10.55,7.94-21.12,12-32-1.86-.12-3.18-.1-4.46-.31C29.22,330,26.71,331.76,25.52,336.55Z" transform="translate(1562 -92.01)"/><path d="M-772.92,329.79c-10.15-2.19-19.09.56-27.38,6.26-2.66,1.83-5.2,3.85-8.22,6.1-.2-4.14-.35-7.57-.51-11h-9.83v76.91h10.09v-5.6c0-15.66-.05-31.31.07-47,0-1.84.37-4.51,1.57-5.37,5.76-4.11,11.42-9,17.93-11.25,14.26-5,21.83,1,21.87,16v53.28h9.74c0-21,.52-41.82-.24-62.56C-758.14,337-764.26,331.66-772.92,329.79Z" transform="translate(1562 -92.01)"/><path d="M-462.37,329.37c-9.2-1.41-17.47,1.24-25,6.44-2.8,1.93-5.47,4.05-9.09,6.74V331h-9.7v77h9.85v-5.79q0-23.47.06-47c0-1.7.29-3.9,1.35-5,5.39-5.54,11.51-10.14,19.22-12,14.06-3.35,20.88,2,20.92,16.21v53.6h9.9c0-20.58.57-40.87-.23-61.11C-445.49,336.47-452,331-462.37,329.37Z" transform="translate(1562 -92.01)"/><path d="M770.32,370.49c-4.76-2.89-10.29-4.58-15.6-6.45s-10.89-3.07-16.19-5c-4.85-1.75-7.5-5.35-7.11-10.79.37-5.11,3.74-7.81,8.06-9.09,9.14-2.71,17.8-1.68,25.37,4.66,1.36,1.14,2.65,2.37,4.13,3.7l6.59-7c-11-12-31.92-15.14-44.87-7-6.4,4-9.91,9.73-9.64,17.46s4.09,13.34,11.25,16.22c4.91,2,10.12,3.2,15.16,4.88s10.49,3.24,15.42,5.54c4.67,2.17,6.42,6.49,6,11.64-.35,4.9-3.18,7.87-7.41,9.8a29.22,29.22,0,0,1-32.34-6.14,21,21,0,0,1-2.3-3.66l-8.34,6c10.47,16.94,42.11,20.3,55.43,6.17C782.46,392.33,780.89,376.91,770.32,370.49Z" transform="translate(1562 -92.01)"/><path d="M-138.7,369.32a69.84,69.84,0,0,0-12-4.79c-5.68-1.86-11.57-3.11-17.19-5.14-5.86-2.12-8.2-5.71-8-10.77.19-4.67,3.34-8.24,9.26-9.75,8.88-2.28,17.18-1.07,24.38,5.06,1.33,1.13,2.63,2.3,4,3.55l6.53-6.87c-10.33-12.58-33.9-15.53-46.57-6-11.84,8.93-10.35,25.9,3,32.35,3.71,1.79,7.8,2.81,11.75,4.06,5.7,1.8,11.61,3.06,17.12,5.32,6.24,2.56,8.58,6.94,8.13,12.92-.4,5.21-3.91,9.1-10.33,10.71-12.72,3.2-23.78.58-32.32-10.35l-7.75,5.61c9.64,15,35.09,19.7,50.91,9.78C-124,396.41-124.44,377.13-138.7,369.32Z" transform="translate(1562 -92.01)"/><path d="M-1040,347.14c1.52,2.1,2.84,4.34,4.36,6.69L-1027,349c-5.81-11.52-14.16-18.8-26.77-19.81-12.94-1-24.06,3.31-30.69,14.76-9.87,17-9.82,34.78.35,51.68,6.69,11.13,17.56,15.45,30.42,14.17s21-8.86,26.29-20.55l-7.89-4.36c-1.51,2.47-2.64,4.5-3.94,6.42-9.22,13.56-27.76,13.64-36.15-.43-8.2-13.76-8.21-28.5-.41-42.38S-1049.37,334.16-1040,347.14Z" transform="translate(1562 -92.01)"/><path d="M-342.5,337c-1.87,7.39-4.75,14.52-7.23,21.76q-6,17.6-12,35.17l-1.23-.1-18.6-54.74c-3.16-9.3-3.16-9.3-13.63-7.82a18.88,18.88,0,0,0,.54,2.34c8.59,24,17.31,47.85,25.7,71.86,1.47,4.18,4.31,3.13,7.14,3.41,3.05.3,4.67-.58,5.8-3.78,7.43-21.18,15.13-42.27,22.74-63.38,1.23-3.42,2.41-6.85,3.72-10.58-1.56-.14-2.7-.16-3.81-.36C-338.47,329.88-341.15,331.66-342.5,337Z" transform="translate(1562 -92.01)"/><path d="M-41.74,400.15H-46.1c-11.77.6-14.73-2.13-14.77-13.76V339.48h18.45v-8.92H-60.88v-20c0-9,0-9-9.12-8.09-.29,0-.55.33-1.34.82v27.59H-84.73c.15,3.28.26,5.85.4,8.75h13.09v47.15a63.31,63.31,0,0,0,.73,9.43c1,6.41,4.78,10.84,11.08,12,5.71,1.07,11.65,1,18,1.43v-5.27C-41.48,403.1-41.65,401.57-41.74,400.15Z" transform="translate(1562 -92.01)"/><path d="M687.56,387.47v-48H706.1v-8.89H687.42v-28H677.18v28.33H664v9h13.4v6c0,15.17-.11,30.34.06,45.5.11,9.77,4,15.46,12.16,17.08,5.41,1.07,11.08.82,17,1.19V400c-2.06.1-3.85.23-5.64.29C690.85,400.58,687.63,397.48,687.56,387.47Z" transform="translate(1562 -92.01)"/><path d="M275.56,387.2q-.06-21.49,0-43c0-1.43.19-2.87.32-4.76h18.3v-8.73H275.55V302.59H265.34v28.3H251.87v8.79h13.47v6c0,15.5,0,31,.1,46.49.06,7.22,2.66,13.17,10,15.72a32.57,32.57,0,0,0,19,.81V400c-2,.11-3.65.21-5.3.27C278.78,400.62,275.63,397.58,275.56,387.2Z" transform="translate(1562 -92.01)"/><path d="M175.54,321.65c.2,2.91,0,5.84,0,9.34H162.21v8.9h13.42v68.17h10.14V339.62h15.52v-9H186.2c-1.55-19.23-.48-22.4,16.24-22.89v-8.18C186.51,297.11,174.32,303.88,175.54,321.65Z" transform="translate(1562 -92.01)"/><path d="M-229.23,345.13V331h-9.83v77h9.91V364.85a15.06,15.06,0,0,1,.8-5.84c5.1-11.77,13.76-18.91,26.86-20,1.27-.11,2.54-.3,3.82-.45.44-3.25.84-6.15,1.28-9.4C-210.5,328.42-220.58,334.63-229.23,345.13Z" transform="translate(1562 -92.01)"/><path d="M621.47,345.22V331h-9.79v77.07h9.9v-5.19c0-12.82-.12-25.64.1-38.46a19.6,19.6,0,0,1,2.13-8.49c6-11.47,15.88-17,29.15-17.11.43-3.24.83-6.27,1.28-9.64C640,328.41,630,334.73,621.47,345.22Z" transform="translate(1562 -92.01)"/><path d="M-931.3,408.09h9.52V299.25h-9.52Z" transform="translate(1562 -92.01)"/><path d="M-1119.24,408h9.59V299.1h-9.59Z" transform="translate(1562 -92.01)"/><path d="M236.36,124.3a4.4,4.4,0,0,0,2.72-.94Q254.89,109,270.63,94.42L270,93.29c-11.94,0-23.88.16-35.82-.09-3.46-.08-5,1.24-6.32,4.16-2.64,5.91-5.59,11.69-8.38,17.53-1.39,2.91-2.72,5.85-4.39,9.45C222.76,124.34,229.56,124.38,236.36,124.3Z" transform="translate(1562 -92.01)"/><path d="M-431.37,124.2c1.26,0,2.62-1.3,3.69-2.26,6.06-5.47,12-11,18-16.55,4-3.67,7.93-7.36,13-12.06-14.42,0-27.34,0-40.26.07a3.15,3.15,0,0,0-2.28,1.52c-4.7,9.51-9.3,19.06-14.29,29.39C-445.55,124.31-438.45,124.42-431.37,124.2Z" transform="translate(1562 -92.01)"/><path d="M-59.11,111.11c5.76-6.68,12.87-12.19,20.32-19.1-14.22,0-27.11,0-40,.08a3.58,3.58,0,0,0-2.56,1.77c-4.71,9.46-9.29,19-14.12,28.94a45.08,45.08,0,0,1,4.93.24C-77.72,125.21-67.64,121-59.11,111.11Z" transform="translate(1562 -92.01)"/><path d="M-421.11,408.13h9.48v-77h-9.48Z" transform="translate(1562 -92.01)"/><path d="M-109.37,408.13h9.54V331.07h-9.54Z" transform="translate(1562 -92.01)"/><path d="M-411.75,300.17h-9.47v11.92h9.47Z" transform="translate(1562 -92.01)"/><path d="M-99.87,300.13h-9.57v12h9.57Z" transform="translate(1562 -92.01)"/></svg>