<svg id="Layer_1" data-name="Layer 1" xmlns="http://www.w3.org/2000/svg" viewBox="0 0 1268.89 955.91"><defs><style>.cls-1{fill:#fff;}</style></defs><title>LHI_white_SVG2</title><path class="cls-1" d="M-2167.72,448.87c0-6.42-1.55-8.14-8-8.13q-230.7.28-461.39,0c-6.21,0-7.49,1.72-7.48,7.63q.3,115.74.14,231.47,0,115-.14,229.92c0,6.14,1,8.26,7.8,8.25q230.29-.35,460.61,0c6.87,0,8.5-1.66,8.5-8.51Q-2168,679.17-2167.72,448.87Zm-136.39,326.32c0,5-1.18,6.43-6.33,6.42q-95.47-.29-191,0c-5.35,0-6.9-1.25-6.85-6.76.27-31.82.13-63.65.13-95.47s.12-63.65-.12-95.48c0-5.34,1.3-6.95,6.82-6.93q95.48.28,191,0c5.18,0,6.37,1.48,6.36,6.5Q-2304.37,679.32-2304.11,775.19Z" transform="translate(2644.61 -228.32)"/><path class="cls-1" d="M-1621.8,635.83q-.14-62.25,0-124.5c0-2.73-.93-3.33-3.44-3.29-8.16.13-16.33.24-24.49,0-3.78-.13-5.06.74-5,4.83.23,21,.11,42,.11,64.5-1.87-2.62-2.91-4-3.91-5.49q-20.88-30.18-41.73-60.38c-1.34-2-2.49-3.55-5.42-3.47-8.82.25-17.66.16-26.49,0-2.53,0-3.46.63-3.46,3.34q.12,62.25,0,124.5c0,3.06,1.17,3.51,3.81,3.46,8.33-.13,16.67-.21,25,0,3.3.1,4.14-.87,4.12-4.13-.15-20.66-.08-41.33-.08-62v-6.11c1.57,2.26,2.38,3.41,3.18,4.58,14.67,21.21,29.41,42.39,43.94,63.71,2,3,4.14,4.09,7.7,4,7.49-.29,15-.19,22.5,0C-1622.81,639.41-1621.79,638.8-1621.8,635.83Z" transform="translate(2644.61 -228.32)"/><path class="cls-1" d="M-1550.13,508.39c-15.81-.61-31.66-.12-47.48-.39-3.54-.06-4.39.91-4.36,4.38.18,20.33.09,40.67.09,61q0,31,0,62c0,1.83-.78,4.06,2.66,4,17.31-.46,34.69,1.1,51.94-1.12s32.52-8.45,43.66-22.48c11-13.82,13.5-30,12.93-47.06C-1491.88,533.11-1514.57,509.78-1550.13,508.39Zm23.2,70.74c-1.54,19.33-12.58,29.59-32.2,30.12-6.95.19-6.95.19-6.95-6.65v-29c0-10.65.08-21.3-.06-31.95,0-2.73.61-4,3.54-3.66,3.31.33,6.69.06,10,.55,14,2.08,22.41,10.57,25,24.64A60.26,60.26,0,0,1-1526.93,579.13Z" transform="translate(2644.61 -228.32)"/><path class="cls-1" d="M-2064.48,577.63a110,110,0,0,0,17.24,7.75c8.66,2.89,17.46,5.4,26,8.56,6.19,2.28,8.1,5.64,7.5,10.87-.53,4.61-3.67,7.66-9.53,8.72-14.24,2.57-25.82-2.58-35.4-12.82-1.87-2-2.94-2.23-5.08-.38-5.91,5.12-11.91,10.17-18.18,14.85-3.28,2.46-3,4.06-.42,6.84,13.77,14.59,31.08,19.79,48.7,19.58,14.69,0,26.92-2.09,38.14-8.94,21.83-13.32,25.12-50.8-1.14-64.95a105.4,105.4,0,0,0-16.31-7.4c-8.8-3-17.74-5.61-26.43-8.88-6.07-2.28-8.11-5.76-7.35-10.41.73-4.37,4.44-7.1,10.35-7.73,11.13-1.19,20.23,3,27.77,10.82,2.13,2.22,3.44,2.74,6,.47,5.83-5.22,11.85-10.25,18.05-15,2.88-2.23,2.71-3.53.33-6-11.46-12.12-25.94-17-42.08-17.88-13-.72-25.47,1.08-37.21,7.31C-2087.94,525.89-2089.59,564.12-2064.48,577.63Z" transform="translate(2644.61 -228.32)"/><path class="cls-1" d="M-1396.69,566.36c-9.33-4.83-19.22-8.16-29.29-11.07-4.93-1.42-10-2.61-14.34-5.54s-5.5-8.08-2.6-12.12c2.11-2.93,5.26-3.91,8.65-4.3,11.32-1.32,20.59,2.88,28.15,11,2.29,2.45,3.59,2.33,5.88.19,3.64-3.4,7.64-6.41,11.47-9.62,11.08-9.32,11.3-9.65-.78-17.93-19.73-13.51-41.41-14.5-63.49-7.47-15.49,4.93-25.28,15.56-26.83,32.48-1.65,17.95,6.22,30.38,22.17,38.12a163.8,163.8,0,0,0,25.66,9.47c5.25,1.54,10.59,2.83,15.48,5.43,3.58,1.9,5.49,4.79,5.29,8.86a9.31,9.31,0,0,1-6.3,8.76,24.5,24.5,0,0,1-9.27,1.66c-11.87,0-21.6-4.84-29.42-13.56-1.87-2.09-3-2.16-5.13-.32-6,5.22-12.19,10.34-18.55,15.16-2.88,2.19-2.8,3.46-.43,6,13.75,14.9,31.17,20.22,51.22,20,10,.19,20.21-1.14,29.75-5.54,14.34-6.61,22.6-17.66,23.58-33.65C-1374.8,585.8-1382,573.94-1396.69,566.36Z" transform="translate(2644.61 -228.32)"/><path class="cls-1" d="M-1788.23,511c-.89-2.74-2.38-3-4.75-3-10.32.09-20.65.19-31,0-3.52-.08-5.08.86-6.22,4.45-10.73,33.69-21.72,67.3-32.63,100.94-2.75,8.49-5.48,17-8.36,25.89,10.92,0,21.23-.11,31.54.08,2.66,0,2.92-1.52,3.42-3.27,1.82-6.38,3.78-12.73,5.42-19.17.75-3,1.85-4.37,5.29-4.27,9.82.27,19.65.24,29.47,0,3.16-.07,4.32,1.13,5,4,1.65,6.6,3.56,13.14,5.4,19.7.44,1.56.73,3,3.12,3,11.79-.13,23.57-.06,35.45-.06a8.39,8.39,0,0,0-.12-1.78Q-1767.71,574.29-1788.23,511Zm-14.18,76.33c-6.48,0-13,0-20.12,0,3.76-13.51,7.41-26.67,11.07-39.82h1l10.62,37.68C-1799.13,587.8-1801,587.37-1802.41,587.37Z" transform="translate(2644.61 -228.32)"/><path class="cls-1" d="M-1882.29,609c-13.15.29-26.32-.13-39.46.24-4.63.13-5.39-1.35-5.36-5.57.18-30.31,0-60.62.19-90.93,0-3.73-.87-4.85-4.67-4.72-9,.29-18,.27-27,0-3.53-.11-4.38.89-4.35,4.37.17,20.32.08,40.64.08,61q0,31,0,62c0,2.18-.44,4.1,3.09,4.08q39.46-.21,78.94,0c2.47,0,3.08-.81,3-3.14-.13-7.49-.24-15,0-22.48C-1877.61,610.12-1878.38,608.9-1882.29,609Z" transform="translate(2644.61 -228.32)"/><path class="cls-1" d="M-2099,573.88c0-20.48-.09-41,.08-61.43,0-3.48-.91-4.53-4.42-4.44-9.15.24-18.32.22-27.47,0-3.2-.08-4.15.74-4.14,4.06q.18,61.68,0,123.36c0,2.95.57,4,3.79,3.94,9-.24,18-.3,27,0,4,.14,5.34-.79,5.29-5.08C-2099.15,614.17-2099,594-2099,573.88Z" transform="translate(2644.61 -228.32)"/><path class="cls-1" d="M-2126.41,501.78c6-.07,12,0,17.95,0a5,5,0,0,0,3.61-1.32c10.34-9.58,20.72-19.14,32.24-29.76-14.25,0-27,0-39.72-.05a3.32,3.32,0,0,0-3.35,2.3c-4.17,8.66-8.31,17.33-12.56,25.95C-2129.36,501.15-2128.79,501.81-2126.41,501.78Z" transform="translate(2644.61 -228.32)"/><path class="cls-1" d="M-2036.29,267.52c-9.29.25-18.59.23-27.88,0-3.33-.08-4.22.87-4.17,4.18.19,13.52,0,27,.14,40.56,0,3.14-.55,4.38-4.07,4.29q-14.68-.41-29.39,0c-3.6.09-4.49-1-4.44-4.49.21-13.51,0-27,.13-40.55,0-2.54-.19-4-3.42-4-10,.2-19.94.14-29.91,0-2.4,0-3.15.62-3.15,3.09q.1,63.36,0,126.73c0,2.76.89,3.36,3.47,3.32,9.63-.14,19.27-.21,28.89,0,3.43.08,4.19-1,4.16-4.27-.16-15.2,0-30.41-.15-45.62,0-3.07.67-4,3.87-3.93q14.94.33,29.9,0c3.34-.08,4.18.87,4.13,4.16-.18,14.86,0,29.74-.16,44.6-.05,3.75.61,5.27,4.84,5.09,8.94-.38,17.92-.38,26.86,0,4.25.18,4.86-1.38,4.83-5.11-.17-20.61-.08-41.23-.08-61.84s-.09-41.23.09-61.84C-2031.78,268.38-2032.76,267.42-2036.29,267.52Z" transform="translate(2644.61 -228.32)"/><path class="cls-1" d="M-1531.44,333.47a122.94,122.94,0,0,0-1.58-19.06c-4.37-23.36-16-40.55-40.16-47a78.66,78.66,0,0,0-24.6-2.35c-27.56,1.44-46.08,15.41-53.22,40.93a102.14,102.14,0,0,0,.54,57.95c5.55,18.39,17.42,30.86,36.11,36.37,9.87,2.91,20,3.12,30.13,2.36,23.83-1.8,41-15.42,48.47-38.13C-1532.49,354.62-1531.59,344.41-1531.44,333.47Zm-36.77.9c0,8.64-.61,17.17-4.11,25.26-3.93,9.11-11,13.34-20.69,13.38-9.92,0-17.51-4.33-20.88-13.79a73.09,73.09,0,0,1,.07-50.52c3.32-9.16,10.61-13.52,20.48-13.58s17.09,4.21,21.09,13.47C-1568.69,316.84-1568.17,325.56-1568.21,334.37Z" transform="translate(2644.61 -228.32)"/><path class="cls-1" d="M-1735,400.7c2.86.05,3.74-.77,3.69-3.66-.18-9.29-.06-18.59-.08-27.88,0-1.86.06-3.58,1.39-5.2,3.73-4.56,7.27-9.28,11.17-14.29.91,1.8,1.69,3.26,2.4,4.75,6.77,14.13,13.5,28.27,20.31,42.37.81,1.68,1,3.91,3.91,3.89,12.44-.11,24.89-.05,37.38-.05.23-2.38-1.12-3.83-1.9-5.43q-17.94-36.48-36.06-72.89c-1.32-2.64-1.3-4.36.63-6.69,4.41-5.32,8.47-10.94,12.66-16.45l24.1-31.57c-12.39,0-23.82.1-35.24-.07a6.92,6.92,0,0,0-6.58,3.46c-10,14.63-20.16,29.13-30.27,43.68-1,1.42-2,2.82-3.89,5.44,0-17.32-.08-33,.07-48.62,0-3.07-.68-4.05-3.88-4-9.46.23-18.93.19-28.38,0-3-.06-4.06.51-4.05,3.82q.18,62.83,0,125.69c0,2.92.87,3.69,3.71,3.65Q-1749.45,400.44-1735,400.7Z" transform="translate(2644.61 -228.32)"/><path class="cls-1" d="M-1801.94,394.83c23.46-13.55,27.1-53-.66-67.26a175.1,175.1,0,0,0-31-12c-4.68-1.37-9.42-2.59-13.74-5-4-2.19-6-5.39-5.06-10,1.09-5.2,5.18-6.76,9.73-7.36,11.66-1.53,21.14,2.94,29,11.16,1.79,1.86,2.9,2.6,5.21.59,7.13-6.21,14.48-12.16,21.93-18.36-1.53-1.72-2.93-3.38-4.43-4.95-18.57-19.47-54.66-20.27-74.42-11.3-14.43,6.55-22.76,17.53-23.48,33.71-.75,16.68,6.78,28.36,21.47,35.83,8.6,4.37,17.67,7.42,26.88,10.16,5.64,1.68,11.44,2.92,16.6,5.94a9,9,0,0,1,4.88,8.78,9.53,9.53,0,0,1-5.62,8.39,22.33,22.33,0,0,1-9.83,2c-12,.08-22-4.61-30-13.47-2.28-2.55-3.64-2.21-5.93-.24-5.88,5.07-11.8,10.13-18,14.75-3.38,2.51-3,4-.38,6.83C-1868.55,404.4-1827.49,409.58-1801.94,394.83Z" transform="translate(2644.61 -228.32)"/><path class="cls-1" d="M-2403.47,328.32a110,110,0,0,0-17-7.77c-8.93-3-18-5.7-26.8-9-6.16-2.31-8.16-5.77-7.41-10.57.69-4.4,4.49-7.19,10.48-7.82,11.09-1.18,20.26,2.83,27.78,10.66,2.5,2.61,4,3.07,6.84.46,5.73-5.24,11.73-10.21,17.89-14.92,3-2.27,2.68-3.59.31-6.1-11.89-12.59-26.95-17.47-43.68-18.18-14.79-.63-28.88,1.65-41.36,10.53-19,13.48-20.58,47.51,1.57,61.15a93.9,93.9,0,0,0,19.62,9.22c8.62,2.87,17.4,5.32,25.94,8.41,6.43,2.32,8.72,6.05,8.07,11.29-.59,4.78-3.88,7.89-10.19,8.94-14,2.32-25.55-2.63-35-12.74-2.16-2.32-3.48-2.58-5.92-.45-5.85,5.1-11.82,10.1-18,14.76-3.28,2.47-3.16,4.07-.46,6.94,14,14.79,31.53,20.06,49.79,19.85,14.86.07,27.61-2.16,39.13-9.61C-2380.41,379.46-2377.9,342.17-2403.47,328.32Z" transform="translate(2644.61 -228.32)"/><path class="cls-1" d="M-2198.34,271c-.89-2.75-2.2-3.55-5-3.51-10.64.17-21.28.19-31.92,0-3.2-.06-4.6.82-5.63,4.05-10.28,32.23-20.79,64.4-31.22,96.59-3.47,10.69-6.91,21.38-10.49,32.46,11.08,0,21.54-.12,32,.09,2.74,0,3-1.6,3.46-3.32,1.87-6.47,3.81-12.93,5.48-19.45.77-3,1.88-4.42,5.38-4.32,10,.28,19.93.25,29.89,0,3.23-.08,4.36,1.19,5.08,4,1.7,6.7,3.6,13.33,5.48,20,.45,1.55.71,3.1,3.15,3.07,12-.14,23.9-.07,36.11-.07a22.16,22.16,0,0,0-.46-2.29Q-2177.71,334.7-2198.34,271Zm-34.9,76.82,11.16-40.16,1-.23c3.76,13.37,7.51,26.73,11.35,40.39Z" transform="translate(2644.61 -228.32)"/><path class="cls-1" d="M-1894.55,397.12q-20.7-63.11-41-126.31c-.81-2.52-2.06-3.31-4.67-3.27-10.64.15-21.29.22-31.92,0-3.46-.08-4.92.93-6,4.29-5.42,17.35-11.15,34.6-16.75,51.89-8.23,25.44-16.45,50.89-24.87,76.94,11,0,21.28-.11,31.58.08,2.75.06,3.37-1.32,4-3.41,1.85-6.65,3.91-13.24,5.62-19.93.71-2.74,1.84-3.78,4.81-3.72q15.19.3,30.4,0c3-.06,4.15,1,4.84,3.67,1.7,6.69,3.71,13.3,5.44,20,.63,2.46,1.65,3.48,4.42,3.42,10.47-.19,20.94-.14,31.41,0C-1894.5,400.7-1893.45,400.48-1894.55,397.12ZM-1967.71,348c-2,0-2.71-.57-2.13-2.6,3.57-12.55,7.1-25.12,11.64-37.75,3.71,13.21,7.41,26.41,11.32,40.32C-1954.26,348-1961,347.94-1967.71,348Z" transform="translate(2644.61 -228.32)"/><path class="cls-1" d="M-2313.85,400.74c4.22.17,5.27-1,5.25-5.22-.2-30.92,0-61.84-.21-92.76,0-4.27,1.13-5.36,5.32-5.19,8.43.36,16.9-.09,25.33.2,3.69.13,4.52-1.07,4.38-4.53-.27-7.09-.29-14.2,0-21.29.15-3.59-.91-4.48-4.46-4.44-16.21.2-32.44.09-48.66.09s-32.44.09-48.66-.07c-3.33,0-4.8.51-4.63,4.31.32,7.25.28,14.53,0,21.79-.14,3.5,1.19,4.18,4.34,4.11,8.61-.18,17.24.17,25.85-.16,4-.15,5,1.07,4.95,5-.17,31.09,0,62.18-.2,93.27,0,4.12,1.19,5,5,4.87C-2331.43,400.44-2322.62,400.39-2313.85,400.74Z" transform="translate(2644.61 -228.32)"/><path class="cls-1" d="M-1431.11,369.94c-13.5.16-27-.11-40.52.18-4.33.09-5.65-.81-5.61-5.45.24-30.9.07-61.81.21-92.71,0-3.5-.79-4.56-4.4-4.45q-13.66.42-27.35,0c-3.81-.12-4.79.94-4.76,4.76.21,20.6.1,41.2.1,61.8,0,20.77.06,41.55-.06,62.32,0,3.13.57,4.35,4.09,4.33,26.17-.16,52.34-.12,78.52,0,2.75,0,3.83-.6,3.76-3.59-.2-7.76-.24-15.54,0-23.29C-1427,370.56-1428.08,369.91-1431.11,369.94Z" transform="translate(2644.61 -228.32)"/><path class="cls-1" d="M-2640,400.75c25.83-.22,51.65-.16,77.48-.05,3.12,0,4.49-.51,4.36-4.07-.28-7.59-.25-15.19,0-22.78.1-3.25-1.05-3.93-4.05-3.9-13.5.14-27-.19-40.51.19-4.91.14-5.71-1.54-5.69-5.94.18-30.73,0-61.45.18-92.17,0-3.47-.75-4.63-4.39-4.52q-13.92.4-27.85,0c-3.5-.1-4.09,1.16-4.07,4.29.12,20.76.06,41.53.06,62.29,0,20.6.08,41.19-.07,61.79C-2644.64,399.41-2644.11,400.78-2640,400.75Z" transform="translate(2644.61 -228.32)"/><path class="cls-1" d="M-1412.27,396.76c0,3.1.74,4,3.91,3.95,9.28-.22,18.58-.26,27.86,0,3.69.1,4.82-.72,4.77-4.63-.22-20.77-.1-41.54-.1-62.31s-.07-41.54.07-62.31c0-3.08-.7-4-3.88-4q-14.17.33-28.36,0c-3.2-.07-4.29.65-4.28,4.11Q-1412.08,334.21-1412.27,396.76Z" transform="translate(2644.61 -228.32)"/><path class="cls-1" d="M-2512.91,400.75c4.24.17,4.87-1.37,4.84-5.11-.17-20.44-.08-40.89-.08-61.33,0-20.95-.07-41.9.08-62.86,0-3.12-.77-4-3.92-3.93-9.45.22-18.92.17-28.38,0-2.86-.05-4.19.37-4.18,3.78q.18,62.85,0,125.71c0,2.92.9,3.71,3.74,3.66C-2531.5,400.53-2522.19,400.38-2512.91,400.75Z" transform="translate(2644.61 -228.32)"/><path class="cls-1" d="M-1947.93,261.18a4.94,4.94,0,0,0,3.7-1.17c10.6-9.82,21.25-19.59,32.93-30.34-10.11,0-18.79.92-27.18-.22-11.84-1.61-18.63,2.53-22.18,13.86-1.89,6-5.34,11.59-8.33,17.87Z" transform="translate(2644.61 -228.32)"/><path class="cls-1" d="M-1585.19,259.8c1.33,0,2.6.08,3.76-1,10.67-9.93,21.39-19.8,32.92-30.45-14.13,0-27.08,0-40,0a3.3,3.3,0,0,0-3.46,2.2c-4.54,9.56-9.21,19-14.19,29.28Z" transform="translate(2644.61 -228.32)"/><path class="cls-1" d="M-1888.4,1088.44c-3-8.92-3-8.76-12.26-8.9-3.14,0-4.2,1.15-5.11,4-4.93,15.1-10.12,30.11-15.19,45.17q-8.43,25-16.78,50c-.38,1.14-1.81,2.58-.19,3.7,2.77,1.91,9-.55,10-3.86,2.71-8.12,5.56-16.2,8.05-24.4.82-2.72,1.92-3.68,4.83-3.64q17.1.27,34.22,0c2.73,0,3.77,1,4.54,3.37,2.6,8.16,5.63,16.19,8,24.4,1,3.54,2.6,5.08,5.72,4.27,5.77,0,5.78,0,4-5.12Zm4.57,52.91c-9.19-.1-18.38-.16-27.57,0-3.39.07-3.89-.71-2.8-3.94,5.38-15.88,10.5-31.84,16.15-49.12,4.37,13.1,8.3,24.83,12.21,36.58,1.47,4.42,2.79,8.9,4.41,13.26C-1880.45,1140.79-1881.27,1141.37-1883.83,1141.35Z" transform="translate(2644.61 -228.32)"/><path class="cls-1" d="M-2016.53,1108.2c-14.75-.84-26.86,8.17-31.59,23.35-2.18,7-2.24,14.16-1.6,21.32,1.31,14.76,10,26.29,22.36,30,12.87,3.87,27-.75,35.71-11.45,2.26-2.77,2.65-4.21-.75-6.65s-4.39-.58-6.07,1.58c-6.16,7.9-14.46,10.92-24.06,9-9-1.79-13.81-8.47-16.24-16.95-.69-2.39-1.07-4.86-1.56-7.3-.56-2.79,0-4.2,3.44-4.07,7.33.29,14.67.09,22,.09h15c12.34,0,12.34,0,10-12.43C-1992.75,1119.19-2003,1109-2016.53,1108.2Zm17.47,29.31c-.18,2.08-1.41,1.65-2.53,1.65-5.93,0-11.85,0-17.78,0s-11.85,0-17.77,0c-1.34,0-2.64.38-2.58-2,.29-11.61,11.61-21.9,23.15-20.82C-2007.28,1117.21-1998.23,1128.28-1999.06,1137.51Z" transform="translate(2644.61 -228.32)"/><path class="cls-1" d="M-2078.92,1109.48a28.16,28.16,0,0,0-13.86-.89c-8.48,1.48-15.08,6.38-22.24,12.43,0-13.06-.25-25,.13-37,.14-4.47-2.06-4.09-5-4.14-3.15,0-4.93.07-4.9,4.3q.33,47.08,0,94.16c0,4.32,1.88,4.26,5,4.31s5-.19,4.91-4.36c-.29-15.14-.12-30.29-.1-45.43,0-1.68-.31-3.37,1.18-4.8,5.13-4.9,10.54-9.52,17.63-11,14.55-3.06,20.53,1.81,20.19,15.3-.35,14.52-.08,29-.08,43.57,0,7.17,0,7.07,7,6.71,2-.1,2.67-.65,2.65-2.68-.12-18.11.08-36.23-.34-54.33C-2067,1117.78-2071.23,1112-2078.92,1109.48Z" transform="translate(2644.61 -228.32)"/><path class="cls-1" d="M-2301.54,1108.2c-16.54-.61-28.91,8.83-33,25.32a54.92,54.92,0,0,0-.3,24.17c3.17,15.69,15,26,30.24,26.38,16.42.39,28.39-8.67,32.56-24.61a58.77,58.77,0,0,0,1.74-14.62c-.2-1.78-.43-5.21-1-8.59C-2273.94,1119.82-2285.92,1108.77-2301.54,1108.2Zm18,55.31c-3.54,7.88-10,12.06-18.83,12.29-9,.23-15.54-3.69-19.83-11.5-3.07-5.61-4-11.74-4.21-17.76.1-5.76.79-11.17,3-16.24,3.62-8.43,9.75-13.5,19.27-13.82s16.58,4,20.53,12.62A40.25,40.25,0,0,1-2283.55,1163.51Z" transform="translate(2644.61 -228.32)"/><path class="cls-1" d="M-1694.79,1145.7a53.57,53.57,0,0,0-10-4c-5.39-1.53-10.85-2.87-16.16-4.67-6.29-2.14-8.68-5.51-8.37-10.85.26-4.54,3.63-8,9.74-9.21,8.39-1.64,16.29-.39,22.53,6,2.4,2.44,3.86,2.34,5.66-.31a12.37,12.37,0,0,1,2.24-2.39c1.22-1,1.14-1.73.05-3-9.51-10.86-33.19-12.39-43.94-2.75a17.54,17.54,0,0,0,3.7,29c4.74,2.44,9.92,3.66,15.08,4.87,5,1.18,10,2.37,14.5,5.08a11,11,0,0,1,5.65,11c-.32,4.58-3,7.4-6.9,9.22-9.51,4.37-22.46,2.48-29.58-5.09-3.07-3.27-4.85-3.12-8.15-.62-2.85,2.16-2.55,3.34-.4,5.63,7.14,7.58,16.09,10.33,26.15,10.44,6.35.08,12.48-.9,18.11-3.95,6.71-3.64,10.41-9.33,10.51-17C-1684.24,1155.25-1687.69,1149.35-1694.79,1145.7Z" transform="translate(2644.61 -228.32)"/><path class="cls-1" d="M-1757.88,1174.75c-9.38,1-12.51-2.35-12.55-11.66,0-6.56,0-13.12,0-19.68,0-7.18.18-14.38-.08-21.55-.11-3.19,1-4,3.92-3.78,3.73.25,7.5.07,11.24.06,1.24,0,2.35.13,2.74-1.69,1.09-5.08-.06-6.66-5.23-6.67a64.49,64.49,0,0,0-7.49.06c-3.91.45-5.55-.52-5.22-4.94.47-6.22-.08-12.5.19-18.73.18-4.14-2.56-3.09-4.65-3s-5.3-1.35-5,3.13,0,9.06,0,13.59c0,9.71,0,9.71-9.5,9.93a13.08,13.08,0,0,1-1.4,0c-1.35-.12-1.8.42-2,1.82-.84,5.64-.18,6.54,5.35,6.54a17.56,17.56,0,0,0,2.81,0c3.92-.63,4.91,1,4.85,4.85-.23,14.68-.21,29.37,0,44,.12,9,4,14.14,11.67,15.83a36.59,36.59,0,0,0,13,.58c2.09-.29,2.75-.88,2.93-3.1C-1752,1176-1752.68,1174.21-1757.88,1174.75Z" transform="translate(2644.61 -228.32)"/><path class="cls-1" d="M-2143.75,1174.93c-1.24-.14-2.5,0-3.74,0-6.14-.4-9.18-3.29-9.24-9.46-.16-14.83,0-29.67-.14-44.5,0-2.35.75-2.92,2.94-2.83,4.06.16,8.12.05,12.18,0,1.23,0,2.35.15,2.75-1.68,1.1-5.06-.07-6.67-5.21-6.68a58.67,58.67,0,0,0-8,.07c-4.12.56-4.92-1.19-4.73-4.93.31-6.24-.12-12.5.15-18.74.19-4.12-2.53-3.12-4.63-3s-5.31-1.38-5.06,3.11.05,9.06.05,13.59c0,9.74,0,9.74-9.48,10a13.08,13.08,0,0,1-1.4,0c-1.33-.11-1.81.37-2,1.8-.86,5.62-.17,6.56,5.33,6.56a36.94,36.94,0,0,0,4.21,0c2.68-.3,3.49.76,3.43,3.43-.16,7.81-.06,15.62-.06,23.42h.21c0,8.12-.27,16.25.08,24.36.31,7.18,4.2,11.65,11,13.37a32.14,32.14,0,0,0,13.94.6c.85-.15,2.18.16,2.26-1.08.17-2.33.63-4.9-.15-6.94C-2139.7,1173.57-2142.13,1175.12-2143.75,1174.93Z" transform="translate(2644.61 -228.32)"/><path class="cls-1" d="M-2227.19,1080.05c-11.59-.79-23.59,2.68-23.4,19.12,0,3.28,1.12,7.43-.46,9.6-1.91,2.63-6.37.59-9.69,1-1.16.14-2.36-.27-2.79,1.61-1.12,5,.13,6.74,5.22,6.75a24.55,24.55,0,0,0,3.74,0c3.36-.52,4.14.91,4.07,4.11-.22,9.37-.08,18.74-.08,28.11,0,9.52.27,19.06-.12,28.57-.19,4.54,2.43,3.59,4.95,3.67,2.73.09,4.87.43,4.79-3.84-.31-16.23-.18-32.48-.08-48.72,0-3.85-1.74-9,.77-11.2,2.12-1.89,7.12-.57,10.84-.67h.47c4.29.44,2.58-2.81,2.86-4.75.31-2.19.2-4-3-3.67s-6.24,0-9.36.08c-1.59,0-2.74-.18-2.66-2.22.13-3.74-.13-7.51.25-11.22.41-3.92,2.71-6.47,6.74-7.39a18.82,18.82,0,0,1,6.5-.4c2.32.28,2.91-.87,2.41-2.64C-2225.77,1083.92-2223.22,1080.31-2227.19,1080.05Z" transform="translate(2644.61 -228.32)"/><path class="cls-1" d="M-1832.3,1125c0-4.92-.29-8.38.07-11.77.5-4.78-2.82-3.27-5.13-3.44-2.53-.2-4.63-.52-4.59,3.53q.35,32.79,0,65.57c0,4.55,2.47,3.58,5,3.67,2.76.1,4.9.38,4.79-3.87-.34-12.48-.13-25-.11-37.47,0-1.69-.15-3.36.61-5,4.28-9.56,11.12-15.94,21.58-18.28,2.38-.53,5.62.9,6.95-1.29s1-5.11,1.44-7.72c0-.11-.1-.25-.28-.69C-1814.88,1107.58-1824.5,1113.32-1832.3,1125Z" transform="translate(2644.61 -228.32)"/><path class="cls-1" d="M-2001.72,948.61c-2.51.17-5.55-1.26-5.38,3.71.38,11.08.12,22.18.12,33.26h-.09c0,11.09.25,22.19-.07,33.27-.26,8.75-3,16.67-10.87,21.64-18,11.35-40.45,1-43.22-20a63.82,63.82,0,0,1-.29-8.42c0-20-.15-40,.1-60,.05-4.19-2.22-3.68-4.64-3.47s-5.65-1.65-5.59,3.51c.25,20.61.07,41.23.13,61.84a66.49,66.49,0,0,0,.72,10.27c2.19,13.7,9.63,23.18,23.14,27.15a46.9,46.9,0,0,0,27.24-.19c15-4.58,23.23-16.94,23.35-35.48.15-21.08-.1-42.17.15-63.25C-1996.87,948.3-1998.91,948.41-2001.72,948.61Z" transform="translate(2644.61 -228.32)"/><path class="cls-1" d="M-2132.71,1029.14c0-25.62-.13-51.24.13-76.85,0-4.49-2.35-3.66-4.9-3.69s-5-.63-4.85,3.76c.37,11.33.13,22.68.13,34.75-2.41-1.77-4.2-3.17-6.08-4.46-17.22-11.79-38.25-5.19-45.48,14.39a51.68,51.68,0,0,0-.83,33.12c6.65,22.58,30.41,29.74,48.64,14.83,1-.85,2.08-1.72,3.29-2.73,1.84,9.49,1.84,9.36,9.4,9,2.59-.1,2.77-1,2.23-3.11C-2132.65,1042-2132.71,1035.54-2132.71,1029.14Zm-9.5-13.82c0,3.9-.38,7.85.1,11.7.63,5-1.55,8.13-5.38,10.86-4.24,3-8.58,5.7-13.84,6.39-10.84,1.42-18.94-3.19-22.94-13.45a43.91,43.91,0,0,1-.45-31.14c4.4-12.6,15.17-17.5,27.7-13a29.12,29.12,0,0,1,3.84,1.67c7.16,3.87,13.2,8.32,11.07,18.05C-2142.73,1009.27-2142.21,1012.35-2142.21,1015.32Z" transform="translate(2644.61 -228.32)"/><path class="cls-1" d="M-2291.59,1025.69c-.2-10.14.59-20.31-.42-30.43-1-9.77-6.44-15.77-15.94-17.59-14-2.7-26.23,1.28-36.9,10.39-1,.87-4.52,1.82-1.92,3.92,1.94,1.56,3.25,6.59,7.6,2.56,7-6.51,15.36-10,25.14-9.38a13.63,13.63,0,0,1,8.61,3.13c4.24,3.74,4.75,8.9,3.9,13.81-.62,3.64-4.9,1.94-7.44,2.92a36.49,36.49,0,0,1-4.1,1c-10.12,2.61-20.25,5.28-28.66,12-7.39,5.88-10.18,15-7.31,23.45,2.45,7.2,9.35,11.26,19.13,11.41,10.67.15,19.64-4.14,28.29-11,.51,2.79.85,4.94,1.31,7.06.32,1.44.91,2.64,2.8,2.42,2.6-.29,5.28.55,7.8-.57.16-.07,0-1.12-.19-1.69C-2291.84,1041.32-2291.45,1033.49-2291.59,1025.69Zm-19.93,14.94a38.73,38.73,0,0,1-16.71,3.87c-4.62-.06-8.84-1-10.94-5.64-2.19-4.77-1.54-9.43,1.62-13.66a24.56,24.56,0,0,1,9.21-7c7.61-3.76,15.82-5.66,24-7.53,2.1-.47,3.2-.11,3,2.42-.19,3.12-.05,6.25-.05,9.38a9,9,0,0,0,0,1.87C-2299.4,1033.08-2304.43,1037.42-2311.52,1040.63Z" transform="translate(2644.61 -228.32)"/><path class="cls-1" d="M-1772,976.87c-14-.66-25.66,7.47-30.67,21.43a49.67,49.67,0,0,0-1.62,27.24c2.67,13,9.45,22.92,23,26.18s24.87-.55,34.1-11.12c3-3.47,2.69-5.18-1.19-7.63-3.1-2-3.68.09-4.92,1.71-6.23,8.08-14.59,11.35-24.39,9.37-9.44-1.91-14.18-9-16.53-17.85-.59-2.25-.75-4.62-1.28-6.89-.62-2.66.23-3.6,3-3.54,7.49.14,15,.05,22.5.05h13.12c14.64,0,15-.46,11.27-15S-1759.21,977.48-1772,976.87Zm17.79,29.48c-.16,2.26-1.64,1.46-2.61,1.47-6.07.09-12.14,0-18.21,0-5.61,0-11.22-.19-16.81.06-3.29.15-3.45-.95-2.76-3.75,3.1-12.42,10.83-19.57,21.18-19.28S-1753.52,996-1754.25,1006.35Z" transform="translate(2644.61 -228.32)"/><path class="cls-1" d="M-2443.26,1015.76c7.5.18,15,.06,22.5.06,7.19,0,14.38-.15,21.56.06,3.16.09,4.69-.63,4.12-4.09s-.61-6.86-1.35-10.19c-3.29-14.63-13.31-24-26.24-24.71-14.15-.81-26,7.42-31,21.6a49.53,49.53,0,0,0-1.43,27.7c3,13.58,10.54,23.45,24.85,26,13.56,2.4,24.95-2,33.24-13.32.67-.92,2.42-1.69.92-3.47-3-3.53-5.79-3.68-8.6-.19-6.15,7.66-14.28,10.67-23.72,8.9-9.29-1.75-14.08-8.61-16.61-17.21-.71-2.38-.87-4.91-1.44-7.33C-2447.14,1016.73-2446.33,1015.68-2443.26,1015.76Zm-2.65-9.87c1.95-10.1,8.61-22.08,22.71-20.92,9.68.79,18.5,11.3,18,21.26-.11,2.25-1.47,1.6-2.5,1.61-5.94.06-11.87,0-17.81,0s-11.87,0-17.8,0C-2444.65,1007.85-2446.38,1008.28-2445.91,1005.89Z" transform="translate(2644.61 -228.32)"/><path class="cls-1" d="M-1480,986.38c-6.31,17.39-12.65,34.78-19.19,52.78-.74-1.91-1.26-3.19-1.73-4.49q-8.88-24.09-17.75-48.19c-3.1-8.42-3.1-8.42-13.1-7.74.63,1.75,1.13,3.2,1.67,4.63,7.58,19.93,14.77,40,22.94,59.69,3.07,7.41,1.84,13.34-1.61,19.73-2.78,5.17-6.91,7.89-12.78,7.89-2.49,0-5-.18-7.48-.26-4-.13-2.42,3.55-3.53,5.38-.42.69-1.06,1.69.73,2.42,9,3.65,23.56-.58,29-8.68a58.64,58.64,0,0,0,5.92-12.15q9.87-26,19.69-51.94c3.35-8.84,6.7-17.68,10.09-26.61C-1476.87,977.78-1476.86,977.78-1480,986.38Z" transform="translate(2644.61 -228.32)"/><path class="cls-1" d="M-2213.27,996.88c-.18-12.81-7.53-19.77-20.34-20-10.92-.23-19.25,5.32-28,12.84,0-3-.26-5,0-6.92.69-4.23-1.64-4.43-4.86-4.36-3,.07-5.1-.19-5,4.24.28,21.41.25,42.82,0,64.23-.05,4.08,1.54,4.39,4.86,4.49,3.68.11,5.14-.62,5.07-4.76-.26-15-.11-30-.08-45,0-1.52-.49-3.21.77-4.48,7.9-7.9,16.7-13.7,28.62-11.93a9.88,9.88,0,0,1,8.63,7.48,27,27,0,0,1,.82,7.89c0,15.79.16,31.57-.09,47.35-.07,4.4,2.57,3.33,4.83,3.29s5,1.22,4.9-3.21C-2213.32,1031-2213,1013.91-2213.27,996.88Z" transform="translate(2644.61 -228.32)"/><path class="cls-1" d="M-1920.17,995.4c-.37-11.59-7.8-18-19.42-18.53-7.64-.35-14.43,2-20.61,6.34-2.64,1.83-5.14,3.86-8.35,6.28,0-2.94-.28-5,.06-7,.69-4-1.44-4.33-4.51-4.07-2.61.22-5.29-.94-5.22,3.89.31,21.55.27,43.1,0,64.64,0,4.1,1.57,4.42,4.81,4.35,3-.08,5.07.21,5-4.19-.34-15.14-.15-30.29-.1-45.44,0-1.48-.62-3.15.68-4.45,8-8,16.91-13.91,29-12a9.71,9.71,0,0,1,8.56,8.12,38.63,38.63,0,0,1,.68,7.9c.06,14.52,0,29,0,43.56,0,7.08.15,7.14,7.29,6.49,1.82-.16,2.39-.71,2.38-2.5C-1920,1031-1919.61,1013.18-1920.17,995.4Z" transform="translate(2644.61 -228.32)"/><path class="cls-1" d="M-1633.4,1014.41a66.49,66.49,0,0,0-13.11-4.89c-5.09-1.44-10.33-2.37-15.18-4.6-4.07-1.87-6.46-4.88-6.38-9.47s3-7.56,7.08-8.91c8-2.63,15.65-1.94,22.8,2.88,2,1.35,3.42,4.64,5.73,4,2.07-.58,3.54-3.32,5.27-5.11.22-.23.4-.49.59-.73-9.7-11.28-30-14.33-42.39-6.32-5.8,3.75-9,9-8.72,16,.26,7.25,3.88,12.29,10.47,15.31a61.78,61.78,0,0,0,10.59,3.61c5.58,1.41,11.31,2.4,16.51,5,5.66,2.86,7.88,6.64,7.36,12.32-.42,4.66-3.68,8.33-9.39,9.77-10.87,2.75-20.77,1.31-28.71-7.47-3.88-4.29-5.43,1.05-7.76,2.18-3.16,1.52,0,3.09.91,4.15,10.07,11.34,31.51,14.26,44.93,6.24,6.44-3.84,9.72-9.48,9.73-17C-1623.06,1023.65-1626.57,1018-1633.4,1014.41Z" transform="translate(2644.61 -228.32)"/><path class="cls-1" d="M-2476.55,1033.51c-4.46,7.82-11,11.72-20.07,10.91-8.57-.76-13.82-5.94-17.15-13.36-3.79-8.43-4-17.29-2.2-26.16,2.17-10.81,8.87-18.13,17.72-19.51,10.61-1.67,17.56,3.46,22.39,12.43,2.47,4.6,4.48-.11,6.61-.6s3.24-1.75,1.66-4.38c-6.43-10.68-15.55-16.53-28.17-15.92s-21.73,7-27,18.52a45.58,45.58,0,0,0-3.81,19.6c0,8.09,1.46,15.89,5.72,22.86,6.43,10.49,15.89,15.54,28.26,14.81,11.73-.69,19.71-7,25-17.12.39-.77,1.53-1.48.23-2.78C-2470.87,1029.35-2474.24,1029.44-2476.55,1033.51Z" transform="translate(2644.61 -228.32)"/><path class="cls-1" d="M-1824.92,986.41c-.4,1.18-.76,2.37-1.16,3.55q-8.18,24-16.36,48l-1-.09c-6-17.65-12.4-35.2-17.91-53-1.72-5.56-4.32-6.88-9.48-6.46-2.91.23-3.27.71-2.27,3.45,8.11,22.22,16.17,44.46,24,66.79,1.29,3.68,3.69,3,6.22,3.05s4.56.4,5.72-3c5.08-14.87,10.54-29.61,15.87-44.4,3-8.45,6.09-16.89,9.17-25.42C-1822,977.81-1822,977.81-1824.92,986.41Z" transform="translate(2644.61 -228.32)"/><path class="cls-1" d="M-1547,1043.7c-10.25.29-13.18-2.36-13.22-12.73s-.11-20.6,0-30.9c.07-4.31-2-10,.91-12.51,2.47-2.12,8-.86,12.23-.66,3.31.17,4.6-.53,4.61-4.26s-1.13-4.56-4.5-4.23c-2.93.28-5.95-.17-8.88.12-3.43.34-4.68-.65-4.5-4.3.31-6.38-.09-12.8.14-19.19.18-4.86-3.26-3-5.48-3.23s-4.66-.51-4.37,3.35c.35,4.65.08,9.36.08,14,0,9,0,9.13-9.14,9.21-2.45,0-3.46.42-3.56,3.24-.12,3.82.5,6.07,5,5.22,1.36-.26,2.83.13,4.21-.08,3-.44,3.64.8,3.57,3.63-.2,7.48-.07,15-.06,22.47q0,10.54,0,21.08c0,.46,0,.93,0,1.4.47,9.21,4.28,14.51,12,16.2a58.58,58.58,0,0,0,11.17.83c5.36.12,4.78-3.22,4.74-6.66C-1542,1041.05-1545.35,1043.65-1547,1043.7Z" transform="translate(2644.61 -228.32)"/><path class="cls-1" d="M-1693.75,977.07a5.94,5.94,0,0,0-.92.17c-9.87,1.55-17,7.19-23.33,14.85a98.49,98.49,0,0,1,.06-10.17c.51-4.79-2.81-3.27-5.12-3.43-2.51-.19-4.63-.56-4.59,3.53q.33,32.75,0,65.51c0,4.44,2.34,3.69,4.92,3.73s5,.54,4.85-3.8c-.34-12.32,0-24.65-.17-37a16.31,16.31,0,0,1,2.13-8.46c5.46-9.63,13.44-15.32,24.75-15.85,1,0,2.48.47,2.77-1,.52-2.59,1.58-5.57.76-7.75C-1688.25,975.88-1691.62,977-1693.75,977.07Z" transform="translate(2644.61 -228.32)"/><path class="cls-1" d="M-2372.39,948.58c-3-.22-4.72-.07-4.64,4,.29,15.75.12,31.51.12,47.26,0,15.91.17,31.83-.11,47.74-.09,4.49,2.45,3.64,5,3.68s4.9.53,4.87-3.8q-.32-47.51,0-95C-2367.1,947.62-2369.79,948.78-2372.39,948.58Z" transform="translate(2644.61 -228.32)"/><path class="cls-1" d="M-2543.39,999.76c0-15.93-.16-31.87.1-47.8.08-4.35-2.46-3.41-4.75-3.31s-5.22-1.44-5.2,3.35q.28,47.81,0,95.61c0,4.57,2.53,3.6,5,3.63s5,.85,4.95-3.67C-2543.58,1031.64-2543.39,1015.7-2543.39,999.76Z" transform="translate(2644.61 -228.32)"/><path class="cls-1" d="M-1893.91,978.48c-2.53-.2-4.68-.51-4.57,3.54.32,10.92.11,21.85.11,32.77,0,11.08.19,22.17-.09,33.24-.12,4.5,2.76,3.11,4.91,3.17s4.83,1.11,4.78-3.28q-.35-33,0-66C-1888.71,977.12-1891.62,978.67-1893.91,978.48Z" transform="translate(2644.61 -228.32)"/><path class="cls-1" d="M-1601.51,978.48c-2.5-.16-4.74-.58-4.62,3.52.31,10.75.1,21.52.1,32.29,0,11.23.17,22.46-.08,33.68-.1,4.39,2.7,3.2,4.91,3.24s4.92,1.07,4.88-3.3q-.3-33,0-66C-1596.27,977.2-1599.18,978.64-1601.51,978.48Z" transform="translate(2644.61 -228.32)"/><path class="cls-1" d="M-1890,949.64c-4.92-2.09-8.35.31-8.35,5.5,0,1.4,0,2.79,0,4.19a1.73,1.73,0,0,0,1.37,2c5.41,1.66,8.13-.27,8.13-6.28C-1889.7,953.54-1887.31,950.79-1890,949.64Z" transform="translate(2644.61 -228.32)"/><path class="cls-1" d="M-1601.41,949.31c-4.73,0-4.91,2-4.65,5.43.25,3.23-1.45,6.92,4.78,6.82,5.4-.08,5.2-2.65,4.75-6.4C-1595.78,951.41-1596.37,949.34-1601.41,949.31Z" transform="translate(2644.61 -228.32)"/></svg>