<svg id="Layer_4" data-name="Layer 4" xmlns="http://www.w3.org/2000/svg" viewBox="0 0 2088.25 1075.55"><defs><style>.cls-1{fill:#fff;}</style></defs><title>LHI_LOGO_WEB</title><path class="cls-1" d="M-3309.61,126.79h527.37v-528h-527.37Zm151.36-377.07h224.81V-24.73h-224.81Z" transform="translate(4090.05 401.26)"/><path class="cls-1" d="M-2248.42,367.05H-2281v68.5c-1.79-2.42-2.79-3.71-3.71-5.05q-20.73-30-41.5-59.94c-1-1.52-2.75-3.6-4.2-3.65-10.27-.31-20.55-.17-31.08-.17V497.67H-2329v-71.6c1.82,2.47,2.91,3.87,3.91,5.32q21.72,31.44,43.47,62.84c1,1.49,2.8,3.46,4.28,3.51,9.59.32,19.2.16,28.95.16Z" transform="translate(4090.05 401.26)"/><path class="cls-1" d="M-2168.14,368.21c-19.43-2.18-39.23-1-58.87-1.29-.25,0-.51.35-.92.65V497.92c6.38,0,12.2.18,18,0,14-.53,28.11,0,41.82-2.18,22.51-3.56,39.32-15.6,47.33-38,4-11.06,4.4-22.5,3.66-34C-2119.08,393.27-2137.9,371.61-2168.14,368.21Zm14.4,73c-2.57,16.14-10.65,24-26.75,26.16-3.59.49-7.25.44-11.37.67V397.26c22.1-3.65,37.66,8.61,38.73,30.55A66,66,0,0,1-2153.74,441.22Z" transform="translate(4090.05 401.26)"/><path class="cls-1" d="M-3522,414.57h-37.35V367.06h-35.37V497.6H-3559V445.39h37.28v52.33h35.33V367H-3522Z" transform="translate(4090.05 401.26)"/><path class="cls-1" d="M-2992,434.43c-.85-8.63-1.05-15.16-2.19-21.53-4.12-23.13-15.72-40.34-39.66-46.26a87.3,87.3,0,0,0-24.24-2.28c-27.12,1.07-45.18,14.95-52.29,39.92a100.31,100.31,0,0,0,.51,57.67c6,19.8,19.34,32.54,39.78,36.51a99.69,99.69,0,0,0,25.83,1.27c24.34-1.71,41.81-16.2,48-39.8C-2993.83,451-2993.13,441.61-2992,434.43Zm-40.16,20.89c-3.17,10.49-10.85,15.47-21.34,15.38s-17.67-4.95-21-15.23a74.17,74.17,0,0,1,0-46.57c3.41-10.47,10.7-15.11,21.56-15,10.4.09,17.22,5,20.89,15.31a35.47,35.47,0,0,1,1.93,7.2c.7,5.26,1.1,10.56,1.84,18C-3029.24,440.09-3029.91,447.94-3032.14,455.32Z" transform="translate(4090.05 401.26)"/><path class="cls-1" d="M-3189.7,467.86c0-1.77,0-3.93.89-5.25,3.49-5,7.38-9.71,11.44-14.93,1,2,1.78,3.44,2.49,4.92,6.62,13.8,13.17,27.62,19.9,41.36.77,1.56,2.48,3.74,3.79,3.77,12.26.29,24.53.17,37.59.17-1.21-2.56-2.07-4.47-3-6.35-11.63-23.57-23.21-47.15-35-70.65-1.39-2.79-1.26-4.62.67-7.06,7.53-9.54,14.83-19.26,22.2-28.92,4.39-5.76,8.77-11.54,13.83-18.21-12.23,0-23.33.12-34.42-.08a7.28,7.28,0,0,0-6.92,3.64c-9.75,14.3-19.71,28.46-29.6,42.67-1,1.39-2,2.77-2.95,4.16l-1.19-.48V367h-35.17v130.6h35.37C-3189.73,487.46-3189.77,477.66-3189.7,467.86Z" transform="translate(4090.05 401.26)"/><path class="cls-1" d="M-2690.64,436.17a174.58,174.58,0,0,0,20.06,8.79c7.78,2.91,15.88,4.93,23.64,7.88,5.78,2.19,7.65,5.65,6.92,10.72-.76,5.25-4.4,7.63-9.16,8.54a35.39,35.39,0,0,1-29.19-6.9c-3.16-2.4-6-5.25-9.21-8.11-7.9,6.47-15.82,13-25.28,20.74,3.3,2.67,6.19,4.88,8.93,7.25,17,14.71,37.2,16.6,58.31,14.4a56.17,56.17,0,0,0,24.29-8.47c21.56-13.52,24.38-50.78-1.24-64.32a203.61,203.61,0,0,0-22.37-9.71c-6.82-2.62-14-4.33-20.79-7-5.93-2.29-8.05-5.93-7.2-10.51.8-4.34,4.53-7,10.48-7.61,10.33-1,18.93,2.59,26.35,9.53,1.41,1.32,2.79,2.66,4.28,4.08l24-20c-1.13-1.35-2-2.54-3-3.61-9.87-10.36-22.14-15.54-36.22-17.09-14.89-1.63-29.18-.38-42.69,6.77C-2714.16,384.47-2716,422.82-2690.64,436.17Z" transform="translate(4090.05 401.26)"/><path class="cls-1" d="M-3852.56,426.75a206.43,206.43,0,0,0-22.36-9.74c-7-2.67-14.26-4.53-21.27-7.12-4.54-1.68-7.64-4.84-6.81-10.29.63-4.2,4.26-7,9.87-7.64,10.7-1.27,19.66,2.41,27.19,9.8,1.26,1.23,1.78,3.21,2.67,4.89l25.41-21.2c-9.13-11.09-20.29-17.53-33.78-19.79-18.56-3.1-36.73-2.64-52.66,8.95-20.31,14.78-19.62,46.51,1.42,60.08,6.76,4.36,14.54,7.28,22.11,10.22,7.73,3,15.87,4.95,23.64,7.88,5.76,2.17,7.78,5.73,7.07,10.65-.75,5.21-4.31,7.71-9.08,8.64a35.44,35.44,0,0,1-29.61-7.11c-3.11-2.4-5.91-5.19-8.93-7.88l-24,19.67c.8,1.13,1.14,1.7,1.57,2.19.76.89,1.54,1.75,2.35,2.59,17.23,17.69,38.9,20.33,61.9,18a55.6,55.6,0,0,0,25.14-9C-3829.92,476.86-3827.29,440.12-3852.56,426.75Z" transform="translate(4090.05 401.26)"/><path class="cls-1" d="M-3256,489.9c19.63-13.56,22.28-49.75-2.43-62.93a206.54,206.54,0,0,0-22.8-10c-7-2.69-14.3-4.44-21.26-7.15-5.59-2.17-7.48-5.64-6.62-10.35.95-5.18,4.94-6.84,9.44-7.45a30.46,30.46,0,0,1,23.88,6.57c2.58,2.06,5,4.36,7.75,6.81l24-19.93c-1.62-1.8-3-3.47-4.5-5-11.13-11.11-25.06-15.4-40.29-16.22-14.23-.78-28,1-40.17,9.2-22,14.89-21.66,47.92.87,61.87,6.58,4.07,14,6.84,21.31,9.62,7.13,2.72,14.63,4.48,21.83,7.06,6.87,2.45,9.42,6,8.86,11.06s-4.27,8.47-11.3,9.39a35,35,0,0,1-26-6.42c-3.6-2.63-6.81-5.79-10.45-8.93l-24,19.71c1.29,1.54,2.27,2.84,3.38,4,17.27,18.29,39.22,21.08,62.61,18.64A55.16,55.16,0,0,0-3256,489.9Z" transform="translate(4090.05 401.26)"/><path class="cls-1" d="M-2020.19,426.69a205.54,205.54,0,0,0-22.37-9.71c-6.82-2.61-14-4.42-20.81-6.92-4.49-1.64-7.89-4.57-7.24-10,.55-4.67,4.38-7.49,10.54-8.11,9.72-1,18,2.12,25.22,8.55,1.81,1.61,3.57,3.29,5.44,5l24-20c-1.3-1.48-2.34-2.75-3.46-3.93-10.54-11.14-23.91-15.91-38.83-17.09s-29.38.28-42.23,8.76c-22.45,14.81-22.29,47.94.5,62.14,6.42,4,13.7,6.76,20.83,9.46,7.61,2.89,15.59,4.78,23.23,7.59,6.24,2.29,8.32,5.65,7.79,10.71-.51,4.91-3.62,8-9.77,9.08-11.55,2-21.77-1.06-30.66-8.59-2.38-2-4.57-4.28-7-6.63l-24.19,19.84c1.32,1.56,2.32,2.86,3.43,4,17.25,18.33,39.27,21.44,62.56,18.41a67.1,67.1,0,0,0,23.77-8.23C-1997.15,478.36-1994.44,440.26-2020.19,426.69Z" transform="translate(4090.05 401.26)"/><path class="cls-1" d="M-3650.32,370c-.92-2.84-2.52-3.32-5.13-3.3-10.16.12-20.33.24-30.48-.05-3.86-.11-5.41,1.15-6.58,4.82-13,40.54-26.19,81-39.31,121.51-.48,1.5-.8,3.05-1.25,4.79h33.76c2.18-7.57,4.46-15,6.42-22.56.77-3,2.2-3.91,5.2-3.85,9.66.17,19.33.26,29,0,3.69-.12,4.88,1.42,5.66,4.58,1.55,6.3,3.29,12.56,5.26,18.73.43,1.33,2.18,3.15,3.35,3.18,11.65.23,23.3.14,35.07.14a8.37,8.37,0,0,0,0-1.72Q-3629.86,433.09-3650.32,370Zm-34.35,75.74c3.73-13.32,7.34-26.25,11-39.18l1.08-.16,11.07,39.34Z" transform="translate(4090.05 401.26)"/><path class="cls-1" d="M-2414.22,370.36c-1-3-2.44-3.75-5.36-3.71-10,.15-20,.31-30-.06-4.32-.15-6,1.41-7.22,5.37q-19.32,60.33-39,120.57c-.53,1.63-.89,3.31-1.38,5.17h33.77c2.19-7.63,4.42-15.1,6.46-22.63.7-2.61,1.77-3.82,4.76-3.76q15,.3,30,0c2.91-.05,4.12,1,4.8,3.7,1.7,6.6,3.49,13.19,5.56,19.68.42,1.3,2.23,3.06,3.43,3.08,11.62.23,23.25.14,35.21.14-.36-1.5-.55-2.63-.9-3.7Q-2394.15,432.29-2414.22,370.36Zm-34.49,75.33c3.7-13.25,7.34-26.25,11-39.26l1.06-.09c3.64,13,7.29,25.94,11,39.35Z" transform="translate(4090.05 401.26)"/><path class="cls-1" d="M-3351,493.75q-20-61.68-40-123.37c-1-2.93-2.4-3.77-5.33-3.73-10.16.15-20.32.24-30.48,0-3.85-.1-5.33,1.2-6.5,4.87-12.91,40.39-26,80.7-39.13,121-.53,1.65-1,3.32-1.63,5.24h33.92c2.24-7.68,4.33-15.37,6.82-22.93.46-1.41,2.47-3.27,3.8-3.3,11.31-.27,22.63-.15,34.31-.15,2.17,7.69,4.15,15.23,6.49,22.66.47,1.5,2.23,3.66,3.44,3.69,11.63.28,23.28.17,35.38.17C-3350.32,496.24-3350.56,495-3351,493.75Zm-74.49-48c3.72-13.31,7.35-26.27,11-39.23l1.19.17,10.91,39.06Z" transform="translate(4090.05 401.26)"/><path class="cls-1" d="M-3759.07,497.5V396.28h34V367.12h-104.06v29.39h34.32v101Z" transform="translate(4090.05 401.26)"/><path class="cls-1" d="M-2939.16,367h-35.22V497.62h84.31v-30h-49.09Z" transform="translate(4090.05 401.26)"/><path class="cls-1" d="M-2553.38,367.08h-35.53V497.53h84.42v-30h-48.89Z" transform="translate(4090.05 401.26)"/><path class="cls-1" d="M-4005.68,467.45h-49.14V367H-4090v130.6h84.37Z" transform="translate(4090.05 401.26)"/><path class="cls-1" d="M-2839.32,367h-35.18V497.52h35.18Z" transform="translate(4090.05 401.26)"/><path class="cls-1" d="M-2760.73,497.62h35.13V367h-35.13Z" transform="translate(4090.05 401.26)"/><path class="cls-1" d="M-3956,367h-35.16V497.51H-3956Z" transform="translate(4090.05 401.26)"/><path class="cls-1" d="M-2734.3,360.31a4.42,4.42,0,0,0,2.73-.94q15.8-14.42,31.5-28.94l-.63-1.13c-11.94,0-23.89.16-35.82-.09-3.46-.08-5,1.24-6.33,4.16-2.63,5.91-5.58,11.69-8.38,17.53-1.39,2.91-2.71,5.85-4.39,9.45C-2747.89,360.35-2741.09,360.39-2734.3,360.31Z" transform="translate(4090.05 401.26)"/><path class="cls-1" d="M-3402,360.21c1.26,0,2.62-1.3,3.68-2.26,6.07-5.47,12.06-11,18.06-16.55,4-3.67,7.93-7.36,13-12.06-14.43,0-27.34,0-40.26.07a3.14,3.14,0,0,0-2.28,1.52c-4.71,9.51-9.3,19.06-14.3,29.39C-3416.2,360.32-3409.1,360.43-3402,360.21Z" transform="translate(4090.05 401.26)"/><path class="cls-1" d="M-3029.76,347.12c5.76-6.68,12.86-12.19,20.32-19.1-14.23,0-27.11,0-40,.08a3.61,3.61,0,0,0-2.57,1.77c-4.71,9.46-9.29,19-14.11,28.94a44.3,44.3,0,0,1,4.92.24C-3048.37,361.22-3038.3,357-3029.76,347.12Z" transform="translate(4090.05 401.26)"/><path class="cls-1" d="M-3402.91,535.3h-10.39v5.79c0,22.49.09,45-.12,67.46-.08,9.69-2.7,18.58-11.44,24.22-19.28,12.42-43.62,1.1-46.32-21.5a72.6,72.6,0,0,1-.28-8.48q0-31,0-62V535.2h-10.68c0,3.29,0,6.25,0,9.21.2,23.31-.3,46.65.85,69.92.84,17,12.5,28.52,29.24,31.3a66.87,66.87,0,0,0,15.43.42c17.53-1.26,29.45-11.81,32.84-28.95a62.51,62.51,0,0,0,1.05-11.91c.1-21.66,0-43.31,0-65C-3402.7,538.6-3402.83,537-3402.91,535.3Z" transform="translate(4090.05 401.26)"/><path class="cls-1" d="M-2316.44,537.84c-.46-1.37-2.52-2.64-4.09-3.09-1.85-.53-4,0-6-.17-3.5-.39-5.22.82-6.4,4.39-11.14,33.62-22.5,67.16-33.78,100.73-.45,1.34-.72,2.74-1.09,4.15,9.7,1.37,9.69,1.37,12.58-7.31,2.51-7.57,5.19-15.1,7.5-22.73.84-2.78,2.19-3.6,5-3.57,12.15.12,24.31.14,36.47,0,2.84,0,4.12.91,5,3.57q4.29,13.55,9,27c.5,1.41,2,3.16,3.31,3.45,2.5.56,5.2.16,8.09.16a28.61,28.61,0,0,0-.61-3Q-2298.87,589.55-2316.44,537.84Zm-26.51,62.23c6.07-18.49,12-36.5,17.9-54.52l1.08,0,18.08,54.56Z" transform="translate(4090.05 401.26)"/><path class="cls-1" d="M-3547.67,535.13h-9.82V576c-2.82-2.07-4.65-3.51-6.56-4.81-18.39-12.54-40.88-5.44-48.46,15.53a54.08,54.08,0,0,0,0,37.67c7.92,21.81,31.77,28.46,50,14.15,1.48-1.16,2.95-2.35,4.72-3.76,1.52,10.53,2.36,11.1,11.89,9C-3549.14,607.61-3546.25,571.37-3547.67,535.13Zm-9.86,79.09c-.28,4,.59,9.16-1.53,11.84a28.56,28.56,0,0,1-19,10.89c-11.58,1.45-20.1-3.5-24.35-14.52a46.83,46.83,0,0,1-.36-33.18c4.66-13.19,16.1-18.73,29.1-13.66,5.12,2,9.63,5.71,14.16,9,1.18.86,1.86,3.07,1.93,4.69,0,1.37.09,2.74.11,4.11.06,4.12,0,8.24,0,12.35,0,2.12.08,4.25,0,6.36C-3557.46,612.81-3557.48,613.52-3557.53,614.22Z" transform="translate(4090.05 401.26)"/><path class="cls-1" d="M-3717.34,584.19c-.35-7.49-4.28-13.2-11.24-16.49-14.25-6.73-38.67-.26-48.05,12.87l6.58,5.51c7.54-7,15.74-12.06,26.24-12.19,12.8-.15,18.34,6.46,16.07,19.67-5.34,1.2-10.43,2.12-15.4,3.5a151.51,151.51,0,0,0-15.15,5c-6.72,2.66-12.93,6.21-17.13,12.41-9.06,13.37-1.87,29.57,14,31.32,3.75.42,7.89.59,11.37-.57,7.74-2.59,15.18-6.09,22.65-9.18,2.47,9.24,4,10.23,12,7.67-.47-8.13-1.11-16.07-1.33-24C-3717.06,607.83-3716.79,596-3717.34,584.19Zm-9.93,39.08a6.34,6.34,0,0,1-2.21,4.06c-7.62,6.41-16.37,9.94-26.46,9.85-4.93,0-9.41-1.18-11.62-6.07a13.3,13.3,0,0,1,1.85-14.51,23.07,23.07,0,0,1,5.49-5c9.85-6.27,21-8.68,33-11C-3727.17,608.71-3727,616-3727.27,623.27Z" transform="translate(4090.05 401.26)"/><path class="cls-1" d="M-3132.29,606.73c-1.15-6.88-1.59-12.87-3.23-18.51-4.11-14.18-14.39-22.57-27.4-23.15-13.88-.61-25.85,7-31.54,20.24-4.44,10.3-4.8,21-2.75,31.87,2.93,15.51,13.38,26.2,27.65,28.55s28.38-4.31,36.24-17.51l-7-4.93c-8.12,12-18.75,17.11-32.44,12.11-9.63-3.52-15.66-15.82-14.83-28.67Zm-33.83-33.06c12.7-.63,21.53,9,22,24.21h-42.66C-3187.53,586-3177.47,574.23-3166.12,573.67Z" transform="translate(4090.05 401.26)"/><path class="cls-1" d="M-2421,606.59c-.56-5.1-.76-9.42-1.56-13.62-3.08-16-13.38-26.41-27.29-27.81-14.44-1.46-27.87,6.76-33.35,21.09-5.22,13.62-5.11,27.51.94,40.83,5.59,12.31,15.63,18.76,29.26,18.9s24.11-5.85,31.47-17.8c-2.49-1.68-4.65-3.16-6.76-4.59-13.55,13.48-23.63,16.78-34.12,11.34-8.85-4.6-15.12-17.67-13.3-28.34Zm-32.35-33c12,0,20.47,9.67,20.87,24.15h-43C-2474.78,584.12-2465.07,573.64-2453.34,573.63Z" transform="translate(4090.05 401.26)"/><path class="cls-1" d="M-3826.07,606.61c-1.59-7.7-2.31-14.68-4.53-21.15-4-11.63-12.31-19-24.86-20.21s-22.81,3.75-29.95,14.34c-9.47,14.06-9.46,38.26.1,52.27,7.34,10.75,17.84,15.16,30.64,14,12-1.11,21.07-7,27.44-17.66l-7.13-4.88c-8.11,11.93-18.74,17.08-32.43,12.09-9.62-3.51-15.71-15.88-14.87-28.79Zm-33.33-33c12.28-.2,20.72,9.36,21.2,24.23H-3881C-3881.22,585.1-3871.1,573.82-3859.4,573.64Z" transform="translate(4090.05 401.26)"/><path class="cls-1" d="M-2532.47,565.88c-8.11,2.08-15.49,7-23.46,10.75V535.34h-9.93V644.15h10v-6.49c0-15.33,0-30.65.07-46,0-1.85.3-4.57,1.49-5.4,6.06-4.24,12-9.38,18.83-11.62,13.87-4.56,21.11,1.5,21.12,16q0,24,0,48V644h10c.09-1.3.21-2.27.21-3.24,0-17.49.14-35,0-52.47S-2515.56,561.56-2532.47,565.88Z" transform="translate(4090.05 401.26)"/><path class="cls-1" d="M-2754.68,565.09c-17.64-.72-30.88,9.31-35.2,26.91a55.53,55.53,0,0,0,.14,27.67c4.35,16.67,16.57,26.34,33.12,26.34,16.81,0,29.2-9.8,33.37-26.66,1.07-4.33,1.46-8.83,2.09-12.77-.5-4.37-.73-8.2-1.39-12C-2725.6,577.26-2738.17,565.77-2754.68,565.09Zm19.19,58.68c-3.72,8.48-10.49,13.05-20,13.39-9.87.35-17.4-3.75-21.38-12.61-2.68-5.94-3.76-12.6-5.41-18.42,1.5-6.46,2.18-12.16,4.16-17.37,3.49-9.17,10.3-14.5,20.47-14.83s17.72,4.33,21.91,13.53A42.93,42.93,0,0,1-2735.49,623.77Z" transform="translate(4090.05 401.26)"/><path class="cls-1" d="M-2850.5,572.56c-1.2,4.82-3.28,9.41-5,14.1l-16.35,44.78c-1-2.68-1.81-4.51-2.49-6.36-6.68-18.1-13.42-36.18-19.93-54.35-1.08-3-2.45-4.38-5.67-4a61.65,61.65,0,0,1-6.73,0c.85,2.36,1.38,3.91,2,5.44,8,21.15,15.61,42.48,24.33,63.35,3.5,8.35,1.83,15-2.16,22a14,14,0,0,1-12.66,7.53c-3.47.07-6.94,0-10.76,0l-2,7.37c17.33,5,29.22-.33,36.29-16,.88-2,1.67-4,2.44-6q9.78-25.65,19.52-51.3c4-10.55,7.95-21.12,12-32-1.85-.12-3.18-.1-4.46-.31C-2846.79,566-2849.31,567.77-2850.5,572.56Z" transform="translate(4090.05 401.26)"/><path class="cls-1" d="M-3648.94,565.8c-10.15-2.19-19.09.56-27.37,6.26-2.67,1.83-5.2,3.85-8.23,6.1-.19-4.14-.35-7.57-.51-11h-9.83v76.91h10.1v-5.6c0-15.66,0-31.31.07-47,0-1.84.36-4.51,1.57-5.37,5.75-4.11,11.41-9,17.92-11.25,14.27-5,21.84,1,21.87,16,0,16,0,32,0,48v5.28h9.75c0-21,.51-41.82-.25-62.56C-3634.15,573-3640.28,567.67-3648.94,565.8Z" transform="translate(4090.05 401.26)"/><path class="cls-1" d="M-3338.42,565.38c-9.2-1.41-17.46,1.24-25,6.44-2.8,1.93-5.48,4-9.1,6.74V567.05h-9.66v77h9.85v-5.79c0-15.65,0-31.31.06-47,0-1.7.28-3.9,1.34-5,5.39-5.54,11.51-10.14,19.23-12,14.05-3.35,20.87,2,20.91,16.21.05,16,0,32,0,48v5.6h9.91c0-20.58.56-40.87-.23-61.11C-3321.51,572.48-3328,567-3338.42,565.38Z" transform="translate(4090.05 401.26)"/><path class="cls-1" d="M-2105.7,606.5c-4.75-2.89-10.29-4.58-15.6-6.45s-10.88-3.07-16.19-5c-4.85-1.75-7.5-5.35-7.11-10.79.37-5.11,3.74-7.81,8.06-9.09,9.14-2.71,17.8-1.68,25.38,4.66,1.36,1.14,2.64,2.37,4.12,3.7l6.6-7c-11-12-31.93-15.14-44.87-7-6.41,4-9.92,9.73-9.64,17.46s4.08,13.34,11.24,16.22c4.91,2,10.13,3.2,15.16,4.88,5.19,1.73,10.5,3.24,15.43,5.54,4.67,2.17,6.41,6.49,6,11.64-.36,4.9-3.19,7.87-7.42,9.8a29.2,29.2,0,0,1-32.33-6.14,20.66,20.66,0,0,1-2.31-3.66l-8.34,6c10.48,16.94,42.11,20.3,55.44,6.17C-2093.55,628.34-2095.13,612.92-2105.7,606.5Z" transform="translate(4090.05 401.26)"/><path class="cls-1" d="M-3014.71,605.33a70.7,70.7,0,0,0-12-4.79c-5.69-1.86-11.58-3.11-17.19-5.14-5.86-2.12-8.21-5.71-8-10.77.2-4.67,3.34-8.24,9.26-9.75,8.89-2.28,17.18-1.07,24.38,5.06,1.33,1.13,2.63,2.3,4.05,3.55l6.53-6.87c-10.34-12.58-33.9-15.53-46.58-6-11.83,8.93-10.34,25.9,3,32.35,3.71,1.79,7.8,2.81,11.76,4.06,5.7,1.8,11.61,3.06,17.11,5.32,6.25,2.56,8.59,6.94,8.13,12.92-.39,5.21-3.91,9.1-10.32,10.71-12.73,3.2-23.78.58-32.33-10.35l-7.74,5.61c9.63,15,35.09,19.7,50.9,9.78C-3000,632.42-3000.46,613.14-3014.71,605.33Z" transform="translate(4090.05 401.26)"/><path class="cls-1" d="M-3916,583.15c1.51,2.1,2.83,4.34,4.35,6.69L-3903,585c-5.81-11.52-14.16-18.8-26.76-19.81-12.95-1-24.06,3.31-30.7,14.76-9.87,17-9.82,34.78.35,51.68,6.7,11.13,17.56,15.45,30.42,14.17s21-8.86,26.29-20.55l-7.89-4.36c-1.5,2.47-2.63,4.5-3.93,6.42-9.22,13.56-27.77,13.64-36.16-.43-8.2-13.76-8.2-28.5-.41-42.38S-3925.35,570.17-3916,583.15Z" transform="translate(4090.05 401.26)"/><path class="cls-1" d="M-3218.51,573c-1.88,7.39-4.76,14.52-7.23,21.76q-6,17.6-12.06,35.17l-1.22-.1-18.6-54.74c-3.16-9.3-3.16-9.3-13.63-7.82a19.43,19.43,0,0,0,.53,2.34c8.59,23.95,17.31,47.85,25.71,71.86,1.46,4.18,4.31,3.13,7.13,3.41,3.05.3,4.68-.58,5.8-3.78,7.43-21.18,15.14-42.27,22.74-63.38,1.23-3.42,2.41-6.85,3.72-10.58-1.55-.14-2.69-.16-3.81-.36C-3214.49,565.89-3217.17,567.67-3218.51,573Z" transform="translate(4090.05 401.26)"/><path class="cls-1" d="M-2917.76,636.16c-1.73,0-3,0-4.36,0-11.76.6-14.73-2.13-14.77-13.76,0-13,0-26,0-39v-7.91h18.46v-8.92h-18.46v-20c0-9,0-9-9.11-8.09-.29,0-.56.33-1.34.82v27.59h-13.4c.15,3.28.27,5.85.4,8.75h13.09c0,16.23,0,31.69,0,47.15a64.78,64.78,0,0,0,.73,9.43c1,6.41,4.79,10.84,11.08,12,5.72,1.07,11.65,1,18,1.43,0-2.66,0-4,0-5.27S-2917.66,637.58-2917.76,636.16Z" transform="translate(4090.05 401.26)"/><path class="cls-1" d="M-2188.46,623.48c0-9.83,0-19.66,0-29.5V575.46h18.55v-8.89h-18.68v-28h-10.25V566.9h-13.22v9h13.39v6c0,15.17-.11,30.34.06,45.5.12,9.77,4,15.46,12.16,17.08,5.41,1.07,11.09.82,17,1.19V636c-2.06.1-3.85.23-5.64.29C-2185.16,636.59-2188.43,633.49-2188.46,623.48Z" transform="translate(4090.05 401.26)"/><path class="cls-1" d="M-2600.46,623.21q-.06-21.5,0-43c0-1.43.19-2.87.32-4.76h18.3v-8.73h-18.63V538.6h-10.21v28.3h-13.47v8.79h13.47v6c0,15.5,0,31,.1,46.49.06,7.22,2.67,13.17,10,15.72a32.6,32.6,0,0,0,19,.81V636c-2,.11-3.66.21-5.3.27C-2597.24,636.63-2600.43,633.59-2600.46,623.21Z" transform="translate(4090.05 401.26)"/><path class="cls-1" d="M-2700.48,557.66c.2,2.91,0,5.84,0,9.34h-13.36v8.9h13.45v68.17h10.13V575.63h15.53v-9h-15.12c-1.55-19.23-.47-22.4,16.24-22.89v-8.18C-2689.51,533.12-2701.69,539.89-2700.48,557.66Z" transform="translate(4090.05 401.26)"/><path class="cls-1" d="M-3105.24,581.14V567h-9.83v77h9.91v-5.69c0-12.49,0-25,0-37.45a15.32,15.32,0,0,1,.8-5.84c5.1-11.77,13.77-18.91,26.87-20,1.27-.11,2.53-.3,3.81-.45.45-3.25.84-6.15,1.28-9.4C-3086.51,564.43-3096.6,570.64-3105.24,581.14Z" transform="translate(4090.05 401.26)"/><path class="cls-1" d="M-2254.55,581.23V567h-9.78v77.07h9.9v-5.19c0-12.82-.13-25.64.09-38.46a19.57,19.57,0,0,1,2.13-8.49c6.06-11.47,15.89-17,29.15-17.11.43-3.24.84-6.27,1.29-9.64C-2236,564.42-2246,570.74-2254.55,581.23Z" transform="translate(4090.05 401.26)"/><path class="cls-1" d="M-3807.32,644.1h9.52V535.26h-9.52Z" transform="translate(4090.05 401.26)"/><path class="cls-1" d="M-3995.26,644h9.59V535.11h-9.59Z" transform="translate(4090.05 401.26)"/><path class="cls-1" d="M-3297.13,644.14h9.48v-77h-9.48Z" transform="translate(4090.05 401.26)"/><path class="cls-1" d="M-2985.41,644.14h9.54V567.08h-9.54Z" transform="translate(4090.05 401.26)"/><path class="cls-1" d="M-3287.76,536.18h-9.47V548.1h9.47Z" transform="translate(4090.05 401.26)"/><path class="cls-1" d="M-2975.88,536.14h-9.57v12h9.57Z" transform="translate(4090.05 401.26)"/></svg>