<svg id="Layer_1" data-name="Layer 1" xmlns="http://www.w3.org/2000/svg" viewBox="0 0 1932.63 1626.6"><defs><style>.cls-1{fill:#fff;}</style></defs><title>LHI_white_SVG</title><path class="cls-1" d="M-677-768.82c0-16.31-4.83-19.63-20.23-19.48q-283.93.69-567.87.3-283,0-566.06-.3c-15.4,0-19.93,2.72-19.93,19.17q.91,567.87,0,1135.9c0,15.7,3.62,19.77,19.63,19.77q567-.68,1133.93,0c15.09,0,20.53-2.72,20.38-19.47Q-677.64-201-677-768.82Zm-351.56,819.5q-235-.68-470.06,0c-13.44,0-16.76-3.62-16.61-16.91.61-78.34.31-156.68.31-235s.3-156.69-.31-235c-.15-13.44,3.78-16.91,17.06-16.91q235,.68,470.06,0c13.13,0,15.39,4.23,15.39,16.15q-.45,235.94,0,472C-1012.75,47.81-1016.22,50.68-1028.59,50.68Z" transform="translate(2230.39 788.3)"/><path class="cls-1" d="M-525.49,671.72c-.15-38.29-.15-76.42,0-114.71,0-3.13-1.09-3.44-3.75-3.44-7.5.15-15.16.15-22.66,0-3.28-.16-4.06.78-4.06,4.06.15,18.29.15,36.73,0,55,0,1.25.47,2.66-.63,4.07-1.09-1.57-2-2.82-3-4.22-12.81-18.6-25.79-37.2-38.6-55.8-1.09-1.56-2-3.28-4.53-3.12-8.29.15-16.72.15-25,0-2.34,0-3.12.78-3.12,3.12V671.87c0,2.35.62,3.13,3.12,3.13,7.66-.16,15.47-.31,23.13,0,3.6.16,4.22-1.09,4.22-4.38-.15-20.31-.15-40.63-.15-62.51,1.4,2,2.18,3.13,3,4.22,13.6,19.69,27.35,39.54,40.95,59.39,1.56,2.19,3.13,3.28,5.94,3.28,7.19-.16,14.53-.16,21.72,0C-526.27,675.16-525.49,674.53-525.49,671.72Z" transform="translate(2230.39 788.3)"/><path class="cls-1" d="M-459.38,553.88c-14.53-.62-28.91-.16-43.45-.31-3.28,0-4.37.62-4.37,4.22.15,18.75.15,37.66.15,56.42v56.88c0,1.72-.93,4.07,2.66,4.07,15.94-.47,31.73.93,47.67-.94,15.94-2,30.16-7.66,40.47-20.63,10.32-12.66,12.66-27.66,12.19-43.45C-405.31,576.85-426.25,555.29-459.38,553.88ZM-438.59,625c-2.66,13.6-12,21.1-27.35,22.19-1.57.16-3.13-.15-4.69.16-3,.47-3.6-.94-3.6-3.6.16-9.84,0-19.69,0-29.53s.16-19.38,0-29.07c0-2.66.47-4.07,3.44-3.6,3.13.32,6.57,0,9.69.63,12.82,2.19,20.16,9.84,22.51,22.82A48.14,48.14,0,0,1-438.59,625Z" transform="translate(2230.39 788.3)"/><path class="cls-1" d="M-1674.33,553.57c-8.75.15-17.5.15-26.41,0-2.82,0-3.6.78-3.6,3.59.16,12.35,0,24.7.16,37,0,3.13-.63,4.22-3.91,4.22-8.91-.31-17.81-.15-26.88,0-3.12,0-3.91-.78-3.75-3.91.16-12.5,0-25,.16-37.5,0-2.66-.78-3.44-3.44-3.44-8.6.15-17.35.15-25.94,0-3.29-.16-4.07.78-4.07,4.06.16,18.76.16,37.67.16,56.42,0,18.91.15,38-.16,56.89,0,3.59.94,4.37,4.38,4.22,8.28-.32,16.72-.32,25,0,3.29.15,4.07-.94,4.07-4.07-.16-13.91,0-27.81-.16-41.57,0-2.5.63-3.44,3.28-3.28,9.22.16,18.44.16,27.82,0,2.81,0,3.6.78,3.6,3.59-.16,14.07,0,28.14-.16,42,0,2.5.47,3.43,3.28,3.43,8.91-.15,17.82-.15,26.88,0,2.82,0,3.28-.93,3.28-3.43V557.16C-1671,554.35-1671.67,553.57-1674.33,553.57Z" transform="translate(2230.39 788.3)"/><path class="cls-1" d="M-1214.39,613.74a111.8,111.8,0,0,0-1.4-17.19c-3.91-21.26-14.54-37-36.42-43a72.65,72.65,0,0,0-22.5-2.19c-25.16,1.25-42,13.91-48.76,37.2a93.67,93.67,0,0,0,.47,53.29c5.62,18.28,18,29.69,36.72,33.91,7.82,1.72,15.63,1.72,23.44,1.25,21.73-1.56,37.51-13.91,44.39-34.69C-1215.33,633.27-1214.54,623.9-1214.39,613.74Zm-33.6.78c0,7.81-.62,15.63-3.75,23.13-3.59,8.28-10,12.19-18.91,12.19-9.06.16-15.94-4.06-19.07-12.66a66.8,66.8,0,0,1,0-46.1c3-8.29,9.69-12.35,18.6-12.35,9.07,0,15.63,3.75,19.22,12.19C-1248.3,598.58-1247.83,606.55-1248,614.52Z" transform="translate(2230.39 788.3)"/><path class="cls-1" d="M-1399.9,675.16c3,0,3.13-1.25,3.13-3.6-.16-8.28,0-16.72,0-25,0-1.72-.16-3.28,1.09-4.85,3.44-4.22,6.72-8.59,10.47-13.28.94,1.72,1.57,3.12,2.19,4.53,6.1,12.82,12.35,25.79,18.44,38.76.94,2,1.88,3.44,4.69,3.44,10.94-.16,21.88-.16,33.6-.16-1.09-2.5-2-4.22-2.81-5.94-10.78-21.72-21.41-43.6-32.35-65.32-1.25-2.51-1.25-4.22.62-6.57,10-12.81,19.7-25.63,29.54-38.44,1.1-1.57,2.35-3.13,3.75-5.16-11.25,0-21.56.15-31.88,0a7,7,0,0,0-6.41,3.28c-9.06,13.28-18.44,26.57-27.66,39.85-.94,1.25-1.41,3-3.44,3.6V557c0-2.5-.62-3.44-3.28-3.44-8.75.15-17.5.15-26.41,0-2.5,0-3.44.47-3.44,3.28.16,38.45.16,76.74,0,115.18,0,2.35.63,3.13,3.13,3.13C-1417.87,675-1408.8,675-1399.9,675.16Z" transform="translate(2230.39 788.3)"/><path class="cls-1" d="M-933.7,618.89c8.28,4.54,17.19,7.51,26.1,10.16,5,1.57,10.16,2.66,14.69,5.16a8.46,8.46,0,0,1,4.69,8.28,8.46,8.46,0,0,1-5.63,7.66,25.06,25.06,0,0,1-12.66,1.41c-9.38-.94-16.88-5.32-23.13-12.19-2-2.19-3-2-5-.31-5.31,4.68-10.78,9.22-16.41,13.44-3.44,2.5-2.81,4.06-.31,6.72,12.66,13.28,28.6,18.12,45.16,17.81,15.63.16,27.2-3,36-8.91,19.22-13.28,20.47-42.19,2.66-56.1a66.85,66.85,0,0,0-19.7-10c-8.12-2.82-16.4-5.16-24.53-8.29-5.63-2.18-7.66-5.31-7-9.53s4.22-6.72,9.84-7.35c10.32-1.09,18.76,3,25.63,10.32,1.88,2,3.13,2.19,5.16.31,5.47-4.84,10.94-9.53,16.72-13.91,3.13-2.34,2.35-3.59.16-5.94-17.82-19.84-53.76-19.69-71.42-10.47-12.51,6.57-19.07,16.72-19.38,30.79C-952.14,602-945.89,612.17-933.7,618.89Z" transform="translate(2230.39 788.3)"/><path class="cls-1" d="M-1466.79,672.5c13.76-5.94,21.73-16.1,22.82-31.41,1.1-15.63-5.78-26.57-19.53-33.6-8.44-4.38-17.2-7.35-26.26-10-4.38-1.25-8.91-2.34-13-4.68-4.38-2.51-5.94-6.57-4.06-10.48,1.71-3.59,5-4.84,8.59-5.31,10.63-1.25,19.22,2.81,26.41,10.32,1.88,1.87,2.82,1.87,4.85.31,5.62-4.85,11.25-9.69,17-14.22,2.82-2,2.35-3.29.32-5.47-10.48-11.1-23.6-15.63-38.45-16.57-13.6-.78-26.88.78-38.29,9.06-19.22,13.6-19.07,42.67.16,55.95a72.47,72.47,0,0,0,15.62,7.82c8.91,3,17.82,5.62,26.73,8.91,5.63,2,7.66,5.47,7.19,10-.63,4.37-3.6,7.34-9.22,8.28-13,2.19-23.6-2.34-32.35-11.88-2-2.18-3.13-2-5.16-.31-5.47,4.69-10.94,9.38-16.88,13.75-3,2.19-2.66,3.44-.31,5.94,12.66,13.6,28.6,18.44,46.73,18.29C-1484.6,677.34-1475.54,676.25-1466.79,672.5Z" transform="translate(2230.39 788.3)"/><path class="cls-1" d="M-2010.18,609.05a98.09,98.09,0,0,0-15.48-7c-8.12-2.82-16.41-5.16-24.38-8.29-5.62-2-7.34-5.31-6.72-9.69.63-3.9,4.22-6.4,9.69-7,10.32-1.09,18.76,2.81,25.63,10.16,2.19,2.34,3.44,2,5.47.16,5.16-4.54,10.47-9.23,16.1-13.29,3.75-2.66,2.66-4.22.16-6.88-17.35-18.75-51.26-19.06-69.08-10.78-13.13,6.1-20.63,16.25-21.1,31-.62,14.84,6.25,25.31,19.22,32,8.91,4.69,18.45,7.66,28,10.32,4.22,1.25,8.59,2.34,12.5,4.69a8.69,8.69,0,0,1-.62,15.16,19.23,19.23,0,0,1-9.38,2c-10.94.15-20.16-4.22-27.35-12.35-2-2.34-3.28-2-5.47-.31-5.31,4.69-10.78,9.22-16.41,13.44-3.28,2.34-2.5,3.91-.16,6.41,12.66,13.44,28.45,18.13,45.48,18,13.13.16,24.69-1.88,35.32-8.6C-1989.24,656.09-1986.59,621.86-2010.18,609.05Z" transform="translate(2230.39 788.3)"/><path class="cls-1" d="M-315.13,608.74a102.31,102.31,0,0,0-15.16-6.88c-8.13-2.81-16.41-5.16-24.38-8.13-5.63-2-7.5-5.47-6.72-9.69.78-4.06,4.06-6.56,9.53-7,10.47-1.09,18.91,3,25.95,10.47,1.72,1.88,2.65,2.19,4.68.31,5.47-4.84,11.26-9.69,17-14.22,2.5-2,2.66-3.12.47-5.62-10.63-11.41-24.23-15.79-39.39-16.57-13-.62-25.47,1.25-36.72,8.44-19.54,12.5-20.32,45.48.62,57.36a93.49,93.49,0,0,0,17.51,8.12c7.81,2.66,15.78,4.85,23.6,7.82,5.78,2,7.65,5.31,7,10-.63,4.53-3.44,7.34-9.07,8.28-12.5,2.19-23.13-2-31.56-11.25-2.51-2.66-3.91-2.5-6.41-.31-5.16,4.53-10.47,9.06-16.1,13.12-3.13,2.19-2.5,3.6-.31,5.94,12.66,13.6,28.6,18.45,46.57,18.29,11.57.16,22.66-1.72,32.82-7.66C-293.56,657.5-290.44,621.86-315.13,608.74Z" transform="translate(2230.39 788.3)"/><path class="cls-1" d="M-1823.11,556.38c-.78-2.5-2.19-2.81-4.38-2.81q-14.29.23-28.6,0c-3.28,0-4.69.78-5.78,4.06-12,37.67-24.38,75.17-36.42,112.68-.46,1.41-1.4,2.82-.78,4.69,9.54,0,19.07-.16,28.6,0,2.5,0,2.66-1.41,3.13-3,1.72-5.94,3.44-11.72,5-17.82.62-2.65,1.72-4.06,4.84-3.9,9.07.31,18.13.15,27.35,0,3,0,4.07,1.09,4.69,3.59,1.57,6.1,3.28,12.19,5,18.29.47,1.4.63,2.81,2.82,2.81,10.94-.16,21.88,0,32.66,0a6.08,6.08,0,0,0,0-1.72Q-1804.19,614.92-1823.11,556.38ZM-1836.4,627c-5.94-.15-12,0-18.44,0,3.44-12.5,6.88-24.69,10.32-36.88a1.15,1.15,0,0,0,.78-.16c1.25,4.22,2.34,8.44,3.59,12.66,2,7,3.91,14.22,6.1,21.26C-1833.43,626.24-1833.74,627.18-1836.4,627Z" transform="translate(2230.39 788.3)"/><path class="cls-1" d="M-679.43,556.54c-.78-2.35-2-3-4.22-3q-14.54.23-29.07,0c-3.28-.16-4.37.94-5.31,4.06q-13.12,41-26.57,82c-3.75,11.72-7.5,23.29-11.56,35.48h29.53c2.35,0,2.35-1.41,2.82-2.82,1.72-6.25,3.59-12.34,5.31-18.59.63-2.19,1.56-3.29,4.06-3.13q14.07.24,28.14,0c2.34,0,3.59.63,4.06,3.13,1.56,6.25,3.44,12.5,5.16,18.59.47,2,1.4,3,3.75,3,10.62-.15,21.25,0,32,0-.16-.78-.16-1.4-.32-1.87C-654.27,634.21-666.93,595.45-679.43,556.54ZM-693.34,627c-5.78-.31-11.72,0-18,0,3.44-12.5,6.88-24.69,10.31-36.88,1.72.78,1.41,2.34,1.88,3.59,2.81,9.85,5.47,19.85,8.44,29.7C-689.9,626.24-689.9,627.18-693.34,627Z" transform="translate(2230.39 788.3)"/><path class="cls-1" d="M-1545.55,672.5c-12.51-38.6-25.16-77-37.67-115.65-.78-2.5-2-3.28-4.53-3.13q-14.3.24-28.6,0c-3.28-.15-4.69.94-5.78,4.22-8.13,25.32-16.41,50.64-24.54,75.8-4.37,13.75-8.91,27.35-13.28,41.42,10,0,19.53-.16,29.07,0,2.34,0,2.81-1.25,3.28-3,1.72-6.25,3.75-12.35,5.31-18.6.63-2.5,1.72-3.13,4.07-3.13q14.06.24,28.13,0c2.5,0,3.59.94,4.06,3.13,1.72,6.25,3.44,12.5,5.16,18.6.47,1.4.47,3,2.81,2.81,10.94-.16,21.88,0,33,0A9.18,9.18,0,0,0-1545.55,672.5ZM-1612.91,627c-2,0-1.72-1.09-1.41-2.34,3.28-11.41,6.41-23,9.69-34.39a2.07,2.07,0,0,0,.94-.15c3.44,12,6.72,24.22,10.31,36.88Z" transform="translate(2230.39 788.3)"/><path class="cls-1" d="M-1928,675.16c3.91.15,4.38-1.25,4.38-4.69-.16-28.45,0-56.73-.16-85.18,0-3.43.63-4.53,4.22-4.37,8,.31,16.1,0,24.07.15,2.81,0,3.75-.62,3.59-3.59-.15-6.56-.31-13.28,0-19.85.16-3.75-1.25-4.22-4.37-4.22-14.69.16-29.23,0-43.92,0-15,0-29.85.16-44.85,0-3,0-3.91.78-3.91,3.75.16,6.72.16,13.6,0,20.32,0,2.66.78,3.44,3.44,3.44,7.81-.16,15.78.15,23.6-.16,3.9-.15,5.15.63,5.15,4.85-.31,28.44,0,56.73-.15,85.17,0,3.13.62,4.22,4.06,4.06C-1944.7,674.84-1936.26,674.84-1928,675.16Z" transform="translate(2230.39 788.3)"/><path class="cls-1" d="M-1123,647c-12.35.15-24.69-.16-37,.15-3.75,0-4.85-.78-4.85-4.69.16-28.28,0-56.73.16-85,0-3-.62-3.91-3.75-3.91-8.44.15-16.88.15-25.47,0-3.29-.16-4.07.78-4.07,4.06.16,18.76,0,37.67,0,56.42v56.89c0,3.12.47,4.22,3.91,4.22q35.63-.24,71.26,0c2.66,0,3.76-.47,3.76-3.44-.16-6.88-.32-13.91,0-20.79C-1119,647.65-1120.15,647-1123,647Z" transform="translate(2230.39 788.3)"/><path class="cls-1" d="M-762.26,650.62c.16-2.81-.62-3.59-3.59-3.59-12.19.15-24.38-.16-36.57.15-4.38.16-5.63-.78-5.63-5.47.31-27.82,0-55.79.16-83.61,0-3.75-1.1-4.69-4.69-4.53-8.28.31-16.72.31-25,0-3.12-.16-3.75.94-3.75,3.91.16,18.91,0,38,0,56.88v56.42c0,3.13.31,4.53,4.07,4.38q35.38-.24,70.79,0c2.82,0,4.07-.47,3.91-3.6C-762.57,664.53-762.57,657.5-762.26,650.62Z" transform="translate(2230.39 788.3)"/><path class="cls-1" d="M-2230.08,614.21v56.88c0,2.19-.47,4.07,3.13,4.07,24.22-.16,48.45-.16,72.52,0,2.5,0,3.12-.78,3.12-3.13-.16-6.88-.16-13.91,0-20.78.16-3.13-.78-4.22-4.06-4.07-12.19.16-24.38-.15-36.57.16-4.22.15-5.32-1.1-5.32-5.32.16-27.81,0-55.79.16-83.61,0-3.9-1.09-4.84-4.85-4.69-8,.32-16.09.32-24.06,0-3.44-.15-4.38.79-4.38,4.22C-2230.08,576.7-2230.08,595.45-2230.08,614.21Z" transform="translate(2230.39 788.3)"/><path class="cls-1" d="M-1105.61,614.52v56.89c0,2.65.31,3.75,3.43,3.75,8.91-.16,17.82-.16,26.88,0,2.51,0,3.13-.78,3.13-3.13V556.85c0-2.66-.78-3.28-3.44-3.28-8.59.15-17.19.15-25.94,0-3.28-.16-4.06.94-4.06,4.06C-1105.46,576.7-1105.61,595.61-1105.61,614.52Z" transform="translate(2230.39 788.3)"/><path class="cls-1" d="M-970.9,553.57c-8.44.15-16.88.31-25.47,0-3.28-.16-4.06.94-3.91,4.06.16,18.76,0,37.51,0,56.42s.16,37.82-.15,56.89c0,3.59.93,4.37,4.37,4.22,8.44-.32,16.88-.16,25.48,0,2.81,0,3.59-.78,3.59-3.6-.16-38-.16-76.11,0-114.08C-967,554.19-968.08,553.57-970.9,553.57Z" transform="translate(2230.39 788.3)"/><path class="cls-1" d="M-2110,675.16c3.91.15,4.38-1.25,4.38-4.69-.16-18.6,0-37.35,0-56V557.16c0-2.81-.63-3.59-3.6-3.59-8.59.15-17.19.15-25.94,0-2.66,0-3.75.31-3.75,3.44.15,38.29.15,76.42,0,114.71,0,2.66.78,3.44,3.44,3.28C-2126.93,675-2118.49,674.84-2110,675.16Z" transform="translate(2230.39 788.3)"/><path class="cls-1" d="M-975.27,547.79a3.92,3.92,0,0,0,2.81-1.25c9.53-8.91,19.22-17.66,29.85-27.51h-36.73a2.51,2.51,0,0,0-2.65,1.41c-4.38,8.9-8.6,17.81-13.29,27.35Z" transform="translate(2230.39 788.3)"/><path class="cls-1" d="M-1602.13,547.94c7.19.94,12.51-1.72,17.35-6.72,7.19-7.34,15.16-14.22,23.6-22h-36.88a2.39,2.39,0,0,0-2.5,1.56c-4.38,8.91-8.6,17.82-13.13,27.19C-1609.47,547.79-1605.72,547.32-1602.13,547.94Z" transform="translate(2230.39 788.3)"/><path class="cls-1" d="M-1263.3,546.54a5,5,0,0,0,3.75-1.41c9.53-8.91,19.22-17.82,29.53-27.35-10,0-19.06.62-27.81-.16-8.29-.78-13,1.72-15.63,9.69-2.19,6.57-5.94,12.51-9.07,19.23Z" transform="translate(2230.39 788.3)"/><path class="cls-1" d="M-1535.39,710c-4.54.15-5.32,1.72-4.85,5.47.31,3.28-1.25,6.72,4.85,6.56,5.62,0,4.68-3.12,4.53-6.56C-1530.71,712.51-1530.08,709.85-1535.39,710Z" transform="translate(2230.39 788.3)"/><path class="cls-1" d="M-1246.89,710c-5,.15-5.47,2.19-4.69,6.25-.78,3.59-.63,5.94,4.69,5.94,5,0,4.84-2.35,4.68-5.78S-1241.11,709.85-1246.89,710Z" transform="translate(2230.39 788.3)"/><path class="cls-1" d="M-586.6,717.82c-3-8.75-3-8.75-12-8.75-3.12,0-4.22,1.09-5,3.91-4.85,15-10.16,30-15.16,45-5.47,16.25-10.94,32.66-16.41,48.91-.31,1.1-1.72,2.5-.16,3.6,2.66,1.87,8.91-.47,10-3.75,2.65-8,5.47-15.94,8-24.07.78-2.66,1.87-3.75,4.69-3.59q16.88.23,33.75,0c2.66,0,3.75.93,4.53,3.28,2.51,8.12,5.47,15.94,8,24.07,1.09,3.43,2.5,5,5.62,4.21,5.78,0,5.78,0,4.06-5C-566.9,776.27-576.75,747.05-586.6,717.82Zm4.54,52q-13.61-.24-27.2,0c-3.12,0-3.9-.47-2.81-3.91,5.31-15.63,10.32-31.42,15.47-47.2h.94c3.13,9.22,6.1,18.6,9.22,27.82,2.19,6.72,4.38,13.44,6.72,20C-578.94,769.24-579.41,770-582.06,769.87Z" transform="translate(2230.39 788.3)"/><path class="cls-1" d="M-1727.62,787.84c0-24.7-.16-49.39.15-73.92,0-4.07-1.4-4.54-4.84-4.69-3.91-.16-4.85,1.09-4.69,4.84.31,10.94.16,21.73.16,33.29-2.5-1.88-4.38-3.28-6.41-4.69-16.72-11.09-37.2-4.84-44.23,14.07a49.59,49.59,0,0,0,.16,36.1c4.84,13.13,16.56,20.32,30,19.07,7.82-.79,14.22-4.69,20.16-10.48,2.35,10.94.32,8.6,9.38,9.07,2,.15,2.81-.47,2.19-2.66C-1727.62,801.28-1727.62,794.56-1727.62,787.84Zm-13.44,8.59c-5.16,3.91-10.32,7.19-17,7.5-9.38.32-15.94-3.28-19.85-12a42.22,42.22,0,0,1-.15-34.54c4.69-10.62,14.84-14.53,26.1-10.47,5,1.72,9.22,4.85,13.12,8.44a5.38,5.38,0,0,1,1.72,4.53v15.32c0,4.37-.31,8.59.16,13C-1736.69,791.74-1738.09,794.25-1741.06,796.43Z" transform="translate(2230.39 788.3)"/><path class="cls-1" d="M-1884.38,787.53c-.15-10.94.63-21.88-.47-32.82-.93-9.07-6.4-14.85-15.47-16.73-13.75-2.65-25.94,1.1-36.41,10-1.1.93-4.69,1.87-1.88,4.21,1.88,1.57,3.29,6.26,7.5,2.35a32.07,32.07,0,0,1,22-9.22c10.78,0,15.63,5,15.16,15.63-.16,2-.62,2.81-2.81,3.28-8.91,1.56-17.82,3.59-26.1,7.19-6.1,2.65-11.88,5.78-15.79,11.56-8.28,12.19-1.87,26.88,12.51,28.92a34.89,34.89,0,0,0,10.62-.32c8-1.4,14.69-5.15,21-10.16,2.81,9.85,2.81,9.85,10.15,9.23,1.88-.16,2.35-.63,1.72-2.51C-1884.53,801.43-1884.22,794.4-1884.38,787.53Zm-18.59,12a37,37,0,0,1-17.66,4.37c-4.54,0-8.76-1.09-10.63-5.78A12.55,12.55,0,0,1-1929.7,785c2.81-3.9,6.88-6.09,11.1-8,6.87-3.12,14.22-4.84,21.56-6.56,2.19-.47,3.6-.31,3.29,2.5a79.81,79.81,0,0,0,0,8.75,16.6,16.6,0,0,0,0,2.82C-1892.19,792.53-1896.88,796.43-1903,799.56Z" transform="translate(2230.39 788.3)"/><path class="cls-1" d="M-1391.93,775.65c7.35.15,14.85,0,22.2,0h13c14.38,0,14.53-.32,11.09-14.54s-13.12-23.13-25.78-23.91c-13.91-.78-25.63,7.35-30.63,21.26-3.13,8.59-3.29,17.5-1.72,26.41,2.34,13.75,11.25,23.6,23.75,26.41a32.44,32.44,0,0,0,33.76-13c.62-.94,2.34-1.72.94-3.44-2.82-3.44-5.79-3.59-8.44-.31-6.25,7.66-14.38,10.63-23.91,8.75-8.91-1.88-13.6-8.6-16-16.88a66.33,66.33,0,0,1-1.4-7.66C-1395.68,776.12-1394.43,775.49-1391.93,775.65Zm-2.18-11.57c3.12-12.5,10.94-19.53,21.41-18.91,10,.47,19.22,11.25,18.44,21.1-.16,2.19-1.56,1.41-2.66,1.41-5.94.15-12,0-18,0-5.47,0-11.1-.16-16.57,0C-1394.58,768-1394.74,766.9-1394.11,764.08Z" transform="translate(2230.39 788.3)"/><path class="cls-1" d="M-713.34,737.2c-14.54-.78-26.41,8.13-30.95,23.29-2.18,6.87-2.18,13.91-1.56,21.1,1.41,14.53,10,25.94,22.19,29.38,12.82,3.75,26.57-.94,35.17-11.57,2-2.5,2.65-3.9-.63-6.25-3-2-4.22-1.41-6.09,1.1-5.94,8-14.07,10.94-23.6,9.22s-14.07-8.76-16.57-17.35c-.62-2-.78-4.22-1.25-6.25-.62-3,0-4.38,3.6-4.22,7.19.31,14.53.15,21.72.15h14.38c12.5,0,12.5,0,10.16-12.5C-689.74,747.83-700.06,737.83-713.34,737.2Zm17.5,28.91c-.15,2.5-1.72,1.57-3,1.72-5.62.16-11.41,0-17,0h-17.51c-1.25,0-2.65.47-2.5-1.87.16-11.25,11.26-21.41,22.35-20.63C-704.12,746-695.06,756.58-695.84,766.11Z" transform="translate(2230.39 788.3)"/><path class="cls-1" d="M-2034.41,775.65c7.35.15,14.85,0,22.19,0s14.85-.16,22.2,0c3,.15,3.75-.78,3.59-3.75a65.55,65.55,0,0,0-1.87-12.35c-4.07-13.91-13.45-22-26-22.5-13.44-.47-24.85,7.34-29.69,20.62a48.78,48.78,0,0,0-.94,31c3.44,12.5,11.25,20.94,24.38,23s24.38-2.34,32.35-13.44c.63-.94,2.35-1.72.78-3.44-3.28-3.59-5.47-3.59-8.44,0-6.09,7.51-14.22,10.48-23.44,8.6-8.91-1.72-13.6-8.28-16.25-16.57-.78-2.65-.94-5.47-1.57-8.12C-2037.85,776.27-2036.75,775.49-2034.41,775.65Zm-2.19-10c2.35-11.41,9.85-22.35,23.91-20.32,8.6,1.25,17.2,12.5,16.26,20.94-.31,2.19-1.72,1.41-2.66,1.41-5.78.15-11.72,0-17.5,0h-17.51C-2035.82,767.83-2037.07,767.83-2036.6,765.65Z" transform="translate(2230.39 788.3)"/><path class="cls-1" d="M-777.11,737.83c-8.59-1.88-16.41.15-23.75,4.84-3.13,2-5.94,4.22-9.22,6.72a15.76,15.76,0,0,1-.16-2.5c0-11.25-.31-22.5.16-33.76.16-4.22-2-3.75-4.69-3.75-2.81,0-5.16-.62-5,4.07.31,31.1.16,62.2,0,93.3,0,4.06,1.72,4.06,4.69,3.91,2.81,0,5.16.46,5-4.07-.31-15-.16-29.85-.16-44.85,0-1.56-.47-3.44.94-4.85,5.31-5.15,11.1-9.84,18.6-11.41,13-2.65,18.75,2.19,18.75,15.16v43.45c0,7,0,7,7.19,6.41,1.72-.16,2.35-.63,2.35-2.5-.16-18,.15-36.1-.32-54.08C-762.88,745.48-768.51,739.86-777.11,737.83Z" transform="translate(2230.39 788.3)"/><path class="cls-1" d="M-994.5,737.2c-16.25-.47-28.44,8.91-32.35,25.16a41.36,41.36,0,0,0-1.25,12.35,54.06,54.06,0,0,0,.94,11.1c3,15.47,14.69,25.94,29.54,26.25,16.41.47,28.29-8.44,32.51-24.38a54.25,54.25,0,0,0,.78-23C-967.15,748.45-979,737.67-994.5,737.2Zm17.82,54.7c-3.59,7.82-10,11.72-18.75,11.88s-15-3.6-19.23-11.1c-3.12-5.62-4.06-11.88-4.22-18,.16-5.63.78-10.94,3-15.94,3.6-8.13,9.54-13,18.76-13.44,9.53-.47,16.41,3.75,20.31,12.19A39.56,39.56,0,0,1-976.68,791.9Z" transform="translate(2230.39 788.3)"/><path class="cls-1" d="M-1083.11,744.7c-3.91,12.19-8.59,24.07-13,35.95-2,5.78-4.22,11.56-6.72,18.13-6.56-18.13-13-35.32-19.22-52.36-3-8.12-3-8.12-11.57-7.5a1.24,1.24,0,0,0-.78.31c-.31.94.31,1.72.62,2.66,8.29,21.88,16.57,43.6,24.85,65.48.63,1.57,1.57,3,.94,4.85-5,14.53-8,18.91-23,17.5-.31,0-.63-.15-.94-.15-4.38-.16-2.81,3.59-3.75,5.62-1.25,2.81,1.41,2,2.5,2.19,14.38,3.13,24.54-1.72,30.32-15.16,4.84-11.1,8.91-22.5,13.28-33.91,6.25-16.41,12.35-32.67,18.6-49.39a20.59,20.59,0,0,1-3.44-.31C-1079.2,737.83-1081.55,739.86-1083.11,744.7Z" transform="translate(2230.39 788.3)"/><path class="cls-1" d="M-1807,758.46c-.15-15.79-10.47-23.76-26.1-20.79-8.12,1.56-14.69,6.1-21.72,12.19,0-3-.31-5.16,0-7.19.78-4.84-2.66-3.59-5.16-3.91-3.12-.31-4.53.32-4.53,4.07q.24,31.88,0,63.76c0,4.06,1.88,4.06,4.69,3.91s5.16.47,5.16-4.06c-.31-15-.16-29.85-.16-44.86,0-1.87-.31-3.59,1.41-5.16,5-4.68,10.16-9.06,17-10.62,15.32-3.28,20.32,2.34,20,15-.32,15.32.15,30.48-.16,45.79-.16,4.22,2,3.91,4.69,3.91,2.5-.16,5,.94,5-3.6C-1807.17,790.81-1806.86,774.55-1807,758.46Z" transform="translate(2230.39 788.3)"/><path class="cls-1" d="M-1517.89,755.49c-.31-11.41-7.66-17.82-19.22-18.29a32.63,32.63,0,0,0-20.32,6.25c-2.66,1.88-5,3.75-8.13,6.25,0-2.81-.31-4.84,0-6.87.63-3.91-1.56-4.22-4.53-3.91-2.66.16-5.16-.94-5.16,3.91q.48,31.88,0,63.76c0,4.06,1.72,4.22,4.85,4.22,3,0,5,.16,4.84-4.22-.31-15-.15-29.85-.15-44.85,0-1.56-.47-3.28.93-4.69,5.32-5,10.94-9.53,18.29-11.25,13-3,19.22,1.87,19.22,15.16V804.4c0,6.88.31,7,7.19,6.41,1.88-.16,2.35-.78,2.35-2.5C-1517.73,790.49-1517.42,773-1517.89,755.49Z" transform="translate(2230.39 788.3)"/><path class="cls-1" d="M-395.77,774.08a59.69,59.69,0,0,0-12-4.53c-4.53-1.25-9.22-2.34-13.75-3.9-6.09-2.19-8.44-5.63-8.13-10.79.32-4.22,3.6-7.5,9.38-8.75,8.44-1.72,16.41-.47,22.66,5.94,2.35,2.34,3.6,2.19,5.32-.31a10.49,10.49,0,0,1,2.18-2.35c1.25-1.09,1.41-1.87,0-3.28-9.53-10.16-31.41-12-42.35-3.28a17.42,17.42,0,0,0,3,29.54c4.69,2.34,9.85,3.59,14.85,4.68,5,1.25,9.84,2.35,14.22,5.16A11.08,11.08,0,0,1-395,792.68c-.16,4.53-2.66,7.35-6.57,9.22-9.06,4.38-22.34,2.66-29.22-4.84-3.59-3.91-5.47-2.81-8.75-.31-2.35,1.71-2,2.65-.31,4.53,7,8,16.25,10.78,26.41,10.78a37.64,37.64,0,0,0,17.5-3.75c6.88-3.59,10.63-9.38,10.63-17.19S-388.9,777.68-395.77,774.08Z" transform="translate(2230.39 788.3)"/><path class="cls-1" d="M-1235,774.24a61.33,61.33,0,0,0-13-4.84c-4.84-1.41-9.84-2.35-14.53-4.38-4.38-1.88-7-5-6.72-10s3.59-7.5,7.81-8.6c8.13-2.34,15.94-1.4,22.66,3.91,4.69,3.75,4.69,3.75,8.91-.94,1.25-1.25,1.72-2,.16-3.59-9.54-9.85-30.64-11.88-41.58-3.75-11.25,8.28-9.68,24.06,2.82,30.16,4.53,2.19,9.22,3.28,14.06,4.53,5,1.25,10.16,2.35,14.69,5.16a10.7,10.7,0,0,1,5.32,10.47c-.31,4.53-2.82,7.35-6.72,9.22-9.22,4.38-22.35,2.66-29.07-4.84-3.6-4.07-5.63-2.5-8.75-.16-2,1.56-2,2.34-.47,4.22,7.19,8.13,16.41,11.1,26.88,11.1,6.25,0,12.35-.94,17.82-4.07,6.56-3.75,10-9.37,10-17C-1224.86,783.46-1228.3,777.84-1235,774.24Z" transform="translate(2230.39 788.3)"/><path class="cls-1" d="M-2066.76,793c-4.53,8-11.1,11.72-20.16,10.78-8.44-.94-13.6-6.1-16.72-13.44-3.6-8.44-3.91-17.35-1.72-26.26,2.19-9.53,7.34-16.72,17.66-18.44s17,3.44,21.72,12.19c2.5,4.69,4.38,0,6.57-.47,2-.47,3.43-1.56,1.71-4.22-5.93-10-14.37-15.94-26.41-15.78-12.34,0-21.56,5.62-27.35,16.56-3.43,6.57-4.53,13.6-4.69,22a40.93,40.93,0,0,0,5.63,21.57c6.25,10.16,15.32,15.31,27.35,14.69,11.72-.47,19.85-6.57,25.16-16.88.31-.78,1.57-1.41.31-2.81C-2061,789.09-2064.57,789.09-2066.76,793Z" transform="translate(2230.39 788.3)"/><path class="cls-1" d="M-1416,738.76c-4.22-.78-5.94,1.1-7,5-1.87,6.72-4.37,13.44-6.72,20.16-3.9,11.25-7.65,22.5-11.56,33.91-1.72-1.25-1.72-2.81-2-3.91-5.32-15.63-10.63-31.41-15.94-47-2.82-8.44-2.82-8.44-11.73-7.81a3,3,0,0,0-1.25.47c8.44,23.28,16.73,46.41,25.17,69.7,1.4,3.75,4.53,1.56,6.72,2,1.87.31,3.43.16,4.22-2.19,8.28-23.13,16.56-46.26,25-69.86A35.45,35.45,0,0,0-1416,738.76Z" transform="translate(2230.39 788.3)"/><path class="cls-1" d="M-457.35,803a29.33,29.33,0,0,0-3.75,0c-6.09-.32-9.06-3.13-9.22-9.22-.16-14.69,0-29.23-.16-43.92,0-2.19.63-3,2.82-2.81,4.06.15,8-.16,12,.15,3.91.16,2.66-2.5,2.66-4.37.15-1.88.62-4.07-2.66-3.91-3.91.16-7.66-.16-11.56.16-2.66.15-3.44-.78-3.29-3.44.16-6.57-.15-13.29.16-19.85.16-4.06-2.34-3.28-4.53-3.12-2,.15-5.32-1.41-5,3,.15,4.85,0,9.85,0,14.85,0,8.44,0,8.6-8.44,8.44-3.13,0-4.54.31-4.54,4.06.16,3.44.94,4.85,4.38,4.22,1.56-.15,3.13.16,4.69,0,3-.31,4.06.63,3.91,3.75-.16,7.51,0,15.16,0,22.67h.15c0,8-.31,16.09.16,24.06.31,7.19,4.06,11.57,10.78,13.29a34.07,34.07,0,0,0,13.76.62c.78-.15,2.18.16,2.34-.93.16-2.35.62-4.85-.16-6.88C-453.44,801.59-455.79,803.31-457.35,803Z" transform="translate(2230.39 788.3)"/><path class="cls-1" d="M-838.84,802.84c-8.59.94-12.5-2-12.5-8.91-.16-14.84,0-29.53-.16-44.38,0-2,.63-2.66,2.66-2.66,3.91.16,7.66-.16,11.57.16,3.75.31,3.43-1.88,3.43-4.22,0-2.5.16-4.53-3.43-4.22s-7-.16-10.63.15c-3,.16-3.6-.93-3.6-3.59.16-6.56-.15-13.28.16-19.85.16-3.75-2.34-3-4.22-2.81-2,.15-5.31-1.88-5.31,2.81.15,5,0,9.85,0,14.85,0,8.59,0,8.75-8.6,8.59-3,0-4.22.47-4.22,3.91,0,3.6.94,5,4.69,4.53,1.56-.15,3.13.16,4.69,0,2.81-.31,3.75.63,3.75,3.6-.16,7.5,0,15.16,0,22.66h.16c0,8-.32,16.1,0,24.07.31,7.5,4.37,12.19,11.56,13.59a40.73,40.73,0,0,0,12.35.63c2.19-.31,3-.78,3.12-3.28C-833.37,804.09-833.84,802.37-838.84,802.84Z" transform="translate(2230.39 788.3)"/><path class="cls-1" d="M-1150,803c-9.84.47-12.66-2.35-12.81-12.35V771.74c0-7,.15-14.22,0-21.25-.16-3,.78-3.76,3.59-3.6,3.75.16,7.35,0,11.1.16s2.5-2.66,2.65-4.53.79-4.07-2.65-3.91c-3.75.31-7.35-.16-11.1.15-2.81.16-3.75-.78-3.59-3.59.15-6.1-.16-12.35.15-18.44.32-4.06-1.56-4.53-4.84-4.38-3,.16-5.47-.31-5,4.22.47,3.75.15,7.66.15,11.57,0,3.44,1.1,7.5-.62,9.84-1.56,2.35-6.1.78-9.22.78-2.5,0-2.5,1.1-2.66,3-.47,4.07.78,6.1,5.16,5.32,1.25-.16,2.5.15,3.75,0,3.28-.47,3.75,1.09,3.75,3.9q-.24,16.18,0,32.36c0,5.31-.47,10.78.62,16.09,1.1,6.1,4.69,9.85,10.63,11.41a33.9,33.9,0,0,0,13.76.63c1.87-.32,2.5-.78,2.65-2.82C-1144.53,802.84-1144.37,802.84-1150,803Z" transform="translate(2230.39 788.3)"/><path class="cls-1" d="M-920.73,709.38C-934,706.73-943.86,715-944,728.45c0,3.28.94,7.35-.62,9.38-1.72,2.34-6.1.47-9.22.78-1.1.15-2.35-.47-3,1.4-1.41,4.54.31,6.88,4.84,6.88a37.13,37.13,0,0,0,4.22,0c3.13-.47,3.91.94,3.75,3.91-.15,9.38,0,18.75,0,28.13,0,9.22.32,18.44-.15,27.66-.32,4.85,2.5,3.6,5.15,3.91,3.13.31,4.54-.16,4.54-4.06-.32-16.1-.16-32.36-.16-48.45,0-3.44-1.09-8.13.63-10.32s6.72-.93,10.15-.62c3.91.31,3.91-1.57,4.07-4.53.15-3.44-1.25-3.91-4.22-3.91-11.41.15-11.41,0-10.63-11.57.31-5.78,3.13-8.59,8.91-9.22a24.5,24.5,0,0,1,4.69,0c2,.32,2.65-.78,2.19-2.34C-919.64,713.45-916.82,710.16-920.73,709.38Z" transform="translate(2230.39 788.3)"/><path class="cls-1" d="M-1294.4,737.36a4.47,4.47,0,0,0-1.41.31c-9.53,1.56-16.41,7-22.66,14.69,0-3.12-.31-6.41.15-9.53.47-3.91-1.4-4.22-4.53-4.07-2.66.16-5.16-.93-5.16,3.91q.48,32.12,0,64.23c0,4.22,2,3.91,4.69,3.76,2.5-.16,5,.78,4.85-3.6-.32-12.19,0-24.38-.16-36.41a17,17,0,0,1,2.35-8.76c5.31-9.37,13.12-14.84,24.06-15.31.94,0,2.5.47,2.82-.78.62-2.5,1.56-5.47.78-7.66C-1289.25,736.11-1292.37,737.36-1294.4,737.36Z" transform="translate(2230.39 788.3)"/><path class="cls-1" d="M-531.27,753.3c0-4.38-.31-7.66,0-11.1.47-4.06-2-3.75-4.53-3.44s-5.16-1.25-5.16,3.44q.47,32.35,0,64.7c0,4.38,2.19,3.76,4.84,3.76s5,.62,4.85-3.76c-.31-12.5-.16-25-.16-37.35a11.22,11.22,0,0,1,.78-5c4.22-9.22,10.94-15.31,21.1-17.66,2.35-.62,5.79,1.1,7.19-1.56,1.1-2.19.78-5,1.25-7.66C-512.2,736.11-521,740.48-531.27,753.3Z" transform="translate(2230.39 788.3)"/><path class="cls-1" d="M-1964.08,709.23c-3-.16-4.69,0-4.53,3.9.31,15.48.15,31.1.15,46.58s.16,31.41-.15,47c-.16,4.37,2.5,3.59,5,3.59s4.84.47,4.84-3.75q-.23-46.89,0-93.77C-1958.92,708.29-1961.58,709.54-1964.08,709.23Z" transform="translate(2230.39 788.3)"/><path class="cls-1" d="M-2137.4,709.23c-2.5.15-5.31-.94-5.16,3.75.32,15.47.16,30.79.16,46.26,0,15.94.16,31.72-.16,47.66-.15,4.54,2.5,3.6,5,3.6s5,.94,4.85-3.6q-.24-46.87,0-93.92C-2132.71,708.91-2134.59,709.23-2137.4,709.23Z" transform="translate(2230.39 788.3)"/><path class="cls-1" d="M-1487.1,774.71c0-10.78-.16-21.57.15-32.35,0-3.28-1.25-4.06-3.9-3.6-2.19.47-5.63-2-5.63,3.29q.24,32.58,0,65.17c0,4.69,2.81,3.12,5.16,3.28,2.65.31,4.53.31,4.53-3.6C-1487.26,796.28-1487.1,785.49-1487.1,774.71Z" transform="translate(2230.39 788.3)"/><path class="cls-1" d="M-1198.45,742.05c0-4.69-3-3.13-5.15-3.29-2.66-.31-4.54-.31-4.54,3.6.32,10.78.16,21.57.16,32.35s.16,21.57-.16,32.35c-.15,3.91,1.88,3.91,4.54,3.6,2.18-.32,5.31,1.4,5.15-3.29C-1198.6,785.49-1198.6,763.77-1198.45,742.05Z" transform="translate(2230.39 788.3)"/><path class="cls-1" d="M-1593.84,711.57c0-2.19-.94-2.66-2.19-2.66h0l-5.47.16h-.47c-1.1.16-1.56,1.09-1.56,3,.15,11.25,0,22.5,0,33.76h-.16c0,10.94.31,21.88-.16,32.82-.31,8.59-3,16.41-10.78,21.25-17.66,10.94-39.54.94-42.51-19.53a48.31,48.31,0,0,1-.31-8.29V715.17c0-6.26,0-6.1-6.41-6.1-2.5,0-3.44.47-3.44,3.28.16,21.57-.31,43.14.16,64.7.47,22.2,13.6,34.86,35.94,35.32,21.73.47,35.79-10.94,37-32.5C-1593.06,757.21-1593.69,734.39-1593.84,711.57Z" transform="translate(2230.39 788.3)"/></svg>