<svg id="Layer_1" data-name="Layer 1" xmlns="http://www.w3.org/2000/svg" viewBox="0 0 2530.86 346.27"><defs><style>.cls-1{fill:#fff;}</style></defs><title>Untitled-1</title><path class="cls-1" d="M-1063.63,565.46h306.08V259h-306.08Zm87.85-218.84h130.47v130.9H-975.78Z" transform="translate(1063.63 -220.01)"/><path class="cls-1" d="M1220.6,259.05H1188v68.5c-1.78-2.42-2.78-3.71-3.71-5.05q-20.73-30-41.49-59.94c-1.06-1.52-2.76-3.6-4.21-3.65-10.27-.31-20.55-.17-31.08-.17V389.67H1140v-71.6c1.82,2.47,2.9,3.87,3.91,5.32q21.71,31.44,43.46,62.84c1,1.49,2.8,3.46,4.28,3.51,9.59.32,19.2.16,28.95.16Z" transform="translate(1063.63 -220.01)"/><path class="cls-1" d="M1300.88,260.21c-19.42-2.18-39.23-1-58.86-1.29-.26,0-.51.35-.93.65V389.92c6.39,0,12.2.18,18,0,14-.53,28.11,0,41.82-2.18,22.52-3.56,39.32-15.6,47.33-38,4-11.06,4.41-22.5,3.67-34C1350,285.27,1331.12,263.61,1300.88,260.21Zm14.4,73c-2.56,16.14-10.65,24-26.75,26.16-3.59.49-7.25.44-11.36.67V289.26c22.1-3.65,37.66,8.61,38.72,30.55A65.3,65.3,0,0,1,1315.28,333.22Z" transform="translate(1063.63 -220.01)"/><path class="cls-1" d="M-53,306.57H-90.35V259.06h-35.37V389.6H-90V337.39h37.29v52.33H-17.4V259H-53Z" transform="translate(1063.63 -220.01)"/><path class="cls-1" d="M477,326.43c-.84-8.63-1.05-15.16-2.19-21.53-4.12-23.13-15.72-40.34-39.66-46.26A87.27,87.27,0,0,0,411,256.36c-27.12,1.07-45.19,14.95-52.29,39.92a100.23,100.23,0,0,0,.5,57.67c6.06,19.8,19.35,32.54,39.78,36.51a99.69,99.69,0,0,0,25.83,1.27c24.34-1.71,41.81-16.2,48.05-39.8C475.19,343,475.9,333.61,477,326.43Zm-40.16,20.89c-3.16,10.49-10.85,15.47-21.33,15.38s-17.68-4.95-21-15.23a74.1,74.1,0,0,1,0-46.57c3.41-10.47,10.69-15.11,21.56-15,10.39.09,17.21,5,20.89,15.31a35.44,35.44,0,0,1,1.92,7.2c.71,5.26,1.1,10.56,1.84,18C439.78,332.09,439.11,339.94,436.88,347.32Z" transform="translate(1063.63 -220.01)"/><path class="cls-1" d="M279.33,359.86c0-1.77,0-3.93.88-5.25,3.5-5,7.39-9.71,11.45-14.93,1,2,1.78,3.44,2.49,4.92,6.61,13.8,13.17,27.62,19.9,41.36.76,1.56,2.47,3.74,3.78,3.77,12.26.29,24.53.17,37.59.17-1.2-2.56-2.06-4.47-3-6.35-11.62-23.57-23.2-47.15-35-70.65-1.39-2.79-1.25-4.62.67-7.06,7.53-9.54,14.83-19.26,22.2-28.92,4.4-5.76,8.77-11.54,13.83-18.21-12.23,0-23.33.12-34.42-.08a7.29,7.29,0,0,0-6.92,3.64c-9.75,14.3-19.7,28.46-29.59,42.67-1,1.39-2,2.77-2.95,4.16l-1.2-.48V259H243.93v130.6h35.36C279.29,379.46,279.25,369.66,279.33,359.86Z" transform="translate(1063.63 -220.01)"/><path class="cls-1" d="M778.38,328.17A175.35,175.35,0,0,0,798.44,337c7.78,2.91,15.89,4.93,23.65,7.88,5.78,2.19,7.65,5.65,6.91,10.72-.75,5.25-4.4,7.63-9.15,8.54a35.39,35.39,0,0,1-29.19-6.9c-3.17-2.4-6-5.25-9.22-8.11l-25.27,20.74c3.3,2.67,6.18,4.88,8.92,7.25,17,14.71,37.2,16.6,58.32,14.4A56.17,56.17,0,0,0,847.7,383c21.55-13.52,24.37-50.78-1.24-64.32A203.76,203.76,0,0,0,824.08,309c-6.81-2.62-14-4.33-20.79-7-5.93-2.29-8-5.93-7.2-10.51.81-4.34,4.54-7,10.48-7.61,10.33-1,18.94,2.59,26.36,9.53,1.4,1.32,2.78,2.66,4.27,4.08l24-20c-1.14-1.35-2-2.54-3.05-3.61-9.86-10.36-22.14-15.54-36.22-17.09-14.88-1.63-29.18-.38-42.69,6.77C754.86,276.47,753.06,314.82,778.38,328.17Z" transform="translate(1063.63 -220.01)"/><path class="cls-1" d="M-383.54,318.75A205.58,205.58,0,0,0-405.9,309c-7-2.67-14.26-4.53-21.27-7.12-4.54-1.68-7.64-4.84-6.81-10.29.64-4.2,4.26-7,9.87-7.64,10.7-1.27,19.67,2.41,27.2,9.8,1.25,1.23,1.78,3.21,2.66,4.89l25.42-21.2c-9.14-11.09-20.3-17.53-33.78-19.79-18.56-3.1-36.74-2.64-52.67,8.95-20.31,14.78-19.62,46.51,1.42,60.08,6.76,4.36,14.55,7.28,22.11,10.22,7.73,3,15.87,4.95,23.64,7.88,5.76,2.17,7.78,5.73,7.08,10.65-.76,5.21-4.31,7.71-9.09,8.64A35.45,35.45,0,0,1-439.73,357c-3.1-2.4-5.9-5.19-8.93-7.88l-24,19.67c.8,1.13,1.15,1.7,1.57,2.19.76.89,1.54,1.75,2.36,2.59,17.23,17.69,38.89,20.33,61.89,18a55.52,55.52,0,0,0,25.14-9C-360.89,368.86-358.27,332.12-383.54,318.75Z" transform="translate(1063.63 -220.01)"/><path class="cls-1" d="M213,381.9c19.63-13.56,22.28-49.75-2.42-62.93a208.21,208.21,0,0,0-22.8-10c-7-2.69-14.3-4.44-21.26-7.15-5.59-2.17-7.48-5.64-6.62-10.35,1-5.18,4.93-6.84,9.43-7.45a30.45,30.45,0,0,1,23.88,6.57c2.58,2.06,5,4.36,7.75,6.81l24-19.93c-1.62-1.8-3-3.47-4.5-5-11.13-11.11-25.06-15.4-40.29-16.22-14.23-.78-28,1-40.17,9.2-22,14.89-21.66,47.92.87,61.87,6.58,4.07,14,6.84,21.31,9.62S176.81,341.44,184,344c6.88,2.45,9.43,6,8.86,11.06s-4.27,8.47-11.3,9.39a34.94,34.94,0,0,1-26-6.42c-3.61-2.63-6.82-5.79-10.45-8.93-7.85,6.45-15.8,13-24,19.71,1.29,1.54,2.27,2.84,3.39,4,17.26,18.29,39.21,21.08,62.6,18.64A55.12,55.12,0,0,0,213,381.9Z" transform="translate(1063.63 -220.01)"/><path class="cls-1" d="M1448.84,318.69a206.55,206.55,0,0,0-22.38-9.71c-6.82-2.61-13.94-4.42-20.81-6.92-4.48-1.64-7.89-4.57-7.24-10,.56-4.67,4.39-7.49,10.54-8.11,9.72-1,18,2.12,25.23,8.55,1.81,1.61,3.56,3.29,5.44,5l24-20c-1.3-1.48-2.34-2.75-3.46-3.93-10.54-11.14-23.91-15.91-38.82-17.09s-29.39.28-42.24,8.76c-22.45,14.81-22.28,47.94.5,62.14,6.43,4,13.71,6.76,20.83,9.46,7.61,2.89,15.59,4.78,23.23,7.59,6.24,2.29,8.33,5.65,7.8,10.71-.52,4.91-3.62,8-9.78,9.08-11.54,2-21.76-1.06-30.65-8.59-2.39-2-4.57-4.28-7.06-6.63-8.09,6.64-16,13.15-24.19,19.84,1.32,1.56,2.32,2.86,3.44,4,17.24,18.33,39.26,21.44,62.56,18.41a67.17,67.17,0,0,0,23.77-8.23C1471.88,370.36,1474.58,332.26,1448.84,318.69Z" transform="translate(1063.63 -220.01)"/><path class="cls-1" d="M-181.29,262c-.92-2.84-2.53-3.32-5.14-3.3-10.16.12-20.33.24-30.48-.05-3.85-.11-5.4,1.15-6.58,4.82Q-243,324.24-262.8,384.94c-.48,1.5-.8,3.05-1.25,4.79h33.76c2.18-7.57,4.46-15,6.43-22.56.77-3,2.19-3.91,5.2-3.85,9.66.17,19.33.26,29,0,3.69-.12,4.88,1.42,5.66,4.58,1.56,6.3,3.29,12.56,5.27,18.73.42,1.33,2.17,3.15,3.34,3.18,11.65.23,23.31.14,35.08.14a9.25,9.25,0,0,0,0-1.72Q-160.83,325.09-181.29,262Zm-34.35,75.74c3.72-13.32,7.33-26.25,10.95-39.18l1.08-.16,11.07,39.34Z" transform="translate(1063.63 -220.01)"/><path class="cls-1" d="M1054.8,262.36c-1-3-2.44-3.75-5.35-3.71-10,.15-20,.31-30-.06-4.33-.15-6,1.41-7.23,5.37-12.87,40.22-26,80.38-39,120.57-.53,1.63-.9,3.31-1.39,5.17h33.77c2.2-7.63,4.43-15.1,6.46-22.63.71-2.61,1.78-3.82,4.76-3.76q15,.3,30,0c2.92-.05,4.12,1,4.81,3.7,1.7,6.6,3.48,13.19,5.56,19.68.41,1.3,2.22,3.06,3.42,3.08,11.63.23,23.26.14,35.21.14-.36-1.5-.55-2.63-.9-3.7Q1074.87,324.29,1054.8,262.36Zm-34.49,75.33c3.7-13.25,7.34-26.25,11-39.26l1-.09c3.65,13,7.29,25.94,11.05,39.35Z" transform="translate(1063.63 -220.01)"/><path class="cls-1" d="M118.06,385.75Q98,324.07,78,262.38c-.94-2.93-2.39-3.77-5.32-3.73-10.16.15-20.33.24-30.48,0-3.85-.1-5.34,1.2-6.51,4.87-12.91,40.39-26,80.7-39.12,121-.54,1.65-1,3.32-1.63,5.24H28.88c2.24-7.68,4.34-15.37,6.82-22.93.47-1.41,2.47-3.27,3.81-3.3,11.31-.27,22.62-.15,34.31-.15C76,371.08,78,378.62,80.3,386.05c.47,1.5,2.23,3.66,3.44,3.69,11.64.28,23.29.17,35.39.17C118.7,388.24,118.46,387,118.06,385.75Zm-74.49-48c3.72-13.31,7.35-26.27,11-39.23l1.2.17c3.6,12.89,7.2,25.78,10.9,39.06Z" transform="translate(1063.63 -220.01)"/><path class="cls-1" d="M-290,389.5V288.28h33.94V259.12H-360.16v29.39h34.32v101Z" transform="translate(1063.63 -220.01)"/><path class="cls-1" d="M529.86,259H494.64V389.62H579v-30H529.86Z" transform="translate(1063.63 -220.01)"/><path class="cls-1" d="M915.65,259.08H880.12V389.53h84.42v-30H915.65Z" transform="translate(1063.63 -220.01)"/><path class="cls-1" d="M-536.66,359.45h-49.13V259H-621v130.6h84.37Z" transform="translate(1063.63 -220.01)"/><path class="cls-1" d="M629.7,259H594.52V389.52H629.7Z" transform="translate(1063.63 -220.01)"/><path class="cls-1" d="M708.3,389.62h35.13V259H708.3Z" transform="translate(1063.63 -220.01)"/><path class="cls-1" d="M-487,259h-35.16V389.51H-487Z" transform="translate(1063.63 -220.01)"/><path class="cls-1" d="M-28.52,427.3h-10.4v5.79c0,22.49.1,45-.11,67.46-.09,9.69-2.71,18.58-11.45,24.22-19.27,12.42-43.62,1.1-46.32-21.5a72.6,72.6,0,0,1-.27-8.48q0-31,0-62V427.2h-10.69c0,3.29,0,6.25,0,9.21.2,23.31-.3,46.65.84,69.92.84,17,12.51,28.52,29.25,31.3a66.78,66.78,0,0,0,15.42.42c17.54-1.26,29.45-11.81,32.85-28.95a63.33,63.33,0,0,0,1-11.91c.1-21.66.05-43.31,0-65C-28.31,430.6-28.45,429-28.52,427.3Z" transform="translate(1063.63 -220.01)"/><path class="cls-1" d="M1058,429.84c-.47-1.37-2.53-2.64-4.1-3.09-1.84-.53-4,.05-5.95-.17-3.51-.39-5.23.82-6.41,4.39-11.13,33.62-22.5,67.16-33.78,100.73-.45,1.34-.72,2.74-1.08,4.15,9.69,1.37,9.69,1.37,12.57-7.31,2.52-7.57,5.2-15.1,7.5-22.73.84-2.78,2.19-3.6,5-3.57,12.16.12,24.32.14,36.48,0,2.83,0,4.11.91,4.95,3.57q4.31,13.55,9.05,26.95c.5,1.41,2,3.16,3.31,3.45,2.5.56,5.2.16,8.08.16a28.61,28.61,0,0,0-.61-3Q1075.52,481.55,1058,429.84Zm-26.51,62.23,17.89-54.52,1.09,0,18.08,54.56Z" transform="translate(1063.63 -220.01)"/><path class="cls-1" d="M-173.28,427.13h-9.83V468c-2.82-2.07-4.64-3.51-6.55-4.81-18.39-12.54-40.89-5.44-48.46,15.53a54.13,54.13,0,0,0,0,37.67c7.93,21.81,31.77,28.46,50,14.15,1.48-1.16,3-2.35,4.72-3.76,1.51,10.53,2.36,11.1,11.89,9C-174.76,499.61-171.87,463.37-173.28,427.13Zm-9.78,77c0,.71,0,1.42-.08,2.12-.28,4,.59,9.16-1.53,11.84a28.58,28.58,0,0,1-19,10.89c-11.57,1.45-20.1-3.5-24.34-14.52a46.77,46.77,0,0,1-.36-33.18c4.66-13.19,16.09-18.73,29.09-13.66,5.13,2,9.64,5.71,14.16,9,1.19.86,1.86,3.07,1.93,4.69q.09,2.06.12,4.11c.05,4.12,0,8.24,0,12.35C-183.11,499.86-183,502-183.06,504.1Z" transform="translate(1063.63 -220.01)"/><path class="cls-1" d="M-343,476.19c-.35-7.49-4.28-13.2-11.23-16.49-14.25-6.73-38.67-.26-48.06,12.87l6.58,5.51c7.55-7,15.74-12.06,26.24-12.19,12.8-.15,18.35,6.46,16.08,19.67-5.35,1.2-10.44,2.12-15.4,3.5a151.51,151.51,0,0,0-15.15,5c-6.72,2.66-12.94,6.21-17.14,12.41-9,13.37-1.86,29.57,14,31.32,3.75.42,7.9.59,11.38-.57,7.74-2.59,15.18-6.09,22.65-9.18,2.46,9.24,4,10.23,11.94,7.67-.46-8.13-1.1-16.07-1.32-24C-342.67,499.83-342.41,488-343,476.19Zm-9.92,39.08a6.34,6.34,0,0,1-2.21,4.06c-7.62,6.41-16.38,9.94-26.46,9.85-4.94,0-9.42-1.18-11.62-6.07a13.3,13.3,0,0,1,1.84-14.51,23.12,23.12,0,0,1,5.5-5c9.85-6.27,21-8.68,33.05-11C-352.78,500.71-352.66,508-352.88,515.27Z" transform="translate(1063.63 -220.01)"/><path class="cls-1" d="M242.1,498.73c-1.16-6.88-1.59-12.87-3.23-18.51-4.12-14.18-14.39-22.57-27.4-23.15-13.88-.61-25.85,7-31.54,20.24-4.44,10.3-4.81,21-2.76,31.87,2.93,15.51,13.39,26.2,27.65,28.55s28.38-4.31,36.25-17.51l-7-4.93c-8.12,12-18.75,17.11-32.44,12.11-9.63-3.52-15.66-15.82-14.83-28.67Zm-33.83-33.06c12.69-.63,21.52,9,22,24.21H187.57C186.86,478,196.92,466.23,208.27,465.67Z" transform="translate(1063.63 -220.01)"/><path class="cls-1" d="M953.4,498.59c-.57-5.1-.76-9.42-1.57-13.62-3.07-16-13.38-26.41-27.28-27.81-14.44-1.46-27.88,6.76-33.36,21.09-5.21,13.62-5.1,27.51.95,40.83,5.59,12.31,15.62,18.76,29.26,18.9s24.1-5.85,31.47-17.8c-2.49-1.68-4.66-3.16-6.76-4.59-13.55,13.48-23.64,16.78-34.12,11.34-8.85-4.6-15.13-17.67-13.3-28.34Zm-32.36-33c12,0,20.48,9.67,20.88,24.15H899C899.6,476.12,909.32,465.64,921,465.63Z" transform="translate(1063.63 -220.01)"/><path class="cls-1" d="M-451.68,498.61c-1.59-7.7-2.31-14.68-4.53-21.15-4-11.63-12.31-19-24.86-20.21s-22.82,3.75-30,14.34c-9.47,14.06-9.46,38.26.11,52.27,7.34,10.75,17.84,15.16,30.64,14,12-1.11,21.07-7,27.43-17.66l-7.13-4.88c-8.1,11.93-18.74,17.08-32.42,12.09-9.62-3.51-15.71-15.88-14.87-28.79Zm-33.33-33c12.27-.2,20.72,9.36,21.2,24.23H-506.6C-506.83,477.1-496.72,465.82-485,465.64Z" transform="translate(1063.63 -220.01)"/><path class="cls-1" d="M841.92,457.88c-8.11,2.08-15.5,7-23.47,10.75V427.34h-9.92V536.15h10v-6.49c0-15.33,0-30.65.06-46,0-1.85.3-4.57,1.5-5.4,6.06-4.24,12-9.38,18.83-11.62,13.87-4.56,21.11,1.5,21.12,16q0,24,0,48V536h10c.09-1.3.21-2.27.21-3.24,0-17.49.13-35,0-52.47S858.83,453.56,841.92,457.88Z" transform="translate(1063.63 -220.01)"/><path class="cls-1" d="M619.7,457.09c-17.63-.72-30.87,9.31-35.2,26.91a55.64,55.64,0,0,0,.14,27.67C589,528.34,601.22,538,617.77,538c16.81,0,29.2-9.8,33.37-26.66,1.07-4.33,1.46-8.83,2.09-12.77-.5-4.37-.73-8.2-1.39-12C648.79,469.26,636.22,457.77,619.7,457.09Zm19.2,58.68c-3.72,8.48-10.49,13.05-20,13.39-9.86.35-17.39-3.75-21.38-12.61-2.67-5.94-3.75-12.6-5.4-18.42,1.49-6.46,2.18-12.16,4.15-17.37,3.49-9.17,10.3-14.5,20.47-14.83s17.73,4.33,21.92,13.53A42.93,42.93,0,0,1,638.9,515.77Z" transform="translate(1063.63 -220.01)"/><path class="cls-1" d="M523.89,464.56c-1.21,4.82-3.29,9.41-5,14.1-5.34,14.66-10.69,29.31-16.34,44.78-1.05-2.68-1.81-4.51-2.5-6.36-6.67-18.1-13.42-36.18-19.93-54.35-1.07-3-2.45-4.38-5.67-4a61.43,61.43,0,0,1-6.72,0c.85,2.36,1.38,3.91,2,5.44,8,21.15,15.62,42.48,24.34,63.35,3.49,8.35,1.83,15-2.16,22a14,14,0,0,1-12.67,7.53c-3.46.07-6.93,0-10.75,0l-2,7.37c17.33,5,29.22-.33,36.28-16,.89-2,1.68-4,2.45-6q9.78-25.65,19.52-51.3c4-10.55,7.94-21.12,12-32-1.86-.12-3.18-.1-4.46-.31C527.59,458,525.08,459.77,523.89,464.56Z" transform="translate(1063.63 -220.01)"/><path class="cls-1" d="M-274.55,457.8c-10.15-2.19-19.09.56-27.38,6.26-2.66,1.83-5.2,3.85-8.22,6.1-.2-4.14-.35-7.57-.51-11h-9.83v76.91h10.09v-5.6c0-15.66-.05-31.31.07-47,0-1.84.37-4.51,1.57-5.37,5.76-4.11,11.42-9,17.93-11.25,14.26-5,21.83,1,21.87,16,0,16,0,32,0,48v5.28h9.74c0-21,.52-41.82-.24-62.56C-259.77,465-265.89,459.67-274.55,457.8Z" transform="translate(1063.63 -220.01)"/><path class="cls-1" d="M36,457.38c-9.2-1.41-17.47,1.24-25,6.44-2.8,1.93-5.47,4.05-9.09,6.74V459.05H-7.79v77H2.06v-5.79c0-15.65,0-31.31.06-47,0-1.7.29-3.9,1.35-5,5.39-5.54,11.51-10.14,19.22-12,14.06-3.35,20.88,2,20.92,16.21,0,16,0,32,0,48v5.6h9.9c0-20.58.57-40.87-.23-61.11C52.88,464.48,46.37,459,36,457.38Z" transform="translate(1063.63 -220.01)"/><path class="cls-1" d="M1268.69,498.5c-4.76-2.89-10.29-4.58-15.6-6.45s-10.89-3.07-16.19-5c-4.85-1.75-7.5-5.35-7.11-10.79.37-5.11,3.74-7.81,8.06-9.09,9.14-2.71,17.8-1.68,25.37,4.66,1.36,1.14,2.65,2.37,4.13,3.7l6.59-7.05c-11-12-31.92-15.14-44.87-7-6.4,4-9.91,9.73-9.64,17.46s4.09,13.34,11.25,16.22c4.91,2,10.12,3.2,15.16,4.88s10.49,3.24,15.42,5.54c4.67,2.17,6.42,6.49,6,11.64-.35,4.9-3.18,7.87-7.41,9.8a29.21,29.21,0,0,1-32.34-6.14,21.2,21.2,0,0,1-2.3-3.66l-8.34,6c10.47,16.94,42.11,20.3,55.43,6.17C1280.83,520.34,1279.26,504.92,1268.69,498.5Z" transform="translate(1063.63 -220.01)"/><path class="cls-1" d="M359.67,497.33a70,70,0,0,0-12-4.79c-5.68-1.86-11.57-3.11-17.19-5.14-5.86-2.12-8.2-5.71-8-10.77.19-4.67,3.34-8.24,9.26-9.75,8.88-2.28,17.18-1.07,24.38,5.06,1.33,1.13,2.63,2.3,4,3.55l6.53-6.87c-10.33-12.58-33.9-15.53-46.57-6-11.84,8.93-10.35,25.9,3,32.35,3.71,1.79,7.8,2.81,11.75,4.06,5.7,1.8,11.61,3.06,17.12,5.32,6.24,2.56,8.58,6.94,8.13,12.92-.4,5.21-3.91,9.1-10.33,10.71-12.72,3.2-23.78.58-32.32-10.35l-7.75,5.61c9.64,15,35.09,19.7,50.91,9.78C374.36,524.42,373.93,505.14,359.67,497.33Z" transform="translate(1063.63 -220.01)"/><path class="cls-1" d="M-541.6,475.15c1.52,2.1,2.84,4.34,4.36,6.69l8.61-4.81c-5.81-11.52-14.16-18.8-26.77-19.81-12.94-1-24.06,3.31-30.69,14.76-9.87,17-9.82,34.78.35,51.68,6.69,11.13,17.56,15.45,30.42,14.17s21-8.86,26.29-20.55l-7.89-4.36c-1.51,2.47-2.64,4.5-3.94,6.42-9.22,13.56-27.76,13.64-36.15-.43-8.2-13.76-8.21-28.5-.41-42.38S-551,462.17-541.6,475.15Z" transform="translate(1063.63 -220.01)"/><path class="cls-1" d="M155.87,465c-1.87,7.39-4.75,14.52-7.23,21.76q-6,17.6-12,35.17l-1.23-.1-18.6-54.74c-3.16-9.3-3.16-9.3-13.63-7.82a19.45,19.45,0,0,0,.54,2.34c8.59,24,17.31,47.85,25.7,71.86,1.47,4.18,4.31,3.13,7.14,3.41,3.05.3,4.67-.58,5.8-3.78,7.43-21.18,15.13-42.27,22.74-63.38,1.23-3.42,2.41-6.85,3.72-10.58-1.56-.14-2.7-.16-3.81-.36C159.9,457.89,157.22,459.67,155.87,465Z" transform="translate(1063.63 -220.01)"/><path class="cls-1" d="M456.63,528.16c-1.73,0-3.05,0-4.36,0-11.77.6-14.73-2.13-14.77-13.76,0-13,0-26,0-39v-7.91h18.45v-8.92H437.49v-20c0-9,0-9-9.12-8.09-.29,0-.55.33-1.34.82v27.59H413.64c.15,3.28.26,5.85.4,8.75h13.09c0,16.23,0,31.69,0,47.15a63.41,63.41,0,0,0,.73,9.43c1,6.41,4.78,10.84,11.08,12,5.71,1.07,11.65,1,17.95,1.43,0-2.66,0-4,0-5.27S456.72,529.58,456.63,528.16Z" transform="translate(1063.63 -220.01)"/><path class="cls-1" d="M1185.93,515.48c0-9.83,0-19.66,0-29.5V467.46h18.54v-8.89h-18.68v-28h-10.24V458.9h-13.23v9h13.4v6c0,15.17-.11,30.34.06,45.5.11,9.77,4,15.46,12.16,17.08,5.41,1.07,11.08.82,17,1.19V528c-2.06.1-3.85.23-5.64.29C1189.22,528.59,1186,525.49,1185.93,515.48Z" transform="translate(1063.63 -220.01)"/><path class="cls-1" d="M773.93,515.21q-.06-21.5,0-43c0-1.43.19-2.87.32-4.76h18.3v-8.73H773.92V430.6H763.71v28.3H750.24v8.79h13.47v6c0,15.5,0,31,.1,46.49.06,7.22,2.66,13.17,10,15.72a32.56,32.56,0,0,0,19,.81V528c-2,.11-3.65.21-5.3.27C777.15,528.63,774,525.59,773.93,515.21Z" transform="translate(1063.63 -220.01)"/><path class="cls-1" d="M673.91,449.66c.2,2.91,0,5.84,0,9.34H660.58v8.9H674v68.17h10.14V467.63h15.52v-9H684.57c-1.55-19.23-.48-22.4,16.24-22.89v-8.18C684.88,425.12,672.69,431.89,673.91,449.66Z" transform="translate(1063.63 -220.01)"/><path class="cls-1" d="M269.14,473.14V459h-9.83v77h9.91v-5.69c0-12.48,0-25,0-37.45a15.13,15.13,0,0,1,.8-5.84c5.1-11.77,13.76-18.91,26.86-20,1.27-.11,2.54-.3,3.82-.45.44-3.25.84-6.15,1.28-9.4C287.87,456.43,277.79,462.64,269.14,473.14Z" transform="translate(1063.63 -220.01)"/><path class="cls-1" d="M1119.84,473.23V459h-9.79v77.07h9.9v-5.19c0-12.82-.12-25.64.1-38.46a19.57,19.57,0,0,1,2.13-8.49c6-11.47,15.88-17,29.15-17.11.43-3.24.83-6.27,1.28-9.64C1138.38,456.42,1128.36,462.74,1119.84,473.23Z" transform="translate(1063.63 -220.01)"/><path class="cls-1" d="M-432.93,536.1h9.52V427.26h-9.52Z" transform="translate(1063.63 -220.01)"/><path class="cls-1" d="M-620.87,536h9.59V427.11h-9.59Z" transform="translate(1063.63 -220.01)"/><path class="cls-1" d="M734.73,252.31a4.42,4.42,0,0,0,2.72-.94Q753.26,237,769,222.43l-.63-1.13c-11.94,0-23.88.16-35.82-.09-3.46-.08-5,1.24-6.32,4.16-2.64,5.91-5.59,11.69-8.38,17.53-1.39,2.91-2.72,5.85-4.39,9.45C721.13,252.35,727.93,252.39,734.73,252.31Z" transform="translate(1063.63 -220.01)"/><path class="cls-1" d="M67,252.21c1.26,0,2.62-1.3,3.69-2.26,6.06-5.47,12-11,18-16.55,4-3.67,7.93-7.36,13-12.06-14.42,0-27.34,0-40.26.07a3.14,3.14,0,0,0-2.28,1.52c-4.7,9.51-9.3,19.06-14.29,29.39C52.82,252.32,59.92,252.43,67,252.21Z" transform="translate(1063.63 -220.01)"/><path class="cls-1" d="M439.26,239.12c5.76-6.68,12.87-12.19,20.32-19.1-14.22,0-27.11,0-40,.08a3.58,3.58,0,0,0-2.56,1.77c-4.71,9.46-9.29,19-14.12,28.94a44.37,44.37,0,0,1,4.93.24C420.65,253.22,430.73,249,439.26,239.12Z" transform="translate(1063.63 -220.01)"/><path class="cls-1" d="M77.26,536.14h9.48v-77H77.26Z" transform="translate(1063.63 -220.01)"/><path class="cls-1" d="M389,536.14h9.54V459.08H389Z" transform="translate(1063.63 -220.01)"/><path class="cls-1" d="M86.62,428.18H77.15V440.1h9.47Z" transform="translate(1063.63 -220.01)"/><path class="cls-1" d="M398.5,428.14h-9.57v12h9.57Z" transform="translate(1063.63 -220.01)"/></svg>